<?xml version="1.0" encoding="UTF-8"?>
<svg width="62px" height="62px" viewBox="0 0 62 62" version="1.1" xmlns="http://www.w3.org/2000/svg" xmlns:xlink="http://www.w3.org/1999/xlink">
    <!-- Generator: Sketch 58 (84663) - https://sketch.com -->
    <title>accident_nor</title>
    <desc>Created with Sketch.</desc>
    <g id="页面-2" stroke="none" stroke-width="1" fill="none" fill-rule="evenodd">
        <g id="隧道-区段-设备" transform="translate(-963.000000, -546.000000)">
            <g id="accident_nor" transform="translate(963.000000, 546.000000)">
                <path d="M31,62 C48.1208272,62 62,48.1208272 62,31 C62,13.8791728 48.1208272,0 31,0 C13.8791728,0 0,13.8791728 0,31 C0,48.1208272 13.8791728,62 31,62 Z" id="路径" fill-opacity="0.4" fill="#E70000" fill-rule="nonzero"></path>
                <path d="M31,56 C17.1928813,56 6,44.8071187 6,31 C6,17.1928813 17.1928813,6 31,6 C44.8071187,6 56,17.1928813 56,31 C56,44.8071187 44.8071187,56 31,56 Z" id="路径-5" fill-opacity="0.4" fill="#E70000" fill-rule="nonzero"></path>
                <path d="M31,57.5 C45.6355459,57.5 57.5,45.6355459 57.5,31 C57.5,16.3644541 45.6355459,4.5 31,4.5 C16.3644541,4.5 4.5,16.3644541 4.5,31 C4.5,45.6355459 16.3644541,57.5 31,57.5 Z" id="路径" fill="#FFFFFF" fill-rule="nonzero"></path>
                <path d="M31,54.5 C18.0213084,54.5 7.5,43.9786916 7.5,31 C7.5,18.0213084 18.0213084,7.5 31,7.5 C43.9786916,7.5 54.5,18.0213084 54.5,31 C54.5,43.9786916 43.9786916,54.5 31,54.5 Z" id="路径" fill="#E70000" fill-rule="nonzero"></path>
                <path d="M30.2525256,20.3317511 L30.284923,20.4623098 L31.3403303,24.5407165 C31.4615461,25.0053858 31.8167178,25.3039055 32.2678195,25.3066093 C32.9104631,25.3100785 33.3636705,24.7137096 33.2014132,24.0779368 L32.1058108,19.856636 C32.0284319,19.5602307 31.8403184,19.3366938 31.5640535,19.217706 C31.2166049,19.0684041 30.8669725,19.1153334 30.5785446,19.3567852 C30.2799781,19.6068948 30.1596364,19.9551739 30.2525256,20.3317511 Z" id="路径" fill="#FFFFFF" fill-rule="nonzero"></path>
                <polygon id="路径" fill="#FFFFFF" fill-rule="nonzero" points="31.010892 22.2734743 31.2529118 22.2108134 31.1900734 22.0991356"></polygon>
                <path d="M31.8241513,24.4145528 L30.7379473,20.2118939 C30.6915995,20.0239975 30.7449281,19.86966 30.8995594,19.7401251 C31.0414662,19.6213307 31.1903793,19.6013428 31.36646,19.6770063 C31.499225,19.7341886 31.5831107,19.8338707 31.6220197,19.9829142 L32.716939,24.2015682 C32.7990377,24.5232558 32.5824255,24.8082925 32.2706649,24.8066097 C32.0543394,24.8053128 31.8900698,24.6672453 31.8241513,24.4145528 Z" id="路径" fill="#E70000" fill-rule="nonzero"></path>
                <polygon id="路径" fill="#FFFFFF" fill-rule="nonzero" points="36.2193791 25.8621825 36.014408 25.7191751 36.2193791 26.1121825"></polygon>
                <path d="M36.0142867,25.7189421 C35.7935494,26.0356045 35.7621538,26.390672 35.929588,26.7349742 C36.0936592,27.0727465 36.3905146,27.2632265 36.7447542,27.2758033 C37.0663406,27.272395 37.30565,27.1575193 37.5134133,26.9362981 L40.372179,23.8932127 C40.4292365,23.8321087 40.4602288,23.7969446 40.4941426,23.752107 C40.9310664,23.1757234 40.6119892,22.3257635 39.9050219,22.1987413 C39.5560142,22.1361251 39.253532,22.2554834 38.9993995,22.5265186 L36.1298536,25.580931 C36.077218,25.6372274 36.0463349,25.6730993 36.0142867,25.7189421 Z" id="路径" fill="#FFFFFF" fill-rule="nonzero"></path>
                <path d="M36.4244088,26.0052308 L36.4633528,25.9569837 L39.3641574,22.8685005 C39.5087913,22.7142469 39.6457418,22.6602067 39.8166637,22.6908722 C40.1526583,22.751241 40.3092397,23.1683433 40.0955258,23.4502718 L40.0072462,23.5514182 L37.1488517,26.5941069 C37.0305499,26.7200717 36.9180802,26.7740605 36.750761,26.7759771 C36.5919581,26.7700635 36.4619895,26.6866679 36.3792876,26.51641 C36.2919119,26.3367357 36.3062493,26.1745875 36.4244088,26.0052308 Z" id="路径" fill="#E70000" fill-rule="nonzero"></path>
                <path d="M35.6712757,24.3730331 L37.9140272,19.541586 C37.9843998,19.3889618 38.0377941,19.2699591 38.0958097,19.1367603 C38.3591654,18.5312856 38.0079112,17.8775433 37.3646338,17.7845558 L37.1860006,17.7657989 L36.9343394,17.7506462 L36.511594,17.7730896 C36.4292544,17.779413 36.3668998,17.7871068 36.2957972,17.7995159 C35.9823119,17.8545381 35.668033,17.9230782 35.3542044,18.0045883 C35.121317,18.0648719 34.9516238,18.2165104 34.9042831,18.4646702 L34.4440732,20.8494892 L34.1091425,22.5333839 L33.8551451,23.7729947 C33.8000393,24.040196 33.8411087,24.2904071 33.9822645,24.5145986 C34.1590735,24.7953198 34.421756,24.9532894 34.7340419,24.9665609 L34.8534034,24.9647121 C35.2263582,24.9380796 35.5074763,24.7267816 35.6712757,24.3730331 Z" id="路径" fill="#FFFFFF" fill-rule="nonzero"></path>
                <path d="M34.8176624,24.4659911 C34.6394994,24.4787772 34.5071225,24.409728 34.4053618,24.2481616 C34.3346735,24.1358904 34.3152415,24.0175035 34.3448148,23.8741062 L34.7511354,21.8767516 L35.1613922,19.7792666 L35.3954379,18.5583024 C35.4028943,18.5192159 35.4198325,18.5040798 35.4796997,18.488583 C35.6804909,18.436432 35.8812837,18.3898547 36.0817007,18.3490002 L36.3819972,18.2920293 C36.4367473,18.2824742 36.4875487,18.2763255 36.5588379,18.2709989 L36.9343205,18.2492844 L37.2322178,18.2717957 L37.2928503,18.279376 C37.6061398,18.324663 37.7706292,18.6308051 37.6373543,18.9372144 L37.4591049,19.3340933 L35.2175369,24.1629827 C35.1422641,24.3255454 35.0420825,24.4185062 34.9047314,24.4525455 L34.8176624,24.4659911 Z" id="路径" fill="#E70000" fill-rule="nonzero"></path>
                <path d="M27.5791605,28.9781681 C27.6077486,28.9139951 27.6142673,28.8610677 27.6087218,28.7965351 L27.5743776,28.5681223 L27.5312552,28.3298131 C27.5230301,28.2699514 27.5223204,28.2311688 27.5274164,28.1932071 C27.5746027,27.8395158 27.8224845,27.5818391 28.1743471,27.5085611 L28.2953532,27.491086 C28.4655729,27.4766316 28.5933316,27.4094189 28.7107168,27.283086 C29.504229,26.4287657 30.4487752,25.8493656 31.548144,25.5452995 L32.6823123,25.2693221 L32.171669,24.9549334 C32.0660713,24.8899199 31.9549616,24.847408 31.8359017,24.8232756 C31.7567805,24.8072385 31.6894291,24.7998109 31.6029469,24.7978019 L31.1966615,24.8011493 L31.1758804,24.7998683 C30.9006387,24.7805344 30.6660929,24.8179182 30.4677151,24.9306214 L29.4801125,21.8621266 C29.2038915,21.0036024 28.4566559,20.4442083 27.5766443,20.4437467 L18.9319187,20.4439491 C18.0678015,20.4444114 17.3182449,21.0006507 17.0450487,21.8383327 L16.0329242,24.9783852 C15.8722288,24.8642899 15.6855335,24.8043214 15.4735472,24.800507 C15.2341767,24.7964016 14.9898496,24.7966059 14.7391605,24.800908 C14.4566375,24.8054428 14.2084946,24.9089134 14.021185,25.11299 C13.7555398,25.4027716 13.6786521,25.7569805 13.8187749,26.1194535 C13.9694475,26.5091215 14.2833566,26.7322401 14.6969101,26.7516886 L14.9188131,26.7577094 L15.2290404,26.7562208 L15.2290404,33.9924643 L15.449576,34.0186386 C15.9501136,34.0780449 16.4269578,34.0472931 16.9001734,33.9246767 C17.5815799,33.74792 17.9866454,33.2825799 18.0905297,32.5716283 C18.1275519,32.3180105 18.1161631,32.0745125 18.0529979,31.8379996 L27.3414809,31.8379996 L27.0012474,31.4883151 C27.0251726,30.6178452 27.2182353,29.7881335 27.5791605,28.9781681 Z" id="路径" fill="#FFFFFF" fill-rule="nonzero"></path>
                <path d="M26.5064948,31.3379995 L17.2802277,31.3379996 L17.466892,31.7020621 C17.5978455,31.9574687 17.6373411,32.2146486 17.5957784,32.4993707 C17.5205644,33.0141114 17.2584921,33.3151807 16.7746935,33.4406779 C16.4318739,33.529507 16.0877604,33.5629644 15.7290404,33.5417871 L15.7290404,26.254342 L14.7880251,26.2550035 L14.7204533,26.2522432 C14.5033733,26.2420344 14.3639245,26.1429178 14.2851335,25.9391491 C14.2155286,25.7590934 14.24914,25.6042512 14.3896506,25.4509738 C14.4805396,25.3519489 14.597332,25.3032488 14.7474625,25.300839 C14.992843,25.2966282 15.2314649,25.2964286 15.4647625,25.3004298 C15.6607565,25.3039565 15.801891,25.3902249 15.9277889,25.5929478 L16.212642,26.0516224 L17.5204203,21.9933224 C17.7271731,21.3593712 18.286507,20.9442945 18.9322061,20.943949 L27.5763947,20.9437467 C28.2367571,20.9440931 28.7936319,21.3609796 29.0041627,22.0153316 L30.0887918,25.3789391 L30.150262,25.5575747 C29.5781632,25.8539242 29.0539027,26.2359089 28.5781997,26.7024592 L28.344398,26.9427765 C28.3202908,26.9687213 28.3057079,26.980814 28.2867807,26.9870021 L28.253398,26.9928494 C27.6084529,27.0467004 27.1158623,27.4970428 27.0318346,28.1268854 C27.0171711,28.2361166 27.0216854,28.3219085 27.0458,28.4626893 L27.1071611,28.8108787 L27.1150511,28.7913164 C26.7512852,29.6128096 26.5475913,30.456742 26.5064948,31.3379995 Z" id="路径" fill="#FFFFFF" fill-rule="nonzero"></path>
                <path d="M46.9769656,33.2255086 L45.7338699,29.3905854 C45.4110495,28.3977022 44.4932216,27.7165638 43.4737974,27.7165638 L32.8238321,27.7165638 C31.7864881,27.7169597 30.875862,28.3867939 30.5482985,29.3887882 L29.2815158,33.2897795 C29.1217711,33.1571893 28.941375,33.0791235 28.740022,33.0701318 L28.3403314,33.0550719 C27.9821373,33.0449158 27.7336487,33.0500185 27.4618124,33.075308 C27.0123633,33.1171251 26.6809948,33.4185145 26.5478865,33.8744246 C26.4192638,34.3167295 26.5444191,34.7220808 26.8893932,35.034566 C27.1012558,35.2262247 27.3608428,35.3217467 27.6510762,35.3217467 L28.3109914,35.3217467 L28.3109914,44.1791785 L28.5339048,44.2034734 C29.1722254,44.2730428 29.7549205,44.2384551 30.3128301,44.0858101 C31.2743501,43.8225569 31.7510177,43.1470348 31.7370906,42.0611747 C31.7352042,41.9052399 31.713757,41.7807233 31.6577208,41.5557778 L44.5011423,41.5557778 L44.4629794,41.7208256 L44.4394516,41.8536099 C44.4289877,41.9243396 44.4229013,41.9917632 44.4215806,42.0579795 C44.4054576,42.8655805 44.6455485,43.4632848 45.2491238,43.8242671 C45.8441743,44.1801256 46.4401503,44.2713374 47.3790464,44.2247248 L47.8539503,44.1942518 L47.8539503,35.3207238 L48.4252935,35.3214777 L48.5800593,35.3170156 C49.187765,35.2936903 49.6689104,34.7745157 49.659061,34.1638739 C49.650173,33.6465012 49.2777678,33.1902896 48.7846285,33.0850351 L48.6687018,33.0671177 C48.5800661,33.058474 48.5030069,33.0540432 48.4001072,33.0519431 L47.8352108,33.0463645 C47.4892469,33.0321837 47.210059,33.0810399 46.9769656,33.2255086 Z" id="路径" fill="#FFFFFF" fill-rule="nonzero"></path>
                <path d="M45.5057568,43.3951523 C45.0802472,43.1406663 44.9085965,42.7133435 44.9214811,42.0679546 L44.9252865,41.9999599 L44.9340681,41.9267844 C44.9442068,41.8582533 44.9562644,41.80004 44.9824958,41.692301 L45.0624391,41.3553773 L45.1230845,41.0557778 L31.0335066,41.0557778 L31.1179859,41.4598331 L31.1554521,41.6090513 C31.2150858,41.8418404 31.2356932,41.9486868 31.2371294,42.0674051 C31.2482168,42.9318596 30.9163514,43.4021715 30.180837,43.6035469 C29.7513115,43.7210658 29.3017815,43.7597153 28.8109914,43.7262395 L28.8109914,34.8217467 L27.6510762,34.8217467 C27.482226,34.8217467 27.3426901,34.7704007 27.2249451,34.6638843 C27.0186161,34.4769868 26.9541191,34.2680948 27.0279233,34.0142982 C27.1059426,33.7470743 27.2731175,33.5950238 27.5081306,33.573158 L27.7570424,33.5559692 C28.0098229,33.5446704 28.2881756,33.5505878 28.7177947,33.5696375 C28.8411595,33.5751465 28.962732,33.65083 29.082158,33.7978532 L29.4774982,34.3037342 L31.0235634,29.5441051 C31.2843378,28.746414 32.0042332,28.2168766 32.8239275,28.2165638 L43.4737974,28.2165638 C44.2745521,28.2165638 45.0018891,28.7563352 45.2583556,29.5451366 L46.5988285,33.67463 L46.7736684,34.1836534 L47.0575209,33.8204184 C47.2080599,33.6277796 47.3909169,33.5504749 47.6828335,33.5443467 L48.3825661,33.5517314 L48.5459012,33.5585106 L48.6446339,33.5659374 C48.9126116,33.5931329 49.1537926,33.8651118 49.158977,34.1721887 C49.1645631,34.5132136 48.894542,34.8045768 48.5610236,34.8173781 L48.2530836,34.823104 L47.3539503,34.8193693 L47.3539503,43.7253414 C46.5081686,43.7671797 45.9963714,43.6885549 45.5057568,43.3951523 Z" id="路径" fill="#FFFFFF" fill-rule="nonzero"></path>
                <path d="M44.4235288,38.6298012 C43.6724353,38.6291942 43.0635284,38.0271475 43.0660307,37.2871591 C43.0685485,36.5551125 43.6741579,35.9668751 44.4251038,35.967229 C45.1835305,35.9674315 45.7846612,36.5602214 45.7822079,37.3047623 C45.7794443,38.0336728 45.1679289,38.6302058 44.4235288,38.6295988 L44.4235288,38.6298012 Z" id="路径" fill="#E70000"></path>
                <path d="M31.7398872,38.6298071 C30.9876125,38.6319763 30.3776228,38.0328634 30.3783604,37.292521 C30.3793454,36.5568829 30.9787536,35.9694043 31.7310775,35.9670715 C32.4879785,35.9649023 33.0966394,36.5598167 33.0945285,37.2994004 C33.0924067,38.0295249 32.483549,38.6274237 31.7398872,38.6298071 L31.7398872,38.6298071 Z" id="路径" fill="#E70000"></path>
                <path d="M31.7422004,33.6483226 C32.0025066,32.6870307 32.2636003,31.7259412 32.524694,30.7648518 C32.7363251,29.9855093 33.3630977,29.4968712 34.1530722,29.4966689 C36.886706,29.4964665 39.6204875,29.4964665 42.3541213,29.4966689 C43.1448833,29.4968712 43.7733292,29.978023 43.990571,30.7565054 C44.2987157,31.8608479 44.6020809,32.9666066 44.9074258,34.0717584 C44.9158418,34.1021591 44.9222399,34.1329646 44.934298,34.1831942 L31.6020809,34.1831942 C31.65051,33.9978556 31.6949033,33.8227856 31.7420035,33.6483226 L31.7422004,33.6483226 Z" id="路径" fill="#E70000"></path>
                <path d="M16.9480063,28.33977 C16.9374739,27.74263 17.4309681,27.2411436 18.0375126,27.2328479 C18.6484867,27.2247545 19.1441463,27.700949 19.1548755,28.3061825 C19.165654,28.9147545 18.6746206,29.4093615 18.0544431,29.4150774 C17.4625159,29.4203887 16.9585878,28.9305872 16.9480063,28.33977 L16.9480063,28.33977 Z" id="路径" fill="#E70000"></path>
                <path d="M17.9838666,25.6187233 C18.2169069,24.7501008 18.4491105,23.8812759 18.6846608,23.0134626 C18.8718805,22.3238556 19.3654239,21.9423031 20.0625268,21.9423031 C22.2713156,21.9421514 24.4799074,21.9421514 26.6886469,21.9425054 C27.3117774,21.9425054 27.8335219,22.3345288 28.0059766,22.9478556 C28.2637728,23.8654938 28.5117749,24.7856611 28.7634683,25.7050696 C28.767504,25.7196883 28.7661259,25.7362798 28.7688329,25.7734588 L17.952368,25.7734588 C17.963491,25.7179179 17.9708242,25.6675366 17.9838666,25.6187233 L17.9838666,25.6187233 Z" id="路径" fill="#E70000"></path>
            </g>
        </g>
    </g>
</svg>