<?xml version="1.0" encoding="UTF-8"?>
<svg width="16px" height="16px" viewBox="0 0 16 16" version="1.1" xmlns="http://www.w3.org/2000/svg" xmlns:xlink="http://www.w3.org/1999/xlink">
    <!-- Generator: Sketch 58 (84663) - https://sketch.com -->
    <g id="V1.0.0" stroke="none" stroke-width="1" fill="none" fill-rule="evenodd">
        <g id="交通事件发布" transform="translate(-51.000000, -455.000000)">
            <g id="编组-6" transform="translate(20.000000, 121.000000)">
                <g id="administration" transform="translate(31.000000, 334.000000)">
                    <g id="编组" transform="translate(0.500000, 1.029746)">
                        <path d="M5.00244155,9.76996262e-15 C4.84254577,-0.000467934643 4.68403028,0.0307264316 4.53622183,0.0918137555 C4.23867254,0.219292629 3.94928662,0.365247558 3.66983873,0.528613755 C3.38763028,0.694286995 3.11658239,0.878239108 2.85846972,1.07934615 C2.51207817,1.3594053 2.33222746,1.79667854 2.38122746,2.23941376 L2.49137394,3.25267854 C2.5536838,3.81179122 2.24812887,4.34718277 1.73513732,4.57796587 L0.817309155,4.98911235 C0.410461268,5.16927854 0.125788028,5.54700249 0.0647007042,5.98774615 C-0.0215669014,6.64205883 -0.0215669014,7.30485038 0.0647007042,7.95912361 C0.125019014,8.39907854 0.408233099,8.77666446 0.813621831,8.9577377 L1.73513732,9.37259122 C2.24812887,9.6033546 2.5536838,10.1387461 2.49137394,10.6978785 L2.38122746,11.7147518 C2.33092606,12.1584926 2.51270915,12.5968307 2.86215704,12.8748983 C3.37761338,13.2763433 3.94427817,13.607256 4.54722465,13.8587236 C4.6950331,13.9198307 4.85356831,13.951025 5.01346408,13.9505571 C5.28729225,13.9492307 5.55356831,13.8604983 5.77338803,13.6972307 L6.58475704,13.0914842 C7.03397958,12.7585997 7.64800775,12.7585997 8.09730915,13.0914842 L8.9085993,13.6972307 C9.12843873,13.8604983 9.39469507,13.9492307 9.66852324,13.9505571 C9.82849789,13.951025 9.98695423,13.9198307 10.1347627,13.8587236 C10.436157,13.7316588 10.7291514,13.5857631 11.0122275,13.4218447 C11.294357,13.2562504 11.5654049,13.072318 11.8235176,12.8711912 C12.1699092,12.5911321 12.3498387,12.1538785 12.3007599,11.7111236 L12.1906134,10.6978785 C12.1283824,10.1387461 12.4339373,9.6033546 12.9469289,9.37259122 L13.864757,8.96134615 C14.2644275,8.77632925 14.5415683,8.39955178 14.5989486,7.96281094 C14.6852162,7.30849826 14.6852162,6.64568699 14.5989486,5.9913546 C14.5415683,5.55471235 14.2644275,5.17781657 13.864757,4.99281939 L12.9432218,4.57796587 C12.43025,4.34718277 12.1246951,3.81179122 12.1870049,3.25267854 L12.2971514,2.23578559 C12.3483007,1.79267573 12.1679768,1.35447573 11.8199092,1.07563911 C11.3044528,0.674194037 10.737788,0.343301079 10.1347627,0.0918137555 C9.98695423,0.0307264316 9.82849789,-0.000467934643 9.66852324,9.76996262e-15 C9.39469507,0.00130671324 9.12843873,0.0900391076 8.9085993,0.253326432 L8.09730915,0.859053192 C7.64800775,1.19195742 7.03397958,1.19195742 6.58475704,0.859053192 L5.77338803,0.253326432 C5.55356831,0.0900391076 5.28729225,0.00130671324 5.01346408,9.76996262e-15 L5.00244155,9.76996262e-15 Z" id="路径" fill="#FFFFFF"></path>
                        <path d="M5.01346408,1.1013715 C5.05051479,1.1035208 5.08616549,1.11631798 5.11629507,1.13802784 L5.93129225,1.74014615 C6.76669789,2.36673488 7.91536831,2.36673488 8.75077394,1.74014615 L9.56577113,1.13802784 C9.59550634,1.11570671 9.63131479,1.10290953 9.66852324,1.1013715 L9.71259366,1.1013715 C10.224343,1.31665601 10.7056669,1.59809545 11.1443993,1.93839404 C11.1913092,1.98260249 11.2133345,2.04723911 11.203081,2.11092925 L11.0966415,3.12788136 C10.9734021,4.16070671 11.5333627,5.15433207 12.4806894,5.58389545 L13.4021458,5.99874897 C13.4602951,6.02132643 13.5021965,6.07300812 13.5122923,6.13454897 C13.5856838,6.69381939 13.5856838,7.26034615 13.5122923,7.81961657 C13.5008951,7.88062502 13.4594472,7.93169545 13.4021458,7.95549545 L12.4806894,8.36666164 C11.5295965,8.78965883 10.9632275,9.78119404 11.0819317,10.8153405 L11.18845,11.8285856 C11.1986246,11.8922954 11.1766782,11.9569123 11.1296894,12.0011208 C10.9167908,12.1763771 10.6923373,12.3370419 10.4578669,12.4820898 C10.221188,12.6200391 9.97593169,12.7426476 9.72359648,12.8491659 L9.67954577,12.8491659 C9.64249507,12.8470166 9.60682465,12.8342194 9.57679366,12.8124307 L8.76179648,12.2104109 C7.92639085,11.5838025 6.77772042,11.5838025 5.94229507,12.2104109 L5.11629507,12.8124307 C5.08648099,12.8348504 5.05067254,12.8476476 5.01346408,12.8491659 L4.96941338,12.8491659 C4.45764437,12.6338814 3.97632042,12.3524419 3.5376669,12.0121433 C3.49067817,11.9679349 3.46865282,11.903318 3.47890634,11.8396081 L3.58534577,10.822656 C3.70858521,9.78983066 3.14870352,8.7962053 2.20137676,8.36666164 L1.26521056,7.95180812 C1.20698239,7.92923066 1.16515986,7.87752925 1.15506408,7.8159884 C1.08159366,7.25665883 1.08159366,6.69021094 1.15506408,6.1309208 C1.16646127,6.06993207 1.20790915,6.01878277 1.26521056,5.99506164 L2.20137676,5.58389545 C3.15239085,5.16079967 3.71875986,4.16934333 3.60005563,3.13521657 L3.4936162,2.12195178 C3.48336268,2.05824192 3.50538803,1.99362502 3.55229789,1.94941657 C3.76519648,1.77417995 3.98965,1.61351516 4.2241993,1.46846728 C4.46081901,1.33051798 4.70605563,1.20788981 4.95839085,1.1013715 L5.00244155,1.1013715 L5.01346408,1.1013715 Z" id="路径" fill="#0A192F"></path>
                        <path d="M7.34099563,4.77253038 C6.12447451,4.77253038 5.13832239,5.75874164 5.13832239,6.97528249 C5.13832239,8.19180361 6.12447451,9.17795573 7.34099563,9.17795573 C8.55751676,9.17795573 9.54374775,8.19180361 9.54374775,6.97528249 C9.54374775,5.75874164 8.55751676,4.77253038 7.34099563,4.77253038" id="路径" fill="#FFFFFF"></path>
                        <path d="M7.34099563,5.87389657 C7.94926606,5.87389657 8.44236183,6.36701207 8.44236183,6.97528249 C8.44236183,7.58353319 7.94926606,8.07664869 7.34099563,8.07664869 C6.73272521,8.07664869 6.23962944,7.58353319 6.23962944,6.97528249 C6.23962944,6.36701207 6.73272521,5.87389657 7.34099563,5.87389657" id="路径" fill="#0A192F"></path>
                    </g>
                </g>
            </g>
        </g>
    </g>
</svg>