<?xml version="1.0" encoding="UTF-8"?>
<svg width="20px" height="20px" viewBox="0 0 20 20" version="1.1" xmlns="http://www.w3.org/2000/svg" xmlns:xlink="http://www.w3.org/1999/xlink">
    <!-- Generator: Sketch 58 (84663) - https://sketch.com -->
    <g id="规范" stroke="none" stroke-width="1" fill="none" fill-rule="evenodd">
        <g transform="translate(-89.000000, -3517.000000)" id="03">
            <g transform="translate(40.000000, 3223.000000)">
                <g id="编组-7" transform="translate(40.000000, 152.000000)">
                    <g id="overview" transform="translate(9.000000, 142.000000)">
                        <path d="M7.58205073,0.0173422935 L1.27176819,0.0173422935 C0.568827227,0.0173422935 0,0.586169521 0,1.28911048 L0,7.59702291 C0,8.29999277 0.568827227,8.8687911 1.27176819,8.8687911 L7.57968061,8.8687911 C8.28265048,8.8687911 8.85145618,8.29999277 8.85145618,7.59702291 L8.85145618,1.28911048 C8.85381892,0.586169521 8.28502059,0.0173422935 7.58205073,0.0173422935 Z M17.92037,0.0173422935 L11.6100874,0.0173422935 C10.9071176,0.0173422935 10.3383192,0.586169521 10.3383192,1.28911048 L10.3383192,7.59702291 C10.3383192,8.29999277 10.9071176,8.8687911 11.6100874,8.8687911 L17.92037,8.8687911 C18.6233109,8.8687911 19.1921382,8.29999277 19.1921382,7.59702291 L19.1921382,1.28911048 C19.1921382,0.586169521 18.6233109,0.0173422935 17.92037,0.0173422935 Z M7.58205073,10.1961124 L1.27176819,10.1961124 C0.568827227,10.1961124 0,10.7649397 0,11.4678806 L0,17.775793 C0,18.4787629 0.568827227,19.0475612 1.27176819,19.0475612 L7.57968061,19.0475612 C8.28265048,19.0475612 8.85145618,18.4787629 8.85145618,17.775793 L8.85145618,11.4678806 C8.85381892,10.7649397 8.28502059,10.1961124 7.58205073,10.1961124 Z" id="Fill-1" fill="#B9EDFF"></path>
                        <path d="M17.92037,10.4761327 L11.6100874,10.4761327 C10.9071176,10.4761327 10.3383192,11.0449599 10.3383192,11.7479009 L10.3383192,18.0558133 C10.3383192,18.7587831 10.9071176,19.3275815 11.6100874,19.3275815 L17.92037,19.3275815 C18.6233109,19.3275815 19.1921382,18.7587831 19.1921382,18.0558133 L19.1921382,11.7479009 C19.1921382,11.0449599 18.6233109,10.4761327 17.92037,10.4761327 Z" id="Fill-3" fill="#519FBA"></path>
                    </g>
                </g>
            </g>
        </g>
    </g>
</svg>