<?xml version="1.0" encoding="UTF-8"?>
<svg width="16px" height="16px" viewBox="0 0 16 16" version="1.1" xmlns="http://www.w3.org/2000/svg" xmlns:xlink="http://www.w3.org/1999/xlink">
    <!-- Generator: Sketch 58 (84663) - https://sketch.com -->
    <g id="V1.0.0" stroke="none" stroke-width="1" fill="none" fill-rule="evenodd">
        <g id="交通事件发布" transform="translate(-50.000000, -333.000000)">
            <g id="编组-6" transform="translate(20.000000, 121.000000)">
                <g id="information" transform="translate(30.000000, 212.000000)">
                    <g id="编组-3" transform="translate(0.400000, 2.031669)">
                        <path d="M13.9292857,5.32907052e-15 L1.39304082,5.32907052e-15 C0.624836735,5.32907052e-15 2.93987057e-13,0.624673469 2.93987057e-13,1.39302041 L2.93987057e-13,10.4469796 C2.93987057e-13,11.2151633 0.624673469,11.8400204 1.39304082,11.8400204 L5.97991837,11.8400204 L6.67642857,12.5365306 C6.94777551,12.8082041 7.30453061,12.9438163 7.66118367,12.9438163 C8.01793878,12.9438163 8.37467347,12.8082041 8.64604082,12.5365306 L9.34255102,11.8400204 L13.929449,11.8400204 C14.6976327,11.8400204 15.3224898,11.2153265 15.3224898,10.4469796 L15.3224898,1.39302041 C15.3223061,0.624673469 14.6976327,5.32907052e-15 13.9292857,5.32907052e-15 L13.9292857,5.32907052e-15 Z" id="路径" fill="#FFFFFF"></path>
                        <path d="M14.1600041,10.8921678 L9.40359165,10.8921678 C9.01772439,10.8921678 8.65530587,11.0490249 8.38230155,11.3341434 L7.66002524,12.0883306 L6.93783359,11.3341434 C6.6648716,11.0491796 6.30236843,10.8921678 5.91656465,10.8921678 L1.16000408,10.8921678 L1.16000408,1.08833061 L14.1600041,1.08833061 L14.1600041,10.8921678 Z" id="路径" fill="#0A192F"></path>
                        <path d="M4.17898776,8.35755102 L8.35770204,8.35755102 C8.7423551,8.35755102 9.05421224,8.04567347 9.05421224,7.66104082 C9.05421224,7.27638776 8.7423551,6.96461224 8.35770204,6.96461224 L4.17898776,6.96461224 C3.79431429,6.96461224 3.48247755,7.27638776 3.48247755,7.66104082 C3.48247755,8.04567347 3.79431429,8.35755102 4.17898776,8.35755102" id="路径" fill="#FFFFFF"></path>
                        <path d="M4.17898776,4.8752449 L11.143498,4.8752449 C11.5281306,4.8752449 11.8400082,4.56344898 11.8400082,4.17881633 C11.8400082,3.79408163 11.5281306,3.48230612 11.143498,3.48230612 L4.17898776,3.48230612 C3.79431429,3.48230612 3.48247755,3.79408163 3.48247755,4.17881633 C3.48247755,4.56344898 3.79431429,4.8752449 4.17898776,4.8752449" id="路径" fill="#FFFFFF"></path>
                    </g>
                </g>
            </g>
        </g>
    </g>
</svg>