<?xml version="1.0" encoding="UTF-8"?>
<svg width="24px" height="24px" viewBox="0 0 24 24" version="1.1" xmlns="http://www.w3.org/2000/svg" xmlns:xlink="http://www.w3.org/1999/xlink">
    <!-- Generator: Sketch 58 (84663) - https://sketch.com -->
    <g id="规范" stroke="none" stroke-width="1" fill="none" fill-rule="evenodd">
        <g transform="translate(-325.000000, -3512.000000)" fill="#B9EDFF" id="03">
            <g transform="translate(40.000000, 3223.000000)">
                <g id="编组-7" transform="translate(40.000000, 152.000000)">
                    <g id="编组-4" transform="translate(64.000000, 134.000000)">
                        <g id="equipment_nor" transform="translate(181.000000, 3.000000)">
                            <path d="M5.28849569,2.02196552 C4.60877155,2.02196552 3.99084052,2.14561207 3.37290948,2.45451724 C3.00209052,2.63989655 2.87859483,3.13421121 3.1875,3.44323707 L5.28849569,5.54411207 L4.54703879,6.28571983 L2.4460431,4.18472414 C2.32239655,4.06119828 2.19887069,3.99931466 2.01349138,3.99931466 C1.76631897,3.99931466 1.58093966,4.12296121 1.4572931,4.37010345 C0.653952586,5.97666379 0.90124569,8.01589655 2.26063362,9.37531466 C3.12573707,10.2404181 4.17625,10.6112069 5.28849569,10.6112069 C5.78281034,10.6112069 6.27721552,10.549444 6.70976724,10.3640345 L13.5688017,17.2230991 C13.0126336,18.7678966 13.3834224,20.4981034 14.557431,21.7339957 C15.4225345,22.599069 16.4730172,22.9698578 17.5852931,22.9698578 C18.2651078,22.9698578 18.8829181,22.8462414 19.5008793,22.5373362 C19.8716681,22.3519267 19.9953147,21.8574914 19.6862586,21.5485862 L17.5852931,19.4475905 L18.3268707,18.7061336 L20.4278664,20.8071293 C20.5513621,20.9306552 20.6750086,20.9923879 20.8603879,20.9923879 C21.1075603,20.9923879 21.2929397,20.8688922 21.4164655,20.6217198 C22.219806,19.0150388 21.9726638,16.9759267 20.613125,15.6164181 C19.7480216,14.7513147 18.6976595,14.3806466 17.5852931,14.3806466 C17.0909784,14.3806466 16.5966638,14.4423793 16.1022284,14.6277888 L9.24319397,7.76875431 C9.79939224,6.2239569 9.42860345,4.49375 8.25459483,3.25785776 C7.45122414,2.45451724 6.40074138,2.02196552 5.28849569,2.02196552 Z" id="Fill-1"></path>
                            <path d="M7.2040819,13.7626853 C6.89517672,13.7626853 6.58615086,13.8862112 6.33897845,14.1333534 L1.88984483,18.5824871 C1.39553017,19.0768017 1.39553017,19.8183793 1.88984483,20.312694 L3.62005172,22.0429009 C3.86719397,22.2900431 4.17625,22.4136897 4.48515517,22.4136897 C4.79418103,22.4136897 5.10308621,22.2900431 5.35025862,22.0429009 L9.79939224,17.5938879 C10.2937069,17.0994526 10.2937069,16.3579957 9.79939224,15.863681 L8.06918534,14.1333534 C7.88377586,13.8862112 7.57487069,13.7626853 7.2040819,13.7626853 Z M19.5627629,2.02196552 C19.3773534,2.02196552 19.2537069,2.08372845 19.1302112,2.207375 L16.1022284,5.2352069 C15.8550862,5.48237931 15.8550862,5.8531681 16.1022284,6.10031034 L16.5347802,6.53286207 L13.5069483,9.56069397 C13.2597759,9.80786638 13.2597759,10.1786552 13.5069483,10.4257974 C13.6305647,10.549444 13.8159741,10.6112069 13.9395,10.6112069 C14.0631164,10.6112069 14.2485259,10.549444 14.3720517,10.4257974 L17.4000043,7.39796552 L17.832556,7.83051724 C17.9560819,7.95413362 18.1414612,8.01589655 18.2651078,8.01589655 C18.3886336,8.01589655 18.5740129,7.95413362 18.6976595,7.83051724 L21.7254914,4.80265517 C21.9726638,4.55551293 21.9726638,4.18472414 21.7254914,3.93755172 L19.9953147,2.207375 C19.933431,2.08372845 19.7480216,2.02196552 19.5627629,2.02196552 Z" id="Fill-3"></path>
                        </g>
                    </g>
                </g>
            </g>
        </g>
    </g>
</svg>