<?xml version="1.0" encoding="UTF-8"?>
<svg width="16px" height="16px" viewBox="0 0 16 16" version="1.1" xmlns="http://www.w3.org/2000/svg" xmlns:xlink="http://www.w3.org/1999/xlink">
    <!-- Generator: Sketch 58 (84663) - https://sketch.com -->
    <g id="V1.0.0" stroke="none" stroke-width="1" fill="none" fill-rule="evenodd">
        <g id="交通事件发布-选择类型" transform="translate(-49.000000, -177.000000)">
            <g id="编组-6" transform="translate(20.000000, 121.000000)">
                <g id="monitor" transform="translate(29.000000, 56.000000)">
                    <path d="M7.99999687,16.0000031 C3.58871562,16.0000031 -3.12500015e-06,12.4112531 -3.12500015e-06,8.00000313 C-3.12500015e-06,3.58872188 3.58871562,3.12500003e-06 7.99999687,3.12500003e-06 C12.4112469,3.12500003e-06 15.9999969,3.58872188 15.9999969,8.00000313 C15.9999969,12.4112531 12.4112469,16.0000031 7.99999687,16.0000031" id="路径" fill="#FFFFFF"></path>
                    <path d="M7.99999687,1.50000313 C4.41587187,1.50000313 1.49999687,4.41587813 1.49999687,8.00000313 C1.49999687,11.5840969 4.41587187,14.5000031 7.99999687,14.5000031 C11.5840906,14.5000031 14.4999969,11.5840969 14.4999969,8.00000313 C14.4999969,4.41587813 11.5840906,1.50000313 7.99999687,1.50000313" id="路径" fill="#0A192F"></path>
                    <path d="M7.99999688,12.7499938 C6.09765313,12.7499938 4.54990313,11.2022438 4.54990313,9.2999 C4.54990313,7.39755625 6.09765313,5.8499625 7.99999688,5.8499625 C9.90234063,5.8499625 11.4499344,7.39755625 11.4499344,9.2999 C11.4499344,11.2022438 9.90234063,12.7499938 7.99999688,12.7499938" id="路径" fill="#FFFFFF"></path>
                    <path d="M7.99999688,7.3499625 C6.92465313,7.3499625 6.04990313,8.22474375 6.04990313,9.2999 C6.04990313,10.3752125 6.92465313,11.2499938 7.99999688,11.2499938 C9.07518438,11.2499938 9.94993438,10.3752125 9.94993438,9.2999 C9.94993438,8.22474375 9.07518438,7.3499625 7.99999688,7.3499625" id="路径" fill="#0A192F"></path>
                    <path d="M6.99999687,4.2999125 C6.99999687,4.8522875 7.44762188,5.2999125 7.99999687,5.2999125 C8.55221563,5.2999125 8.99999688,4.8522875 8.99999688,4.2999125 C8.99999688,3.7476625 8.55221563,3.2999125 7.99999687,3.2999125 C7.44762188,3.2999125 6.99999687,3.7476625 6.99999687,4.2999125" id="Fill-5" fill="#FFFFFF"></path>
                </g>
            </g>
        </g>
    </g>
</svg>