<?xml version="1.0" encoding="UTF-8"?>
<svg width="16px" height="14px" viewBox="0 0 16 14" version="1.1" xmlns="http://www.w3.org/2000/svg" xmlns:xlink="http://www.w3.org/1999/xlink">
    <!-- Generator: Sketch 58 (84663) - https://sketch.com -->
    <g id="V1.0.0" stroke="none" stroke-width="1" fill="none" fill-rule="evenodd">
        <g id="路侧设备-路侧点-统计" transform="translate(-1501.000000, -575.000000)" fill="#C0C4CC">
            <g id="stretch" transform="translate(1509.000000, 582.000000) rotate(90.000000) translate(-1509.000000, -582.000000) translate(1502.000000, 574.000000)">
                <path d="M0.185623529,8.26460711 C0.332037077,8.42086141 0.516283066,8.51796801 0.704447059,8.53801222 C0.914971123,8.56045214 1.11326702,8.48490705 1.26294973,8.32527211 L6.97090695,2.23678441 L12.6788642,8.32527211 C12.8371316,8.49411727 13.0033098,8.56939617 13.2175522,8.56939617 C13.4318196,8.56939617 13.5979979,8.49411727 13.7562652,8.32527211 C14.0633169,7.99777692 14.0633169,7.50372582 13.7562652,7.1760443 L7.1120549,0.0889930838 C7.03406916,0.00583491384 6.90769483,0.00583491384 6.82973405,0.0889930838 L0.185648485,7.1760443 C0.178960428,7.18317823 0.172746524,7.1907913 0.16708164,7.1988569 C-0.0556705882,7.51573105 -0.0556456328,7.92510669 0.167106595,8.24187437 C0.17277148,8.24988673 0.178960428,8.2574998 0.185623529,8.26460711" id="Fill-1"></path>
                <path d="M7.11206239,6.75211332 C7.03407665,6.66895515 6.90770232,6.66895515 6.82974153,6.75211332 L0.185655971,13.8391379 C0.178967914,13.8462452 0.172778966,13.8538849 0.167114082,13.8619239 C-0.0557130125,14.1787448 -0.0557130125,14.5881471 0.167114082,14.904968 C0.172778966,14.9130336 0.178967914,14.9206467 0.185655971,14.927754 C0.508928699,15.2725516 0.972076649,15.2986117 1.26295722,14.9883923 L6.97088948,8.89987803 L12.6788467,14.9883923 C12.8370891,15.157131 13.0032175,15.2324099 13.2175597,15.2324099 C13.431902,15.2324099 13.5980303,15.157131 13.7562727,14.9883923 C13.9038093,14.8309934 13.9850891,14.6269311 13.9850891,14.4137651 C13.9850891,14.2005991 13.9038093,13.9965369 13.7562727,13.8391379 L7.11206239,6.75211332 Z" id="Fill-3"></path>
            </g>
        </g>
    </g>
</svg>