<?xml version="1.0" encoding="UTF-8"?>
<svg width="20px" height="20px" viewBox="0 0 20 20" version="1.1" xmlns="http://www.w3.org/2000/svg" xmlns:xlink="http://www.w3.org/1999/xlink">
    <title>ic_type_road</title>
    <g id="ic_type_road" stroke="none" stroke-width="1" fill="none" fill-rule="evenodd">
        <g id="手工" transform="translate(1.000000, 0.000000)" fill-rule="nonzero">
            <g id="道路">
                <rect id="矩形" fill="#000000" opacity="0" x="0" y="0" width="22" height="22"></rect>
                <path d="M12.2979369,4.17044772 C12.2596444,3.98301603 12.094382,3.85 11.9029196,3.85 L9.69203187,3.85 C9.47033848,3.85 9.28895299,4.0313855 9.28895299,4.25307889 L9.28895299,5.83314813 C9.28895299,6.05484152 9.10756749,6.23622702 8.8858741,6.23622702 L7.77740715,6.23622702 C7.55571376,6.23622702 7.37432826,6.05484152 7.37432826,5.83314813 L7.37432826,4.25307889 C7.37432826,4.0313855 7.19294277,3.85 6.97124938,3.85 L4.75834628,3.85 C4.56688381,3.85 4.40363686,3.98301603 4.36332897,4.17044772 L-1.99893435e-12,19.2818752 C-1.99893435e-12,19.2838906 0.00201539444,19.2879214 0.00403078888,19.2879214 L6.97124938,19.2879214 C7.19294277,19.2879214 7.37432826,19.1065359 7.37432826,18.8848425 L7.37432826,14.9225771 C7.37432826,14.7008837 7.55571376,14.5194982 7.77740715,14.5194982 L8.8858741,14.5194982 C9.10756749,14.5194982 9.28895299,14.7008837 9.28895299,14.9225771 L9.28895299,18.8848425 C9.28895299,19.1065359 9.47033848,19.2879214 9.69203187,19.2879214 L16.6592505,19.2879214 C16.6612659,19.2879214 16.6632812,19.285906 16.6632812,19.2818752 L12.2979369,4.17044772 Z M9.28895299,11.697946 C9.28895299,11.9196393 9.10756749,12.1010248 8.8858741,12.1010248 L7.77740715,12.1010248 C7.55571376,12.1010248 7.37432826,11.9196393 7.37432826,11.697946 L7.37432826,9.05777924 C7.37432826,8.83608585 7.55571376,8.65470035 7.77740715,8.65470035 L8.8858741,8.65470035 C9.10756749,8.65470035 9.28895299,8.83608585 9.28895299,9.05777924 L9.28895299,11.697946 Z" id="形状" fill="#FFFFFF"></path>
                <path d="M17.4303917,3.26702586 L17.4303917,0.813987824 C17.4303917,0.570361776 17.2319791,0.375 16.9870362,0.375 L16.1178838,0.375 C16.0007041,0.373850125 15.8879204,0.419580335 15.8046465,0.502029755 C15.7213726,0.584479175 15.6745224,0.69680228 15.6745283,0.813987824 L15.6745283,3.26702586 L14.8005472,3.26702586 C14.314612,3.26702586 14.1543895,3.58132541 14.4449849,3.96937123 L16.0257009,6.07640732 C16.3189301,6.46708692 16.7881846,6.46445313 17.079219,6.07640732 L18.6594961,3.96937123 C18.9527252,3.57869162 18.7911858,3.26702586 18.3043727,3.26702586 L17.4303917,3.26702586 Z" id="路径备份-4" fill="#FFFFFF" transform="translate(16.552984, 3.371715) scale(1, -1) translate(-16.552984, -3.371715) "></path>
            </g>
        </g>
    </g>
</svg>