<?xml version="1.0" encoding="UTF-8"?>
<svg width="20px" height="20px" viewBox="0 0 20 20" version="1.1" xmlns="http://www.w3.org/2000/svg" xmlns:xlink="http://www.w3.org/1999/xlink">
    <title>ic_type_car</title>
    <g id="ic_type_car" stroke="none" stroke-width="1" fill="none" fill-rule="evenodd">
        <g id="检测" fill-rule="nonzero">
            <rect id="矩形" fill="#000000" opacity="0" x="0" y="0.275625" width="21" height="21"></rect>
            <path d="M11.8467173,4.41 C12.6267241,4.41 14.0469211,5.32041806 14.2628562,5.98433788 L15.1419752,8.25374669 C15.2979823,8.73549522 15.6509074,9.13768971 16.1109166,9.35329288 L16.2895033,9.42561248 C16.9882858,9.66293486 17.3927035,10.4010804 17.3965762,11.4210785 L17.3965762,18.8809919 C17.3965762,19.4901414 16.9005011,19.9861655 16.2914005,19.9861655 L15.4055659,19.9861655 C14.7459842,19.9861655 14.212517,19.4517316 14.212517,18.7931166 L14.212517,18.4381743 C14.212517,17.3955735 13.3679441,16.5510006 12.3253433,16.5510006 L5.39521641,16.5510006 C4.35264966,16.5510006 3.50804267,17.3955893 3.50804267,18.4381743 L3.50804267,18.8771018 C3.50804267,19.486146 3.01192543,19.9822754 2.40286904,19.9822754 L1.43329863,19.9822754 C0.824149089,19.9822754 0.328125,19.4862024 0.328125,18.8771018 L0.328125,11.4160826 C0.328125,10.4727597 0.691800668,9.75228772 1.31539077,9.46089351 L1.45295769,9.40509456 C1.93605536,9.23859768 2.32306821,8.86956496 2.53073663,8.39651869 L3.45262258,5.99880541 C3.67400236,5.31932899 5.09115441,4.41 5.87389224,4.41 L11.8467173,4.41 Z M2.58231014,12.389593 C2.09156517,12.2898481 1.6288984,12.6689286 1.6288984,13.1715432 L1.6288984,13.1715432 L1.6288984,13.2952768 C1.6288984,13.7342043 1.98793021,14.0932361 2.4268577,14.0932361 L2.4268577,14.0932361 L5.15582862,14.0932361 C5.39915633,14.0932361 5.59864616,13.8937462 5.59864616,13.6504185 C5.59864616,13.2712881 5.32724025,12.9442246 4.9563388,12.8684184 L4.9563388,12.8684184 Z M16.0519628,13.1715432 C16.0519628,12.6689286 15.5931861,12.2898481 15.0983516,12.389593 L15.0983516,12.389593 L12.7243229,12.8684184 C12.3493319,12.9442246 12.0820654,13.2712881 12.0820654,13.6504185 C12.0820654,13.8937462 12.2815553,14.0932361 12.5248331,14.0932361 L12.5248331,14.0932361 L15.2540035,14.0932361 C15.692931,14.0932361 16.0519628,13.7342043 16.0519628,13.2952768 L16.0519628,13.2952768 Z M10.9209349,6.1136431 L6.86336177,6.1136431 C5.81409517,6.1136431 4.89240231,6.79195837 4.58129793,7.7894075 L4.58129793,7.7894075 L4.29802238,8.46757315 C4.18620833,8.73094959 4.3818081,9.0181152 4.66508365,9.0181152 L4.66508365,9.0181152 L13.131332,9.0181152 C13.4186473,9.0181152 13.6101575,8.72686005 13.4985429,8.4636831 L13.4985429,8.4636831 L13.1993082,7.76546872 C12.8760848,6.77988924 11.9583319,6.1136431 10.9209349,6.1136431 L10.9209349,6.1136431 Z" id="形状结合备份" fill="#FFFFFF"></path>
            <path d="M18.3886245,3.1673032 L18.3886245,0.708690079 C18.3886245,0.464510335 18.189761,0.268704555 17.9442613,0.268704555 L17.0731336,0.268704555 C16.9556876,0.267552067 16.8426476,0.313386208 16.7591844,0.396023013 C16.6757212,0.478659818 16.6287646,0.591238204 16.6287705,0.708690079 L16.6287705,3.1673032 L15.7528031,3.1673032 C15.2657635,3.1673032 15.1051769,3.48231707 15.3964327,3.87124481 L16.9807413,5.98306962 C17.2746369,6.37463713 17.7449579,6.37199735 18.0366537,5.98306962 L19.6205223,3.87124481 C19.9144179,3.4796773 19.7525113,3.1673032 19.2645918,3.1673032 L18.3886245,3.1673032 Z" id="路径" fill="#FFFFFF" transform="translate(17.509223, 3.272230) scale(1, -1) translate(-17.509223, -3.272230) "></path>
        </g>
    </g>
</svg>