<?xml version="1.0" encoding="UTF-8"?>
<svg width="20px" height="20px" viewBox="0 0 20 20" version="1.1" xmlns="http://www.w3.org/2000/svg" xmlns:xlink="http://www.w3.org/1999/xlink">
    <title>ic_type_human</title>
    <g id="ic_type_human" stroke="none" stroke-width="1" fill="none" fill-rule="evenodd">
        <g id="编组" transform="translate(2.000000, 0.000000)" fill-rule="nonzero">
            <path d="M15.8520386,3.00002209 L15.8520386,0.441198553 C15.8520386,0.196345612 15.6526268,0 15.4064503,0 L14.5329209,0 C14.4151511,-0.00115566541 14.3017995,0.0448048397 14.2181062,0.127669472 C14.1344129,0.210534105 14.0873268,0.323422867 14.0873327,0.441198553 L14.0873327,3.00002209 L13.2089503,3.00002209 C12.720568,3.00002209 12.5595386,3.31590444 12.8515974,3.70590444 L14.4402739,5.8235515 C14.7349797,6.21619856 15.2065974,6.2135515 15.4990974,5.8235515 L17.0873327,3.70590444 C17.3820386,3.31325739 17.2196856,3.00002209 16.7304209,3.00002209 L15.8520386,3.00002209 Z" id="路径" fill="#FFFFFF" transform="translate(14.970212, 3.058522) scale(1, -1) translate(-14.970212, -3.058522) "></path>
            <g id="我的-我的" transform="translate(-1.000000, 0.117647)">
                <rect id="矩形" fill="#000000" opacity="0" x="0" y="0" width="20" height="20"></rect>
                <path d="M8.01515908,11.5469606 C10.54969,11.5469606 12.6138607,9.48278985 12.6138607,6.94825892 C12.6138607,4.41372799 10.54969,2.35294118 8.01515908,2.35294118 C5.48062815,2.35294118 3.41645745,4.4171119 3.41645745,6.95164281 C3.41645745,9.48617372 5.48062817,11.5469606 8.01515908,11.5469606 L8.01515908,11.5469606 Z M15.1280883,15.4722688 C14.7998513,14.7684204 14.332875,14.1322498 13.7406949,13.5806763 C12.5495669,12.4741455 10.9557564,11.8379748 9.37209753,11.8379748 L6.66160451,11.8379748 C5.07456179,11.8379748 3.48413518,12.4741455 2.29300715,13.5806763 C1.70082704,14.1322498 1.2338507,14.7684204 0.905613731,15.4722688 C0.560457323,16.2133399 0.384495215,16.9916338 0.384495215,17.7936149 C0.384495215,18.8358519 1.23046681,19.6818235 2.27270383,19.6818235 L13.7609982,19.6818235 C14.8032352,19.6818235 15.6492069,18.8358519 15.6492069,17.7936149 C15.645823,16.9916338 15.4732448,16.2099561 15.1280883,15.4722688 L15.1280883,15.4722688 Z" id="形状" fill="#FFFFFF"></path>
            </g>
        </g>
    </g>
</svg>