<?xml version="1.0" encoding="UTF-8"?>
<svg width="12px" height="12px" viewBox="0 0 12 12" version="1.1" xmlns="http://www.w3.org/2000/svg" xmlns:xlink="http://www.w3.org/1999/xlink">
    <!-- Generator: Sketch 58 (84663) - https://sketch.com -->
    <g id="V1.0.0" stroke="none" stroke-width="1">
        <g id="搜索框2" transform="translate(-1099.000000, -146.000000)">
            <g id="编组-7" transform="translate(725.000000, 132.000000)">
                <g id="编组-8">
                    <path d="M379.999967,18.9395246 L384.718783,14.2201748 C384.859211,14.0792303 385.05002,14 385.249046,14 C385.447988,14 385.638797,14.0792303 385.779225,14.2201748 C385.920103,14.360736 385.999267,14.5514786 385.999267,14.7504375 C385.999267,14.9493797 385.920103,15.140139 385.779225,15.2806835 L381.059942,19.9999667 L385.778775,24.7187998 C386.071731,25.0118218 386.073747,25.4842534 385.778775,25.7792419 C385.638214,25.9201198 385.447471,25.9992834 385.248529,25.9992834 C385.04957,25.9992834 384.858828,25.9201198 384.718267,25.7792419 L379.999967,21.0599588 L375.281134,25.7797586 C375.140706,25.9207031 374.949896,26 374.750954,26 C374.551929,26 374.361119,25.9207031 374.220691,25.7797586 C374.07988,25.639264 374.000717,25.4484548 374.000717,25.2495125 C374.000717,25.0505536 374.07988,24.859811 374.220691,24.7193165 L378.940041,19.9999667 L374.220175,15.2811502 C374.07923,15.1407223 374,14.9499131 374,14.7509541 C374,14.5519452 374.07923,14.3611193 374.220175,14.2207081 C374.360736,14.0798802 374.551479,14.0007166 374.750421,14.0007166 C374.94938,14.0007166 375.140122,14.0798802 375.280684,14.2207081 L379.999967,18.9400412 L379.999967,18.9395246 Z" id="close_nor"></path>
                </g>
            </g>
        </g>
    </g>
</svg>