<?xml version="1.0" encoding="UTF-8"?>
<svg width="36px" height="36px" viewBox="0 0 36 36" version="1.1" xmlns="http://www.w3.org/2000/svg" xmlns:xlink="http://www.w3.org/1999/xlink">
    <!-- Generator: Sketch 58 (84663) - https://sketch.com -->
    
    <desc>Created with Sketch.</desc>
    <g id="V1.0.0" stroke="none" stroke-width="1" fill="none" fill-rule="evenodd">
        <g id="交通事件2-icon" transform="translate(-92.000000, -485.000000)">
            <g id="speeding_red" transform="translate(91.000000, 485.000000)">
                <g id="编组-2" transform="translate(-0.000014, 2.048019)">
                    <path d="M34.1674481,9.40888559 C33.4109297,7.63883212 32.3935734,6.11350253 31.1146152,4.83584258 C29.8366319,3.5565578 28.3112809,2.53918393 26.5406028,1.78450804 C24.7720927,1.02870508 22.9152293,0.65 20.9759279,0.65 C19.0380352,0.65 17.1814257,1.02860902 15.410073,1.78454764 C13.642925,2.53990315 12.1170523,3.55764466 10.837369,4.8358307 C9.55910595,6.1140937 8.54134315,7.64011167 7.78596912,9.40877503 C7.02872337,11.1812177 6.65,13.0365994 6.65,14.9759279 C6.65,16.9579003 7.03400499,18.8344901 7.8018832,20.6059644 C8.47162678,22.1503649 9.36914131,23.5247641 10.4946947,24.7286822 C10.8378412,25.0957067 11.3185517,25.3038739 11.8217259,25.3038739 L30.1301687,25.3038739 C30.6334379,25.3038739 31.114231,25.0956545 31.4573704,24.7285496 C32.5823391,23.5248996 33.4800516,22.1500291 34.1500546,20.6060439 C34.9185129,18.8346711 35.3019723,16.9595997 35.3019723,14.9759279 C35.3019723,13.0383472 34.9234013,11.1816273 34.1674481,9.40888559 Z" id="路径" fill="#FFFFFF" fill-rule="nonzero"></path>
                    <path d="M34.8686389,14.9759279 C34.8686389,16.9006956 34.4971886,18.7170441 33.7525268,20.4335637 C33.1021376,21.9323498 32.2317089,23.2654345 31.1407916,24.4326515 C30.8796963,24.7119822 30.513574,24.8705406 30.1301687,24.8705406 L11.8217259,24.8705406 C11.4384023,24.8705406 11.0723456,24.7120231 10.8112338,24.4327418 C9.71976118,23.2652771 8.84956466,21.9327111 8.19945719,20.4335907 C7.45533072,18.716911 7.08333333,16.899001 7.08333333,14.9759279 C7.08333333,13.0950421 7.45023411,11.2975797 8.18446863,9.57899816 C8.91848184,7.86034992 9.90530867,6.38071685 11.1436922,5.1423333 C12.3835837,3.90389261 13.8631803,2.91701676 15.5802761,2.18305572 C17.297674,1.45014276 19.096421,1.08333333 20.9759279,1.08333333 C22.8568026,1.08333333 24.6557284,1.45022209 26.3705054,2.18306122 C28.0911376,2.91640725 29.569946,3.90273826 30.8082021,5.14225531 C31.9520967,6.28498889 32.8805639,7.63301375 33.5947858,9.1863368 L33.7688785,9.57894461 C34.501869,11.2978677 34.8686389,13.0967381 34.8686389,14.9759279 Z" id="路径" fill="#FF475D" fill-rule="nonzero"></path>
                    <path d="M29.2165773,23.070822 L12.7361715,23.070822 C12.2485474,23.070822 11.7893056,22.8470639 11.4837009,22.467145 C9.74845952,20.310246 8.88048939,17.8136525 8.88048939,14.9746466 C8.88048939,12.7915785 9.4230144,10.771427 10.5031723,8.91147435 C11.5844173,7.05299712 13.0543561,5.58290304 14.9127168,4.50181333 C16.771427,3.42297557 18.7928209,2.88169301 20.9759279,2.88169301 C23.1591514,2.88169301 25.1806229,3.42297557 27.0392943,4.50181333 C28.8964126,5.58437845 30.3675938,7.05299712 31.4489553,8.91147435 C32.5303556,10.7700292 33.0716382,12.791462 33.0716382,14.9746466 C33.0703957,17.813303 32.2023868,20.3097024 30.4695915,22.4664849 C30.1639868,22.8467921 29.7044732,23.070822 29.2165773,23.070822" id="路径" fill="#5B000B"></path>
                    <path d="M24.1220307,19.2364117 L31.1294287,14.2745966 C31.3103221,14.1465075 31.1753218,13.8634611 30.9619304,13.9234483 L22.9481841,16.1762491 C22.8913807,16.1922069 22.8307334,16.1812189 22.7820448,16.1479445 C21.7550406,15.4452206 20.6722037,15.3545604 19.5347377,15.869169 C18.7330447,16.247729 18.1798811,16.8631317 17.8776544,17.7137851 C17.5776795,18.5609053 17.6233009,19.3879133 18.0189834,20.1916253 C18.416685,20.9934348 19.0321265,21.5464042 19.8672881,21.8488639 C20.7024109,22.1513237 21.5193239,22.1102062 22.3212887,21.729899 C23.3562523,21.2161834 23.9572115,20.3863799 24.1222637,19.2364505 L24.1220307,19.2364117 Z" id="Fill-3" fill="#FF475D" transform="translate(24.448296, 17.982074) rotate(9.000000) translate(-24.448296, -17.982074) "></path>
                    <path d="M11.8595197,14.302856 L10.5337444,14.0673334 C10.1360428,13.9966689 9.87097318,13.6170606 9.94163772,13.2193978 C10.0122634,12.8217351 10.3919106,12.5566266 10.7895733,12.6272524 L12.1153487,12.8628137 C12.5130114,12.9334394 12.7781199,13.3130866 12.7074553,13.7107493 C12.6368296,14.108412 12.2571825,14.3735205 11.8595197,14.302856" id="Fill-5" fill="#FF475D"></path>
                    <path d="M14.5224855,8.46708373 L13.6522634,7.43949717 C13.3912317,7.13129109 13.4295148,6.66983616 13.7377209,6.40880448 C14.045927,6.14781163 14.5073819,6.18605589 14.7683748,6.49426197 L15.6386357,7.52184853 C15.8996674,7.83005461 15.8613843,8.29150955 15.5531782,8.55254123 C15.2449721,8.81353408 14.7835172,8.77528981 14.5224855,8.46708373" id="Fill-7" fill="#FF475D"></path>
                    <path d="M20.258877,5.85354432 L20.258877,4.50699669 C20.258877,4.10312171 20.5863023,3.77569643 20.9901773,3.77569643 C21.3940523,3.77569643 21.7214775,4.10312171 21.7214775,4.50699669 L21.7214775,5.85354432 C21.7214775,6.25741931 21.3940523,6.58484459 20.9901773,6.58484459 C20.5863023,6.58484459 20.258877,6.25741931 20.258877,5.85354432" id="Fill-9" fill="#FF475D"></path>
                    <path d="M26.3131075,7.51471219 L27.1907455,6.49341555 C27.4539514,6.18707315 27.9156393,6.15212915 28.2219817,6.41537395 C28.5283241,6.67861875 28.5632293,7.14030665 28.3000233,7.44664905 L27.4224242,8.46794569 C27.1591794,8.77424926 26.6974527,8.80919326 26.3911491,8.54598729 C26.0848067,8.28274249 26.0499015,7.82105459 26.3131075,7.51471219" id="Fill-11" fill="#FF475D"></path>
                    <path d="M7.942,28.9621935 L7.942,28.892 L9.608,28.892 L9.608,25.882 L9.66378644,25.882 L9.7905788,26.0087924 L10.4758425,25.5385134 C10.6954054,25.3878329 10.90207,25.2262981 11.0957663,25.0536846 L11.1180365,25.4656824 L12.5146472,25.4809713 C13.0401693,25.4802723 13.4648945,25.4577813 13.7860572,25.4083717 C14.4782891,25.2850528 14.9889813,25.0323392 15.4217049,24.5171921 C15.9282995,23.8844067 16.0793576,22.95088 16.1780024,20.7699508 L16.2118925,19.908538 L16.216,19.506 L16.216,18.506 L7.986,18.506 L7.986,19.318 L7.704,19.318 L7.704,18.044 L3.842,18.044 L3.842,19.318 L1.896,19.318 L1.896,22.104 L1.56,22.104 L1.56,25.882 L1.89442581,25.882 L1.88517537,26.5648243 C1.84006249,28.7585662 1.64928074,30.1390934 1.22618589,31.0117265 L0.75252993,31.9886419 L1.7650059,32.3805681 C2.12731953,32.5208185 2.90783498,32.9309199 3.17198266,33.1180245 L4.17268027,33.826852 L4.66564403,32.7039901 C4.75006305,32.5117023 4.82795155,32.3088228 4.90002816,32.0943337 C6.01487502,32.7485662 7.46899104,32.98 9.546,32.98 L15.8501596,32.98 L16.0137149,32.1803962 C16.1249014,31.6368177 16.4250111,30.8352589 16.6360503,30.5187002 L17.7305275,28.8769844 L15.2260066,28.988811 L14.7213675,29.0041441 L13.6598368,29.024728 C12.6393555,29.039307 11.4444597,29.0440261 10.3203354,29.0393177 L9.56702087,29.0340246 C8.88063861,29.0340097 8.36326355,29.0131591 7.942,28.9621935 Z" id="路径" fill="#FFFFFF" fill-rule="nonzero"></path>
                    <polygon id="路径" fill="#FFFFFF" fill-rule="nonzero" points="8.294 23.882 8.294 30.362 15.88 30.362 15.88 23.882"></polygon>
                    <path d="M20.522,22.788 L20.816,22.788 L20.816,27.1801828 L19.1361793,27.8139843 L20.4050695,28.9136891 C20.7333583,29.1982061 21.2572888,29.8277047 21.4928022,30.2163017 L21.9735801,31.0095853 L22.8006924,30.5896668 C23.1459054,30.4144048 23.4843995,30.2092193 23.812,29.9780485 L23.812,30.824 L27.786,30.824 L27.786,29.6354786 C28.0578125,29.8429032 28.2837736,30.0339871 28.4448932,30.1951068 L29.1990899,30.9493034 L31.7695364,28.0243126 L31.04349,27.3628037 C31.0002586,27.3234151 30.9550603,27.2835142 30.908,27.2431604 L30.908,22.788 L31.286,22.788 L31.286,19.108 L27.786,19.108 L27.786,18.044 L23.812,18.044 L23.812,19.108 L20.522,19.108 L20.522,22.788 Z" id="路径" fill="#FFFFFF" fill-rule="nonzero"></path>
                    <path d="M16.462,26.946 L16.462,23.07 L22.004,23.07 L22.004,28.6050142 L22.0980355,28.6546381 C22.1792856,28.6959402 22.2578208,28.7342084 22.3423491,28.7732333 L22.6181581,28.8945725 C23.3104471,29.1711564 24.3280307,29.286 25.848,29.286 C27.2476666,29.286 29.3469806,29.1482716 30.5531773,28.9617464 L32.2948859,28.69241 L31.6327393,30.3257051 C31.4094532,30.8764773 31.1899919,31.6464519 31.1726178,31.9765588 L31.1259183,32.8638498 L29.6156027,32.9626342 L28.7892761,33.0033079 C27.771383,33.0473825 26.6100516,33.078 25.778,33.078 C23.9887765,33.078 22.7166794,32.8935495 21.5830366,32.4203484 L21.3420944,32.3144905 L21.103796,32.200188 L20.2775063,31.7665008 L20.2148187,31.8189869 L20.0696068,31.9556068 C19.9045591,32.1206545 19.7243279,32.3286252 19.5111722,32.5968348 L19.2384463,32.9487092 L18.4082529,34.0421347 L15.8919568,30.4392563 L16.5295489,29.8472065 C17.0071668,29.4037041 17.5327797,29.0114711 18.058,28.7036427 L18.058,26.946 L16.462,26.946 Z" id="路径" fill="#FFFFFF" fill-rule="nonzero"></path>
                    <path d="M22.0662244,21.0898802 C21.636931,20.4964452 20.8788507,19.7443299 19.9061145,18.8847889 L19.0551633,18.1425476 L15.9174079,20.4454873 L16.7893765,21.2690132 C17.6877382,22.1174659 18.4703894,22.9703101 18.7620845,23.4531156 L19.3407478,24.4109032 L22.6353412,21.8766005 L22.0662244,21.0898802 Z" id="路径" fill="#FFFFFF" fill-rule="nonzero"></path>
                    <path d="M6.942,27.892 L8.608,27.892 L8.608,26.142 L6.942,26.142 L6.942,24.882 L8.804,24.882 L8.804,23.832 L9.11659375,24.0564375 C9.43225,24.291375 9.742,24.546 9.91,24.714 C10.624,24.224 11.184,23.594 11.576,22.782 C11.842,23.23 12.038,23.958 12.066,24.476 L12.5255938,24.4810312 C12.969875,24.480375 13.361,24.462 13.634,24.42 C14.026,24.35 14.362,24.224 14.656,23.874 C14.9627826,23.4905217 15.0944991,22.5935161 15.1790238,20.7247663 L15.2094129,19.9962689 C15.216,19.7770123 15.216,19.506 15.216,19.506 L8.986,19.506 L8.986,21.186 L10.218,21.186 C9.994,22.082 9.546,22.782 8.804,23.286 L8.804,23.104 L6.704,23.104 L6.704,22.068 L8.58,22.068 L8.58,20.318 L6.704,20.318 L6.704,19.044 L4.842,19.044 L4.842,20.318 L2.896,20.318 L2.896,22.068 L4.842,22.068 L4.842,23.104 L2.56,23.104 L2.56,24.882 L5.15,24.882 L5.15,28.536 C4.94,28.228 4.758,27.864 4.604,27.416 C4.632,26.814 4.66,26.184 4.66,25.54 L2.896,25.428 C2.896,27.78 2.798,30.062 2.126,31.448 C2.56,31.616 3.414,32.064 3.75,32.302 C4.002,31.728 4.184,31.042 4.324,30.272 C5.444,31.686 7.11,31.98 9.546,31.98 L15.034,31.98 C15.16,31.364 15.496,30.426 15.804,29.964 L15.270612,29.9878157 C13.8964974,30.0372515 11.6942621,30.0450812 10.316147,30.0393089 L9.56,30.034 C8.524,30.034 7.67,29.992 6.942,29.782 L6.942,27.892 Z" id="路径" fill="#FF475D" fill-rule="nonzero"></path>
                    <path d="M12.122,21.186 L13.228,21.186 L13.2030612,21.5562449 C13.1511429,22.2348571 13.086,22.552 12.99,22.684 C12.878,22.796 12.752,22.824 12.584,22.824 L12.3682449,22.8230204 C12.1602857,22.8205714 11.886,22.812 11.576,22.782 C11.814,22.306 11.996,21.774 12.122,21.186 Z" id="路径" fill="#FFFFFF" fill-rule="nonzero"></path>
                    <polygon id="路径" fill="#FF475D" fill-rule="nonzero" points="9.294 29.362 14.88 29.362 14.88 24.882 9.294 24.882"></polygon>
                    <polygon id="路径" fill="#FFFFFF" fill-rule="nonzero" points="11.184 26.492 12.864 26.492 12.864 27.752 11.184 27.752"></polygon>
                    <path d="M24.812,22.334 L21.816,22.334 L21.816,26.268 L23.916,26.268 C23.216,27.052 22.138,27.752 21.06,28.158 C21.48,28.522 22.068,29.236 22.348,29.698 C23.258,29.236 24.112,28.536 24.812,27.71 L24.812,29.824 L26.786,29.824 L26.786,27.752 C27.724,28.326 28.648,28.984 29.152,29.488 L30.37,28.102 C29.74,27.528 28.62,26.828 27.542,26.268 L29.908,26.268 L29.908,22.334 L26.786,22.334 L26.786,21.788 L30.286,21.788 L30.286,20.108 L26.786,20.108 L26.786,19.044 L24.812,19.044 L24.812,20.108 L21.522,20.108 L21.522,21.788 L24.812,21.788 L24.812,22.334 Z" id="路径" fill="#FF475D" fill-rule="nonzero"></path>
                    <polygon id="路径" fill="#FFFFFF" fill-rule="nonzero" points="27.934 23.86 27.934 24.756 26.786 24.756 26.786 23.86"></polygon>
                    <polygon id="路径" fill="#FFFFFF" fill-rule="nonzero" points="23.678 23.86 24.812 23.86 24.812 24.756 23.678 24.756"></polygon>
                    <path d="M21.256,21.676 C20.78,21.018 19.758,20.08 19.002,19.422 L17.476,20.542 C18.232,21.256 19.212,22.264 19.618,22.936 L21.256,21.676 Z" id="路径" fill="#FF475D" fill-rule="nonzero"></path>
                    <path d="M21.004,24.07 L21.004,29.208 L21.6448889,29.5460741 C21.7693333,29.6093333 21.9046667,29.6746667 22.054,29.74 C23.02,30.188 24.364,30.286 25.848,30.286 C27.164,30.286 29.348,30.16 30.706,29.95 C30.496,30.468 30.202,31.392 30.174,31.924 L29.5595654,31.9642056 C28.5200859,32.0225469 26.904125,32.078 25.778,32.078 C24.084,32.078 22.852,31.91 21.76,31.406 C21.06,31.084 20.584,30.72 20.22,30.72 C19.73,30.72 19.016,31.588 18.442,32.344 L17.21,30.58 C17.798,30.034 18.456,29.586 19.058,29.306 L19.058,25.946 L17.462,25.946 L17.462,24.07 L21.004,24.07 Z" id="路径" fill="#FF475D" fill-rule="nonzero"></path>
                </g>
            </g>
        </g>
    </g>
</svg>