<?xml version="1.0" encoding="UTF-8"?>
<svg width="36px" height="36px" viewBox="0 0 36 36" version="1.1" xmlns="http://www.w3.org/2000/svg" xmlns:xlink="http://www.w3.org/1999/xlink">
    <!-- Generator: Sketch 58 (84663) - https://sketch.com -->
    
    <desc>Created with Sketch.</desc>
    <g id="V1.0.0" stroke="none" stroke-width="1" fill="none" fill-rule="evenodd">
        <g id="交通事件2-icon" transform="translate(-179.000000, -407.000000)">
            <g id="low_speed_green" transform="translate(179.000000, 407.000000)">
                <g id="编组-3" transform="translate(0.999986, 2.048019)">
                    <path d="M28.1674481,9.40888559 C27.4109297,7.63883212 26.3935734,6.11350253 25.1146152,4.83584258 C23.8366319,3.5565578 22.3112809,2.53918393 20.5406028,1.78450804 C18.7720927,1.02870508 16.9152293,0.65 14.9759279,0.65 C13.0380352,0.65 11.1814257,1.02860902 9.41007305,1.78454764 C7.64292501,2.53990315 6.11705234,3.55764466 4.837369,4.8358307 C3.55910595,6.1140937 2.54134315,7.64011167 1.78596912,9.40877503 C1.02872337,11.1812177 0.65,13.0365994 0.65,14.9759279 C0.65,16.9579003 1.03400499,18.8344901 1.8018832,20.6059644 C2.47162678,22.1503649 3.36914131,23.5247641 4.49469465,24.7286822 C4.83784121,25.0957067 5.31855168,25.3038739 5.82172587,25.3038739 L24.1301687,25.3038739 C24.6334379,25.3038739 25.114231,25.0956545 25.4573704,24.7285496 C26.5823391,23.5248996 27.4800516,22.1500291 28.1500546,20.6060439 C28.9185129,18.8346711 29.3019723,16.9595997 29.3019723,14.9759279 C29.3019723,13.0383472 28.9234013,11.1816273 28.1674481,9.40888559 Z" id="路径" fill="#FFFFFF" fill-rule="nonzero"></path>
                    <path d="M28.8686389,14.9759279 C28.8686389,16.9006956 28.4971886,18.7170441 27.7525268,20.4335637 C27.1021376,21.9323498 26.2317089,23.2654345 25.1407916,24.4326515 C24.8796963,24.7119822 24.513574,24.8705406 24.1301687,24.8705406 L5.82172587,24.8705406 C5.43840231,24.8705406 5.07234564,24.7120231 4.81123382,24.4327418 C3.71976118,23.2652771 2.84956466,21.9327111 2.19945719,20.4335907 C1.45533072,18.716911 1.08333333,16.899001 1.08333333,14.9759279 C1.08333333,13.0950421 1.45023411,11.2975797 2.18446863,9.57899816 C2.91848184,7.86034992 3.90530867,6.38071685 5.14369223,5.1423333 C6.38358371,3.90389261 7.86318032,2.91701676 9.58027606,2.18305572 C11.297674,1.45014276 13.096421,1.08333333 14.9759279,1.08333333 C16.8568026,1.08333333 18.6557284,1.45022209 20.3705054,2.18306122 C22.0911376,2.91640725 23.569946,3.90273826 24.8082021,5.14225531 C25.9520967,6.28498889 26.8805639,7.63301375 27.5947858,9.1863368 L27.7688785,9.57894461 C28.501869,11.2978677 28.8686389,13.0967381 28.8686389,14.9759279 Z" id="路径" fill="#11EB97" fill-rule="nonzero"></path>
                    <path d="M23.2165773,23.070822 L6.73617152,23.070822 C6.24854741,23.070822 5.7893056,22.8470639 5.48370091,22.467145 C3.74845952,20.310246 2.88048939,17.8136525 2.88048939,14.9746466 C2.88048939,12.7915785 3.4230144,10.771427 4.50317227,8.91147435 C5.58441728,7.05299712 7.05435605,5.58290304 8.9127168,4.50181333 C10.771427,3.42297557 12.7928209,2.88169301 14.9759279,2.88169301 C17.1591514,2.88169301 19.1806229,3.42297557 21.0392943,4.50181333 C22.8964126,5.58437845 24.3675938,7.05299712 25.4489553,8.91147435 C26.5303556,10.7700292 27.0716382,12.791462 27.0716382,14.9746466 C27.0703957,17.813303 26.2023868,20.3097024 24.4695915,22.4664849 C24.1639868,22.8467921 23.7044732,23.070822 23.2165773,23.070822" id="路径" fill="#005534"></path>
                    <path d="M11.6509196,18.4275228 L18.6583176,13.4657077 C18.839211,13.3376186 18.7042107,13.0545722 18.4908193,13.1145594 L10.477073,15.3673602 C10.4202696,15.383318 10.3596223,15.37233 10.3109337,15.3390556 C9.2839295,14.6363317 8.20109259,14.5456715 7.06362657,15.0602801 C6.26193355,15.4388401 5.70877003,16.0542428 5.40654326,16.9048962 C5.10656843,17.7520164 5.15218977,18.5790244 5.54787233,19.3827364 C5.94557387,20.1845459 6.56101537,20.7375153 7.39617697,21.0399751 C8.23129974,21.3424348 9.04821281,21.3013173 9.85017761,20.9210101 C10.8851412,20.4072945 11.4861004,19.577491 11.6511525,18.4275616 L11.6509196,18.4275228 Z" id="Fill-3" fill="#11EB97" transform="translate(11.977185, 17.173185) rotate(-147.000000) translate(-11.977185, -17.173185) "></path>
                    <path d="M5.85951974,14.302856 L4.53374438,14.0673334 C4.13604284,13.9966689 3.87097318,13.6170606 3.94163772,13.2193978 C4.01226342,12.8217351 4.39191057,12.5566266 4.78957329,12.6272524 L6.11534865,12.8628137 C6.51301137,12.9334394 6.77811985,13.3130866 6.70745532,13.7107493 C6.63682961,14.108412 6.25718246,14.3735205 5.85951974,14.302856" id="Fill-5" fill="#11EB97"></path>
                    <path d="M8.5224855,8.46708373 L7.65226342,7.43949717 C7.39123174,7.13129109 7.42951484,6.66983616 7.73772092,6.40880448 C8.045927,6.14781163 8.50738193,6.18605589 8.76837478,6.49426197 L9.63863569,7.52184853 C9.89966737,7.83005461 9.86138428,8.29150955 9.5531782,8.55254123 C9.24497212,8.81353408 8.78351718,8.77528981 8.5224855,8.46708373" id="Fill-7" fill="#11EB97"></path>
                    <path d="M14.258877,5.85354432 L14.258877,4.50699669 C14.258877,4.10312171 14.5863023,3.77569643 14.9901773,3.77569643 C15.3940523,3.77569643 15.7214775,4.10312171 15.7214775,4.50699669 L15.7214775,5.85354432 C15.7214775,6.25741931 15.3940523,6.58484459 14.9901773,6.58484459 C14.5863023,6.58484459 14.258877,6.25741931 14.258877,5.85354432" id="Fill-9" fill="#11EB97"></path>
                    <path d="M20.3131075,7.51471219 L21.1907455,6.49341555 C21.4539514,6.18707315 21.9156393,6.15212915 22.2219817,6.41537395 C22.5283241,6.67861875 22.5632293,7.14030665 22.3000233,7.44664905 L21.4224242,8.46794569 C21.1591794,8.77424926 20.6974527,8.80919326 20.3911491,8.54598729 C20.0848067,8.28274249 20.0499015,7.82105459 20.3131075,7.51471219" id="Fill-11" fill="#11EB97"></path>
                    <path d="M19.1783523,27.0898463 L19.368,26.8685907 L19.368,32.504 L23.592,32.504 L23.592,20.26157 C24.0101501,19.3189223 24.3928641,18.3359209 24.7231446,17.360807 L25.0556452,16.3791384 L20.9109506,15.1387553 L20.6254636,16.0990297 C19.9585864,18.3421622 18.7905698,20.5989372 17.5789978,22.0025876 L17.0886803,22.5706385 L17.4970387,23.2001911 C17.8030541,23.6719648 18.3844576,24.8913687 18.5954461,25.4756445 L19.1783523,27.0898463 Z" id="路径" fill="#FFFFFF" fill-rule="nonzero"></path>
                    <path d="M34.344,21.144 L34.344,25.304 L32.3040189,25.304 L33.0046913,26.2276135 C33.202939,26.4889401 33.9111409,27.029171 34.2868521,27.2341044 L34.9031119,27.5702461 L34.7963717,28.2640572 C34.3756347,30.9988478 33.3408868,32.392 31.84,32.392 C31.1602708,32.392 30.5814321,32.1743242 30.0881825,31.7455818 L27.5543663,32.660571 L27.2733807,31.5375031 L26.6535629,31.7018131 L26.0102491,31.880934 C25.1190995,32.1361203 24.7179731,32.287595 24.5092311,32.415216 L23.195495,33.3093922 L22.9201301,31.7948854 C22.842675,31.3688826 22.5505969,30.6077092 22.3724657,30.3603047 L21.6860454,29.4069433 L22.7744837,28.862208 C22.8259092,28.8335585 22.824,28.8151099 22.824,28.688 L22.824,18.236068 L22.3021958,17.1924596 L22.824,17.1234854 L22.824,17.032 L23.5161073,17.032 L24.1676889,16.9434801 C26.8556666,16.5611482 29.488957,15.958307 31.1646472,15.3212677 L31.7809239,15.0869807 L35.1754158,18.5995419 L33.6815824,19.1068816 C33.0464315,19.3225932 32.3615687,19.5234789 31.6338322,19.7087352 L31.6628554,20.4336883 L31.6966738,21.144 L34.344,21.144 Z" id="路径" fill="#FFFFFF" fill-rule="nonzero"></path>
                    <path d="M33.344,24.304 L30.928,24.304 L30.987691,24.8365539 C31.2521633,27.0882449 31.5885714,28.592 31.856,28.592 C32.032,28.592 32.144,27.984 32.208,26.832 C32.56,27.296 33.456,27.92 33.808,28.112 C33.392,30.816 32.496,31.392 31.84,31.392 C30.112,31.392 29.184,28.688 28.72,24.304 L25.984,24.304 L25.984,28.768 L27.28,28.512 L26.96,27.712 L28.576,27.2 L28.958,28.0965 C29.354,29.034 29.768,30.048 29.984,30.72 L28.256,31.344 C28.08,30.64 27.696,29.6 27.312,28.624 C27.28,29.232 27.296,30.032 27.36,30.48 L26.3910437,30.7368863 C24.672,31.2045714 24.2057143,31.4102857 23.904,31.616 C23.808,31.088 23.472,30.176 23.184,29.776 C23.504,29.616 23.824,29.328 23.824,28.688 L23.824,18.032 L23.84,18.032 L23.824,18 C26.608,17.632 29.584,16.992 31.52,16.256 L33.36,18.16 C32.512,18.448 31.584,18.704 30.608,18.928 C30.64,20.048 30.688,21.12 30.752,22.144 L33.344,22.144 L33.344,24.304 Z" id="路径" fill="#11EB97" fill-rule="nonzero"></path>
                    <path d="M21.584,16.384 C20.88,18.752 19.648,21.136 18.336,22.656 C18.72,23.248 19.328,24.56 19.536,25.136 C19.824,24.8 20.096,24.448 20.368,24.048 L20.368,31.504 L22.592,31.504 L22.592,20.048 C23.04,19.056 23.44,18.032 23.776,17.04 L21.584,16.384 Z" id="路径" fill="#11EB97" fill-rule="nonzero"></path>
                    <path d="M25.984,22.144 L25.984,19.776 C26.784,19.664 27.6,19.536 28.416,19.392 L28.456448,20.526592 C28.47872,21.08416 28.5056,21.6256 28.544,22.144 L25.984,22.144 Z" id="路径" fill="#FFFFFF" fill-rule="nonzero"></path>
                </g>
            </g>
        </g>
    </g>
</svg>