<?xml version="1.0" encoding="UTF-8"?>
<svg width="36px" height="36px" viewBox="0 0 36 36" version="1.1" xmlns="http://www.w3.org/2000/svg" xmlns:xlink="http://www.w3.org/1999/xlink">
    <!-- Generator: Sketch 58 (84663) - https://sketch.com -->
    
    <desc>Created with Sketch.</desc>
    <g id="V1.0.0" stroke="none" stroke-width="1" fill="none" fill-rule="evenodd">
        <g id="交通事件2-icon" transform="translate(-92.000000, -225.000000)" fill-rule="nonzero">
            <g id="pedestrian_yellow" transform="translate(91.999966, 224.999949)">
                <g id="编组-5" transform="translate(4.000034, 2.000051)">
                    <path d="M11.9642052,3.65235549 C11.9642052,2.04939991 10.6648053,0.75 9.06184971,0.75 C7.45889413,0.75 6.15949422,2.04939991 6.15949422,3.65235549 C6.15949422,5.25531107 7.45889413,6.55471098 9.06184971,6.55471098 C10.6648053,6.55471098 11.9642052,5.25531107 11.9642052,3.65235549 Z" id="路径" fill="#FFFFFF"></path>
                    <path d="M11.4642052,3.65235549 C11.4642052,4.9791687 10.3886629,6.05471098 9.06184971,6.05471098 C7.73503651,6.05471098 6.65949422,4.9791687 6.65949422,3.65235549 C6.65949422,2.32554229 7.73503651,1.25 9.06184971,1.25 C10.3886629,1.25 11.4642052,2.32554229 11.4642052,3.65235549 Z" id="路径" fill="#FDE305"></path>
                    <path d="M19.6318497,19.6576676 C20.1629245,17.5642877 17.7875925,11.6686314 16.6415464,10.407753 C16.5149499,10.2684994 16.5345026,10.1653432 16.6695797,10.0268892 C16.6970881,9.99869307 16.7248452,9.97444293 16.7492023,9.95527081 L19.16272,10.0357094 L21.7980113,13.7336931 C22.2279142,14.8532182 23.6942642,15.3644915 24.3054153,14.4477097 C24.3880167,14.3238002 24.4498327,14.191731 24.4919994,14.0531336 C24.6088773,13.6689689 24.5712285,13.2693386 24.4406756,12.887548 L24.3741165,12.714423 L24.3164558,12.5948812 L20.2543282,6.77734263 L11.4349806,6.789243 C10.7438159,6.70087067 10.0120879,7.04983607 9.30192138,7.67537533 C9.08552629,7.86598362 8.88675984,8.06955108 8.7094763,8.27320788 C8.62926947,8.36534654 8.56604452,8.44269751 8.52158773,8.49980757 L5.15840945,12.7273353 L2.33174855,12.7273353 C1.4581651,12.7273353 0.75,13.4354844 0.75,14.3090405 C0.75,15.1825965 1.4581651,15.8907457 2.33174855,15.8907457 L5.51907514,15.8907457 C6.48452294,16.1139471 7.35013219,15.5995945 8.05149811,14.6317109 C8.18455183,14.448097 8.30524241,14.2563497 8.41369105,14.061905 L8.60266641,13.6956431 L12.6281699,17.208123 L4.76992941,28.2010982 C4.71474423,28.2922855 4.65350014,28.415468 4.59301691,28.5766811 C4.43957537,28.9856671 4.38067536,29.4093315 4.47626071,29.8166223 C4.56403758,30.1906411 4.7786698,30.5173017 5.13144191,30.7750942 C5.84621716,31.297452 6.53304239,31.297452 7.10856039,30.9758355 C7.254216,30.8944388 7.3592062,30.8113212 7.42050502,30.7500224 L15.0703487,19.8832794 L15.9645087,20.5671401 L15.9645087,23.9802254 C16.1536284,24.8576987 16.5322835,25.4958616 17.0481695,25.9673755 C17.5024912,26.3826204 17.9590147,26.5936355 18.2764301,26.668653 L26.0285046,26.3695222 C26.4540563,26.3252669 26.7754288,26.1445092 27.0113734,25.8731286 C27.1747708,25.6851908 27.2661823,25.497044 27.3062898,25.3606545 C27.5727996,24.5128972 27.2677598,23.8532414 26.617492,23.4027283 C26.337498,23.2087453 26.0600563,23.0938148 25.8664848,23.0405884 L25.8002023,23.2816416 L25.8002023,23.0316416 L23.7044075,23.0316416 L19.6318497,23.1333953 L19.6318497,19.6576676 Z" id="路径" fill="#FFFFFF"></path>
                    <path d="M26.332747,23.8137275 C26.8173111,24.1494391 27.0230673,24.5943918 26.8279488,25.2151608 C26.8051047,25.2926921 26.7438464,25.4187764 26.634044,25.5450698 C26.4776666,25.7249333 26.2696934,25.8419089 25.9924022,25.8710929 L18.3239954,26.175553 C18.3371349,26.1692257 18.2306992,26.1337671 18.0897297,26.0686079 C17.8501721,25.9578791 17.6098653,25.803379 17.3854943,25.5983065 C16.9440589,25.1948396 16.6189625,24.6469413 16.4585414,23.9259295 L16.4645087,20.4436069 L16.366384,20.2450273 L14.9608665,19.1700763 L7.03926289,30.429392 L6.89417968,30.5224112 L6.86464771,30.5393649 C6.45048362,30.770812 5.97299286,30.770812 5.42645329,30.3714009 C5.17067409,30.1844872 5.02367162,29.9607559 4.96303524,29.7023833 C4.89358138,29.4064392 4.93940594,29.0768258 5.06115448,28.7523149 C5.11033891,28.6212178 5.15876249,28.5238217 5.18827577,28.4741126 L13.2988243,17.1297267 L8.40254451,12.8574452 L8.2758891,13.1951894 C8.25043552,13.263065 8.19771672,13.3871233 8.11847749,13.5483265 C7.98586537,13.8181107 7.82812667,14.0878488 7.64662337,14.338323 C7.04970032,15.1620757 6.35805752,15.5730559 5.57389077,15.3968292 L2.33174855,15.3907457 C1.73430496,15.3907457 1.25,14.9064516 1.25,14.3090405 C1.25,13.7116293 1.73430496,13.2273353 2.33174855,13.2273353 L5.27894509,13.2273353 L5.47455128,13.1330215 L8.88020157,8.8541198 L8.96191113,8.74948934 L9.08660418,8.60149824 C9.25022703,8.41353434 9.43384516,8.22548109 9.63241178,8.05057673 C10.2454788,7.51056606 10.8570348,7.21891142 11.404313,7.28731272 L19.9939171,7.27746895 L23.8924518,12.8585222 L23.919164,12.9208113 L23.967571,13.0493255 C24.0671478,13.3405295 24.0952902,13.6392516 24.013648,13.9076005 C23.9855171,14.0000636 23.9445099,14.087675 23.8893824,14.1703712 C23.5455893,14.6860919 22.5657734,14.3444588 22.2344201,13.4975207 L19.4981737,9.64487917 L19.3029084,9.54010405 L16.6831541,9.45279191 L16.5462047,9.4882787 C16.4832717,9.52603769 16.3979229,9.58933727 16.3116888,9.67772719 C16.0118524,9.98505934 15.9376123,10.3767356 16.2715627,10.7440745 C17.3164754,11.893686 19.6297664,17.6353544 19.139315,19.5970299 L19.1318497,23.6460486 L23.7106564,23.5315635 L25.7647729,23.5316403 C25.9092489,23.5755822 26.1221046,23.667792 26.332747,23.8137275 Z" id="路径" fill="#FDE305"></path>
                </g>
            </g>
        </g>
    </g>
</svg>