<?xml version="1.0" encoding="UTF-8"?>
<svg width="36px" height="36px" viewBox="0 0 36 36" version="1.1" xmlns="http://www.w3.org/2000/svg" xmlns:xlink="http://www.w3.org/1999/xlink">
    <g id="V1.0.0" stroke="none" stroke-width="1" fill="none" fill-rule="evenodd">
        <g id="交通事件2-icon" transform="translate(-272.000000, -154.000000)">
            <g id="accident_red" transform="translate(271.000000, 154.000000)">
                <path d="M17.2525256,7.33175114 L17.284923,7.46230984 L18.3403303,11.5407165 C18.4615461,12.0053858 18.8167178,12.3039055 19.2678195,12.3066093 C19.9104631,12.3100785 20.3636705,11.7137096 20.2014132,11.0779368 L19.1058108,6.85663603 C19.0284319,6.56023073 18.8403184,6.33669384 18.5640535,6.21770601 C18.2166049,6.06840414 17.8669725,6.11533345 17.5785446,6.35678523 C17.2799781,6.60689475 17.1596364,6.95517385 17.2525256,7.33175114 Z" id="路径" fill="#FFFFFF" fill-rule="nonzero"></path>
                <polygon id="路径" fill="#FFFFFF" fill-rule="nonzero" points="18.010892 9.27347432 18.2529118 9.21081335 18.1900734 9.09913558"></polygon>
                <path d="M18.8241513,11.4145528 L17.7379473,7.21189395 C17.6915995,7.02399752 17.7449281,6.86965999 17.8995594,6.74012508 C18.0414662,6.62133066 18.1903793,6.60134285 18.36646,6.67700633 C18.499225,6.73418855 18.5831107,6.83387071 18.6220197,6.98291425 L19.716939,11.2015682 C19.7990377,11.5232558 19.5824255,11.8082925 19.2706649,11.8066097 C19.0543394,11.8053128 18.8900698,11.6672453 18.8241513,11.4145528 Z" id="路径" fill="#FF475D" fill-rule="nonzero"></path>
                <polygon id="路径" fill="#FFFFFF" fill-rule="nonzero" points="23.2193791 12.8621825 23.014408 12.7191751 23.2193791 13.1121825"></polygon>
                <path d="M23.0142867,12.7189421 C22.7935494,13.0356045 22.7621538,13.390672 22.929588,13.7349742 C23.0936592,14.0727465 23.3905146,14.2632265 23.7447542,14.2758033 C24.0663406,14.272395 24.30565,14.1575193 24.5134133,13.9362981 L27.372179,10.8932127 C27.4292365,10.8321087 27.4602288,10.7969446 27.4941426,10.752107 C27.9310664,10.1757234 27.6119892,9.32576345 26.9050219,9.19874127 C26.5560142,9.13612506 26.253532,9.25548342 25.9993995,9.52651857 L23.1298536,12.580931 C23.077218,12.6372274 23.0463349,12.6730993 23.0142867,12.7189421 Z" id="路径" fill="#FFFFFF" fill-rule="nonzero"></path>
                <path d="M23.4244088,13.0052308 L23.4633528,12.9569837 L26.3641574,9.86850052 C26.5087913,9.71424685 26.6457418,9.66020671 26.8166637,9.69087218 C27.1526583,9.75124099 27.3092397,10.1683433 27.0955258,10.4502718 L27.0072462,10.5514182 L24.1488517,13.5941069 C24.0305499,13.7200717 23.9180802,13.7740605 23.750761,13.7759771 C23.5919581,13.7700635 23.4619895,13.6866679 23.3792876,13.51641 C23.2919119,13.3367357 23.3062493,13.1745875 23.4244088,13.0052308 Z" id="路径" fill="#FF475D" fill-rule="nonzero"></path>
                <path d="M22.6712757,11.3730331 L24.9140272,6.54158601 C24.9843998,6.38896181 25.0377941,6.26995914 25.0958097,6.13676034 C25.3591654,5.53128556 25.0079112,4.8775433 24.3646338,4.78455575 L24.1860006,4.76579891 L23.9343394,4.75064618 L23.511594,4.77308956 C23.4292544,4.77941304 23.3668998,4.78710681 23.2957972,4.79951585 C22.9823119,4.85453808 22.668033,4.92307823 22.3542044,5.00458826 C22.121317,5.06487193 21.9516238,5.21651041 21.9042831,5.4646702 L21.4440732,7.84948923 L21.1091425,9.53338394 L20.8551451,10.7729947 C20.8000393,11.040196 20.8411087,11.2904071 20.9822645,11.5145986 C21.1590735,11.7953198 21.421756,11.9532894 21.7340419,11.9665609 L21.8534034,11.9647121 C22.2263582,11.9380796 22.5074763,11.7267816 22.6712757,11.3730331 Z" id="路径" fill="#FFFFFF" fill-rule="nonzero"></path>
                <path d="M21.8176624,11.4659911 C21.6394994,11.4787772 21.5071225,11.409728 21.4053618,11.2481616 C21.3346735,11.1358904 21.3152415,11.0175035 21.3448148,10.8741062 L21.7511354,8.87675162 L22.1613922,6.77926655 L22.3954379,5.55830235 C22.4028943,5.51921586 22.4198325,5.50407983 22.4796997,5.48858297 C22.6804909,5.43643198 22.8812837,5.38985466 23.0817007,5.3490002 L23.3819972,5.29202931 C23.4367473,5.28247423 23.4875487,5.27632555 23.5588379,5.2709989 L23.9343205,5.24928441 L24.2322178,5.27179567 L24.2928503,5.27937599 C24.6061398,5.32466299 24.7706292,5.63080509 24.6373543,5.93721439 L24.4591049,6.33409332 L22.2175369,11.1629827 C22.1422641,11.3255454 22.0420825,11.4185062 21.9047314,11.4525455 L21.8176624,11.4659911 Z" id="路径" fill="#FF475D" fill-rule="nonzero"></path>
                <path d="M14.5791605,15.9781681 C14.6077486,15.9139951 14.6142673,15.8610677 14.6087218,15.7965351 L14.5743776,15.5681223 L14.5312552,15.3298131 C14.5230301,15.2699514 14.5223204,15.2311688 14.5274164,15.1932071 C14.5746027,14.8395158 14.8224845,14.5818391 15.1743471,14.5085611 L15.2953532,14.491086 C15.4655729,14.4766316 15.5933316,14.4094189 15.7107168,14.283086 C16.504229,13.4287657 17.4487752,12.8493656 18.548144,12.5452995 L19.6823123,12.2693221 L19.171669,11.9549334 C19.0660713,11.8899199 18.9549616,11.847408 18.8359017,11.8232756 C18.7567805,11.8072385 18.6894291,11.7998109 18.6029469,11.7978019 L18.1966615,11.8011493 L18.1758804,11.7998683 C17.9006387,11.7805344 17.6660929,11.8179182 17.4677151,11.9306214 L16.4801125,8.86212657 C16.2038915,8.00360238 15.4566559,7.44420833 14.5766443,7.44374673 L5.9319187,7.44394907 C5.06780147,7.44441143 4.31824493,8.00065069 4.04504871,8.8383327 L3.03292425,11.9783852 C2.87222878,11.8642899 2.68553346,11.8043214 2.47354718,11.800507 C2.23417667,11.7964016 1.98984961,11.7966059 1.73916054,11.800908 C1.45663745,11.8054428 1.20849459,11.9089134 1.02118496,12.11299 C0.755539781,12.4027716 0.678652139,12.7569805 0.81877488,13.1194535 C0.969447508,13.5091215 1.2833566,13.7322401 1.6969101,13.7516886 L1.9188131,13.7577094 L2.22904045,13.7562208 L2.22904045,20.9924643 L2.44957599,21.0186386 C2.95011362,21.0780449 3.42695784,21.0472931 3.90017336,20.9246767 C4.58157985,20.74792 4.9866454,20.2825799 5.09052966,19.5716283 C5.12755191,19.3180105 5.11616311,19.0745125 5.05299788,18.8379996 L14.3414809,18.8379996 L14.0012474,18.4883151 C14.0251726,17.6178452 14.2182353,16.7881335 14.5791605,15.9781681 Z" id="路径" fill="#FFFFFF" fill-rule="nonzero"></path>
                <path d="M13.5064948,18.3379995 L4.2802277,18.3379996 L4.46689197,18.7020621 C4.59784553,18.9574687 4.63734111,19.2146486 4.59577836,19.4993707 C4.52056444,20.0141114 4.25849209,20.3151807 3.77469354,20.4406779 C3.43187388,20.529507 3.08776036,20.5629644 2.72904045,20.5417871 L2.72904045,13.254342 L1.78802508,13.2550035 L1.72045329,13.2522432 C1.50337327,13.2420344 1.36392455,13.1429178 1.28513346,12.9391491 C1.21552858,12.7590934 1.24913997,12.6042512 1.38965057,12.4509738 C1.48053963,12.3519489 1.59733202,12.3032488 1.7474625,12.300839 C1.992843,12.2966282 2.23146492,12.2964286 2.46476248,12.3004298 C2.66075648,12.3039565 2.80189095,12.3902249 2.92778895,12.5929478 L3.212642,13.0516224 L4.52042034,8.99332239 C4.72717311,8.35937121 5.28650701,7.94429448 5.93220607,7.94394899 L14.5763947,7.94374666 C15.2367571,7.94409305 15.7936319,8.36097961 16.0041627,9.01533157 L17.0887918,12.3789391 L17.150262,12.5575747 C16.5781632,12.8539242 16.0539027,13.2359089 15.5781997,13.7024592 L15.344398,13.9427765 C15.3202908,13.9687213 15.3057079,13.980814 15.2867807,13.9870021 L15.253398,13.9928494 C14.6084529,14.0467004 14.1158623,14.4970428 14.0318346,15.1268854 C14.0171711,15.2361166 14.0216854,15.3219085 14.0458,15.4626893 L14.1071611,15.8108787 L14.1150511,15.7913164 C13.7512852,16.6128096 13.5475913,17.456742 13.5064948,18.3379995 Z" id="路径" fill="#FF475D" fill-rule="nonzero"></path>
                <path d="M33.9769656,20.2255086 L32.7338699,16.3905854 C32.4110495,15.3977022 31.4932216,14.7165638 30.4737974,14.7165638 L19.8238321,14.7165638 C18.7864881,14.7169597 17.875862,15.3867939 17.5482985,16.3887882 L16.2815158,20.2897795 C16.1217711,20.1571893 15.941375,20.0791235 15.740022,20.0701318 L15.3403314,20.0550719 C14.9821373,20.0449158 14.7336487,20.0500185 14.4618124,20.075308 C14.0123633,20.1171251 13.6809948,20.4185145 13.5478865,20.8744246 C13.4192638,21.3167295 13.5444191,21.7220808 13.8893932,22.034566 C14.1012558,22.2262247 14.3608428,22.3217467 14.6510762,22.3217467 L15.3109914,22.3217467 L15.3109914,31.1791785 L15.5339048,31.2034734 C16.1722254,31.2730428 16.7549205,31.2384551 17.3128301,31.0858101 C18.2743501,30.8225569 18.7510177,30.1470348 18.7370906,29.0611747 C18.7352042,28.9052399 18.713757,28.7807233 18.6577208,28.5557778 L31.5011423,28.5557778 L31.4629794,28.7208256 L31.4394516,28.8536099 C31.4289877,28.9243396 31.4229013,28.9917632 31.4215806,29.0579795 C31.4054576,29.8655805 31.6455485,30.4632848 32.2491238,30.8242671 C32.8441743,31.1801256 33.4401503,31.2713374 34.3790464,31.2247248 L34.8539503,31.1942518 L34.8539503,22.3207238 L35.4252935,22.3214777 L35.5800593,22.3170156 C36.187765,22.2936903 36.6689104,21.7745157 36.659061,21.1638739 C36.650173,20.6465012 36.2777678,20.1902896 35.7846285,20.0850351 L35.6687018,20.0671177 C35.5800661,20.058474 35.5030069,20.0540432 35.4001072,20.0519431 L34.8352108,20.0463645 C34.4892469,20.0321837 34.210059,20.0810399 33.9769656,20.2255086 Z" id="路径" fill="#FFFFFF" fill-rule="nonzero"></path>
                <path d="M32.5057568,30.3951523 C32.0802472,30.1406663 31.9085965,29.7133435 31.9214811,29.0679546 L31.9252865,28.9999599 L31.9340681,28.9267844 C31.9442068,28.8582533 31.9562644,28.80004 31.9824958,28.692301 L32.0624391,28.3553773 L32.1230845,28.0557778 L18.0335066,28.0557778 L18.1179859,28.4598331 L18.1554521,28.6090513 C18.2150858,28.8418404 18.2356932,28.9486868 18.2371294,29.0674051 C18.2482168,29.9318596 17.9163514,30.4021715 17.180837,30.6035469 C16.7513115,30.7210658 16.3017815,30.7597153 15.8109914,30.7262395 L15.8109914,21.8217467 L14.6510762,21.8217467 C14.482226,21.8217467 14.3426901,21.7704007 14.2249451,21.6638843 C14.0186161,21.4769868 13.9541191,21.2680948 14.0279233,21.0142982 C14.1059426,20.7470743 14.2731175,20.5950238 14.5081306,20.573158 L14.7570424,20.5559692 C15.0098229,20.5446704 15.2881756,20.5505878 15.7177947,20.5696375 C15.8411595,20.5751465 15.962732,20.65083 16.082158,20.7978532 L16.4774982,21.3037342 L18.0235634,16.5441051 C18.2843378,15.746414 19.0042332,15.2168766 19.8239275,15.2165638 L30.4737974,15.2165638 C31.2745521,15.2165638 32.0018891,15.7563352 32.2583556,16.5451366 L33.5988285,20.67463 L33.7736684,21.1836534 L34.0575209,20.8204184 C34.2080599,20.6277796 34.3909169,20.5504749 34.6828335,20.5443467 L35.3825661,20.5517314 L35.5459012,20.5585106 L35.6446339,20.5659374 C35.9126116,20.5931329 36.1537926,20.8651118 36.158977,21.1721887 C36.1645631,21.5132136 35.894542,21.8045768 35.5610236,21.8173781 L35.2530836,21.823104 L34.3539503,21.8193693 L34.3539503,30.7253414 C33.5081686,30.7671797 32.9963714,30.6885549 32.5057568,30.3951523 Z" id="路径" fill="#FF475D" fill-rule="nonzero"></path>
                <path d="M31.4235288,25.6298012 C30.6724353,25.6291942 30.0635284,25.0271475 30.0660307,24.2871591 C30.0685485,23.5551125 30.6741579,22.9668751 31.4251038,22.967229 C32.1835305,22.9674315 32.7846612,23.5602214 32.7822079,24.3047623 C32.7794443,25.0336728 32.1679289,25.6302058 31.4235288,25.6295988 L31.4235288,25.6298012 Z" id="路径" fill="#5B000B"></path>
                <path d="M18.7398872,25.6298071 C17.9876125,25.6319763 17.3776228,25.0328634 17.3783604,24.292521 C17.3793454,23.5568829 17.9787536,22.9694043 18.7310775,22.9670715 C19.4879785,22.9649023 20.0966394,23.5598167 20.0945285,24.2994004 C20.0924067,25.0295249 19.483549,25.6274237 18.7398872,25.6298071 L18.7398872,25.6298071 Z" id="路径" fill="#5B000B"></path>
                <path d="M18.7422004,20.6483226 C19.0025066,19.6870307 19.2636003,18.7259412 19.524694,17.7648518 C19.7363251,16.9855093 20.3630977,16.4968712 21.1530722,16.4966689 C23.886706,16.4964665 26.6204875,16.4964665 29.3541213,16.4966689 C30.1448833,16.4968712 30.7733292,16.978023 30.990571,17.7565054 C31.2987157,18.8608479 31.6020809,19.9666066 31.9074258,21.0717584 C31.9158418,21.1021591 31.9222399,21.1329646 31.934298,21.1831942 L18.6020809,21.1831942 C18.65051,20.9978556 18.6949033,20.8227856 18.7420035,20.6483226 L18.7422004,20.6483226 Z" id="路径" fill="#5B000B"></path>
                <path d="M3.94800627,15.33977 C3.93747393,14.74263 4.43096809,14.2411436 5.03751263,14.2328479 C5.64848665,14.2247545 6.14414635,14.700949 6.15487555,15.3061825 C6.16565397,15.9147545 5.67462063,16.4093615 5.05444312,16.4150774 C4.46251589,16.4203887 3.95858782,15.9305872 3.94800627,15.33977 L3.94800627,15.33977 Z" id="路径" fill="#5B000B"></path>
                <path d="M4.98386661,12.6187233 C5.21690689,11.7501008 5.44911048,10.8812759 5.68466081,10.0134626 C5.87188049,9.32385564 6.36542387,8.94230311 7.06252683,8.94230311 C9.27131555,8.94215136 11.4799074,8.94215136 13.6886469,8.94250545 C14.3117774,8.94250545 14.8335219,9.33452879 15.0059766,9.94785564 C15.2637728,10.8654938 15.5117749,11.7856611 15.7634683,12.7050696 C15.767504,12.7196883 15.7661259,12.7362798 15.7688329,12.7734588 L4.95236803,12.7734588 C4.96349097,12.7179179 4.97082423,12.6675366 4.98386661,12.6187233 L4.98386661,12.6187233 Z" id="路径" fill="#5B000B"></path>
            </g>
        </g>
    </g>
</svg>