<?xml version="1.0" encoding="UTF-8"?>
<svg width="36px" height="36px" viewBox="0 0 36 36" version="1.1" xmlns="http://www.w3.org/2000/svg" xmlns:xlink="http://www.w3.org/1999/xlink">
    <!-- Generator: Sketch 58 (84663) - https://sketch.com -->
    <g id="V1.0.0" stroke="none" stroke-width="1" fill="none" fill-rule="evenodd">
        <g id="交通事件2-icon" transform="translate(-183.000000, -225.000000)">
            <g id="traffic_jam_yellow" transform="translate(183.000000, 225.000000)">
                <path d="M15.7332006,19.875526 L14.9317764,17.8069549 C14.6801731,17.0321326 13.2624301,16.1232877 12.3870291,16.1232877 L7.26023116,16.1232877 C6.42630071,16.1232877 5.10747704,16.9427684 4.75778959,17.700922 L3.97899129,19.7219019 C3.88025127,20.0250143 3.67774452,20.2628787 3.41718953,20.3904913 L3.30210243,20.438301 C2.46862563,20.7274649 2,21.5748151 2,22.6369863 L2,29.0411815 C2,29.8401368 2.64961082,30.4898116 3.44863014,30.4898116 L4.28086473,30.4898116 C5.07979581,30.4898116 5.72949486,29.8400966 5.72949486,29.0411815 L5.72949486,28.6644264 C5.72949486,28.0456642 6.23060656,27.5445634 6.84935788,27.5445634 L12.7978596,27.5445634 C13.4166377,27.5445634 13.9177226,28.0456482 13.9177226,28.6644264 L13.9177226,28.9690925 C13.9177226,29.8103572 14.599281,30.4931507 15.4417808,30.4931507 L16.2021404,30.4931507 C17.0010957,30.4931507 17.6507705,29.8435399 17.6507705,29.0445205 L17.6507705,22.6403253 C17.6469624,21.6369021 17.2456516,20.8419476 16.5128055,20.5143993 L16.3618353,20.4551985 C16.0833735,20.3590587 15.8572901,20.1482194 15.7332006,19.875526 Z" id="路径" fill="#FFFFFF" fill-rule="nonzero"></path>
                <path d="M16.0472213,20.8663826 L16.2005119,20.9284584 C16.8003147,21.132165 17.1474482,21.7657552 17.1507723,22.6412745 L17.1507723,29.0445205 C17.1507723,29.5673865 16.7249643,29.9931507 16.2021404,29.9931507 L15.4417808,29.9931507 C14.8756263,29.9931507 14.4177226,29.5344173 14.4177226,28.9690925 L14.4177226,28.6644264 C14.4177226,27.7695059 13.6927801,27.0445634 12.7978596,27.0445634 L6.84935788,27.0445634 C5.9544666,27.0445634 5.22949486,27.7695194 5.22949486,28.6644264 L5.22949486,29.0411815 C5.22949486,29.563957 4.80365067,29.9898116 4.28086473,29.9898116 L3.44863014,29.9898116 C2.92576423,29.9898116 2.5,29.5640054 2.5,29.0411815 L2.5,22.6369863 C2.5,21.8272814 2.81216244,21.2088614 3.34742347,20.958742 L3.46550457,20.9108468 C3.88017336,20.7679335 4.21236737,20.4511728 4.39062037,20.0451317 L5.18192481,17.9870451 C5.37194701,17.4038138 6.58836506,16.6232877 7.26023116,16.6232877 L12.3870291,16.6232877 C13.056551,16.6232877 14.2755827,17.4047486 14.4609314,17.9746268 L15.2155267,19.9225828 C15.349436,20.3360935 15.6523706,20.6813188 16.0472213,20.8663826 Z" id="路径" fill="#FDE305" fill-rule="nonzero"></path>
                <path d="M33.522506,20.4222232 C33.2443305,20.3238499 33.0159198,20.1080366 32.8882545,19.8309892 L32.0888379,17.8021255 C31.8375497,17.028594 30.4199773,16.1199486 29.5446062,16.1199486 L24.4178082,16.1199486 C23.5861271,16.1199486 22.2723475,16.934751 21.9182939,17.6911127 L21.1365133,19.722045 C21.0378502,20.0249435 20.8352635,20.2628451 20.5747227,20.3904895 L20.4596481,20.4383119 C19.6262027,20.7274649 19.1575771,21.5748151 19.1575771,22.6369863 L19.1575771,29.0411815 C19.1575771,29.8401502 19.8071585,30.4898116 20.6062072,30.4898116 L21.4382705,30.4898116 C22.2373193,30.4898116 22.8869007,29.8401502 22.8869007,29.0411815 L22.8869007,28.6644264 C22.8869007,28.0456642 23.3880124,27.5445634 24.0067637,27.5445634 L29.9554366,27.5445634 C30.5742148,27.5445634 31.0752997,28.0456482 31.0752997,28.6644264 L31.0752997,28.9690925 C31.0752997,29.8103707 31.7568287,30.4931507 32.5993579,30.4931507 L33.3595462,30.4931507 C34.1586191,30.4931507 34.8081764,29.8435934 34.8081764,29.0445205 L34.8081764,22.3869863 L34.7962522,22.3869863 C34.7300187,21.4372854 34.2825244,20.6940536 33.522506,20.4222232 Z" id="路径" fill="#FFFFFF" fill-rule="nonzero"></path>
                <path d="M34.3081764,29.0445205 C34.3081764,29.5674511 33.8824768,29.9931507 33.3595462,29.9931507 L32.5993579,29.9931507 C32.0331766,29.9931507 31.5752997,29.5344334 31.5752997,28.9690925 L31.5752997,28.6644264 C31.5752997,27.7695059 30.8503571,27.0445634 29.9554366,27.0445634 L24.0067637,27.0445634 C23.1118724,27.0445634 22.3869007,27.7695194 22.3869007,28.6644264 L22.3869007,29.0411815 C22.3869007,29.5640216 21.9611631,29.9898116 21.4382705,29.9898116 L20.6062072,29.9898116 C20.0833146,29.9898116 19.6575771,29.5640216 19.6575771,29.0411815 L19.6575771,22.6369863 C19.6575771,21.8272814 19.9697395,21.2088614 20.5050005,20.958742 L20.6230816,20.9108468 C21.0376821,20.7678954 21.3699549,20.4510852 21.5482035,20.0451039 L22.3395569,17.9833916 C22.5295164,17.4003272 23.745868,16.6199486 24.4178082,16.6199486 L29.5446062,16.6199486 C30.2141271,16.6199486 31.4330237,17.4012454 31.6185254,17.9711687 L32.3701091,19.8794241 C32.5079942,20.2939097 32.8112928,20.6426318 33.2037582,20.8305642 L33.3549635,20.8933163 C33.9543214,21.1076861 34.3048373,21.7610007 34.3048373,22.6369863 L34.3048373,22.8869863 L34.3081764,29.0445205 Z" id="路径" fill="#FDE305" fill-rule="nonzero"></path>
                <path d="M22.4158193,13.4416319 L22.4146522,13.4280394 L25.8425086,13.4280394 C26.3573365,13.4280394 26.7774849,13.0079325 26.7774849,12.4931079 L26.7774849,11.5136986 C26.7810439,10.5194077 26.3696727,9.71141555 25.6312019,9.37590282 L25.4787081,9.31502418 C25.202547,9.21980546 24.9777731,9.00786389 24.8532956,8.73276414 L24.0655286,6.6843145 C23.8137357,5.90882749 22.3960956,5 21.5205479,5 L15.023887,5 C14.1461331,5 12.7312199,5.9079622 12.4745172,6.69668658 L11.7426478,8.59861244 C11.6439089,8.90172112 11.4414039,9.13959093 11.18087,9.26720562 L11.0657932,9.31501606 C10.2322803,9.60422357 9.76365582,10.4515344 9.76365582,11.5136986 L9.76365582,12.4931079 C9.76365582,13.0079219 10.1837915,13.4280394 10.6985873,13.4280394 L14.1716514,13.4280394 L11.9691768,12.9340987 C11.7734827,12.8902111 11.6301798,12.7135022 11.6301798,12.5103596 L11.6301798,12.4041524 C11.6301798,12.1306255 11.8824867,11.9237863 12.1487448,11.9779093 L14.1868883,12.3888608 C14.3897311,12.4302971 14.5376284,12.6098861 14.5376284,12.8150257 C14.5376284,12.886336 14.4830449,12.9430777 14.4128539,12.9454315 L14.3804717,13.4419458 C14.7268292,13.4991834 15.0185726,13.7483415 15.1287835,14.084658 L15.2310866,14.4047869 C15.3570256,14.7920017 15.7157668,15.0514127 16.119863,15.0514127 L20.681464,15.0514127 C21.0879395,15.0514127 21.4483629,14.7895182 21.5705741,14.4042771 L21.6731117,14.0827682 C21.7830834,13.7476184 22.0689532,13.5016401 22.4158193,13.4416319 Z" id="路径" fill="#FFFFFF" fill-rule="nonzero"></path>
                <path d="M25.1639267,9.7260031 L25.3154946,9.78763549 C25.9229124,9.99853971 26.280582,10.6467818 26.2774835,11.5127983 L26.2774835,12.4931079 C26.2774835,12.7317853 26.081199,12.9280394 25.8425086,12.9280394 L25.2776944,12.9280394 C25.3411459,12.8016172 25.3766267,12.6594593 25.3766267,12.5103596 L25.3766267,12.4041524 C25.3766267,11.8141318 24.8377321,11.3711176 24.2588434,11.4878526 L22.2211338,11.898725 C21.7807222,11.9821902 21.4644186,12.3734333 21.4692351,12.8245441 C21.4719601,12.9952421 21.541891,13.1485961 21.6532268,13.2601738 C21.445212,13.4319813 21.2850382,13.6617316 21.1973904,13.9288693 L21.0940972,14.2527198 C21.0378686,14.4299657 20.8707314,14.5514127 20.681464,14.5514127 L16.119863,14.5514127 C15.9319026,14.5514127 15.7653941,14.431008 15.7069618,14.2513558 L15.6044871,13.9307011 C15.491787,13.5867744 15.2567962,13.3036349 14.955535,13.1272436 C15.0078495,13.035132 15.0376284,12.9285256 15.0376284,12.8150257 C15.0376284,12.371418 14.7216925,11.9877828 14.2863365,11.898851 L12.2479576,11.4878515 C11.6718861,11.3707516 11.1301798,11.8148382 11.1301798,12.4041524 L11.1301798,12.5103596 C11.1301798,12.6594641 11.1656661,12.8016206 11.2291292,12.9280394 L10.6985873,12.9280394 C10.459929,12.9280394 10.2636558,12.7317747 10.2636558,12.4931079 L10.2636558,11.5136986 C10.2636558,10.7039987 10.575816,10.0856078 11.11112,9.83545888 L11.2292111,9.78755637 C11.6438463,9.64463928 11.9760294,9.3278743 12.1542777,8.92184064 L12.94558,6.86380194 C13.1357877,6.28049855 14.3520692,5.5 15.023887,5.5 L21.5205479,5.5 C22.1902054,5.5 23.4091233,6.2814297 23.5944446,6.85136464 L24.3351135,8.77809989 C24.4697631,9.19383412 24.7708551,9.54091496 25.1639267,9.7260031 Z" id="路径" fill="#FDE305" fill-rule="nonzero"></path>
                <path d="M8.10954623,18.0856164 L11.5923801,18.0856164 C12.4828339,18.0856164 13.2705908,18.6574914 13.5480308,19.5034675 L13.8048801,20.1027825 C13.9006849,20.3286815 13.7363014,20.5786815 13.4896832,20.5786815 L6.22264555,20.5786815 C5.97949486,20.5786815 5.81160103,20.3321918 5.90757705,20.1061216 L6.15072774,19.5240154 C6.41776541,18.667851 7.20890411,18.0856164 8.10954623,18.0856164 Z" id="路径" fill="#716500"></path>
                <path d="M6.64387842,24.9349315 L4.30145548,24.9349315 C3.92470034,24.9349315 3.61652397,24.6267551 3.61652397,24.25 L3.61652397,24.1437928 C3.61652397,23.7123716 4.01365582,23.3869863 4.4348887,23.4726027 L6.47264555,23.8836045 C6.79101027,23.9486729 7.0239726,24.2294092 7.0239726,24.5548373 C7.0239726,24.7636986 6.85273973,24.9349315 6.64387842,24.9349315 Z" id="路径" fill="#716500"></path>
                <path d="M15.3116866,24.9349315 L12.9690925,24.9349315 C12.760274,24.9349315 12.5890411,24.7636986 12.5890411,24.5548373 C12.5890411,24.2294092 12.8184503,23.9486729 13.1403253,23.8836045 L15.1780822,23.4726027 C15.6028253,23.3869863 15.9966182,23.7123716 15.9966182,24.1437928 L15.9966182,24.25 C15.9966182,24.6267551 15.6884418,24.9349315 15.3116866,24.9349315 Z" id="路径" fill="#716500"></path>
                <path d="M25.2671233,18.0856164 L28.7499572,18.0856164 C29.640411,18.0856164 30.4279966,18.6574914 30.7054366,19.5034675 L30.962286,20.1027825 C31.058262,20.3286815 30.8938784,20.5786815 30.6472175,20.5786815 L23.3802226,20.5786815 C23.1370719,20.5786815 22.9691781,20.3321918 23.0649829,20.1061216 L23.3083048,19.5240154 C23.5753425,18.667851 24.3664812,18.0856164 25.2671233,18.0856164 Z" id="路径" fill="#716500"></path>
                <path d="M23.8014127,24.9349315 L21.4588613,24.9349315 C21.0822774,24.9349315 20.7739298,24.6267551 20.7739298,24.25 L20.7739298,24.1437928 C20.7739298,23.7123716 21.1712329,23.3869863 21.5924658,23.4726027 L23.6301798,23.8836045 C23.9485873,23.9486729 24.1815068,24.2294092 24.1815068,24.5548373 C24.1815068,24.7636986 24.010274,24.9349315 23.8014127,24.9349315 Z" id="路径" fill="#716500"></path>
                <path d="M32.4692637,24.9349315 L30.1266695,24.9349315 C29.9178082,24.9349315 29.7465753,24.7636986 29.7465753,24.5548373 C29.7465753,24.2294092 29.9760274,23.9486729 30.2979024,23.8836045 L32.3356592,23.4726027 C32.7602312,23.3869863 33.1541952,23.7123716 33.1541952,24.1437928 L33.1541952,24.25 C33.1541952,24.6267551 32.8458476,24.9349315 32.4692637,24.9349315 Z" id="路径" fill="#716500"></path>
                <path d="M22.3732021,12.9452911 L22.0993151,12.9452911 C22.0284589,12.9452911 21.9703183,12.888577 21.969189,12.8178821 C21.9669619,12.608966 22.1132096,12.4280689 22.3171077,12.3894189 L24.3576761,11.9779874 C24.6264432,11.9237895 24.8766267,12.1294602 24.8766267,12.4041524 L24.8766267,12.5103596 C24.8766267,12.7135033 24.7333607,12.8902262 24.5378144,12.9341052 L22.4131769,13.4108575 L22.3732021,12.9452911 Z" id="路径" fill="#716500" fill-rule="nonzero"></path>
                <path d="M12.0540627,12.9452911 L11.7801757,12.9452911 C11.7093196,12.9452911 11.6511789,12.888577 11.6500496,12.8178821 C11.6478225,12.608966 11.7940702,12.4280689 11.9979683,12.3894189 L14.0385367,11.9779874 C14.3073039,11.9237895 14.5574873,12.1294602 14.5574873,12.4041524 L14.5574873,12.5103596 C14.5574873,12.7135033 14.4142213,12.8902262 14.2186751,12.9341052 L12.0940376,13.4108575 L12.0540627,12.9452911 Z" id="路径" fill="#716500" fill-rule="nonzero" transform="translate(13.103744, 12.690069) scale(-1, 1) translate(-13.103744, -12.690069) "></path>
                <path d="M22.619863,9.45890411 L13.9863014,9.45890411 C13.7431507,9.45890411 13.5752997,9.21228596 13.6712757,8.98634418 L13.9143836,8.40410959 C14.181464,7.54794521 14.9760702,6.96566781 15.8767123,6.96566781 L20.7294521,6.96566781 C21.619863,6.96566781 22.4074914,7.53771404 22.6848887,8.38351884 L22.941738,8.9828339 C23.0308647,9.20890411 22.866524,9.45890411 22.619863,9.45890411 Z" id="路径" fill="#716500"></path>
            </g>
        </g>
    </g>
</svg>