<?xml version="1.0" encoding="UTF-8"?>
<svg width="36px" height="36px" viewBox="0 0 36 36" version="1.1" xmlns="http://www.w3.org/2000/svg" xmlns:xlink="http://www.w3.org/1999/xlink">
    <!-- Generator: Sketch 58 (84663) - https://sketch.com -->
    
    <desc>Created with Sketch.</desc>
    <g id="V1.0.0" stroke="none" stroke-width="1" fill="none" fill-rule="evenodd">
        <g id="交通事件2-icon" transform="translate(-552.000000, -481.000000)">
            <g id="dangerous_red" transform="translate(552.000000, 481.000000)">
                <path d="M11.8599902,12.8363889 C11.7734022,12.8533113 11.6228074,12.8977964 11.4286098,12.982146 C11.07374,13.1362835 10.717593,13.3672401 10.384139,13.690588 C9.65320693,14.3993676 9.13644199,15.4438225 8.93021402,16.8947934 L26.5967151,16.8947934 C26.3965223,15.4862914 25.9030727,14.4598272 25.2035362,13.7509494 L24.9032658,13.4466692 L27.3539934,12.7781192 L27.4550703,12.920882 C28.2218544,14.0039006 28.7395748,15.3729576 28.9451401,17.0577217 C30.0915909,17.9992437 30.7771011,19.4353639 30.7771011,20.9895584 L30.7771011,22.4165527 C30.7771011,23.9662951 30.0958458,25.3993421 28.9536325,26.3418732 L28.9536325,28.0849288 C28.9536325,28.7264544 28.4335484,29.2465385 27.7920228,29.2465385 L25.0569444,29.2465385 C24.4154226,29.2465385 23.8953704,28.7264582 23.8953704,28.0849288 L23.8953704,27.4232479 L11.6317308,27.4232479 L11.6317308,28.0849288 C11.6317308,28.7264474 11.1116537,29.2465385 10.4701567,29.2465385 L7.73507835,29.2465385 C7.09343836,29.2465385 6.57332621,28.7264824 6.57332621,28.0849288 L6.57332621,26.3418752 C5.43115582,25.3993997 4.75,23.9663755 4.75,22.4165527 L4.75,20.9895584 C4.75,19.4353139 5.43552462,17.999135 6.58197255,17.0576055 C6.85622662,14.8088456 7.6796381,13.1389983 8.88355609,11.9706827 C9.41261803,11.4572662 9.98012254,11.0761398 10.548683,10.8075786 C10.8931906,10.6448494 11.1647959,10.5552073 11.3817308,10.5129202 L21.468527,10.5129202 L22.1323558,12.8363889 L11.8599902,12.8363889 Z" id="路径" fill="#FFFFFF" fill-rule="nonzero"></path>
                <path d="M25.9898327,13.9040772 C26.5791767,14.7029323 26.9783515,15.7632745 27.1287425,17.1171936 L27.1595778,17.3947934 L8.36733349,17.3947934 L8.39818175,17.1171832 C8.58813023,15.4077953 9.17402643,14.1675515 10.0360669,13.331637 C10.687036,12.7003969 11.343372,12.4153178 11.7965045,12.3397908 L11.8376068,12.3363889 L21.4694961,12.3363889 L21.0913404,11.0128051 L11.4362175,11.0069104 C11.3081569,11.0355083 11.0713716,11.1136583 10.7622344,11.2596801 C10.2413867,11.5057041 9.71948312,11.8562057 9.23176415,12.3295018 C8.14967673,13.3795896 7.39346792,14.8728372 7.10767952,16.8947934 L7.61575409,16.8947934 L7.02611909,17.3437056 C5.91882527,18.1867316 5.25,19.5290124 5.25,20.9895584 L5.25,22.4165527 C5.25,23.8551624 5.89837606,25.1795379 6.97754726,26.0253804 L7.07332621,26.2221439 L7.07332621,28.0849288 C7.07332621,28.450328 7.36956866,28.7465385 7.73507835,28.7465385 L10.4701567,28.7465385 C10.8355083,28.7465385 11.1317308,28.450308 11.1317308,28.0849288 L11.1317308,26.9232479 L24.3953704,26.9232479 L24.3953704,28.0849288 C24.3953704,28.4503218 24.691571,28.7465385 25.0569444,28.7465385 L27.7920228,28.7465385 C28.157406,28.7465385 28.4536325,28.450312 28.4536325,28.0849288 L28.4536325,26.2221439 L28.5494084,26.0253828 C29.6286283,25.1794749 30.2771011,23.8550689 30.2771011,22.4165527 L30.2771011,20.9895584 C30.2771011,19.5290021 29.6082342,18.1867291 28.5008486,17.3437125 L27.9111491,16.8947934 L28.4193816,16.8947934 C28.2172729,15.4674688 27.7772858,14.2961622 27.1457473,13.3531987 L25.8385688,13.7097925 L25.9898327,13.9040772 Z" id="路径" fill="#FF475D" fill-rule="nonzero"></path>
                <path d="M26.4244195,24.4381303 C27.6832514,24.4381303 28.7036218,23.4177956 28.7036218,22.1589281 C28.7036218,20.9002386 27.6832514,19.8797258 26.4244195,19.8797258 C25.1657301,19.8797258 24.1452172,20.9002386 24.1452172,22.1589281 C24.1453597,23.4177956 25.1657301,24.4381303 26.4244195,24.4381303" id="Fill-3" fill="#5B000B"></path>
                <path d="M13.8889637,23.9824003 L21.6381446,23.9824003 C22.0158511,23.9824003 22.3218697,23.6762393 22.3218697,23.2985328 C22.3218697,22.9210043 22.0158511,22.6148433 21.6381446,22.6148433 L13.8889637,22.6148433 C13.5112571,22.6148433 13.2050605,22.9210043 13.2050605,23.2985328 C13.2050605,23.6762393 13.5112571,23.9824003 13.8889637,23.9824003" id="Fill-5" fill="#5B000B"></path>
                <path d="M13.8889637,21.703198 L21.6381446,21.703198 C22.0158511,21.703198 22.3218697,21.397037 22.3218697,21.0193305 C22.3218697,20.641802 22.0158511,20.335641 21.6381446,20.335641 L13.8889637,20.335641 C13.5112571,20.335641 13.2050605,20.641802 13.2050605,21.0193305 C13.2050605,21.397037 13.5112571,21.703198 13.8889637,21.703198" id="Fill-7" fill="#5B000B"></path>
                <path d="M6.82333333,22.1589281 C6.82333333,23.4177956 7.84373932,24.4381303 9.10253561,24.4381303 C10.3613675,24.4381303 11.3817379,23.4177956 11.3817379,22.1589281 C11.3817379,20.9002386 10.3613675,19.8797258 9.10253561,19.8797258 C7.84373932,19.8797258 6.82333333,20.9002386 6.82333333,22.1589281" id="Fill-9" fill="#5B000B"></path>
                <polygon id="路径" fill="#FFFFFF" fill-rule="nonzero" points="23.3908832 10.9543091 23.3908832 13.2687322 25.8120014 13.2687322 25.8120014 10.9543091"></polygon>
                <polygon id="路径" fill="#FF475D" fill-rule="nonzero" points="23.8908832 11.4543091 25.3120014 11.4543091 25.3120014 12.7687322 23.8908832 12.7687322"></polygon>
                <polygon id="路径" fill="#FFFFFF" fill-rule="nonzero" points="25.9783438 3.75 25.8058905 10.7178775 23.3969968 10.7178775 23.2244668 3.75"></polygon>
                <polygon id="路径" fill="#FF475D" fill-rule="nonzero" points="23.8847696 10.2178775 25.3181123 10.2178775 25.4658158 4.25 23.7370004 4.25"></polygon>
            </g>
        </g>
    </g>
</svg>