<?xml version="1.0" encoding="UTF-8"?>
<svg width="36px" height="36px" viewBox="0 0 36 36" version="1.1" xmlns="http://www.w3.org/2000/svg" xmlns:xlink="http://www.w3.org/1999/xlink">
    <!-- Generator: Sketch 58 (84663) - https://sketch.com -->
    <g id="V1.0.0" stroke="none" stroke-width="1" fill="none" fill-rule="evenodd">
        <g id="交通事件2-icon" transform="translate(-183.000000, -83.000000)">
            <g id="traffic_jam" transform="translate(183.000000, 83.000000)">
                <path d="M15.4832006,19.6323754 L14.6817764,17.5638042 C14.4301731,16.7889819 13.0124301,15.880137 12.1370291,15.880137 L7.01023116,15.880137 C6.17630071,15.880137 4.85747704,16.6996177 4.50778959,17.4577713 L3.72899129,19.4787512 C3.63025127,19.7818636 3.42774452,20.019728 3.16718953,20.1473406 L3.05210243,20.1951503 C2.21862563,20.4843142 1.75,21.3316644 1.75,22.3938356 L1.75,28.7980308 C1.75,29.5969861 2.39961082,30.246661 3.19863014,30.246661 L4.03086473,30.246661 C4.82979581,30.246661 5.47949486,29.5969459 5.47949486,28.7980308 L5.47949486,28.4212757 C5.47949486,27.8025136 5.98060656,27.3014127 6.59935788,27.3014127 L12.5478596,27.3014127 C13.1666377,27.3014127 13.6677226,27.8024976 13.6677226,28.4212757 L13.6677226,28.7259418 C13.6677226,29.5672065 14.349281,30.25 15.1917808,30.25 L15.9521404,30.25 C16.7510957,30.25 17.4007705,29.6003892 17.4007705,28.8013699 L17.4007705,22.3971747 C17.3969624,21.3937514 16.9956516,20.5987969 16.2628055,20.2712486 L16.1118353,20.2120478 C15.8333735,20.115908 15.6072901,19.9050687 15.4832006,19.6323754 Z" id="路径" fill="#FFFFFF" fill-rule="nonzero"></path>
                <path d="M15.7972213,20.6232319 L15.9505119,20.6853077 C16.5503147,20.8890143 16.8974482,21.5226045 16.9007723,22.3981239 L16.9007723,28.8013699 C16.9007723,29.3242358 16.4749643,29.75 15.9521404,29.75 L15.1917808,29.75 C14.6256263,29.75 14.1677226,29.2912666 14.1677226,28.7259418 L14.1677226,28.4212757 C14.1677226,27.5263552 13.4427801,26.8014127 12.5478596,26.8014127 L6.59935788,26.8014127 C5.7044666,26.8014127 4.97949486,27.5263688 4.97949486,28.4212757 L4.97949486,28.7980308 C4.97949486,29.3208063 4.55365067,29.746661 4.03086473,29.746661 L3.19863014,29.746661 C2.67576423,29.746661 2.25,29.3208547 2.25,28.7980308 L2.25,22.3938356 C2.25,21.5841307 2.56216244,20.9657107 3.09742347,20.7155913 L3.21550457,20.6676961 C3.63017336,20.5247828 3.96236737,20.2080221 4.14062037,19.801981 L4.93192481,17.7438944 C5.12194701,17.1606631 6.33836506,16.380137 7.01023116,16.380137 L12.1370291,16.380137 C12.806551,16.380137 14.0255827,17.1615979 14.2109314,17.7314761 L14.9655267,19.6794321 C15.099436,20.0929428 15.4023706,20.4381681 15.7972213,20.6232319 Z" id="路径" fill="#11EB97" fill-rule="nonzero"></path>
                <path d="M33.272506,20.1790725 C32.9943305,20.0806992 32.7659198,19.8648859 32.6382545,19.5878385 L31.8388379,17.5589749 C31.5875497,16.7854433 30.1699773,15.8767979 29.2946062,15.8767979 L24.1678082,15.8767979 C23.3361271,15.8767979 22.0223475,16.6916003 21.6682939,17.447962 L20.8865133,19.4788943 C20.7878502,19.7817928 20.5852635,20.0196944 20.3247227,20.1473388 L20.2096481,20.1951612 C19.3762027,20.4843142 18.9075771,21.3316644 18.9075771,22.3938356 L18.9075771,28.7980308 C18.9075771,29.5969995 19.5571585,30.246661 20.3562072,30.246661 L21.1882705,30.246661 C21.9873193,30.246661 22.6369007,29.5969995 22.6369007,28.7980308 L22.6369007,28.4212757 C22.6369007,27.8025136 23.1380124,27.3014127 23.7567637,27.3014127 L29.7054366,27.3014127 C30.3242148,27.3014127 30.8252997,27.8024976 30.8252997,28.4212757 L30.8252997,28.7259418 C30.8252997,29.56722 31.5068287,30.25 32.3493579,30.25 L33.1095462,30.25 C33.9086191,30.25 34.5581764,29.6004428 34.5581764,28.8013699 L34.5581764,22.1438356 L34.5462522,22.1438356 C34.4800187,21.1941347 34.0325244,20.4509029 33.272506,20.1790725 Z" id="路径" fill="#FFFFFF" fill-rule="nonzero"></path>
                <path d="M34.0581764,28.8013699 C34.0581764,29.3243004 33.6324768,29.75 33.1095462,29.75 L32.3493579,29.75 C31.7831766,29.75 31.3252997,29.2912827 31.3252997,28.7259418 L31.3252997,28.4212757 C31.3252997,27.5263552 30.6003571,26.8014127 29.7054366,26.8014127 L23.7567637,26.8014127 C22.8618724,26.8014127 22.1369007,27.5263688 22.1369007,28.4212757 L22.1369007,28.7980308 C22.1369007,29.3208709 21.7111631,29.746661 21.1882705,29.746661 L20.3562072,29.746661 C19.8333146,29.746661 19.4075771,29.3208709 19.4075771,28.7980308 L19.4075771,22.3938356 C19.4075771,21.5841307 19.7197395,20.9657107 20.2550005,20.7155913 L20.3730816,20.6676961 C20.7876821,20.5247447 21.1199549,20.2079345 21.2982035,19.8019532 L22.0895569,17.740241 C22.2795164,17.1571765 23.495868,16.3767979 24.1678082,16.3767979 L29.2946062,16.3767979 C29.9641271,16.3767979 31.1830237,17.1580947 31.3685254,17.728018 L32.1201091,19.6362734 C32.2579942,20.050759 32.5612928,20.3994811 32.9537582,20.5874136 L33.1049635,20.6501656 C33.7043214,20.8645354 34.0548373,21.51785 34.0548373,22.3938356 L34.0548373,22.6438356 L34.0581764,28.8013699 Z" id="路径" fill="#11EB97" fill-rule="nonzero"></path>
                <path d="M22.1658193,13.1984812 L22.1646522,13.1848887 L25.5925086,13.1848887 C26.1073365,13.1848887 26.5274849,12.7647819 26.5274849,12.2499572 L26.5274849,11.2705479 C26.5310439,10.276257 26.1196727,9.46826486 25.3812019,9.13275214 L25.2287081,9.0718735 C24.952547,8.97665478 24.7277731,8.76471321 24.6032956,8.48961345 L23.8155286,6.44116381 C23.5637357,5.66567681 22.1460956,4.75684932 21.2705479,4.75684932 L14.773887,4.75684932 C13.8961331,4.75684932 12.4812199,5.66481152 12.2245172,6.45353589 L11.4926478,8.35546176 C11.3939089,8.65857044 11.1914039,8.89644025 10.93087,9.02405493 L10.8157932,9.07186538 C9.98228026,9.36107289 9.51365582,10.2083837 9.51365582,11.2705479 L9.51365582,12.2499572 C9.51365582,12.7647712 9.93379146,13.1848887 10.4485873,13.1848887 L13.9216514,13.1848887 L11.7191768,12.690948 C11.5234827,12.6470604 11.3801798,12.4703515 11.3801798,12.2672089 L11.3801798,12.1610017 C11.3801798,11.8874748 11.6324867,11.6806356 11.8987448,11.7347586 L13.9368883,12.1457102 C14.1397311,12.1871464 14.2876284,12.3667355 14.2876284,12.571875 C14.2876284,12.6431853 14.2330449,12.699927 14.1628539,12.7022809 L14.1304717,13.1987951 C14.4768292,13.2560327 14.7685726,13.5051908 14.8787835,13.8415073 L14.9810866,14.1616363 C15.1070256,14.548851 15.4657668,14.808262 15.869863,14.808262 L20.431464,14.808262 C20.8379395,14.808262 21.1983629,14.5463675 21.3205741,14.1611264 L21.4231117,13.8396175 C21.5330834,13.5044678 21.8189532,13.2584894 22.1658193,13.1984812 Z" id="路径" fill="#FFFFFF" fill-rule="nonzero"></path>
                <path d="M24.9139267,9.48285242 L25.0654946,9.5444848 C25.6729124,9.75538903 26.030582,10.4036311 26.0274835,11.2696476 L26.0274835,12.2499572 C26.0274835,12.4886346 25.831199,12.6848887 25.5925086,12.6848887 L25.0276944,12.6848887 C25.0911459,12.5584665 25.1266267,12.4163086 25.1266267,12.2672089 L25.1266267,12.1610017 C25.1266267,11.5709811 24.5877321,11.1279669 24.0088434,11.2447019 L21.9711338,11.6555743 C21.5307222,11.7390395 21.2144186,12.1302826 21.2192351,12.5813934 C21.2219601,12.7520914 21.291891,12.9054455 21.4032268,13.0170231 C21.195212,13.1888306 21.0350382,13.4185809 20.9473904,13.6857186 L20.8440972,14.0095691 C20.7878686,14.1868151 20.6207314,14.308262 20.431464,14.308262 L15.869863,14.308262 C15.6819026,14.308262 15.5153941,14.1878573 15.4569618,14.0082051 L15.3544871,13.6875504 C15.241787,13.3436237 15.0067962,13.0604842 14.705535,12.8840929 C14.7578495,12.7919813 14.7876284,12.6853749 14.7876284,12.571875 C14.7876284,12.1282673 14.4716925,11.7446321 14.0363365,11.6557003 L11.9979576,11.2447008 C11.4218861,11.1276009 10.8801798,11.5716875 10.8801798,12.1610017 L10.8801798,12.2672089 C10.8801798,12.4163135 10.9156661,12.5584699 10.9791292,12.6848887 L10.4485873,12.6848887 C10.209929,12.6848887 10.0136558,12.488624 10.0136558,12.2499572 L10.0136558,11.2705479 C10.0136558,10.460848 10.325816,9.84245712 10.86112,9.59230819 L10.9792111,9.54440569 C11.3938463,9.40148859 11.7260294,9.08472361 11.9042777,8.67868996 L12.69558,6.62065126 C12.8857877,6.03734787 14.1020692,5.25684932 14.773887,5.25684932 L21.2705479,5.25684932 C21.9402054,5.25684932 23.1591233,6.03827902 23.3444446,6.60821395 L24.0851135,8.5349492 C24.2197631,8.95068344 24.5208551,9.29776428 24.9139267,9.48285242 Z" id="路径" fill="#11EB97" fill-rule="nonzero"></path>
                <path d="M7.85954623,17.8424658 L11.3423801,17.8424658 C12.2328339,17.8424658 13.0205908,18.4143408 13.2980308,19.2603168 L13.5548801,19.8596318 C13.6506849,20.0855308 13.4863014,20.3355308 13.2396832,20.3355308 L5.97264555,20.3355308 C5.72949486,20.3355308 5.56160103,20.0890411 5.65757705,19.8629709 L5.90072774,19.2808647 C6.16776541,18.4247003 6.95890411,17.8424658 7.85954623,17.8424658 Z" id="路径" fill="#005534"></path>
                <path d="M6.39387842,24.6917808 L4.05145548,24.6917808 C3.67470034,24.6917808 3.36652397,24.3836045 3.36652397,24.0068493 L3.36652397,23.9006421 C3.36652397,23.4692209 3.76365582,23.1438356 4.1848887,23.2294521 L6.22264555,23.6404538 C6.54101027,23.7055223 6.7739726,23.9862586 6.7739726,24.3116866 C6.7739726,24.5205479 6.60273973,24.6917808 6.39387842,24.6917808 Z" id="路径" fill="#005534"></path>
                <path d="M15.0616866,24.6917808 L12.7190925,24.6917808 C12.510274,24.6917808 12.3390411,24.5205479 12.3390411,24.3116866 C12.3390411,23.9862586 12.5684503,23.7055223 12.8903253,23.6404538 L14.9280822,23.2294521 C15.3528253,23.1438356 15.7466182,23.4692209 15.7466182,23.9006421 L15.7466182,24.0068493 C15.7466182,24.3836045 15.4384418,24.6917808 15.0616866,24.6917808 Z" id="路径" fill="#005534"></path>
                <path d="M25.0171233,17.8424658 L28.4999572,17.8424658 C29.390411,17.8424658 30.1779966,18.4143408 30.4554366,19.2603168 L30.712286,19.8596318 C30.808262,20.0855308 30.6438784,20.3355308 30.3972175,20.3355308 L23.1302226,20.3355308 C22.8870719,20.3355308 22.7191781,20.0890411 22.8149829,19.8629709 L23.0583048,19.2808647 C23.3253425,18.4247003 24.1164812,17.8424658 25.0171233,17.8424658 Z" id="路径" fill="#005534"></path>
                <path d="M23.5514127,24.6917808 L21.2088613,24.6917808 C20.8322774,24.6917808 20.5239298,24.3836045 20.5239298,24.0068493 L20.5239298,23.9006421 C20.5239298,23.4692209 20.9212329,23.1438356 21.3424658,23.2294521 L23.3801798,23.6404538 C23.6985873,23.7055223 23.9315068,23.9862586 23.9315068,24.3116866 C23.9315068,24.5205479 23.760274,24.6917808 23.5514127,24.6917808 Z" id="路径" fill="#005534"></path>
                <path d="M32.2192637,24.6917808 L29.8766695,24.6917808 C29.6678082,24.6917808 29.4965753,24.5205479 29.4965753,24.3116866 C29.4965753,23.9862586 29.7260274,23.7055223 30.0479024,23.6404538 L32.0856592,23.2294521 C32.5102312,23.1438356 32.9041952,23.4692209 32.9041952,23.9006421 L32.9041952,24.0068493 C32.9041952,24.3836045 32.5958476,24.6917808 32.2192637,24.6917808 Z" id="路径" fill="#005534"></path>
                <path d="M22.1232021,12.7021404 L21.8493151,12.7021404 C21.7784589,12.7021404 21.7203183,12.6454263 21.719189,12.5747314 C21.7169619,12.3658153 21.8632096,12.1849182 22.0671077,12.1462682 L24.1076761,11.7348367 C24.3764432,11.6806388 24.6266267,11.8863095 24.6266267,12.1610017 L24.6266267,12.2672089 C24.6266267,12.4703526 24.4833607,12.6470755 24.2878144,12.6909546 L22.1631769,13.1677068 L22.1232021,12.7021404 Z" id="路径" fill="#005534" fill-rule="nonzero"></path>
                <path d="M11.8040627,12.7021404 L11.5301757,12.7021404 C11.4593196,12.7021404 11.4011789,12.6454263 11.4000496,12.5747314 C11.3978225,12.3658153 11.5440702,12.1849182 11.7479683,12.1462682 L13.7885367,11.7348367 C14.0573039,11.6806388 14.3074873,11.8863095 14.3074873,12.1610017 L14.3074873,12.2672089 C14.3074873,12.4703526 14.1642213,12.6470755 13.9686751,12.6909546 L11.8440376,13.1677068 L11.8040627,12.7021404 Z" id="路径" fill="#005534" fill-rule="nonzero" transform="translate(12.853744, 12.446918) scale(-1, 1) translate(-12.853744, -12.446918) "></path>
                <path d="M22.369863,9.21575342 L13.7363014,9.21575342 C13.4931507,9.21575342 13.3252997,8.96913527 13.4212757,8.74319349 L13.6643836,8.1609589 C13.931464,7.30479452 14.7260702,6.72251712 15.6267123,6.72251712 L20.4794521,6.72251712 C21.369863,6.72251712 22.1574914,7.29456336 22.4348887,8.14036815 L22.691738,8.73968322 C22.7808647,8.96575342 22.616524,9.21575342 22.369863,9.21575342 Z" id="路径" fill="#005534"></path>
            </g>
        </g>
    </g>
</svg>