<?xml version="1.0" encoding="UTF-8"?>
<svg width="36px" height="36px" viewBox="0 0 36 36" version="1.1" xmlns="http://www.w3.org/2000/svg" xmlns:xlink="http://www.w3.org/1999/xlink">
    <!-- Generator: Sketch 58 (84663) - https://sketch.com -->
    <g id="V1.0.0" stroke="none" stroke-width="1" fill="none" fill-rule="evenodd">
        <g id="交通事件2-icon" transform="translate(-459.000000, -297.000000)">
            <g id="construction" transform="translate(459.000000, 297.000000)">
                <path d="M18.1433638,10.8305829 C19.8152472,10.8305829 21.1706812,9.4753264 21.1706812,7.8034059 C21.1706812,6.13122897 19.8155525,4.77608848 18.1433638,4.77608848 C16.4715088,4.77608848 15.1162219,6.13135167 15.1162219,7.8034059 C15.1162219,9.47534336 16.4715324,10.8305829 18.1433638,10.8305829 Z" id="路径" fill="#00213A" fill-rule="nonzero"></path>
                <path d="M18.1433638,10.3305829 C16.7476689,10.3305829 15.6162219,9.19919512 15.6162219,7.8034059 C15.6162219,6.407496 16.7476492,5.27608848 18.1433638,5.27608848 C19.5394092,5.27608848 20.6706812,6.40737037 20.6706812,7.8034059 C20.6706812,9.19916936 19.5391195,10.3305829 18.1433638,10.3305829 Z" id="路径" fill="#C4C4C4" fill-rule="nonzero"></path>
                <path d="M14.7201433,26.4262707 C14.5616493,27.2534287 14.2334473,28.1422844 13.7493733,28.94733 C13.5323866,29.3609704 13.6871164,29.8557901 14.0876088,30.0659905 C14.1970729,30.1233986 14.3181066,30.1551546 14.4415811,30.1591066 L15.5742626,30.1592346 C15.8616554,30.1709902 16.1398277,30.0120201 16.2805347,29.74965 C17.0140412,28.7440963 17.5057322,27.5444232 17.6960201,26.2805128 C17.5117131,24.4109957 16.6146552,22.7517563 15.2043976,21.6061658 L15.1587747,21.5767048 C13.6228435,20.8070065 12.0342481,20.1482192 10.4046978,19.6052362 C9.96357089,19.4965561 9.53614656,19.7458037 9.41855991,20.1633407 L9.15924322,21.0976763 L6.80798229,29.1343847 C6.68610143,29.5603086 6.93355803,30.0063794 7.36134724,30.1285249 C7.43718511,30.1501856 7.51550493,30.160659 7.5940375,30.1594876 L8.5622191,30.1595154 C8.89054334,30.1645149 9.19031429,29.9619685 9.3093895,29.6520137 L9.50801699,29.1437873 L10.7728367,25.6846221 L11.1695141,24.6335102 L11.301162,24.2996312 C11.3996529,24.0539247 11.4840574,23.8540984 11.5537385,23.7023096 L11.6617859,23.4839929 C13.1453698,23.7633203 14.3614332,24.9158667 14.7201433,26.4262707 Z" id="路径" fill="#00213A" fill-rule="nonzero"></path>
                <path d="M17.2001175,26.2688657 C17.0409341,27.2784809 16.6517353,28.2902064 16.061953,29.1892061 L15.8579702,29.4845401 C15.7896859,29.6069749 15.6904218,29.6637024 15.584305,29.6594363 L14.4495787,29.6592346 C14.4093972,29.6578205 14.3623051,29.6454647 14.3199045,29.6232279 C14.1637098,29.5412484 14.1033697,29.3482828 14.1851203,29.1920864 C14.6942808,28.34617 15.0444091,27.3979321 15.209942,26.4098093 C14.7930114,24.5692072 13.3687016,23.2495943 11.6005507,22.96958 C11.2760355,22.9667826 11.1068665,23.314959 10.2747495,25.5873523 L9.16932148,28.6224636 L8.98508892,29.1118204 C8.93135939,29.2517467 8.88493827,29.3693964 8.84470678,29.4675176 C8.79879933,29.5868417 8.68845515,29.661398 8.56600362,29.6595441 L7.59030899,29.6595154 C7.5572035,29.6599814 7.5276501,29.6560294 7.4986449,29.6477449 C7.33658173,29.6014715 7.24277504,29.4323735 7.28919526,29.2701442 L8.11375683,26.4329629 L9.60133789,21.3701457 L9.83547628,20.5383534 C9.85969451,20.4497019 9.88139958,20.3689405 9.9009358,20.2948554 C9.94438407,20.1407037 10.106452,20.0461957 10.2663112,20.0852673 C11.6194543,20.5369021 12.9575465,21.0756532 14.2612476,21.695019 L14.9101427,22.0113897 C16.2052938,23.0726771 17.0288387,24.6031808 17.2001175,26.2688657 Z" id="路径" fill="#C4C4C4" fill-rule="nonzero"></path>
                <path d="M27.5845163,19.6979622 C27.1631535,18.9319554 26.4663417,18.7223994 25.7065356,19.0330273 C25.0744268,19.2914493 24.4401496,19.8986601 24.0228471,20.6196787 L22.1748873,23.2255064 L21.3929064,22.4836043 C21.405049,22.3435002 21.399172,22.2021014 21.3752753,22.0632506 L21.270403,21.4793332 L21.1534044,20.8725513 C20.4376663,17.2762141 19.1586889,12.7730227 18.2913507,11.916245 L18.1292784,11.8027057 L14.6226027,9.94310683 C14.4478206,9.8482761 14.2526325,9.79498791 14.0534417,9.78711501 L13.9035544,9.78978621 C13.4625931,9.78915067 12.7765352,9.85095318 11.8981588,9.96262586 L11.0882676,10.071886 L10.1307742,10.2135205 L9.00980368,10.389277 C8.75801461,10.4366071 8.54718052,10.589205 8.42686017,10.8066743 L7.53721631,12.4288153 L7.41876543,12.6528327 L7.3071887,12.8681146 C7.13066414,13.2125121 6.98176505,13.5224062 6.86133695,13.7998145 C6.63602765,14.3151875 6.75911971,14.9170849 7.16914122,15.3032951 L7.77995346,15.8011795 L9.86768058,17.4156756 C9.96978791,17.4956757 10.013031,17.631625 9.97550998,17.7575363 L9.92351283,17.9187039 L9.89142091,18.0324186 L9.88227222,18.073497 C9.87225745,18.1255942 9.87015147,18.1273984 9.88117374,18.1796228 C9.77785425,18.6014639 9.99168663,19.0106133 10.3747572,19.1589409 L10.7240763,19.2957318 L10.9922555,19.4138134 C11.098387,19.4617896 11.2243215,19.519755 11.3792522,19.5918307 L13.268082,20.476123 L13.7056303,20.6740704 C14.2451627,20.9138202 14.6157888,21.0591782 14.8961779,21.1380882 C15.2145478,21.2176757 15.3685629,21.0785038 15.4494442,20.8023721 L20.982084,25.0302583 L18.6502709,29.0052092 C18.4270199,29.3921917 18.5590011,29.8846768 18.9443878,30.1069996 C19.0686966,30.178861 19.2102573,30.2161268 19.3542128,30.2150138 L31.335323,30.2150138 C31.9334366,30.215282 32.4189607,29.7304558 32.4189607,29.1322331 C32.4185876,28.9906264 32.3907783,28.8512778 32.3376056,28.7214273 L32.2760551,28.5950111 L27.5845163,19.6979622 Z" id="路径" fill="#00213A" fill-rule="nonzero"></path>
                <path d="M10.2331596,18.3884804 L10.1007342,18.3953165 C10.1610729,18.4273576 10.1840519,18.4174354 10.2331596,18.3884804 Z" id="路径" fill="#FFFFFF" fill-rule="nonzero"></path>
                <path d="M13.7147597,18.8474985 L15.0160559,20.4741187 L14.9799734,20.622451 C14.9691716,20.6678562 14.9789323,20.6725072 14.992425,20.6678191 L15.0007125,20.6480741 L14.8153404,20.5883164 C14.4448249,20.4592436 13.898962,20.2204171 13.0675317,19.8320958 L11.1823006,18.9508308 L10.8276057,18.7969191 C10.7305607,18.7572933 10.6463989,18.7256276 10.5502107,18.6907673 C10.4057221,18.634757 10.3223537,18.4746798 10.3606477,18.3188656 L10.3836919,18.2495439 L10.39547,18.1882555 C10.4047974,18.1480253 10.409835,18.1262971 10.3922347,18.0961821 L10.4522534,17.9080367 C10.5508665,17.5775729 10.4399396,17.2288367 10.1747881,17.0211094 L8.09067616,15.4095 L7.49834711,14.9274019 C7.25569601,14.6979416 7.1787907,14.321889 7.31972674,13.9995103 C7.40668472,13.7992026 7.50968221,13.5800086 7.62831493,13.3413498 L7.86178607,12.884636 L8.86697728,11.04388 C8.91263835,10.9614769 8.99708972,10.9003525 9.09475556,10.8819462 L10.2063409,10.7077773 L11.1583196,10.5669544 L11.6643301,10.4973029 C12.5658993,10.3772196 13.28473,10.3046257 13.769486,10.2913078 L13.9223315,10.2890801 C14.0955459,10.2767415 14.2500983,10.3098471 14.3863349,10.3837558 L17.8735349,12.2316123 L17.9769716,12.3021047 C18.7936943,13.1152873 20.2681512,18.5859487 20.8825349,22.1481441 C20.904551,22.276068 20.904551,22.4073239 20.8825197,22.5353363 L20.8598447,22.667088 L22.2491935,23.9852285 L24.4431905,20.8894641 C24.8209078,20.2389465 25.3745638,19.7089166 25.8957467,19.4958439 C26.4293991,19.2776733 26.852712,19.4049784 27.1443363,19.9350741 L31.8402042,28.8400558 C31.891553,28.9293355 31.9186906,29.0302308 31.9189615,29.1328929 C31.9189615,29.4541051 31.6575645,29.7149643 31.3354648,29.7149643 L19.3521419,29.7149643 C19.295289,29.7154053 19.2415743,29.7012649 19.1944313,29.6740121 C19.0481045,29.5895986 18.9980726,29.4029055 19.0824561,29.2566305 L21.6372278,24.9016237 L13.7147597,18.8474985 Z" id="路径" fill="#C4C4C4" fill-rule="nonzero"></path>
                <path d="M12.0841643,12.9167837 C12.0796348,12.9981039 12.0576896,13.0775281 12.0198385,13.149684 L12.0198385,13.1775281 C11.6976475,13.7864817 11.4192065,14.4175562 11.1867275,15.0660463 C11.0734551,15.3510534 10.7507022,15.4906952 10.4655548,15.3775281 C10.3979284,15.3507725 10.3363764,15.3108497 10.2840941,15.2603933 L9.15941011,14.2191011 C9.33511236,13.6575843 9.57254213,13.1174508 9.86755618,12.6084621 C9.97096208,12.4229986 10.1691713,12.3105337 10.3813553,12.3168539 L11.5476124,12.3168539 C11.8616924,12.3339888 12.101861,12.602809 12.0841643,12.9167837 Z" id="路径" fill="#00213A"></path>
                <path d="M15.8661517,18.5789326 L16.6158357,16.7319522 C16.7117275,16.4407654 17.0253862,16.2819522 17.3169944,16.377809 C17.4847261,16.4328301 17.6161517,16.564361 17.6712781,16.7319522 C18.1004565,18.3047402 18.6150632,19.853125 19.2125,21.3699438 L15.8661517,18.5789326 Z" id="路径" fill="#00213A"></path>
            </g>
        </g>
    </g>
</svg>