<?xml version="1.0" encoding="UTF-8"?>
<svg width="36px" height="36px" viewBox="0 0 36 36" version="1.1" xmlns="http://www.w3.org/2000/svg" xmlns:xlink="http://www.w3.org/1999/xlink">
    <!-- Generator: Sketch 58 (84663) - https://sketch.com -->
    <g id="V1.0.0" stroke="none" stroke-width="1" fill="none" fill-rule="evenodd">
        <g id="交通事件2-icon" transform="translate(-341.000000, -562.000000)">
            <g id="ambulance_sel" transform="translate(341.000000, 562.000000)">
                <g id="编组" transform="translate(2.000000, 1.000000)">
                    <path d="M25.5391,7.4718 L12.3431,7.4718 L12.3431,6.2728 C12.3431,5.2528 11.4931,4.4028 10.4731,4.4028 C9.4531,4.4028 8.6031,5.2528 8.6031,6.2728 L8.6031,7.4718 L7.1481,7.4718 C6.2281,7.4718 5.4821,8.2188 5.4821,9.1378 L5.4821,22.7318 C5.4821,23.6508 6.2281,24.3978 7.1481,24.3978 L25.5391,24.3978 C26.4591,24.3978 27.2051,23.6508 27.2051,22.7318 L27.2051,9.1378 C27.2051,8.2188 26.4591,7.4718 25.5391,7.4718" id="Fill-1" fill-opacity="0.5" fill="#FDE305"></path>
                    <path d="M14.168,2.8053 L14.806,2.1673 C14.976,1.9973 14.976,1.7003 14.806,1.5303 C14.635,1.3603 14.338,1.3603 14.168,1.5303 L13.53,2.1673 C13.36,2.3383 13.36,2.6353 13.53,2.8053 C13.7,3.0183 13.998,3.0183 14.168,2.8053" id="Fill-3" fill="#FDE305"></path>
                    <path d="M30.9639,18.7233 L30.8329,18.7233 C31.5279,18.7233 32.0939,18.1593 32.0939,17.4633 L32.0939,14.9653 C32.0939,14.2693 31.5279,13.7043 30.8329,13.7043 L30.0799,13.7043 C29.3849,13.7043 28.8269,14.2623 28.8189,14.9573 L28.8189,17.4633 C28.8189,18.1593 29.3849,18.7233 30.0799,18.7233 L29.9569,18.7233 L29.9569,19.3503 L30.9639,19.3503 L30.9639,18.7233 Z" id="Fill-5" fill="#FDE305"></path>
                    <path d="M14.0366,28.5553 C12.6376,28.5553 11.4996,27.4173 11.4996,26.0183 L11.4996,21.8863 C11.4996,20.4883 12.6376,19.3503 14.0366,19.3503 L18.3966,19.3503 L18.3966,14.9893 C18.3966,13.5903 19.5346,12.4523 20.9336,12.4523 L25.0656,12.4523 C26.4646,12.4523 27.6026,13.5903 27.6026,14.9893 L27.6026,19.3503 L28.4206,19.3503 L27.6966,13.4723 C27.4506,11.4663 25.7416,9.9523 23.7126,9.9523 L8.3806,9.9523 C6.3516,9.9523 4.6426,11.4593 4.3966,13.4723 L3.6116,19.8463 L2.6076,19.8463 C2.3536,19.8463 2.1436,19.6363 2.1436,19.3823 L2.1436,18.7233 L2.1366,18.7233 L2.0426,18.7233 C2.7166,18.7233 3.2666,18.1733 3.2666,17.4993 L3.2666,14.9283 C3.2666,14.2473 2.7236,13.7043 2.0426,13.7043 L1.2236,13.7043 C0.5506,13.7043 -0.000400000001,14.2553 -0.000400000001,14.9283 L-0.000400000001,17.4993 C-0.000400000001,18.1733 0.5506,18.7233 1.2236,18.7233 L1.1376,18.7233 L1.1376,19.3823 C1.1376,20.1943 1.7966,20.8533 2.6076,20.8533 L3.4976,20.8533 L3.4976,28.8053 L3.4916,28.8053 C2.7886,28.8053 2.2166,29.3773 2.2166,30.0803 C2.2166,30.7833 2.7886,31.3553 3.4916,31.3553 L3.4976,31.3553 L4.9756,31.3553 L4.9756,32.4563 C4.9756,33.6153 5.9176,34.5563 7.0766,34.5563 C8.2356,34.5563 9.1766,33.6153 9.1766,32.4563 L9.1766,31.3553 L18.3966,31.3553 L18.3966,28.5553 L14.0366,28.5553 Z" id="Fill-7" fill="#FDE305"></path>
                    <path d="M10.6401,1.8703 C10.8951,1.8703 11.1071,1.6583 11.1071,1.4033 L11.1071,0.4673 C11.1071,0.2123 10.8951,0.0003 10.6401,0.0003 C10.3851,0.0003 10.1721,0.2123 10.1721,0.4673 L10.1721,1.4033 C10.1721,1.6583 10.3851,1.8703 10.6401,1.8703" id="Fill-9" fill="#FDE305"></path>
                    <path d="M15.5283,5.8234 L16.4633,5.8234 C16.7183,5.8234 16.9303,5.6114 16.9303,5.3554 C16.9303,5.1004 16.7183,4.8884 16.4633,4.8884 L15.5283,4.8884 C15.2733,4.8884 15.0603,5.1004 15.0603,5.3554 C15.0603,5.6114 15.2733,5.8234 15.5283,5.8234" id="Fill-11" fill="#FDE305"></path>
                    <path d="M7.1543,2.8053 C7.3243,2.9753 7.6223,2.9753 7.7923,2.8053 C8.0043,2.6353 8.0043,2.3383 7.8343,2.1673 L7.1543,1.5303 C6.9843,1.3603 6.6873,1.3603 6.5163,1.5303 C6.3463,1.7003 6.3463,1.9973 6.5163,2.1673 L7.1543,2.8053 Z" id="Fill-13" fill="#FDE305"></path>
                    <path d="M4.7739,5.8234 L5.7089,5.8234 C5.9639,5.8234 6.1769,5.6114 6.1769,5.3554 C6.1769,5.1004 5.9639,4.8884 5.7089,4.8884 L4.7739,4.8884 C4.5189,4.8884 4.3069,5.1004 4.3069,5.3554 C4.3069,5.6114 4.5189,5.8234 4.7739,5.8234" id="Fill-15" fill="#FDE305"></path>
                    <path d="M27.1318,19.8395 L26.3638,13.6395 C26.1968,12.2995 25.0608,11.2925 23.7058,11.2925 L8.3808,11.2925 C7.0328,11.2925 5.8888,12.2995 5.7218,13.6395 L4.9538,19.8395 L27.1318,19.8395 Z" id="Fill-17" fill="#716500"></path>
                    <path d="M8.8291,25.4811 C8.8291,26.4811 8.0181,27.2921 7.0181,27.2921 C6.0191,27.2921 5.2071,26.4811 5.2071,25.4811 C5.2071,24.4821 6.0191,23.6701 7.0181,23.6701 C8.0181,23.6701 8.8291,24.4821 8.8291,25.4811" id="Fill-19" fill="#716500"></path>
                    <path d="M26.8857,25.4811 C26.8857,26.4811 26.0737,27.2921 25.0747,27.2921 C24.0747,27.2921 23.2637,26.4811 23.2637,25.4811 C23.2637,24.4821 24.0747,23.6701 25.0747,23.6701 C26.0737,23.6701 26.8857,24.4821 26.8857,25.4811" id="Fill-21" fill="#FFFFFF"></path>
                    <path d="M25.0654,35.4528 L20.9334,35.4528 C19.5344,35.4528 18.3964,34.3148 18.3964,32.9158 L18.3964,28.5558 L14.0364,28.5558 C12.6374,28.5558 11.4994,27.4178 11.4994,26.0178 L11.4994,21.8868 C11.4994,20.4878 12.6374,19.3498 14.0364,19.3498 L18.3964,19.3498 L18.3964,14.9898 C18.3964,13.5908 19.5344,12.4528 20.9334,12.4528 L25.0654,12.4528 C26.4644,12.4528 27.6024,13.5908 27.6024,14.9898 L27.6024,19.3498 L31.9624,19.3498 C33.3624,19.3498 34.5004,20.4878 34.5004,21.8868 L34.5004,26.0178 C34.5004,27.4178 33.3624,28.5558 31.9624,28.5558 L27.6024,28.5558 L27.6024,32.9158 C27.6024,34.3148 26.4644,35.4528 25.0654,35.4528" id="Fill-23" fill="#001B31"></path>
                    <path d="M31.9629,20.8503 L26.1029,20.8503 L26.1029,14.9893 C26.1029,14.4163 25.6389,13.9533 25.0659,13.9533 L20.9339,13.9533 C20.3609,13.9533 19.8969,14.4163 19.8969,14.9893 L19.8969,20.8503 L14.0369,20.8503 C13.4639,20.8503 12.9999,21.3143 12.9999,21.8863 L12.9999,26.0183 C12.9999,26.5913 13.4639,27.0553 14.0369,27.0553 L19.8969,27.0553 L19.8969,32.9153 C19.8969,33.4893 20.3609,33.9533 20.9339,33.9533 L25.0659,33.9533 C25.6389,33.9533 26.1029,33.4893 26.1029,32.9153 L26.1029,27.0553 L31.9629,27.0553 C32.5349,27.0553 32.9999,26.5913 32.9999,26.0183 L32.9999,21.8863 C32.9999,21.3143 32.5349,20.8503 31.9629,20.8503" id="Fill-25" fill="#FDE305"></path>
                </g>
            </g>
        </g>
    </g>
</svg>