<?xml version="1.0" encoding="UTF-8"?>
<svg width="20px" height="20px" viewBox="0 0 20 20" version="1.1" xmlns="http://www.w3.org/2000/svg" xmlns:xlink="http://www.w3.org/1999/xlink">
    <title>ic_explain</title>
    <g id="页面-1" stroke="none" stroke-width="1" fill="none" fill-rule="evenodd">
        <g id="效果评估-图表" transform="translate(-1814.000000, -135.000000)" fill-rule="nonzero">
            <g id="ic_explain" transform="translate(1814.000000, 135.000000)">
                <rect id="矩形" fill="#FFFFFF" opacity="0" x="0" y="0" width="20" height="20"></rect>
                <g id="编组-2" transform="translate(0.250000, 0.250000)" fill="#65E6FF">
                    <path d="M9.75,0 C4.36573661,0 0,4.36573661 0,9.75 C0,15.1342634 4.36573661,19.5 9.75,19.5 C15.1342634,19.5 19.5,15.1342634 19.5,9.75 C19.5,4.36573661 15.1342634,0 9.75,0 Z M9.75,17.8459821 C5.27979911,17.8459821 1.65401786,14.2202009 1.65401786,9.75 C1.65401786,5.27979911 5.27979911,1.65401786 9.75,1.65401786 C14.2202009,1.65401786 17.8459821,5.27979911 17.8459821,9.75 C17.8459821,14.2202009 14.2202009,17.8459821 9.75,17.8459821 Z" id="形状"></path>
                    <path d="M8.70535714,5.91964286 C8.70535714,6.49658318 9.17305968,6.96428571 9.75,6.96428571 C10.3269403,6.96428571 10.7946429,6.49658318 10.7946429,5.91964286 C10.7946429,5.34270254 10.3269403,4.875 9.75,4.875 C9.17305968,4.875 8.70535714,5.34270254 8.70535714,5.91964286 Z" id="路径"></path>
                    <path d="M10.2723214,8.35714286 L9.22767857,8.35714286 C9.13191964,8.35714286 9.05357143,8.43549107 9.05357143,8.53125 L9.05357143,14.4508929 C9.05357143,14.5466518 9.13191964,14.625 9.22767857,14.625 L10.2723214,14.625 C10.3680804,14.625 10.4464286,14.5466518 10.4464286,14.4508929 L10.4464286,8.53125 C10.4464286,8.43549107 10.3680804,8.35714286 10.2723214,8.35714286 Z" id="路径"></path>
                </g>
            </g>
        </g>
    </g>
</svg>