<?xml version="1.0" encoding="UTF-8"?>
<svg width="40px" height="29px" viewBox="0 0 40 29" version="1.1" xmlns="http://www.w3.org/2000/svg" xmlns:xlink="http://www.w3.org/1999/xlink">
    <!-- Generator: Sketch 58 (84663) - https://sketch.com -->
    <title>P</title>
    <desc>Created with Sketch.</desc>
    <g id="规范" stroke="none" stroke-width="1" fill="none" fill-rule="evenodd">
        <g transform="translate(-90.000000, -4172.000000)" fill="#FFCD82" fill-rule="nonzero" id="03">
            <g transform="translate(40.000000, 3223.000000)">
                <g id="编组-6" transform="translate(49.000000, 890.000000)">
                    <g id="编组-9" transform="translate(0.500000, 59.000000)">
                        <g id="编组-12" transform="translate(0.500000, 0.666667)">
                            <path d="M20.2480469,6 C23.4121094,6 24.6328125,7.875 24.6328125,10.9804688 C24.6328125,14.9144965 22.8028742,15.9915799 19.7820237,16.0557654 L19.5546875,16.0585938 L19.5546875,23.578125 L16,23.578125 L16,6 L20.2480469,6 Z M19.75,8.52929688 L19.5546875,8.52929688 L19.5546875,13.5488281 L19.7011719,13.5488281 C21.0875419,13.5488281 21.2438666,12.8715247 21.2614498,11.4543591 L21.2614498,11.4543591 L21.261274,10.4651679 C21.2430556,9.31633391 21.0868056,8.52929688 19.75,8.52929688 L19.75,8.52929688 Z" id="形状结合"></path>
                        </g>
                    </g>
                </g>
            </g>
        </g>
    </g>
</svg>