<?xml version="1.0" encoding="UTF-8"?>
<svg width="40px" height="29px" viewBox="0 0 40 29" version="1.1" xmlns="http://www.w3.org/2000/svg" xmlns:xlink="http://www.w3.org/1999/xlink">
    <!-- Generator: Sketch 58 (84663) - https://sketch.com -->
    <title>R</title>
    <desc>Created with Sketch.</desc>
    <g id="规范" stroke="none" stroke-width="1" fill="none" fill-rule="evenodd">
        <g transform="translate(-160.000000, -4172.000000)" fill="#FFCD82" fill-rule="nonzero" id="03">
            <g transform="translate(40.000000, 3223.000000)">
                <g id="编组-6" transform="translate(49.000000, 890.000000)">
                    <g id="编组-9" transform="translate(0.500000, 59.000000)">
                        <g id="编组-11" transform="translate(70.500000, 0.666667)">
                            <path d="M18.8671875,6 C22.265625,6 24.4726562,7.2109375 24.4726562,10.6289062 L24.4690173,10.9537918 C24.4336866,12.4390421 24.1076239,14.2091864 22.0800781,15.0820313 C22.9589844,17.875 23.8476562,20.6582031 24.8339844,23.578125 L21.1523438,23.578125 L19.140625,15.4824219 L18.5546875,15.4824219 L18.5546875,23.578125 L15,23.578125 L15,6 L18.8671875,6 Z M19.7363281,8.60742188 L18.5546875,8.60742188 L18.5546875,13.3144531 L19.5703125,13.3144531 C20.604248,13.3144531 20.8755493,11.9761047 20.9272194,11.2031898 L20.9272194,11.2031898 L20.9375,10.9121094 C20.9375,10.2675781 20.8007812,8.60742188 19.7363281,8.60742188 L19.7363281,8.60742188 Z" id="形状结合"></path>
                        </g>
                    </g>
                </g>
            </g>
        </g>
    </g>
</svg>