<?xml version="1.0" encoding="UTF-8"?>
<svg width="30px" height="30px" viewBox="0 0 30 30" version="1.1" xmlns="http://www.w3.org/2000/svg" xmlns:xlink="http://www.w3.org/1999/xlink">
    <!-- Generator: Sketch 58 (84663) - https://sketch.com -->
    <title>monitor_off_nor</title>
    <desc>Created with Sketch.</desc>
    <g id="页面-2" stroke="none" stroke-width="1" fill="none" fill-rule="evenodd">
        <g id="icon" transform="translate(-297.000000, -79.000000)">
            <g id="monitor_off_nor" transform="translate(297.000000, 79.000000)">
                <circle id="椭圆形" stroke="#707378" fill-opacity="0.7" fill="#3F4957" cx="15" cy="15" r="14.5"></circle>
                <path d="M11.2771754,20.0527385 C12.4341046,20.7332492 13.7158431,21.0622062 15.0883292,21.0622062 C16.4608431,21.0622062 17.7198738,20.7332492 18.8881292,20.0527385 C20.0451692,19.3721169 20.9865969,18.4761046 21.6557538,17.3190923 C22.3363754,16.1621908 22.6765754,14.9144031 22.6765754,13.542 C22.6765754,12.1695138 22.3363754,10.9217262 21.6557538,9.76482462 C20.9752154,8.60792308 20.0451692,7.70044615 18.8881292,7.03117846 C17.7198738,6.35066769 16.4608431,6.02171077 15.0883292,6.02171077 C13.7158431,6.02171077 12.4341046,6.35066769 11.2771754,7.03117846 C10.1201631,7.70044615 9.20144308,8.60792308 8.52082154,9.76482462 C7.84031077,10.9217262 7.5,12.1695138 7.5,13.542 C7.5,14.9144031 7.84031077,16.1621908 8.52082154,17.3190923 C9.20144308,18.4761046 10.1088092,19.3834708 11.2771754,20.0527385 Z M11.2658215,11.3641662 C11.6628185,10.6835446 12.1731877,10.1845292 12.8765169,9.77617846 C13.53432,9.37918154 14.2602738,9.19765846 15.0883292,9.19765846 C15.9049477,9.19765846 16.6196308,9.39053538 17.2887877,9.77617846 C18.0033877,10.1845292 18.5252215,10.7062523 18.9108646,11.3641662 C19.3078615,12.0560308 19.5006,12.7480338 19.5006,13.542 C19.5006,14.3359938 19.3078615,15.0278862 18.9108646,15.7197508 C18.5252215,16.3776646 18.0033877,16.8993877 17.2887877,17.3077385 C16.6196308,17.6933815 15.9049477,17.8862308 15.0883292,17.8862308 C14.2602738,17.8862308 13.53432,17.6933815 12.8765169,17.3077385 C12.1731877,16.8993877 11.6628185,16.3890185 11.2658215,15.7197508 C10.8688246,15.0278862 10.6759754,14.3359938 10.6759754,13.542 C10.6759754,12.7480338 10.8688246,12.0560308 11.2658215,11.3641662 Z" id="Fill-1" fill="#B6B6B6"></path>
                <path d="M15.0883292,16.0373538 C15.7802215,16.0373538 16.3700954,15.7991446 16.8690831,15.3114 C17.3795631,14.8236554 17.6177446,14.2338923 17.6177446,13.542 C17.6177446,12.8500246 17.3682092,12.2602615 16.8690831,11.7725169 C16.3700954,11.2620369 15.7802215,11.0238554 15.0883292,11.0238554 C14.3963538,11.0238554 13.8065908,11.2734185 13.3074923,11.7725169 C12.7970123,12.2602615 12.5588308,12.8500246 12.5588308,13.542 C12.5588308,14.2338923 12.8083662,14.8236554 13.3074923,15.3114 C13.8065908,15.7991446 14.3963538,16.0373538 15.0883292,16.0373538 Z M20.86176,19.8598615 C19.2967015,21.2898092 17.2535354,22.0826954 15.1336615,22.0830277 C12.9559385,22.0830277 10.8914492,21.2664369 9.31481538,19.7691138 C8.92917231,19.4061785 8.31670154,19.4175323 7.95368308,19.8031754 C7.59074769,20.1888185 7.60212923,20.8012892 7.98774462,21.1643077 C9.92739692,22.9905046 12.4568123,23.9999723 15.1223077,23.9999723 C17.7312277,23.9999723 20.2152,23.0358092 22.1434985,21.27768 C22.5404954,20.9147723 22.5632031,20.3136554 22.2115385,19.9166585 C21.8599846,19.5309046 21.2474031,19.5083077 20.86176,19.8598615 Z" id="Fill-3" fill="#B6B6B6"></path>
            </g>
        </g>
    </g>
</svg>