<?xml version="1.0" encoding="UTF-8"?>
<svg width="38px" height="38px" viewBox="0 0 38 38" version="1.1" xmlns="http://www.w3.org/2000/svg" xmlns:xlink="http://www.w3.org/1999/xlink">
    <!-- Generator: Sketch 58 (84663) - https://sketch.com -->
    <title>monitor_sel</title>
    <desc>Created with Sketch.</desc>
    <g id="页面-2" stroke="none" stroke-width="1" fill="none" fill-rule="evenodd">
        <g id="icon" transform="translate(-293.000000, -133.000000)">
            <g id="monitor_off_sel" transform="translate(293.000000, 133.000000)">
                <circle id="椭圆形" stroke="#707378" stroke-width="4" fill="#07111F" cx="19" cy="19" r="17"></circle>
                <path d="M15.2771754,24.0527385 C16.4341046,24.7332492 17.7158431,25.0622062 19.0883292,25.0622062 C20.4608431,25.0622062 21.7198738,24.7332492 22.8881292,24.0527385 C24.0451692,23.3721169 24.9865969,22.4761046 25.6557538,21.3190923 C26.3363754,20.1621908 26.6765754,18.9144031 26.6765754,17.542 C26.6765754,16.1695138 26.3363754,14.9217262 25.6557538,13.7648246 C24.9752154,12.6079231 24.0451692,11.7004462 22.8881292,11.0311785 C21.7198738,10.3506677 20.4608431,10.0217108 19.0883292,10.0217108 C17.7158431,10.0217108 16.4341046,10.3506677 15.2771754,11.0311785 C14.1201631,11.7004462 13.2014431,12.6079231 12.5208215,13.7648246 C11.8403108,14.9217262 11.5,16.1695138 11.5,17.542 C11.5,18.9144031 11.8403108,20.1621908 12.5208215,21.3190923 C13.2014431,22.4761046 14.1088092,23.3834708 15.2771754,24.0527385 Z M15.2658215,15.3641662 C15.6628185,14.6835446 16.1731877,14.1845292 16.8765169,13.7761785 C17.53432,13.3791815 18.2602738,13.1976585 19.0883292,13.1976585 C19.9049477,13.1976585 20.6196308,13.3905354 21.2887877,13.7761785 C22.0033877,14.1845292 22.5252215,14.7062523 22.9108646,15.3641662 C23.3078615,16.0560308 23.5006,16.7480338 23.5006,17.542 C23.5006,18.3359938 23.3078615,19.0278862 22.9108646,19.7197508 C22.5252215,20.3776646 22.0033877,20.8993877 21.2887877,21.3077385 C20.6196308,21.6933815 19.9049477,21.8862308 19.0883292,21.8862308 C18.2602738,21.8862308 17.53432,21.6933815 16.8765169,21.3077385 C16.1731877,20.8993877 15.6628185,20.3890185 15.2658215,19.7197508 C14.8688246,19.0278862 14.6759754,18.3359938 14.6759754,17.542 C14.6759754,16.7480338 14.8688246,16.0560308 15.2658215,15.3641662 Z" id="Fill-1" fill="#B6B6B6"></path>
                <path d="M19.0883292,20.0373538 C19.7802215,20.0373538 20.3700954,19.7991446 20.8690831,19.3114 C21.3795631,18.8236554 21.6177446,18.2338923 21.6177446,17.542 C21.6177446,16.8500246 21.3682092,16.2602615 20.8690831,15.7725169 C20.3700954,15.2620369 19.7802215,15.0238554 19.0883292,15.0238554 C18.3963538,15.0238554 17.8065908,15.2734185 17.3074923,15.7725169 C16.7970123,16.2602615 16.5588308,16.8500246 16.5588308,17.542 C16.5588308,18.2338923 16.8083662,18.8236554 17.3074923,19.3114 C17.8065908,19.7991446 18.3963538,20.0373538 19.0883292,20.0373538 Z M24.86176,23.8598615 C23.2967015,25.2898092 21.2535354,26.0826954 19.1336615,26.0830277 C16.9559385,26.0830277 14.8914492,25.2664369 13.3148154,23.7691138 C12.9291723,23.4061785 12.3167015,23.4175323 11.9536831,23.8031754 C11.5907477,24.1888185 11.6021292,24.8012892 11.9877446,25.1643077 C13.9273969,26.9905046 16.4568123,27.9999723 19.1223077,27.9999723 C21.7312277,27.9999723 24.2152,27.0358092 26.1434985,25.27768 C26.5404954,24.9147723 26.5632031,24.3136554 26.2115385,23.9166585 C25.8599846,23.5309046 25.2474031,23.5083077 24.86176,23.8598615 Z" id="Fill-3" fill="#B6B6B6"></path>
            </g>
        </g>
    </g>
</svg>