<?xml version="1.0" encoding="UTF-8"?>
<svg width="24px" height="24px" viewBox="0 0 24 24" version="1.1" xmlns="http://www.w3.org/2000/svg" xmlns:xlink="http://www.w3.org/1999/xlink">
    <g id="页面-1" stroke="none" stroke-width="1" fill="none" fill-rule="evenodd">
        <g id="车辆页面" transform="translate(-1509.000000, -19.000000)">
            <g id="tab">
                <g id="编组-4" transform="translate(1509.000000, 15.000000)">
                    <g id="accident_nor" transform="translate(0.000000, 4.000000)">
                        <path d="M23.0460368,22.1566289 C22.7940101,22.4821971 22.1208178,22.9254833 21.2879299,22.9254833 L3.03418646,22.8284629 C2.20142794,22.8284629 1.53127563,22.3637028 1.27468898,22.0578622 C0.957982021,21.6801294 0.667567592,20.8568465 1.07612054,20.119459 L10.4215146,3.09920077 C10.826025,2.36863708 11.6923849,1.94973529 12.2842418,1.94973529 C12.8566298,1.94973529 13.7424585,2.36863708 14.1483272,3.09868333 L23.2442494,20.2182582 C23.6534492,20.9561307 23.1996524,21.9579311 23.0460368,22.1566289 Z" id="Fill-1" fill="#B9EDFF"></path>
                        <path d="M12.290063,15.6791259 C12.9541677,15.6792553 13.4929544,15.1416005 13.4942156,14.4773664 L13.4942156,8.85370769 C13.4932131,8.18960299 12.9542971,7.65168949 12.290063,7.65207736 C11.6259259,7.65181885 11.0871393,8.18960299 11.085878,8.85370769 L11.085878,14.4771077 C11.0868805,15.1414711 11.6257966,15.6792553 12.290063,15.6791259 Z M12.290063,16.8830522 C11.4035875,16.8835373 10.6851837,17.6019734 10.6845369,18.4884166 C10.6845369,19.3733721 11.4033611,20.0939427 12.290063,20.0939427 C13.1749861,20.0939427 13.8955567,19.3752478 13.8955567,18.4884166 C13.8955567,17.6036228 13.1767649,16.8830522 12.290063,16.8830522 Z" id="Fill-3" fill="#1A243F"></path>
                    </g>
                </g>
            </g>
        </g>
    </g>
</svg>