<?xml version="1.0" encoding="UTF-8"?>
<svg width="30px" height="40px" viewBox="0 0 30 40" version="1.1" xmlns="http://www.w3.org/2000/svg" xmlns:xlink="http://www.w3.org/1999/xlink">
    <g id="V1.0.0" stroke="none" stroke-width="1" fill="none" fill-rule="evenodd">
        <g id="交通事件发布-定点-起终点" transform="translate(-932.000000, -639.000000)">
            <g id="starting" transform="translate(932.000000, 639.000000)">
                <path d="M14.8697392,1.77635684e-13 C6.66935569,1.77635684e-13 3.80140364e-13,6.80533118 3.80140364e-13,15.1698905 C3.80140364e-13,18.2752358 0.915475049,21.2644404 2.62747653,23.7790164 C2.71268516,23.9296381 2.79951007,24.0749947 2.90148768,24.2163767 L13.7552083,38.81279 C14.0499787,39.1470689 14.445767,39.3321714 14.8697392,39.3321714 C15.2888121,39.3321714 15.6869743,39.1458816 16.0322536,38.7506934 L26.8354653,24.2151378 C26.9415847,24.0697812 27.0333595,23.9110555 27.0824542,23.8187108 C28.8159725,21.2827648 29.7436707,18.263312 29.7397435,15.1698905 C29.7397435,6.80533118 23.0689611,1.77635684e-13 14.8697392,1.77635684e-13" id="Fill-1" fill="#32C5FF"></path>
                <path d="M21.9981659,19.5258944 C21.7246598,19.9731136 21.1229465,20.2153574 20.1747416,20.2153574 L16.8926184,20.2153574 C15.7985941,20.2153574 15.251582,19.6562817 15.251582,18.5382335 L15.251582,12.1652556 L20.010638,12.1652556 L20.010638,9.22095878 L15.0509604,9.22095878 L15.0509604,7.41344754 L21.8705802,7.41344754 L21.8705802,14.0100867 L17.1479412,14.0100867 L17.1479412,17.7555998 C17.1479412,18.1282825 17.3484618,18.3146239 17.7496545,18.333258 L19.8648186,18.333258 C20.2659608,18.333258 20.5029489,18.1469166 20.6123513,17.8115022 C20.7217538,17.4760877 20.7947392,16.8425271 20.8494404,15.9294028 L22.6546309,16.5443293 C22.5087105,18.0723801 22.2899057,19.0600409 21.9981659,19.5258944 L21.9981659,19.5258944 Z M9.01549222,15.5194518 C8.97902474,16.6189174 8.88785605,17.6810632 8.74198615,18.7059407 C9.17959586,19.4140895 9.65367303,19.9544795 10.1642682,20.3457964 L10.1642682,14.4014036 L6.60858835,14.4014036 L6.60858835,12.6124749 L9.72660798,12.6124749 L9.72660798,10.4135951 L6.91856189,10.4135951 L6.91856189,8.66193468 L9.72660798,8.66193468 L9.72660798,6.27671359 L11.6229672,6.27671359 L11.6229672,8.66193468 L14.2304422,8.66193468 L14.2304422,10.4135951 L11.6229672,10.4135951 L11.6229672,12.6124749 L14.4674808,12.6124749 L14.4674808,14.4014036 L12.0058757,14.4014036 L12.0058757,16.4884269 L14.3763626,16.4884269 L14.3763626,18.2400873 L12.0058757,18.2400873 L12.0058757,21.1843841 C13.1364179,21.4079938 15.1421796,21.5383811 18.0231606,21.5383811 C20.2477271,21.5197986 21.9069972,21.4824787 23.0010215,21.4079938 L22.6728142,23.271459 L18.4425366,23.271459 C14.1575577,23.271459 11.4770973,23.0105295 10.4012563,22.526042 C9.63543929,22.1533076 8.94255727,21.575701 8.34079342,20.7557474 C8.0855716,21.7619907 7.79378129,22.7310175 7.42910654,23.6440901 L5.95212329,22.3210665 C6.75445825,20.2153574 7.21030169,17.8860387 7.31970412,15.3144763 L9.01549222,15.5194518 Z" id="Fill-3" fill="#FEFEFE"></path>
            </g>
        </g>
    </g>
</svg>