<?xml version="1.0" encoding="UTF-8"?>
<svg width="30px" height="40px" viewBox="0 0 30 40" version="1.1" xmlns="http://www.w3.org/2000/svg" xmlns:xlink="http://www.w3.org/1999/xlink">
    <g id="V1.0.0" stroke="none" stroke-width="1" fill="none" fill-rule="evenodd">
        <g id="交通事件发布-定点-起终点" transform="translate(-1087.000000, -640.000000)">
            <g id="end" transform="translate(1087.000000, 640.000000)">
                <path d="M14.8697392,1.77635684e-13 C6.66935569,1.77635684e-13 -5.61328761e-13,6.80533118 -5.61328761e-13,15.1698905 C-5.61328761e-13,18.2752358 0.915475049,21.2644404 2.62747653,23.7790164 C2.71268516,23.9296381 2.79945956,24.0749947 2.90148768,24.2164283 L13.7552083,38.81279 C14.0499787,39.1470689 14.4457164,39.3321714 14.8697392,39.3321714 C15.2888121,39.3321714 15.6869743,39.1458816 16.0322536,38.7506934 L26.8354653,24.2151378 C26.9415847,24.0697812 27.0333595,23.9110555 27.0824542,23.8187108 C28.8159725,21.2827648 29.7436202,18.263312 29.7397432,15.1698905 C29.7397432,6.80533118 23.0689611,1.77635684e-13 14.8697392,1.77635684e-13" id="Fill-1" fill="#FF475D"></path>
                <path d="M19.4271887,9.81730277 L15.8350414,9.81730277 C15.7438727,9.96637586 15.652704,10.1154489 15.5797691,10.2645737 C16.1997666,10.9354026 16.8561812,11.5689632 17.5855307,12.1652556 C18.2784127,11.4385243 18.8801261,10.6558905 19.4271887,9.81730277 L19.4271887,9.81730277 Z M21.1229263,18.2028707 L20.1930057,19.6936016 C18.5154513,18.8923337 16.7650125,18.2587731 14.9780557,17.8115538 L15.9809618,16.3021371 C17.840803,16.8238929 19.5547743,17.4574536 21.1229263,18.2028707 L21.1229263,18.2028707 Z M21.7793408,22.0415028 L20.758302,23.6627759 C18.1507766,22.4701395 15.4703666,21.5197986 12.698788,20.8303355 L13.7745785,19.209114 C16.6920776,19.9917994 19.3724875,20.9235062 21.7793408,22.0415028 L21.7793408,22.0415028 Z M17.1661042,6.51900899 C17.0202848,7.02213067 16.8744149,7.50661822 16.7103113,7.9538375 L21.6152372,7.9538375 L21.6152372,9.51915658 C20.9041214,10.9354026 20.0471358,12.1838897 19.0624634,13.2647213 C20.3024081,14.0846233 21.6517552,14.7927204 23.1286879,15.3890128 L22.1440661,17.1406733 C20.5212129,16.4139419 19.0442802,15.55672 17.7314006,14.5504767 C16.2726511,15.7803297 14.5586292,16.7307223 12.6258531,17.4015512 L11.6959324,15.6872106 C13.4099038,15.1654032 14.9415377,14.3827694 16.2726511,13.3392062 C15.6709377,12.7801821 15.1056414,12.221158 14.5951472,11.6248656 C14.194005,12.090719 13.7745785,12.5379899 13.3187351,12.9665235 L12.1152579,11.3826219 C13.6469424,9.98500999 14.6863159,8.28925195 15.233328,6.27676521 L17.1661042,6.51900899 Z M12.2429446,21.4265763 C10.547106,22.0788227 8.61432979,22.6192126 6.46269825,23.0291636 L6.18919219,20.9794086 C8.48669363,20.6067259 10.510689,20.0849701 12.2429446,19.4513578 L12.2429446,21.4265763 Z M10.6200914,6.94759413 C9.81775647,9.07193731 8.97900454,10.8235978 8.14025261,12.2025239 L9.74487202,11.9789142 C10.0730793,11.270817 10.4012866,10.4881833 10.7659613,9.66822967 L12.4252314,10.2831562 C11.0394674,13.2647213 9.87245768,15.4449152 8.92430333,16.8425271 C9.76305525,16.6189174 10.6200914,16.3207713 11.4588434,15.9667227 L11.4588434,17.699749 C9.78128899,18.3705779 8.21313705,18.799163 6.73620431,19.0227727 L6.2438934,17.2711122 C6.57210068,17.1220391 6.86389098,16.9543319 7.10087906,16.7307223 C7.57500675,16.153064 8.17672009,15.1468207 8.90606959,13.7119405 C8.10373463,13.8237454 7.28321644,13.9541843 6.40799704,14.0846233 L5.93391986,12.3143287 C6.22565966,12.2025239 6.49916573,11.9602801 6.71797058,11.6062315 C7.52030554,9.98500999 8.2314213,8.19608127 8.83313464,6.23949694 L10.6200914,6.94759413 Z" id="Fill-3" fill="#FEFEFE"></path>
            </g>
        </g>
    </g>
</svg>