<?xml version="1.0" encoding="UTF-8"?>
<svg width="16px" height="16px" viewBox="0 0 16 16" version="1.1" xmlns="http://www.w3.org/2000/svg" xmlns:xlink="http://www.w3.org/1999/xlink">
    <!-- Generator: Sketch 58 (84663) - https://sketch.com -->
    
    <desc>Created with Sketch.</desc>
    <g id="V1.0.0" stroke="none" stroke-width="1" fill="none" fill-rule="evenodd">
        <g id="交通路网-icon" transform="translate(-194.000000, -42.000000)">
            <g id="编组-2" transform="translate(88.000000, 32.000000)">
                <g id="intersection_nor" transform="translate(105.500000, 10.000000)">
                    <rect id="矩形" fill="#BCEEFF" x="5.875" y="1" width="4.33333333" height="13" rx="0.5"></rect>
                    <path d="M6.375,1 L9.70833333,1 C9.98447571,1 10.2083333,1.22385763 10.2083333,1.5 L10.2083333,13.5 C10.2083333,13.7761424 9.98447571,14 9.70833333,14 L6.375,14 C6.09885763,14 5.875,13.7761424 5.875,13.5 L5.875,1.5 C5.875,1.22385763 6.09885763,1 6.375,1 Z" id="矩形" fill="#BCEEFF" transform="translate(8.041667, 7.500000) rotate(90.000000) translate(-8.041667, -7.500000) "></path>
                    <path d="M2.59803967,8.04166667 L4.81868482,8.04166667 C5.10246581,8.04166667 5.33333333,7.79865881 5.33333333,7.49997718 C5.33333333,7.20131076 5.10246581,6.95833333 4.81868482,6.95833333 L2.59803967,6.95833333 C2.31422977,6.95833333 2.08333333,7.20131076 2.08333333,7.49997718 C2.08333333,7.79865881 2.31422977,8.04166667 2.59803967,8.04166667" id="Fill-7" fill="#223856"></path>
                    <path d="M6.93137301,8.04166667 L9.15201816,8.04166667 C9.43579914,8.04166667 9.66666667,7.79865881 9.66666667,7.49997718 C9.66666667,7.20131076 9.43579914,6.95833333 9.15201816,6.95833333 L6.93137301,6.95833333 C6.6475631,6.95833333 6.41666667,7.20131076 6.41666667,7.49997718 C6.41666667,7.79865881 6.6475631,8.04166667 6.93137301,8.04166667" id="Fill-7" fill="#223856"></path>
                    <path d="M11.2647063,8.04166667 L13.4853515,8.04166667 C13.7691325,8.04166667 14,7.79865881 14,7.49997718 C14,7.20131076 13.7691325,6.95833333 13.4853515,6.95833333 L11.2647063,6.95833333 C10.9808964,6.95833333 10.75,7.20131076 10.75,7.49997718 C10.75,7.79865881 10.9808964,8.04166667 11.2647063,8.04166667" id="Fill-7" fill="#223856"></path>
                    <path d="M6.90137301,3.625 L9.12201816,3.625 C9.40579914,3.625 9.63666667,3.38199214 9.63666667,3.08331051 C9.63666667,2.7846441 9.40579914,2.54166667 9.12201816,2.54166667 L6.90137301,2.54166667 C6.6175631,2.54166667 6.38666667,2.7846441 6.38666667,3.08331051 C6.38666667,3.38199214 6.6175631,3.625 6.90137301,3.625" id="Fill-7" fill="#223856" transform="translate(8.011667, 3.083333) rotate(90.000000) translate(-8.011667, -3.083333) "></path>
                    <path d="M6.90137301,7.95833333 L9.12201816,7.95833333 C9.40579914,7.95833333 9.63666667,7.71532547 9.63666667,7.41664384 C9.63666667,7.11797743 9.40579914,6.875 9.12201816,6.875 L6.90137301,6.875 C6.6175631,6.875 6.38666667,7.11797743 6.38666667,7.41664384 C6.38666667,7.71532547 6.6175631,7.95833333 6.90137301,7.95833333" id="Fill-7" fill="#223856" transform="translate(8.011667, 7.416667) rotate(90.000000) translate(-8.011667, -7.416667) "></path>
                    <path d="M6.90137301,12.2916667 L9.12201816,12.2916667 C9.40579914,12.2916667 9.63666667,12.0486588 9.63666667,11.7499772 C9.63666667,11.4513108 9.40579914,11.2083333 9.12201816,11.2083333 L6.90137301,11.2083333 C6.6175631,11.2083333 6.38666667,11.4513108 6.38666667,11.7499772 C6.38666667,12.0486588 6.6175631,12.2916667 6.90137301,12.2916667" id="Fill-7" fill="#223856" transform="translate(8.011667, 11.750000) rotate(90.000000) translate(-8.011667, -11.750000) "></path>
                </g>
            </g>
        </g>
    </g>
</svg>