<?xml version="1.0" encoding="UTF-8"?>
<svg width="17px" height="17px" viewBox="0 0 17 17" version="1.1" xmlns="http://www.w3.org/2000/svg" xmlns:xlink="http://www.w3.org/1999/xlink">
    <defs>
        <polygon id="path-1" points="2.60663507e-05 0.0347829384 10.9965332 0.0347829384 10.9965332 15.9526066 2.60663507e-05 15.9526066"></polygon>
    </defs>
    <g id="V1.0.0" stroke="none" stroke-width="1" fill="none" fill-rule="evenodd">
        <g id="icon" transform="translate(-363.000000, -71.000000)">
            <g id="lamp_sel" transform="translate(363.000000, 71.000000)">
                <g id="编组" transform="translate(3.000000, 0.000000)">
                    <g transform="translate(0.000000, 0.017360)">
                        <mask id="mask-2" fill="white">
                            <use xlink:href="#path-1"></use>
                        </mask>
                        <g id="Clip-2"></g>
                        <path d="M5.30593602,0.0347829384 L5.69062322,0.0347829384 C8.62100237,0.0347829384 10.9965332,2.41031374 10.9965332,5.34069289 L10.9965332,10.646655 C10.9965332,13.5770863 8.62100237,15.9526171 5.69062322,15.9526171 L5.30593602,15.9526171 C2.37555687,15.9526171 2.60663507e-05,13.5770863 2.60663507e-05,10.646655 L2.60663507e-05,5.34069289 C2.60663507e-05,2.41031374 2.37555687,0.0347829384 5.30593602,0.0347829384" id="Fill-1" fill="#BCEEFF" mask="url(#mask-2)"></path>
                    </g>
                    <path d="M5.30593602,1.37862322 C3.10817773,1.37862322 1.32649052,3.16025829 1.32649052,5.35806872 L1.32649052,10.6640308 C1.32649052,12.8618412 3.10817773,14.6434763 5.30593602,14.6434763 L5.69062322,14.6434763 C7.88843365,14.6434763 9.67006872,12.8618412 9.67006872,10.6640308 L9.67006872,5.35806872 C9.67006872,3.16025829 7.88843365,1.37862322 5.69062322,1.37862322 L5.30593602,1.37862322 Z" id="Fill-3" fill="#304A71"></path>
                    <path d="M4.06961422,3.74633412 C3.7579128,4.09760427 3.56825403,4.5596564 3.56825403,5.06622986 C3.56825403,6.16513507 4.45909763,7.05597867 5.55800284,7.05597867 C6.65685592,7.05597867 7.54769953,6.16513507 7.54769953,5.06622986 C7.54769953,4.5596564 7.35809289,4.09760427 7.04633934,3.74633412 L4.06961422,3.74633412 Z" id="Fill-7" fill="#BCEEFF"></path>
                    <path d="M4.07124597,9.70768768 C3.75949242,10.0589578 3.56988578,10.5210621 3.56988578,11.0276355 C3.56988578,12.1264886 4.46072938,13.0173322 5.55958246,13.0173322 C6.65848768,13.0173322 7.54933128,12.1264886 7.54933128,11.0276355 C7.54933128,10.5210621 7.35967251,10.0589578 7.04797109,9.70768768 L4.07124597,9.70768768 Z" id="Fill-9" fill-opacity="0.7" fill="#BCEEFF"></path>
                </g>
            </g>
        </g>
    </g>
</svg>