<?xml version="1.0" encoding="UTF-8"?>
<svg width="16px" height="16px" viewBox="0 0 16 16" version="1.1" xmlns="http://www.w3.org/2000/svg" xmlns:xlink="http://www.w3.org/1999/xlink">
    <!-- Generator: Sketch 58 (84663) - https://sketch.com -->
    
    <desc>Created with Sketch.</desc>
    <g id="V1.0.0" stroke="none" stroke-width="1" fill="none" fill-rule="evenodd">
        <g id="tab_icon" transform="translate(-387.000000, -120.000000)" fill="#FFFFFF">
            <g id="编组-2" transform="translate(115.000000, 109.000000)">
                <g id="road_sel" transform="translate(272.000000, 11.000000)">
                    <path d="M11.617172,2.01073171 C12.0076585,2.01073171 12.3387854,2.29768415 12.394228,2.68424024 L13.7412451,12.1035671 C13.7735207,12.3289463 13.7064476,12.5571963 13.5573171,12.729239 C13.4082402,12.9012146 13.1917683,12.9999866 12.9641354,12.9999866 L10.7293915,12.9999866 L10.7293915,2.01073171 L11.617172,2.01073171 Z" id="路径"></path>
                    <path d="M6.01970122,2.01073171 L6.01970122,12.9999866 L3.78497073,12.9999866 C3.55744512,12.9999866 3.34113415,12.901322 3.1920439,12.7294939 C3.04296707,12.5576793 2.97578659,12.3295768 3.00786098,12.1043585 L4.35246341,2.68503171 C4.4075439,2.29815366 4.73881829,2.01073171 5.12957317,2.01073171 L6.01970122,2.01073171 Z" id="路径"></path>
                    <polygon id="路径" points="7.58958902 12.9999866 9.15946341 12.9999866 9.15946341 10.6451415 7.58958902 10.6451415"></polygon>
                    <polygon id="路径" points="7.58958902 9.07526707 9.15946341 9.07526707 9.15946341 5.93545122 7.58958902 5.93545122"></polygon>
                    <polygon id="路径" points="7.58958902 4.36557683 9.15946341 4.36557683 9.15946341 2.01073171 7.58958902 2.01073171"></polygon>
                </g>
            </g>
        </g>
    </g>
</svg>