<?xml version="1.0" encoding="UTF-8"?>
<svg width="16px" height="16px" viewBox="0 0 16 16" version="1.1" xmlns="http://www.w3.org/2000/svg" xmlns:xlink="http://www.w3.org/1999/xlink">
    <!-- Generator: Sketch 58 (84663) - https://sketch.com -->
    
    <desc>Created with Sketch.</desc>
    <g id="V1.0.0" stroke="none" stroke-width="1" fill="none" fill-rule="evenodd">
        <g id="tab_icon" transform="translate(-303.000000, -120.000000)">
            <g id="编组-2" transform="translate(115.000000, 109.000000)">
                <g id="car_sel" transform="translate(188.000000, 11.000000)">
                    <path d="M15.1428574,8.98324466 L15.1391685,8.12592417 C15.1350952,7.19111976 14.7321133,6.36335859 14.1168129,5.84510834 L14.1166748,5.82509395 C13.7447605,2.51797222 11.5779419,1.99999683 11.5779419,1.99999683 L4.50846465,2.03577786 C4.50846465,2.03577786 2.34620256,2.57559167 2.00273248,5.88646142 L2.0027785,5.90642584 C1.39187353,6.43084781 0.996048717,7.26265683 1.00000022,8.19743626 L1.00371207,9.05463182 C1.00773936,9.98958615 1.41060617,10.8252181 2.02613677,11.3434684 L2.03092349,12.462825 C2.03223523,12.7653896 2.25670473,13.0014394 2.53557712,12.9999968 L4.05048153,12.9923942 C4.32933091,12.99092 4.55439874,12.7446006 4.55308699,12.4421359 L4.55073966,11.8904284 L11.6203089,11.8546974 L11.6226332,12.4064049 C11.623991,12.7088445 11.851038,12.9528902 12.1299564,12.9515659 L13.6448148,12.943795 C13.9237562,12.9423957 14.1461775,12.7040471 14.1448658,12.4015824 L14.1400791,11.2822009 C14.7511221,10.7578289 15.1468089,9.91804908 15.1428574,8.98324466 L15.1428574,8.98324466 Z" id="路径" fill="#FFFFFF"></path>
                    <path d="M12.8741991,10.2092097 C12.1777776,10.2126929 11.6105514,9.60246638 11.6073158,8.84621731 C11.6041077,8.09006818 12.1660869,7.4741697 12.8624854,7.47060661 C13.558907,7.46712343 14.1260641,8.07727496 14.129369,8.83352404 C14.1325998,9.58974813 13.5706437,10.2056466 12.8741991,10.2092097 L12.8741991,10.2092097 Z" id="路径" fill="#41638A"></path>
                    <path d="M10.2209071,9.94248612 L5.9336411,9.9642039 C5.7246594,9.96522407 5.55454679,9.78277079 5.55350726,9.55656572 C5.55256766,9.33038563 5.7211384,9.14615829 5.93007407,9.14513384 L10.2174782,9.12344083 C10.4263448,9.12239589 10.5965265,9.30489914 10.5974741,9.53105424 C10.5984365,9.75723433 10.4298658,9.94146166 10.2209071,9.94248612 L10.2209071,9.94248612 Z" id="路径" fill="#41638A"></path>
                    <path d="M5.92427478,7.78580448 L10.2116098,7.76421076 C10.4205225,7.76309153 10.5906811,7.94564475 10.5916288,8.17182484 C10.5925912,8.39800493 10.4240665,8.5821573 10.2150618,8.58325672 L5.92781879,8.60487542 C5.71881408,8.60599466 5.54872448,8.42344144 5.54768495,8.19723636 C5.54674535,7.97105627 5.71527007,7.78692889 5.92427478,7.78580448 L5.92427478,7.78580448 Z" id="路径" fill="#41638A"></path>
                    <path d="M3.01528457,5.88128916 C3.25722098,3.41534648 4.75238018,3.11398125 4.75238018,3.11398125 L11.3248441,3.08067391 C11.3248441,3.08067391 12.8410142,3.36692215 13.1040997,5.83026621 L3.01528457,5.88128916 Z" id="路径" fill="#41638A"></path>
                    <path d="M3.28269645,10.2576592 C2.58627491,10.2611672 2.0191408,9.65094068 2.01590418,8.89479156 C2.01258207,8.13854248 2.57456126,7.522644 3.2709828,7.51910569 C3.96740434,7.51559773 4.53453846,8.12582422 4.53777487,8.88194836 C4.54107417,9.63822243 3.979118,10.2541459 3.28269645,10.2576592 L3.28269645,10.2576592 Z" id="路径" fill="#41638A"></path>
                </g>
            </g>
        </g>
    </g>
</svg>