<?xml version="1.0" encoding="UTF-8"?>
<svg width="16px" height="16px" viewBox="0 0 16 16" version="1.1" xmlns="http://www.w3.org/2000/svg" xmlns:xlink="http://www.w3.org/1999/xlink">
    <!-- Generator: Sketch 58 (84663) - https://sketch.com -->
    
    <desc>Created with Sketch.</desc>
    <g id="V1.0.0" stroke="none" stroke-width="1" fill="none" fill-rule="evenodd">
        <g id="icon" transform="translate(-332.000000, -52.000000)" fill="#FFFFFF">
            <g id="rsu_nor" transform="translate(332.000000, 52.000000)">
                <g id="编组" transform="translate(1.000000, 1.000000)">
                    <path d="M9.22375611,11.3631875 L7.68546722,10.3303958 C7.62146583,10.2875208 7.55408111,10.2504792 7.48415889,10.2192708 L7.48415889,8.05102083 C7.79993667,7.86172917 8.01280472,7.50852083 8.01280472,7.10397917 C8.01280472,6.50022917 7.53942,6.01052083 6.955795,6.01052083 C6.37217,6.01052083 5.89878528,6.50022917 5.89878528,7.10397917 C5.89878528,7.50852083 6.11137139,7.86172917 6.42714917,8.05102083 L6.42714917,10.2192708 C6.35722694,10.2504792 6.28984222,10.2875208 6.22584083,10.3303958 L4.68783389,11.3631875 C4.43267417,11.5346875 4.23954222,11.7916458 4.14452694,12.0862292 C4.05768806,12.3568958 4.05317694,12.6453542 4.13183944,12.9206875 C4.21078389,13.1960208 4.36641722,13.4354792 4.58182278,13.6133958 C4.8166825,13.8073542 5.11357,13.9141042 5.41778806,13.9141042 L8.49408389,13.9141042 C8.79830194,13.9141042 9.09518944,13.8073542 9.33004917,13.6133958 C9.54573667,13.4354792 9.70108806,13.1960208 9.77975056,12.9206875 C9.85841306,12.6453542 9.85418389,12.3568958 9.76706306,12.0862292 C9.67176583,11.7916458 9.47891583,11.5346875 9.22375611,11.3631875" id="Fill-1"></path>
                    <path d="M11.6544274,7.117775 C11.6544274,6.46269167 11.5303718,5.82598333 11.2847982,5.22544167 C11.0479649,4.64619167 10.7087857,4.12673333 10.2779746,3.680775 C9.84716347,3.23481667 9.34473847,2.884525 8.78451486,2.63923333 C7.62487736,2.13231667 6.28620514,2.13231667 5.12656764,2.63923333 C4.56634403,2.884525 4.06391903,3.23481667 3.63310792,3.680775 C3.20201486,4.127025 2.86311764,4.64648333 2.62628431,5.22573333 C2.38099264,5.82569167 2.25665514,6.4624 2.25665514,7.117775 C2.25665514,7.77315 2.38099264,8.40985833 2.62628431,9.01010833 C2.86283569,9.588775 3.20173292,10.108525 3.63310792,10.5550667 C3.89672597,10.82865 4.32725514,10.82865 4.59143708,10.5550667 C4.85561903,10.281775 4.85561903,9.83698333 4.59143708,9.56369167 C3.95988153,8.91035833 3.61224403,8.04206667 3.61224403,7.117775 C3.61224403,5.21085833 5.11190653,3.65919167 6.95554125,3.65919167 C8.79917597,3.65919167 10.2988385,5.21085833 10.2988385,7.117775 C10.2988385,8.041775 9.95120097,8.91035833 9.31992736,9.56369167 C9.19192458,9.69610833 9.12115653,9.87198333 9.12115653,10.059525 C9.12115653,10.246775 9.19192458,10.42265 9.31964542,10.554775 C9.44539264,10.6854417 9.62019819,10.7604 9.79895097,10.7604 C9.98024125,10.7604 10.1502538,10.6874833 10.2782565,10.5550667 C10.7096315,10.108525 11.0485288,9.588775 11.2847982,9.01010833 C11.5303718,8.41044167 11.6544274,7.77344167 11.6544274,7.117775" id="Fill-3"></path>
                    <path d="M13.3639975,4.39168333 C13.0138225,3.53505833 12.5125253,2.76593333 11.8739211,2.104725 C11.2353169,1.44439167 10.4915475,0.925516667 9.66319472,0.563266667 C7.94812667,-0.187483333 5.96408361,-0.187775 4.24788778,0.563266667 C3.419535,0.925808333 2.67576556,1.44439167 2.03716139,2.10501667 C1.39883917,2.76535 0.897541944,3.53476667 0.547085,4.391975 C0.183940556,5.2801 0.000112777778,6.222475 0.000112777778,7.19285 C0.000112777778,8.16380833 0.183940556,9.10618333 0.547085,9.993725 C0.897541944,10.8509333 1.39883917,11.62035 2.03716139,12.2806833 C2.17700583,12.42535 2.36280722,12.504975 2.56073222,12.504975 C2.75837528,12.504975 2.94417667,12.42535 3.08373917,12.2806833 C3.37216833,11.9820167 3.37216833,11.4963917 3.08373917,11.1983083 C2.04956694,10.1281833 1.48003917,8.705725 1.48003917,7.19285 C1.48003917,4.06968333 3.93633917,1.52868333 6.95568222,1.52868333 C9.97474333,1.52868333 12.4307614,4.06968333 12.4307614,7.19285 C12.4307614,8.70543333 11.8615156,10.1278917 10.8273433,11.1980167 C10.6874989,11.3423917 10.6105281,11.5346 10.6105281,11.7390583 C10.6105281,11.9435167 10.6874989,12.135725 10.8273433,12.2803917 C11.1064683,12.569725 11.5945142,12.569725 11.8736392,12.2803917 C12.5122433,11.6197667 13.0138225,10.85035 13.3639975,9.99343333 C13.72686,9.1056 13.9106878,8.163225 13.9106878,7.19255833 C13.9106878,6.22101667 13.72686,5.27864167 13.3639975,4.39168333" id="Fill-5"></path>
                </g>
            </g>
        </g>
    </g>
</svg>