<?xml version="1.0" encoding="UTF-8"?>
<svg width="16px" height="16px" viewBox="0 0 16 16" version="1.1" xmlns="http://www.w3.org/2000/svg" xmlns:xlink="http://www.w3.org/1999/xlink">
    <g id="V1.0.0" stroke="none" stroke-width="1" fill="none" fill-rule="evenodd">
        <g id="交通路网-icon" transform="translate(-97.000000, -102.000000)">
            <g id="编组-2" transform="translate(88.000000, 92.000000)">
                <g id="event_sel" transform="translate(9.000000, 10.000000)">
                    <path d="M13.7874693,11.4373769 L9.57001912,2.99374343 C9.2642502,2.38147251 8.67336574,2.01594263 7.98939761,2.01594263 C7.30555697,2.01594263 6.71465657,2.38145657 6.40874422,2.99372749 L2.19142151,11.4373928 C1.9115012,11.9978072 1.93967649,12.6248988 2.26874422,13.1578709 C2.59798725,13.6910024 3.14592351,13.9967713 3.77202709,13.9967713 L12.2067363,13.9967713 C12.8329195,13.9967713 13.3808876,13.6910024 13.7101307,13.157855 C14.0391984,12.6248988 14.0673737,11.9978072 13.7874693,11.4373769" id="路径" fill="#FFFFFF"></path>
                    <path d="M12.4713737,12.5270183 C12.3879633,12.6221737 12.237812,12.6293928 11.8614773,12.6247713 L11.8568558,12.6247076 C11.7946247,12.6239745 11.7302582,12.6232096 11.6611586,12.6232096 L4.31771633,12.6232096 C4.2266247,12.6232096 4.14216255,12.6241657 4.07432191,12.6249466 C3.62281594,12.6299187 3.58483984,12.6172175 3.49502311,12.5144924 C3.34225817,12.3398151 3.31070438,12.1975044 3.52753307,11.8160223 L3.53121434,11.8095522 L7.65935777,3.5532494 C7.72912669,3.44475538 7.84015458,3.38975936 7.98946135,3.38975936 C8.14114263,3.38975936 8.24096733,3.43992669 8.32154104,3.55715378 L12.4444096,11.8029068 L12.4519315,11.8169466 C12.639294,12.1435124 12.6703857,12.2998948 12.4713737,12.5270183" id="路径" fill="#41638A"></path>
                    <path d="M10.0293131,10.2948845 L5.94963187,10.2948845 C5.63678725,10.2948845 5.38226932,10.5494183 5.38226932,10.8622629 C5.38226932,11.1750757 5.63678725,11.4295936 5.94963187,11.4295936 L10.0293131,11.4295936 C10.3421259,11.4295936 10.596612,11.1750757 10.596612,10.8622629 C10.596612,10.5494183 10.3421259,10.2948845 10.0293131,10.2948845" id="Fill-3" fill="#FFFFFF"></path>
                    <path d="M6.35756335,9.79768606 L9.6213243,9.79768606 C9.93416892,9.79768606 10.1886709,9.5432 10.1886709,9.23038725 C10.1886709,8.91755857 9.93416892,8.66305657 9.6213243,8.66305657 L6.35756335,8.66305657 C6.0447506,8.66305657 5.79026454,8.91755857 5.79026454,9.23038725 C5.79026454,9.5432 6.0447506,9.79768606 6.35756335,9.79768606" id="Fill-5" fill="#FFFFFF"></path>
                    <path d="M6.76556335,8.16583904 L9.21338805,8.16583904 C9.5262008,8.16583904 9.78068685,7.91132112 9.78068685,7.59849243 C9.78068685,7.28567968 9.5262008,7.03119363 9.21338805,7.03119363 L6.76556335,7.03119363 C6.45271873,7.03119363 6.1982008,7.28567968 6.1982008,7.59849243 C6.1982008,7.91132112 6.45271873,8.16583904 6.76556335,8.16583904" id="Fill-7" fill="#FFFFFF"></path>
                </g>
            </g>
        </g>
    </g>
</svg>