<?xml version="1.0" encoding="UTF-8"?>
<svg width="16px" height="16px" viewBox="0 0 16 16" version="1.1" xmlns="http://www.w3.org/2000/svg" xmlns:xlink="http://www.w3.org/1999/xlink">
    <!-- Generator: Sketch 58 (84663) - https://sketch.com -->
    
    <desc>Created with Sketch.</desc>
    <g id="V1.0.0" stroke="none" stroke-width="1" fill="none" fill-rule="evenodd">
        <g id="交通路网-icon" transform="translate(-263.000000, -102.000000)">
            <g id="编组-2" transform="translate(88.000000, 92.000000)">
                <g id="index_sel" transform="translate(175.000000, 10.000000)">
                    <path d="M11.2975657,12.5474888 L4.537882,12.5474888 L4.46255474,12.5517273 L4.45333455,12.5525496 C4.07489538,12.5975752 3.79596472,12.9308148 3.81832725,13.3111835 C3.84067397,13.6916628 4.15667518,13.9899827 4.537882,13.9903465 L11.3021521,13.9903465 L11.3727981,13.9861238 L11.3819708,13.9853015 C11.76041,13.940355 12.0393248,13.6071311 12.0169623,13.226636 C11.9946156,12.8461883 11.6786144,12.5478526 11.2975657,12.5474888" id="Fill-1" fill="#FFFFFF"></path>
                    <path d="M14.2940182,1.54129343 C13.9450268,1.19223869 13.4809647,1.00000633 12.987281,1.00000633 L2.84802433,1.00000633 C1.82901095,1.00000633 1,1.82901727 1,2.84801484 L1,9.60754039 C1,10.626538 1.82901095,11.4555647 2.84802433,11.4555647 L12.987281,11.4555647 C14.0062786,11.4555647 14.8352895,10.626538 14.8352895,9.60754039 L14.8352895,2.84801484 C14.8352895,2.35441022 14.6430572,1.89034818 14.2940182,1.54129343" id="路径" fill="#FFFFFF"></path>
                    <path d="M13.3924161,2.84801484 L13.3924161,9.60754039 C13.3924161,9.71571557 13.3502689,9.81745401 13.2737871,9.89399903 C13.1983491,9.96942117 13.093938,10.0126912 12.987281,10.0126912 L2.84802433,10.0126912 C2.73984915,10.0126912 2.63811071,9.97054404 2.56156569,9.89399903 C2.48502068,9.81745401 2.44287348,9.71571557 2.44287348,9.60754039 L2.44287348,2.84801484 C2.44287348,2.73982384 2.48502068,2.63810122 2.56156569,2.56157202 C2.63811071,2.48502701 2.73983333,2.44287981 2.84802433,2.44287981 L12.987281,2.44287981 C13.093938,2.44287981 13.1983491,2.48613406 13.2737555,2.56154039 C13.3502847,2.63810122 13.3924161,2.73983966 13.3924161,2.84801484" id="路径" fill="#41638A"></path>
                    <path d="M12.2589204,4.1396629 C12.4596297,4.3403247 12.4796516,4.65896703 12.3056856,4.88322494 L12.2589204,4.93615803 L10.0057611,7.1893174 C9.83445207,7.36081618 9.57264915,7.40343783 9.35574526,7.29519939 L7.94301533,6.5882809 C7.69947883,6.46671034 7.40381582,6.53664465 7.24060414,6.75446582 L6.11513942,8.25560207 C5.93573309,8.49486849 5.60064307,8.55226144 5.35187178,8.38632956 L3.6619983,7.25974197 C3.41346423,7.09430036 3.337109,6.76373345 3.4879691,6.50612153 C3.6388292,6.24857287 3.96452506,6.15336606 4.23036083,6.28915438 L4.28669416,6.32239769 L5.09049586,6.85751691 C5.33914063,7.02313248 5.67385109,6.9658028 5.85319416,6.72685268 L6.90372701,5.32653759 C7.06693869,5.10865316 7.3626017,5.03871886 7.6061382,5.16035268 L9.13265766,5.92362032 C9.34962482,6.03228577 9.61174404,5.98983808 9.78330608,5.81829185 L11.4618718,4.1396629 C11.567564,4.03390742 11.7108961,3.97447433 11.8603961,3.97447433 C12.0098961,3.97447433 12.1532757,4.03390742 12.2589204,4.1396629" id="Fill-5" fill="#FFFFFF"></path>
                </g>
            </g>
        </g>
    </g>
</svg>