<?xml version="1.0" encoding="UTF-8"?>
<svg width="16px" height="16px" viewBox="0 0 16 16" version="1.1" xmlns="http://www.w3.org/2000/svg" xmlns:xlink="http://www.w3.org/1999/xlink">
    <!-- Generator: Sketch 58 (84663) - https://sketch.com -->
    
    <desc>Created with Sketch.</desc>
    <g id="V1.0.0" stroke="none" stroke-width="1" fill="none" fill-rule="evenodd">
        <g id="icon" transform="translate(-300.000000, -73.000000)" fill="#BCEEFF">
            <g id="point_sel" transform="translate(300.000000, 73.000000)">
                <g id="编组" transform="translate(2.000000, 2.000000)">
                    <path d="M6.12030738,1.68762295 C3.58567623,1.68762295 1.53014344,3.74315574 1.53014344,6.27788934 C1.53014344,8.81252049 3.58567623,10.8681557 6.12030738,10.8681557 C8.65504098,10.8681557 10.7106762,8.81252049 10.7106762,6.27788934 C10.7106762,5.67553279 10.587418,5.10360656 10.3766598,4.57635246 L11.48875,3.33752049 C11.9670287,4.21098361 12.2406967,5.2120082 12.2406967,6.27788934 C12.2406967,9.65811475 9.50053279,12.3982787 6.12030738,12.3982787 C2.74018443,12.3982787 2.04918033e-05,9.65811475 2.04918033e-05,6.27788934 C2.04918033e-05,2.89776639 2.74018443,0.1575 6.12030738,0.1575 C7.21508197,0.1575 8.24059426,0.448688525 9.12891393,0.952172131 L7.92584016,2.05913934 C7.37153689,1.82143443 6.76211066,1.68762295 6.12030738,1.68762295" id="Fill-1"></path>
                    <path d="M6.11230533,8.17745902 C7.22255123,8.17745902 8.12255123,7.27745902 8.12255123,6.16721311 C8.12255123,5.86127049 8.05226434,5.57233607 7.92982582,5.31270492 L12.0054406,0.83022541 C12.264252,0.571413934 12.3806455,0.267008197 12.2558504,0.142213115 C12.154416,0.0417008197 11.8266496,0.133913934 11.566916,0.39272541 L7.12101434,4.43032787 C6.82419057,4.25758197 6.48044057,4.15706967 6.11230533,4.15706967 C5.00216189,4.15706967 4.10216189,5.05706967 4.10216189,6.16721311 C4.10216189,7.27745902 5.00216189,8.17745902 6.11230533,8.17745902" id="Fill-3"></path>
                </g>
            </g>
        </g>
    </g>
</svg>