<?xml version="1.0" encoding="UTF-8"?>
<svg width="16px" height="16px" viewBox="0 0 16 16" version="1.1" xmlns="http://www.w3.org/2000/svg" xmlns:xlink="http://www.w3.org/1999/xlink">
    <!-- Generator: Sketch 58 (84663) - https://sketch.com -->
    
    <desc>Created with Sketch.</desc>
    <g id="V1.0.0" stroke="none" stroke-width="1" fill="none" fill-rule="evenodd">
        <g id="交通路网-icon" transform="translate(-195.000000, -102.000000)">
            <g id="编组-2" transform="translate(88.000000, 92.000000)">
                <g id="intersection_sel" transform="translate(106.500000, 10.000000)">
                    <rect id="矩形" fill="#FFFFFF" x="5.875" y="1" width="4.33333333" height="13" rx="0.5"></rect>
                    <path d="M6.375,1 L9.70833333,1 C9.98447571,1 10.2083333,1.22385763 10.2083333,1.5 L10.2083333,13.5 C10.2083333,13.7761424 9.98447571,14 9.70833333,14 L6.375,14 C6.09885763,14 5.875,13.7761424 5.875,13.5 L5.875,1.5 C5.875,1.22385763 6.09885763,1 6.375,1 Z" id="矩形" fill="#FFFFFF" transform="translate(8.041667, 7.500000) rotate(90.000000) translate(-8.041667, -7.500000) "></path>
                    <g id="编组-8" transform="translate(2.083333, 6.958333)" fill="#41638A">
                        <path d="M0.51470634,1.08333333 L2.73535149,1.08333333 C3.01913248,1.08333333 3.25,0.840325473 3.25,0.541643843 C3.25,0.242977429 3.01913248,0 2.73535149,0 L0.51470634,0 C0.230896437,0 0,0.242977429 0,0.541643843 C0,0.840325473 0.230896437,1.08333333 0.51470634,1.08333333" id="Fill-7"></path>
                        <path d="M4.84803967,1.08333333 L7.06868482,1.08333333 C7.35246581,1.08333333 7.58333333,0.840325473 7.58333333,0.541643843 C7.58333333,0.242977429 7.35246581,0 7.06868482,0 L4.84803967,0 C4.56422977,0 4.33333333,0.242977429 4.33333333,0.541643843 C4.33333333,0.840325473 4.56422977,1.08333333 4.84803967,1.08333333" id="Fill-7"></path>
                        <path d="M9.18137301,1.08333333 L11.4020182,1.08333333 C11.6857991,1.08333333 11.9166667,0.840325473 11.9166667,0.541643843 C11.9166667,0.242977429 11.6857991,0 11.4020182,0 L9.18137301,0 C8.8975631,0 8.66666667,0.242977429 8.66666667,0.541643843 C8.66666667,0.840325473 8.8975631,1.08333333 9.18137301,1.08333333" id="Fill-7"></path>
                    </g>
                    <g id="编组-8" transform="translate(8.041667, 7.500000) rotate(90.000000) translate(-8.041667, -7.500000) translate(2.083333, 6.958333)" fill="#41638A">
                        <path d="M0.51470634,1.08333333 L2.73535149,1.08333333 C3.01913248,1.08333333 3.25,0.840325473 3.25,0.541643843 C3.25,0.242977429 3.01913248,0 2.73535149,0 L0.51470634,0 C0.230896437,0 0,0.242977429 0,0.541643843 C0,0.840325473 0.230896437,1.08333333 0.51470634,1.08333333" id="Fill-7"></path>
                        <path d="M4.84803967,1.08333333 L7.06868482,1.08333333 C7.35246581,1.08333333 7.58333333,0.840325473 7.58333333,0.541643843 C7.58333333,0.242977429 7.35246581,0 7.06868482,0 L4.84803967,0 C4.56422977,0 4.33333333,0.242977429 4.33333333,0.541643843 C4.33333333,0.840325473 4.56422977,1.08333333 4.84803967,1.08333333" id="Fill-7"></path>
                        <path d="M9.18137301,1.08333333 L11.4020182,1.08333333 C11.6857991,1.08333333 11.9166667,0.840325473 11.9166667,0.541643843 C11.9166667,0.242977429 11.6857991,0 11.4020182,0 L9.18137301,0 C8.8975631,0 8.66666667,0.242977429 8.66666667,0.541643843 C8.66666667,0.840325473 8.8975631,1.08333333 9.18137301,1.08333333" id="Fill-7"></path>
                    </g>
                </g>
            </g>
        </g>
    </g>
</svg>