<?xml version="1.0" encoding="UTF-8"?>
<svg width="22px" height="43px" viewBox="0 0 22 43" version="1.1" xmlns="http://www.w3.org/2000/svg" xmlns:xlink="http://www.w3.org/1999/xlink">
    <title>ic_bus_station</title>
    <g id="1.0" stroke="none" stroke-width="1" fill="none" fill-rule="evenodd">
        <g id="管控推演-方案发布-街道级别" transform="translate(-496.000000, -441.000000)">
            <g id="ic_bus" transform="translate(496.000000, 441.000000)">
                <rect id="矩形" fill="#FFFFFF" x="9.88888889" y="17.6666667" width="2.22222222" height="24.4444444" rx="1.11111111"></rect>
                <g id="编组-30">
                    <circle id="椭圆形备份-5" fill="#0663D6" cx="11" cy="11" r="10"></circle>
                    <path d="M11,0 C4.92486775,0 0,4.92486775 0,11 C0,17.0751322 4.92486775,22 11,22 C17.0751322,22 22,17.0751322 22,11 C22,4.92486775 17.0751322,0 11,0 Z M11,2 C15.9705627,2 20,6.02943725 20,11 C20,15.9705627 15.9705627,20 11,20 C6.02943725,20 2,15.9705627 2,11 C2,6.02943725 6.02943725,2 11,2 Z" id="椭圆形备份-4" fill="#FFFFFF" fill-rule="nonzero"></path>
                    <path d="M6.87891892,13.4324324 C7.37189189,13.4324324 7.76108108,13.3416216 8.03351351,13.16 C8.35135135,12.9394595 8.51351351,12.5956757 8.51351351,12.1286486 C8.51351351,11.8172973 8.43567568,11.5643243 8.28648649,11.3827027 C8.13081081,11.1945946 7.90378378,11.0713514 7.59891892,11.012973 C7.83243243,10.9221622 8.00756757,10.7989189 8.13081081,10.6302703 C8.25405405,10.4486486 8.31891892,10.2281081 8.31891892,9.96864865 C8.31891892,9.61837838 8.19567568,9.33945946 7.95567568,9.13189189 C7.69621622,8.91135135 7.33297297,8.80108108 6.87243243,8.80108108 L4.75135135,8.80108108 L4.75135135,13.4324324 L6.87891892,13.4324324 Z M6.67135135,10.747027 L5.51027027,10.747027 L5.51027027,9.42378378 L6.68432432,9.42378378 C6.99567568,9.42378378 7.21621622,9.47567568 7.35891892,9.57945946 C7.48864865,9.67675676 7.56,9.83891892 7.56,10.0594595 C7.56,10.2994595 7.48864865,10.4745946 7.35891892,10.5848649 C7.2227027,10.6886486 6.99567568,10.747027 6.67135135,10.747027 Z M6.76864865,12.8097297 L5.51027027,12.8097297 L5.51027027,11.3697297 L6.78810811,11.3697297 C7.12540541,11.3697297 7.37189189,11.4281081 7.52756757,11.5448649 C7.67675676,11.6616216 7.75459459,11.8497297 7.75459459,12.1156757 C7.75459459,12.3751351 7.65081081,12.5567568 7.44324324,12.6735135 C7.28108108,12.7643243 7.05405405,12.8097297 6.76864865,12.8097297 Z M11.1535135,13.5232432 C11.7632432,13.5232432 12.2367568,13.3675676 12.5740541,13.0562162 C12.9113514,12.7383784 13.08,12.2778378 13.08,11.6745946 L13.08,8.80108108 L12.3210811,8.80108108 L12.3210811,11.6875676 C12.3210811,12.0897297 12.2237838,12.3816216 12.0421622,12.5762162 C11.8540541,12.7643243 11.5556757,12.8616216 11.1535135,12.8616216 C10.7448649,12.8616216 10.4464865,12.7643243 10.2648649,12.5762162 C10.0767568,12.3816216 9.98594595,12.0897297 9.98594595,11.6875676 L9.98594595,8.80108108 L9.22702703,8.80108108 L9.22702703,11.6745946 C9.22702703,12.2778378 9.39567568,12.7383784 9.73945946,13.0627027 C10.0637838,13.3675676 10.5372973,13.5232432 11.1535135,13.5232432 Z M15.7005405,13.5232432 C16.2908108,13.5232432 16.7513514,13.4 17.0756757,13.1664865 C17.4,12.9264865 17.5621622,12.5956757 17.5621622,12.1805405 C17.5621622,11.7524324 17.3610811,11.4216216 16.9589189,11.1816216 C16.7772973,11.0778378 16.3751351,10.9221622 15.7459459,10.7275676 C15.3178378,10.5913514 15.0518919,10.4940541 14.9545946,10.4421622 C14.7340541,10.3254054 14.6302703,10.1632432 14.6302703,9.96864865 C14.6302703,9.74810811 14.7210811,9.58594595 14.9156757,9.48864865 C15.0713514,9.40432432 15.2918919,9.36540541 15.5837838,9.36540541 C15.9210811,9.36540541 16.1805405,9.42378378 16.3491892,9.55351351 C16.5178378,9.67675676 16.6410811,9.88432432 16.7059459,10.1697297 L17.4583784,10.1697297 C17.412973,9.66378378 17.2248649,9.28756757 16.9005405,9.04756757 C16.5956757,8.82054054 16.1675676,8.71027027 15.6227027,8.71027027 C15.1232432,8.71027027 14.7145946,8.82054054 14.3902703,9.04756757 C14.04,9.28108108 13.8713514,9.60540541 13.8713514,10.0140541 C13.8713514,10.4227027 14.0464865,10.7340541 14.4032432,10.9481081 C14.5394595,11.0259459 14.8962162,11.1556757 15.467027,11.3372973 C15.9794595,11.492973 16.2778378,11.5967568 16.3686486,11.6421622 C16.6540541,11.7848649 16.8032432,11.9794595 16.8032432,12.2259459 C16.8032432,12.4205405 16.6994595,12.5697297 16.5048649,12.6864865 C16.3102703,12.7967568 16.0378378,12.8551351 15.7005405,12.8551351 C15.3178378,12.8551351 15.0389189,12.7837838 14.8572973,12.6540541 C14.6562162,12.5048649 14.532973,12.2518919 14.4810811,11.9016216 L13.7286486,11.9016216 C13.7610811,12.4918919 13.9751351,12.92 14.3643243,13.1924324 C14.6821622,13.412973 15.1297297,13.5232432 15.7005405,13.5232432 Z" id="BUS" stroke="#FFFFFF" stroke-width="0.5" fill="#FFFFFF" fill-rule="nonzero"></path>
                </g>
            </g>
        </g>
    </g>
</svg>