<?xml version="1.0" encoding="UTF-8"?>
<svg width="22px" height="22px" viewBox="0 0 22 22" version="1.1" xmlns="http://www.w3.org/2000/svg" xmlns:xlink="http://www.w3.org/1999/xlink">
    <title>ic_bus_station_legend</title>
    <g id="页面-1" stroke="none" stroke-width="1" fill="none" fill-rule="evenodd">
        <g id="推演管控-信号优先" transform="translate(-723.000000, -224.000000)" stroke="#FFFFFF">
            <g id="图标" transform="translate(487.000000, 224.000000)">
                <g id="编组-29备份-2" transform="translate(236.000000, 0.000000)">
                    <g id="编组-30" transform="translate(1.162791, 1.162791)">
                        <circle id="底" stroke-width="2" fill="#FFFFFF" cx="9.68992248" cy="9.68992248" r="9.68992248"></circle>
                        <circle id="椭圆形备份-6" stroke-width="2" fill="#0663D6" cx="9.68992248" cy="9.68992248" r="9.68992248"></circle>
                        <path d="M5.69662686,12.0469307 C6.17431385,12.0469307 6.55143516,11.9589357 6.81542007,11.7829457 C7.12340247,11.5692437 7.28053635,11.2361198 7.28053635,10.7835743 C7.28053635,10.4818772 7.20511209,10.2367484 7.06054892,10.0607584 C6.9097004,9.87848313 6.68971297,9.75906139 6.39430128,9.70249319 C6.62057406,9.61449822 6.79027865,9.49507647 6.9097004,9.33165724 C7.02912215,9.1556673 7.0919757,8.94196522 7.0919757,8.69055102 C7.0919757,8.35114184 6.97255395,8.08087157 6.73999581,7.87974021 C6.4885816,7.66603813 6.13660172,7.55918709 5.6903415,7.55918709 L3.63503038,7.55918709 L3.63503038,12.0469307 L5.69662686,12.0469307 Z M5.4954955,9.44479363 L4.37041693,9.44479363 L4.37041693,8.16258119 L5.50806621,8.16258119 C5.80976325,8.16258119 6.02346533,8.21286403 6.16174314,8.31342971 C6.28745024,8.40771004 6.35658915,8.56484391 6.35658915,8.77854599 C6.35658915,9.01110413 6.28745024,9.18080872 6.16174314,9.28765975 C6.02975068,9.38822543 5.80976325,9.44479363 5.4954955,9.44479363 Z M5.58977582,11.4435366 L4.37041693,11.4435366 L4.37041693,10.0481877 L5.60863189,10.0481877 C5.93547035,10.0481877 6.17431385,10.1047559 6.32516237,10.2178923 C6.46972554,10.3310287 6.5451498,10.513304 6.5451498,10.7710036 C6.5451498,11.0224178 6.44458412,11.1984077 6.24345276,11.3115441 C6.08631888,11.3995391 5.86633145,11.4435366 5.58977582,11.4435366 Z M9.83867589,12.1349256 C10.4294993,12.1349256 10.8883302,11.9840771 11.2151687,11.6823801 C11.5420071,11.3743977 11.7054264,10.9281374 11.7054264,10.3435994 L11.7054264,7.55918709 L10.9700398,7.55918709 L10.9700398,10.3561701 C10.9700398,10.7458621 10.8757595,11.0287031 10.6997695,11.2172638 C10.5174942,11.3995391 10.2283679,11.4938194 9.83867589,11.4938194 C9.44269851,11.4938194 9.15357218,11.3995391 8.97758223,11.2172638 C8.79530693,11.0287031 8.70731196,10.7458621 8.70731196,10.3561701 L8.70731196,7.55918709 L7.97192541,7.55918709 L7.97192541,10.3435994 C7.97192541,10.9281374 8.13534465,11.3743977 8.46846847,11.6886654 C8.78273622,11.9840771 9.24156715,12.1349256 9.83867589,12.1349256 Z M14.2447098,12.1349256 C14.8166771,12.1349256 15.2629374,12.0155039 15.5772051,11.7892311 C15.8914729,11.556673 16.0486067,11.2361198 16.0486067,10.8338571 C16.0486067,10.4190237 15.8537607,10.0984706 15.4640687,9.86591242 C15.2880788,9.76534674 14.8983868,9.61449822 14.2887073,9.42593757 C13.8738739,9.29394511 13.6161743,9.19966478 13.521894,9.14938194 C13.3081919,9.03624555 13.2076262,8.87911167 13.2076262,8.69055102 C13.2076262,8.47684894 13.2956212,8.31971506 13.4841819,8.22543474 C13.6350304,8.14372512 13.8487325,8.10601299 14.1315734,8.10601299 C14.4584119,8.10601299 14.7098261,8.16258119 14.8732453,8.28828829 C15.0366646,8.40771004 15.1560863,8.6088414 15.2189399,8.88539702 L15.9480411,8.88539702 C15.9040436,8.39513933 15.7217683,8.03058873 15.4075005,7.79803059 C15.1120888,7.57804316 14.6972554,7.47119212 14.1692856,7.47119212 C13.6853132,7.47119212 13.2893358,7.57804316 12.9750681,7.79803059 C12.6356589,8.02430337 12.4722397,8.33857113 12.4722397,8.7345485 C12.4722397,9.13052587 12.6419443,9.43222292 12.9876388,9.63963964 C13.1196313,9.7150639 13.4653258,9.840771 14.018437,10.0167609 C14.5149801,10.1676095 14.8041064,10.2681752 14.8921014,10.3121726 C15.168657,10.4504505 15.3132202,10.6390111 15.3132202,10.8778546 C15.3132202,11.0664153 15.2126545,11.2109784 15.0240939,11.3241148 C14.8355332,11.4309658 14.5715483,11.487534 14.2447098,11.487534 C13.8738739,11.487534 13.6036036,11.4183951 13.4276137,11.292688 C13.2327677,11.1481249 13.1133459,10.902996 13.0630631,10.5635868 L12.3339619,10.5635868 C12.3653886,11.1355542 12.5728054,11.5503876 12.9499267,11.8143725 C13.2579091,12.0280746 13.6915986,12.1349256 14.2447098,12.1349256 Z" id="BUS" stroke-width="0.5" fill="#FFFFFF" fill-rule="nonzero"></path>
                    </g>
                </g>
            </g>
        </g>
    </g>
</svg>