<?xml version="1.0" encoding="UTF-8"?>
<svg width="74px" height="38px" viewBox="0 0 74 38" version="1.1" xmlns="http://www.w3.org/2000/svg" xmlns:xlink="http://www.w3.org/1999/xlink">
    <title>ic_bus_legend</title>
    <defs>
        <path d="M30.919791,4.09310461 L30.919791,56.2639885 L29.8473806,59.936478 C29.3865562,61.5145797 27.9397189,62.5993483 26.2957103,62.5993483 L10.6624297,62.5993483 C8.97447707,62.5993483 7.50049876,61.4569598 7.07941103,59.8223745 L5.944791,55.4179878 L5.944791,4.09310461 C5.944791,2.04965104 7.60133742,0.39310461 9.644791,0.39310461 L27.219791,0.39310461 C29.2632446,0.39310461 30.919791,2.04965104 30.919791,4.09310461 Z" id="path-1"></path>
        <filter x="-24.0%" y="-9.6%" width="148.0%" height="119.3%" filterUnits="objectBoundingBox" id="filter-2">
            <feOffset dx="0" dy="0" in="SourceAlpha" result="shadowOffsetOuter1"></feOffset>
            <feGaussianBlur stdDeviation="2" in="shadowOffsetOuter1" result="shadowBlurOuter1"></feGaussianBlur>
            <feColorMatrix values="0 0 0 0 0   0 0 0 0 0   0 0 0 0 0  0 0 0 1 0" type="matrix" in="shadowBlurOuter1"></feColorMatrix>
        </filter>
        <linearGradient x1="78.6865792%" y1="17.016892%" x2="50%" y2="84.9584197%" id="linearGradient-3">
            <stop stop-color="#FFEB85" offset="0%"></stop>
            <stop stop-color="#FFE586" stop-opacity="0" offset="100%"></stop>
        </linearGradient>
        <filter x="-24.2%" y="-27.3%" width="148.3%" height="154.6%" filterUnits="objectBoundingBox" id="filter-4">
            <feGaussianBlur stdDeviation="1" in="SourceGraphic"></feGaussianBlur>
        </filter>
        <linearGradient x1="73.9870303%" y1="7.87258859%" x2="40.5493637%" y2="93.2921153%" id="linearGradient-5">
            <stop stop-color="#FFEB85" offset="0%"></stop>
            <stop stop-color="#FFE586" stop-opacity="0" offset="100%"></stop>
        </linearGradient>
        <filter x="-28.4%" y="-26.0%" width="156.9%" height="152.0%" filterUnits="objectBoundingBox" id="filter-6">
            <feGaussianBlur stdDeviation="1" in="SourceGraphic"></feGaussianBlur>
        </filter>
    </defs>
    <g id="页面-1" stroke="none" stroke-width="1" fill="none" fill-rule="evenodd">
        <g id="推演管控-车速引导" transform="translate(-517.000000, -592.000000)">
            <g id="图标" transform="translate(487.000000, 224.000000)">
                <g id="编组-29" transform="translate(30.000000, 368.000000)">
                    <g id="ic_bus" transform="translate(37.000000, 19.000000) rotate(-90.000000) translate(-37.000000, -19.000000) translate(18.000000, -17.000000)">
                        <g id="编组" transform="translate(1.000000, 3.000000)">
                            <g id="矩形">
                                <use fill="black" fill-opacity="1" filter="url(#filter-2)" xlink:href="#path-1"></use>
                                <use fill="#6DEDE5" fill-rule="evenodd" xlink:href="#path-1"></use>
                            </g>
                            <path d="M19.0790867,43.1296363 L22.7515762,44.2022398 C24.329678,44.6630642 25.4144465,46.1099015 25.4144465,47.7539101 L25.4144465,63.3871908 C25.4144465,65.0751434 24.2720581,66.5491217 22.6374728,66.9702094 L18.2330861,68.1048859 L12.0166725,68.1048859 C12.761153,64.0497629 13.1333932,59.102595 13.1333932,55.1133819 C13.1333932,50.3791518 12.6091322,46.92087 11.5606101,44.7385365 L11.4502722,44.5173294 L12.6555472,43.1296363 L19.0790867,43.1296363 Z" id="路径" fill="#68E3DB" transform="translate(18.432359, 55.617261) rotate(90.000000) translate(-18.432359, -55.617261) "></path>
                            <path d="M15.5208155,46.8035889 L19.1933051,47.8759993 C20.7714068,48.3368237 21.8561753,49.783661 21.8561753,51.4276696 L21.8561753,67.0609503 C21.8561753,68.7489029 20.7137869,70.2228812 19.0792016,70.6439689 L15.1240317,71.6629639 L15.1499317,71.6134479 L17.6091716,70.3561408 C19.3962343,69.44249 20.5452836,67.6388517 20.627947,65.645346 L20.6327282,65.4145233 L20.6327282,53.0650139 C20.6327282,51.0984103 19.5927144,49.285054 17.9102879,48.2892808 L17.7053386,48.1737549 L15.1499317,46.8035889 L15.5208155,46.8035889 Z" id="路径" fill="#5BC7C0" transform="translate(18.490103, 59.233276) rotate(90.000000) translate(-18.490103, -59.233276) "></path>
                            <polygon id="路径" fill="#042224" transform="translate(18.670016, 62.128006) rotate(90.000000) translate(-18.670016, -62.128006) " points="19.1413035 54.5578065 19.1413035 69.6982065 18.1987285 67.7221735 18.1987285 55.8885791"></polygon>
                            <path d="M45.7289456,15.732475 L40.4407493,16.8578161 L-6.61957939,16.6582092 L-7.93457322,17.567675 L-7.93457322,38.872275 L-6.61957939,39.7832092 L40.4407493,39.3207092 L46.2598956,40.5456 L45.6303038,40.7082092 L-5.69457939,40.7082092 C-7.73803296,40.7082092 -9.39457939,39.0516628 -9.39457939,37.0082092 L-9.39457939,19.4332092 C-9.39457939,17.3897557 -7.73803296,15.7332092 -5.69457939,15.7332092 L45.7289456,15.732475 Z" id="路径" fill="#5AC4BD" transform="translate(18.432658, 28.220342) rotate(90.000000) translate(-18.432658, -28.220342) "></path>
                            <path d="M15.5604475,45.5012587 L20.2099145,44.6177062 C20.8841311,47.6063774 21.2212394,50.7173424 21.2212394,53.9506012 C21.2212394,57.1838601 20.8841311,60.5755268 20.2099145,64.1256012 L15.5604475,63.1591537 C15.9865073,59.4980089 16.1995372,56.4146756 16.1995372,53.9091537 C16.1995372,51.4036318 15.9865073,48.6010002 15.5604475,45.5012587 Z" id="矩形" fill="#042224" transform="translate(18.390843, 54.371654) rotate(90.000000) translate(-18.390843, -54.371654) "></path>
                            <path d="M27.2612385,51.5412578 L28.144791,56.1907247 C25.4770548,56.7925414 22.7118794,57.1257624 19.8492646,57.1903878 L23.6147354,51.9564396 C24.7807559,51.8535235 25.9962569,51.7151296 27.2612385,51.5412578 Z" id="路径" fill="#D3F7F7"></path>
                            <path d="M-3.45198327,18.5262871 L39.5882532,18.5262871 C39.9564878,21.0087183 40.1406051,23.6374338 40.1406051,26.4124338 C40.1406051,29.1874338 39.9564878,32.1831361 39.5882532,35.3995407 L-3.45198327,35.3995407 L-3.45198327,18.5262871 Z" id="矩形" fill="#68E3DB" transform="translate(18.344311, 26.962914) rotate(90.000000) translate(-18.344311, -26.962914) "></path>
                            <polygon id="路径-14" fill="#61D4CD" transform="translate(12.710804, 32.108473) rotate(90.000000) translate(-12.710804, -32.108473) " points="5.93733502 29.3053528 4.23259533 34.9115927 19.3829359 34.9115927 21.1890127 29.4216948"></polygon>
                            <path d="M12.1032923,28.0921002 L24.9032923,28.0921002 C26.0078618,28.0921002 26.9032923,28.9875307 26.9032923,30.0921002 L26.9032923,35.3421002 C26.9032923,36.4466697 26.0078618,37.3421002 24.9032923,37.3421002 L12.1032923,37.3421002 C10.9987228,37.3421002 10.1032923,36.4466697 10.1032923,35.3421002 L10.1032923,30.0921002 C10.1032923,28.9875307 10.9987228,28.0921002 12.1032923,28.0921002 Z" id="矩形" fill="#6DEDE5" transform="translate(18.503292, 32.717100) rotate(90.000000) translate(-18.503292, -32.717100) "></path>
                            <path d="M21.346472,32.2174974 L22.0647781,32.9548455 C21.7511106,33.1995173 21.3565262,33.3452884 20.9278952,33.3452884 L7.82789519,33.3452884 C7.45595079,33.3452884 7.10964316,33.2355243 6.81959757,33.0466215 L7.47305428,32.2174974 L21.346472,32.2174974 Z" id="路径" fill="#58BFB9" transform="translate(14.442188, 32.781393) rotate(90.000000) translate(-14.442188, -32.781393) "></path>
                            <path d="M29.0207373,32.2468643 C29.4493683,32.2468643 29.8439526,32.3926354 30.1576201,32.6373072 L29.4393141,33.3746553 L15.653988,33.3746553 L14.9711736,32.5088247 C15.2487608,32.3424848 15.5735824,32.2468643 15.9207373,32.2468643 L29.0207373,32.2468643 Z" id="路径" fill="#58BFB9" transform="translate(22.564397, 32.810760) rotate(90.000000) translate(-22.564397, -32.810760) "></path>
                            <path d="M19.0609315,37.7928931 L19.0609315,43.3428931 C19.0609315,43.8060243 18.8907501,44.2294075 18.6095104,44.5539195 L17.9540852,43.9487602 L17.9540852,37.2073123 L18.6021583,36.5734347 C18.8877814,36.8990282 19.0609315,37.32574 19.0609315,37.7928931 Z" id="路径" fill="#5FCFC7" transform="translate(18.507508, 40.563677) rotate(90.000000) translate(-18.507508, -40.563677) "></path>
                            <path d="M18.5526452,20.8820483 L19.1620857,21.4786846 L19.1620857,28.2201325 L18.411475,28.9142307 C18.1541519,28.5964316 18.0000072,28.1916638 18.0000072,27.7508936 L18.0000072,22.2008936 C18.0000072,21.6845665 18.2115285,21.2176427 18.5526452,20.8820483 Z" id="路径" fill="#5FCFC7" transform="translate(18.581046, 24.898139) rotate(90.000000) translate(-18.581046, -24.898139) "></path>
                            <polygon id="矩形" fill="#042224" transform="translate(7.507739, 29.175843) rotate(90.000000) translate(-7.507739, -29.175843) " points="-16.65 27.9637912 26.5699311 27.9637912 33.5154776 29.4628956 33.5154776 30.3878956 26.4904327 29.8137912 -18.5 29.8137912"></polygon>
                            <polygon id="矩形备份-13" fill="#042224" transform="translate(29.391434, 29.454990) scale(1, -1) rotate(-90.000000) translate(-29.391434, -29.454990) " points="4.95454917 28.2083464 48.1744803 28.2083464 55.6783196 29.7766332 55.6783196 30.7016332 48.0949819 30.0583464 3.10454917 30.0583464"></polygon>
                            <polygon id="矩形备份-12" fill="#042224" transform="translate(18.393260, 2.778111) rotate(90.000000) translate(-18.393260, -2.778111) " points="17.4682595 -7.8625 19.3182595 -6.0125 19.3182595 11.5687215 17.4682595 13.4187215"></polygon>
                            <path d="M11.0461221,56.662224 L11.5362649,57.1625261 C11.814697,57.4467294 11.9688125,57.8299076 11.9647015,58.2277505 L11.9441961,60.212172 C11.9389977,60.7152497 11.6819413,61.1822182 11.2596597,61.4557003 L11.0284969,61.6054082 C10.7559998,61.7818855 10.3920341,61.704046 10.2155568,61.4315489 C10.153918,61.3363729 10.1211221,61.2254007 10.1211221,61.1120085 L10.1211221,57.0398255 C10.1211221,56.7418282 10.3626966,56.5002536 10.6606939,56.5002536 C10.805716,56.5002536 10.9446331,56.5586314 11.0461221,56.662224 Z" id="矩形备份-16" fill="#2F3B4D" transform="translate(11.046122, 58.955551) scale(1, -1) rotate(-108.000000) translate(-11.046122, -58.955551) "></path>
                            <path d="M8.83009916,57.8302586 C8.91297676,57.5751875 9.16782988,57.4240491 9.42457928,57.463503 L9.50999934,57.4838321 L13.3828755,58.7422059 C13.490718,58.777246 13.5861243,58.8427291 13.6575946,58.9307621 C13.8417577,59.1576036 13.8290361,59.4801543 13.6409086,59.6915682 L13.5852814,59.7463248 C13.6405625,59.5740284 13.6104841,59.378111 13.4879253,59.22715 C13.420539,59.1441475 13.3305845,59.0824063 13.2289045,59.0493685 L9.57733547,57.8629018 C9.31011818,57.7760777 9.02311089,57.9223152 8.93628673,58.1895325 C8.92064808,58.2376633 8.91242399,58.2873741 8.91147872,58.3370465 L8.86503824,58.2468741 C8.7978777,58.1183406 8.78528486,57.9681828 8.83009916,57.8302586 Z" id="路径" fill="#042224"></path>
                            <path d="M8.96608976,58.1073413 C9.0442315,57.8668458 9.28452158,57.7243438 9.52659958,57.7615432 L9.6071385,57.7807107 L13.2587075,58.9671774 C13.3603875,59.0002152 13.450342,59.0619564 13.5177283,59.1449589 C13.6404441,59.2961131 13.6704424,59.4923389 13.6148717,59.6647951 L13.3408118,59.887119 C13.0156463,60.1511072 12.5908612,60.2525614 12.1854383,60.168716 L12.0511776,60.1338733 L10.0554193,59.5081356 C9.74814703,59.4117953 9.48537935,59.2120923 9.31031103,58.945156 L9.24077703,58.8267437 L8.94128175,58.2548554 C8.94222702,58.205183 8.95045111,58.1554721 8.96608976,58.1073413 Z" id="路径" fill="#FFF6D1"></path>
                            <path d="M25.5528474,56.7152819 L26.0429902,57.2155841 C26.3214223,57.4997873 26.4755378,57.8829655 26.4714268,58.2808084 L26.4509214,60.2652299 C26.445723,60.7683076 26.1886666,61.2352761 25.766385,61.5087582 L25.5352222,61.6584662 C25.2627251,61.8349434 24.8987594,61.7571039 24.7222821,61.4846068 C24.6606433,61.3894309 24.6278474,61.2784587 24.6278474,61.1650664 L24.6278474,57.0928834 C24.6278474,56.7948861 24.8694219,56.5533116 25.1674192,56.5533116 C25.3124413,56.5533116 25.4513584,56.6116894 25.5528474,56.7152819 Z" id="矩形备份-16" fill="#2F3B4D" transform="translate(25.552847, 59.008609) scale(-1, -1) rotate(-108.000000) translate(-25.552847, -59.008609) "></path>
                            <path d="M22.8363005,57.8833165 C22.9191781,57.6282455 23.1740312,57.477107 23.4307806,57.5165609 L23.5162006,57.5368901 L27.3890769,58.7952638 C27.4969193,58.8303039 27.5923256,58.895787 27.6637959,58.98382 C27.847959,59.2106615 27.8352374,59.5332122 27.6471099,59.7446261 L27.5914827,59.7993827 C27.6467638,59.6270863 27.6166855,59.4311689 27.4941266,59.280208 C27.4267403,59.1972055 27.3367858,59.1354643 27.2351058,59.1024264 L23.5835368,57.9159597 C23.3163195,57.8291356 23.0293122,57.9753731 22.942488,58.2425904 C22.9268494,58.2907212 22.9186253,58.340432 22.91768,58.3901044 L22.8712395,58.299932 C22.804079,58.1713985 22.7914862,58.0212407 22.8363005,57.8833165 Z" id="路径" fill="#042224" transform="translate(25.302585, 58.654859) scale(-1, 1) translate(-25.302585, -58.654859) "></path>
                            <path d="M22.9820789,58.1603993 C23.0602206,57.9199037 23.3005107,57.7774018 23.5425887,57.8146011 L23.6231276,57.8337686 L27.2746966,59.0202353 C27.3763766,59.0532731 27.4663312,59.1150144 27.5337174,59.1980168 C27.6564332,59.349171 27.6864315,59.5453968 27.6308608,59.7178531 L27.3568009,59.9401769 C27.0316355,60.2041652 26.6068504,60.3056193 26.2014274,60.2217739 L26.0671668,60.1869312 L24.0714085,59.5611935 C23.7641362,59.4648532 23.5013685,59.2651502 23.3263002,58.9982139 L23.2567662,58.8798017 L22.9572709,58.3079133 C22.9582162,58.2582409 22.9664402,58.2085301 22.9820789,58.1603993 Z" id="路径" fill="#FFF6D1" transform="translate(25.307479, 59.029615) scale(-1, 1) translate(-25.307479, -59.029615) "></path>
                            <path d="M4.21551252,49.5388261 L6.99051252,49.5388261 L6.99051252,54.0781289 C6.99051252,55.0558072 6.28368643,55.8901874 5.31931049,56.0509168 L1.44051252,56.6973831 L1.44051252,56.6973831 L1.44051252,52.9973831 L4.21458752,52.5339761 L4.21551252,49.5388261 Z" id="路径" fill="#6DEDE5" transform="translate(4.215513, 53.118105) rotate(90.000000) translate(-4.215513, -53.118105) "></path>
                            <polygon id="矩形备份-14" fill="#042224" transform="translate(2.595300, 50.976850) rotate(90.000000) translate(-2.595300, -50.976850) " points="1.96155433 49.2359154 3.22904481 49.0177843 3.22904481 52.7623936 1.96155433 52.9359154"></polygon>
                            <polygon id="矩形备份-15" fill="#042224" transform="translate(6.279962, 53.580605) rotate(90.000000) translate(-6.279962, -53.580605) " points="5.81746175 52.1793305 6.74246175 52.3968288 6.74246175 54.8407754 5.81746175 54.9818788"></polygon>
                            <path d="M33.7568482,56.0548975 L29.8780502,56.7013638 L29.8780502,56.7013638 L29.8780502,53.0013638 L32.6530502,52.5383204 L32.6530502,49.5348454 L35.4280502,49.5348454 L35.4280502,54.0821097 C35.4280502,55.059788 34.7212241,55.8941682 33.7568482,56.0548975 Z" id="路径" fill="#6DEDE5" transform="translate(32.653050, 53.118105) scale(1, -1) rotate(-90.000000) translate(-32.653050, -53.118105) "></path>
                            <polygon id="矩形备份-14" fill="#042224" transform="translate(34.277244, 50.976850) scale(1, -1) rotate(-90.000000) translate(-34.277244, -50.976850) " points="33.6434987 49.2359154 34.9109892 49.0177843 34.9109892 52.7623936 33.6434987 52.9359154"></polygon>
                            <polygon id="矩形备份-15" fill="#042224" transform="translate(30.638078, 53.580605) scale(1, -1) rotate(-90.000000) translate(-30.638078, -53.580605) " points="30.1755778 52.1369178 31.1005778 52.3311369 31.1005778 54.8831881 30.1755778 55.0242915"></polygon>
                        </g>
                        <g id="车灯" transform="translate(3.000000, 58.000000)" opacity="0.900000036">
                            <path d="M13.0060833,12.0105603 L11.6416986,4.02961456 L7.11720142,2.72285424 L0.595299569,9.22487054 C2.73611915,11.855945 4.46928296,13.322076 5.794791,13.6232634 C7.12029903,13.9244508 9.52406313,13.3868831 13.0060833,12.0105603 Z" id="路径-17备份" fill="url(#linearGradient-3)" filter="url(#filter-4)"></path>
                            <polygon id="路径-17备份-2" fill="url(#linearGradient-5)" filter="url(#filter-6)" transform="translate(24.734869, 8.628053) rotate(-35.000000) translate(-24.734869, -8.628053) " points="30.0081217 12.9873855 28.8286235 4.39045142 24.1611823 2.86132174 19.4616158 9.31604966 24.7282467 14.3947851"></polygon>
                        </g>
                    </g>
                </g>
            </g>
        </g>
    </g>
</svg>