<?xml version="1.0" encoding="UTF-8"?>
<svg width="20px" height="20px" viewBox="0 0 20 20" version="1.1" xmlns="http://www.w3.org/2000/svg" xmlns:xlink="http://www.w3.org/1999/xlink">
    <g id="1.0" stroke="none" stroke-width="1" fill="none" fill-rule="evenodd">
        <g id="实时监测-统计分析" transform="translate(-17.000000, -630.000000)" fill="#FFFFFF" fill-rule="nonzero">
            <g id="编组-31" transform="translate(0.000000, 440.000000)">
                <g id="编组-24">
                    <g id="ic_menu_warning" transform="translate(17.000000, 190.000000)">
                        <path d="M19.6410643,16.388358 L19.6410643,16.3855222 L11.153576,1.68484077 L11.1521581,1.68484077 C11.0458164,1.29350319 10.5608981,1 9.97814535,1 C9.39113897,1 8.90763855,1.30059264 8.80555048,1.69618389 L0.118139675,16.7414126 L0.125229124,16.7513378 C-0.0732754478,16.9484245 -0.0349924232,17.4163281 0.234406639,17.8530382 C0.505223591,18.2982556 0.913575854,18.5463863 1.17730336,18.4442982 L1.18722859,18.459895 L18.7718979,18.459895 L18.7818231,18.4372088 C19.0753263,18.4825812 19.4368882,18.2245253 19.6623327,17.765129 C19.9260602,17.2362561 19.9090455,16.6407424 19.6410643,16.388358 Z M8.747417,6.30716152 C8.747417,5.65635011 9.2762899,5.1288951 9.92568343,5.1288951 C10.5779127,5.1288951 11.1039499,5.65635011 11.1039499,6.30716152 L11.1039499,12.3799835 C11.1039499,13.0293771 10.5779127,13.55825 9.92568343,13.55825 C9.2762899,13.55825 8.747417,13.0293771 8.747417,12.3799835 L8.747417,6.30716152 Z M9.92568343,16.9073057 C9.21815642,16.9073057 8.64391105,16.3330603 8.64391105,15.6241154 C8.64391105,14.9165884 9.21815642,14.3451788 9.92568343,14.3451788 C10.6332104,14.3451788 11.2074558,14.9165884 11.2074558,15.6241154 C11.2074558,16.3316424 10.6332104,16.9073057 9.92568343,16.9073057 Z" id="形状"></path>
                    </g>
                </g>
            </g>
        </g>
    </g>
</svg>