<?xml version="1.0" encoding="UTF-8"?>
<svg width="24px" height="24px" viewBox="0 0 24 24" version="1.1" xmlns="http://www.w3.org/2000/svg" xmlns:xlink="http://www.w3.org/1999/xlink">
    <g id="1.0" stroke="none" stroke-width="1" fill="none" fill-rule="evenodd">
        <g id="实时监测-统计分析" transform="translate(-59.000000, -440.000000)">
            <g id="编组-31" transform="translate(0.000000, 440.000000)">
                <g id="ic_menu_put-away" transform="translate(59.000000, 0.000000)">
                    <circle id="椭圆形" stroke="#1F9CB4" fill-opacity="0.5" fill="#004D7A" cx="12" cy="12" r="11.5"></circle>
                    <g id="3.1-返回1" transform="translate(5.000000, 6.000000)" fill-rule="nonzero">
                        <rect id="矩形" fill="#000000" opacity="0" x="0" y="0" width="12" height="12"></rect>
                        <path d="M4.6100404,6.00027581 L8.68756384,2.0586922 C8.9278929,1.82597798 8.9278929,1.44934934 8.68756384,1.21737861 C8.44724678,0.985036137 8.05734313,0.985036137 7.81702607,1.21737861 L3.30458149,5.57970895 C3.06462418,5.81205143 3.06462418,6.18887194 3.30458149,6.42048291 L7.81702605,10.7826334 C7.93755634,10.8988106 8.09509352,10.9568872 8.2526547,10.9568872 C8.41022786,10.9568872 8.56776505,10.8987986 8.68756383,10.7822616 C8.92789289,10.5499191 8.92789289,10.1738301 8.68756383,9.94148766 L4.6100404,6.00027581" id="路径" fill="#65E6FF"></path>
                    </g>
                </g>
            </g>
        </g>
    </g>
</svg>