<?xml version="1.0" encoding="UTF-8"?>
<svg width="38px" height="72px" viewBox="0 0 38 72" version="1.1" xmlns="http://www.w3.org/2000/svg" xmlns:xlink="http://www.w3.org/1999/xlink">
    <title>ic_car_white</title>
    <defs>
        <path d="M4.67484492,33.052674 L3.62034361,43.2283142 C3.38443551,45.5047609 4.42693674,47.7249814 6.32922792,48.9974399 L6.97694631,49.4307041 C8.57292071,50.4982647 10.4425001,51.0837773 12.362317,51.1172878 L19.9676392,51.2500392 C21.7467742,51.2810941 23.5019733,50.8368615 25.0521238,49.9631802 L26.1517085,49.3434426 C28.2592662,48.1556006 29.4676745,45.8362786 29.23356,43.4283836 L28.332505,34.1609267 L28.332505,34.1609267 L28.402546,20.9848364 L29.1457114,10.2187304 C29.2964887,8.03444684 28.7492973,5.85874973 27.5831196,4.00568248 C26.4633573,2.2263697 24.5216521,1.13189876 22.4196351,1.09520792 L13.3112451,0.936220383 C10.8315637,0.892937383 8.44315885,1.87108844 6.70616817,3.64127394 C4.97146756,5.4091256 4.0529454,7.82052486 4.17191572,10.2944553 L4.68580061,20.9804444 L4.68580061,20.9804444 L4.67484492,33.052674 Z" id="path-1"></path>
        <filter x="-21.4%" y="-11.8%" width="142.8%" height="123.6%" filterUnits="objectBoundingBox" id="filter-2">
            <feOffset dx="0" dy="0" in="SourceAlpha" result="shadowOffsetOuter1"></feOffset>
            <feGaussianBlur stdDeviation="2" in="shadowOffsetOuter1" result="shadowBlurOuter1"></feGaussianBlur>
            <feColorMatrix values="0 0 0 0 0   0 0 0 0 0   0 0 0 0 0  0 0 0 1 0" type="matrix" in="shadowBlurOuter1"></feColorMatrix>
        </filter>
        <linearGradient x1="78.6865792%" y1="8.68018402%" x2="50%" y2="93.7944013%" id="linearGradient-3">
            <stop stop-color="#FFEB85" offset="0%"></stop>
            <stop stop-color="#FFE586" stop-opacity="0" offset="100%"></stop>
        </linearGradient>
        <filter x="-33.1%" y="-33.4%" width="166.2%" height="166.8%" filterUnits="objectBoundingBox" id="filter-4">
            <feGaussianBlur stdDeviation="1" in="SourceGraphic"></feGaussianBlur>
        </filter>
        <linearGradient x1="78.6865792%" y1="9.15680181%" x2="38.6977911%" y2="91.9723972%" id="linearGradient-5">
            <stop stop-color="#FFEB85" offset="0%"></stop>
            <stop stop-color="#FFE586" stop-opacity="0" offset="100%"></stop>
        </linearGradient>
        <filter x="-35.5%" y="-36.1%" width="171.0%" height="172.1%" filterUnits="objectBoundingBox" id="filter-6">
            <feGaussianBlur stdDeviation="1" in="SourceGraphic"></feGaussianBlur>
        </filter>
    </defs>
    <g id="ic_car_white" stroke="none" stroke-width="1" fill="none" fill-rule="evenodd">
        <g id="编组" transform="translate(2.000000, 8.678227)">
            <g id="路径-2" transform="translate(16.427766, 26.082944) rotate(-1.000000) translate(-16.427766, -26.082944) ">
                <use fill="black" fill-opacity="1" filter="url(#filter-2)" xlink:href="#path-1"></use>
                <use fill="#BBCCD7" fill-rule="evenodd" xlink:href="#path-1"></use>
            </g>
            <path d="M13.1170982,2.44805747 L19.6415449,2.44805747 C23.5075381,2.44805747 26.6415449,5.58206422 26.6415449,9.44805747 C26.6415449,9.79570109 26.6156472,10.1428617 26.5640668,10.4866575 L26.4672046,11.132268 L26.4672046,11.132268 L6.27278065,11.132268 L6.17076855,10.313219 C5.69295302,6.47686709 8.41558471,2.97954336 12.2519366,2.50172783 C12.5389382,2.46598195 12.8278792,2.44805747 13.1170982,2.44805747 Z" id="矩形备份" fill="#F57D60"></path>
            <path d="M12.4838852,4.18489958 L20.4667941,4.18489958 C23.8719967,4.18489958 26.6324589,6.94536174 26.6324589,10.3505644 C26.6324589,10.6971352 26.603238,11.043089 26.5451066,11.3847498 L25.4064046,18.0773473 C25.3491035,18.4141283 25.335182,18.7568625 25.3649801,19.0971813 L26.6913902,34.2459005 L26.6913902,34.2459005 C28.1555015,39.5259863 28.5215293,42.8972857 27.7894737,44.359799 C27.057418,45.8223122 25.3527594,47.1647637 22.6754977,48.3871535 L10.4753539,48.3871535 C7.02615438,46.7219086 5.27121185,44.9808574 5.21052632,43.1639999 C5.14984078,41.3471424 5.41250577,38.7804359 5.99852127,35.4638803 L7.46670636,19.0834955 C7.4964013,18.7521922 7.4846552,18.4184786 7.43174009,18.0900831 L6.35129485,11.3847498 C5.8055503,7.99781363 8.10879117,4.80974601 11.4957273,4.26400147 C11.82248,4.21135108 12.1529179,4.18489958 12.4838852,4.18489958 Z" id="矩形备份-2" fill="#EEF1F2"></path>
            <path d="M5.68624397,15.0425919 C6.8034502,16.1597982 7.4617822,17.6548767 7.53155148,19.2333037 L7.93730185,28.4128071 C8.07908082,31.6203469 10.7207772,34.1478551 13.931449,34.1478551 L19.3722951,34.1478551 C22.6860036,34.1478551 25.3722951,31.4615636 25.3722951,28.1478551 L25.3722951,19.3168452 C25.3722951,17.6977979 26.0417996,16.1508197 27.2221154,15.0425919 L27.2221154,15.0425919 L27.2221154,15.0425919 L27.2371925,34.0952257 C27.245789,37.9612134 24.1142633,41.0976992 20.2482713,41.1007585 C20.2464248,41.10076 20.2445783,41.1007607 20.2427319,41.0952235 L13.1645422,41.0952235 C9.36667202,41.0952235 6.26160352,38.0667793 6.16672682,34.2700944 L5.68624397,15.0425919 L5.68624397,15.0425919 Z" id="矩形" fill="#0A1826"></path>
            <path d="M25.1881744,29.6286637 L27.0198864,35.846324 C26.2486154,38.8656632 23.5100558,41.0983883 20.2486669,41.1011535 C20.2466886,41.1011552 20.2447102,41.101156 20.2427319,41.0952235 L17.9064164,41.0952235 L19.8601822,34.1283052 C22.445042,33.9202951 24.5674517,32.0740022 25.1881744,29.6286637 Z" id="形状结合" fill="#92ABC4"></path>
            <path d="M13.0263158,8.96364456 L19.9736842,8.96364456 C22.8513784,8.96364456 25.1842105,11.2964767 25.1842105,14.1741709 L25.1842105,14.1741709 L25.1842105,14.1741709 C22.1278727,13.8669194 19.3778727,13.7132937 16.9342105,13.7132937 C14.4905484,13.7132937 11.4510747,13.8669194 7.81578947,14.1741709 C7.81578947,11.2964767 10.1486216,8.96364456 13.0263158,8.96364456 Z" id="矩形" fill="#0A1826"></path>
            <path d="M1.58629773,31.4445031 L6.94736842,32.8342248 L6.94736842,32.8342248 L6.94736842,35.4394879 L6.19669489,35.4394879 C4.48231206,35.4394879 2.86776598,34.6331423 1.8378759,33.2625823 L1.0611083,32.2288732 C0.895219864,32.0081118 0.939703264,31.6946701 1.16046476,31.5287816 C1.2821757,31.4373235 1.43892505,31.4063005 1.58629773,31.4445031 Z" id="矩形" fill="#0A1826"></path>
            <path d="M28.4277152,31.5161516 L33,32.8225187 L33,32.8225187 L33,35.4277818 C31.3533175,35.4277818 29.7959163,34.6792561 28.7672418,33.3934131 L27.8999202,32.3092611 C27.7274155,32.0936301 27.7623762,31.7789839 27.9780071,31.6064792 C28.104442,31.5053313 28.2720295,31.47167 28.4277152,31.5161516 Z" id="矩形备份-3" fill="#0A1826" transform="translate(29.960526, 33.256729) scale(-1, 1) translate(-29.960526, -33.256729) "></path>
            <g id="编组-2" transform="translate(25.724308, 48.166489) rotate(-15.000000) translate(-25.724308, -48.166489) translate(22.250623, 45.995437)">
                <path d="M3.79576681,0.101712291 L4.16381643,0.477390576 C4.44247487,0.761824854 4.59660517,1.14538459 4.59224306,1.54354833 L4.57452749,3.16058811 C4.56901966,3.66333163 4.31200493,4.12988074 3.89000108,4.40318302 L3.77772501,4.47589635 C3.54121794,4.62906537 3.22532306,4.56150654 3.07215403,4.32499948 C3.01861094,4.24232402 2.9901446,4.14591694 2.99019184,4.04741774 L2.99192685,0.42962926 C2.99205104,0.170664801 3.2020839,-0.0391666929 3.46104835,-0.0390424992 C3.58699691,-0.0389820969 3.70762587,0.0117444268 3.79576681,0.101712291 Z" id="矩形备份-16" fill="#2F3B4D" transform="translate(3.794399, 2.133995) scale(-1, -1) rotate(-108.000000) translate(-3.794399, -2.133995) "></path>
                <path d="M1.39615281,1.14548855 C1.46812546,0.923979485 1.68944528,0.79272769 1.91241186,0.826990275 L1.98659244,0.844644532 L5.4281589,1.96000075 C5.52181153,1.99043033 5.6046644,2.04729723 5.66673069,2.12374689 C5.82666183,2.32074083 5.81561415,2.60085067 5.65224022,2.78444693 L5.60393238,2.83199871 C5.65193969,2.68237293 5.62581901,2.51223412 5.51938629,2.38113645 C5.46086665,2.30905535 5.38274822,2.25543798 5.29444718,2.22674723 L2.04506855,1.17383663 C1.81301144,1.0984367 1.56376826,1.22543245 1.48836833,1.45748956 C1.4747874,1.49928736 1.46764543,1.54245731 1.46682453,1.58559387 L1.42649464,1.50728626 C1.36817102,1.39566501 1.35723513,1.26526485 1.39615281,1.14548855 Z" id="路径" fill="#2F3B4D" transform="translate(3.577066, 1.826792) scale(-1, 1) translate(-3.577066, -1.826792) "></path>
                <path d="M1.52274986,1.38611306 C1.5906098,1.17726166 1.79928277,1.05350996 2.0095084,1.08581469 L2.07945008,1.10246013 L5.32882871,2.15537073 C5.41712976,2.18406148 5.49524818,2.23767884 5.55376782,2.30975995 C5.66033678,2.44102543 5.68638796,2.61143205 5.6381292,2.76119667 L5.40012978,2.95426741 C5.11774927,3.18352035 4.74885697,3.27162528 4.39677914,3.19881212 L4.28018436,3.16855402 L2.46874661,2.60259226 C2.20190487,2.51892834 1.97371188,2.34550206 1.82167886,2.11368895 L1.76129407,2.01085724 L1.50120607,1.51421736 C1.50202696,1.47108081 1.50916893,1.42791086 1.52274986,1.38611306 Z" id="路径" fill="#FFE576" transform="translate(3.581316, 2.152237) scale(-1, 1) translate(-3.581316, -2.152237) "></path>
            </g>
            <g id="编组-2备份" transform="translate(7.815789, 48.476802) scale(-1, 1) rotate(-15.000000) translate(-7.815789, -48.476802) translate(4.342105, 46.305750)">
                <path d="M3.6322574,0.12304986 L4.00068973,0.499118792 C4.27912181,0.78332201 4.43323729,1.16650024 4.4291263,1.56434316 L4.41325908,3.09990037 C4.40806068,3.60297802 4.15100426,4.06994655 3.72872274,4.34342865 L3.61695132,4.41581515 C3.38030907,4.56907173 3.0642336,4.50147429 2.91097702,4.26483203 C2.85744861,4.18217924 2.82896792,4.08580864 2.82896792,3.98733644 L2.82896792,0.45096696 C2.82896792,0.192179833 3.03875634,-0.0176085833 3.29754346,-0.0176085833 C3.42348372,-0.0176085833 3.54412227,0.033087933 3.6322574,0.12304986 Z" id="矩形备份-16" fill="#2F3B4D" transform="translate(3.632257, 2.114624) scale(-1, -1) rotate(-108.000000) translate(-3.632257, -2.114624) "></path>
                <path d="M1.27315087,1.13739571 C1.34512353,0.915886646 1.56644334,0.784634852 1.78940992,0.818897436 L1.8635905,0.836551694 L5.22687774,1.92934996 C5.32053036,1.95977954 5.40338324,2.01664645 5.46544952,2.0930961 C5.62538067,2.29009004 5.61433299,2.57019989 5.45095905,2.75379614 L5.40265121,2.80134792 C5.45065852,2.65172214 5.42453784,2.48158333 5.31810512,2.35048567 C5.25958548,2.27840456 5.18146706,2.22478719 5.09316601,2.19609645 L1.92206662,1.16574379 C1.6900095,1.09034387 1.44076632,1.21733961 1.36536639,1.44939672 C1.35178546,1.49119452 1.34464349,1.53436447 1.3438226,1.57750103 L1.30349271,1.49919343 C1.24516908,1.38757218 1.23423319,1.25717201 1.27315087,1.13739571 Z" id="路径" fill="#2F3B4D" transform="translate(3.414925, 1.807420) scale(-1, 1) translate(-3.414925, -1.807420) "></path>
                <path d="M1.39974793,1.37802022 C1.46760786,1.16916882 1.67628083,1.04541712 1.88650646,1.07772185 L1.95644815,1.09436729 L5.12754754,2.12471994 C5.21584859,2.15341069 5.29396701,2.20702806 5.35248665,2.27910916 C5.45905561,2.41037464 5.48510679,2.58078127 5.43684803,2.73054589 L5.19884861,2.92361662 C4.9164681,3.15286956 4.5475758,3.2409745 4.19549798,3.16816133 L4.0789032,3.13790323 L2.34574468,2.59449942 C2.07890293,2.5108355 1.85070994,2.33740922 1.69867693,2.10559611 L1.63829214,2.0027644 L1.37820413,1.50612452 C1.37902502,1.46298797 1.386167,1.41981802 1.39974793,1.37802022 Z" id="路径" fill="#FFE576" transform="translate(3.419175, 2.132865) scale(-1, 1) translate(-3.419175, -2.132865) "></path>
            </g>
            <g id="车灯" transform="translate(0.000000, 45.437329)" opacity="0.900000036">
                <path d="M10.1254389,8.93761359 L8.77990955,3.10948546 L5.04508652,1.89098885 L1.05827485,7.12542652 C2.83145668,9.32222132 4.29359713,10.5513975 5.44469621,10.812955 C6.59579529,11.0745125 8.15604287,10.4493987 10.1254389,8.93761359 Z" id="路径-17备份" fill="url(#linearGradient-3)" filter="url(#filter-4)" transform="translate(5.591857, 6.380906) rotate(13.000000) translate(-5.591857, -6.380906) "></path>
                <polygon id="路径-17备份-2" fill="url(#linearGradient-5)" filter="url(#filter-6)" transform="translate(27.065827, 6.655268) rotate(-50.000000) translate(-27.065827, -6.655268) " points="31.2901965 9.89321866 31.1700336 3.76891764 27.352981 2.49578535 22.8414581 7.24535851 26.1158442 10.8147513"></polygon>
            </g>
        </g>
    </g>
</svg>