<?xml version="1.0" encoding="UTF-8"?>
<svg width="24px" height="24px" viewBox="0 0 24 24" version="1.1" xmlns="http://www.w3.org/2000/svg" xmlns:xlink="http://www.w3.org/1999/xlink">
    <g id="1.0" stroke="none" stroke-width="1" fill="none" fill-rule="evenodd">
        <g id="实时监测-二级菜单" transform="translate(-80.000000, -511.000000)" fill-rule="nonzero">
            <g id="编组-11" transform="translate(64.000000, 438.000000)">
                <g id="编组-10备份" transform="translate(16.000000, 72.000000)">
                    <g id="ic_menu_Deduction" transform="translate(0.000000, 1.000000)">
                        <rect id="矩形" fill="#000000" opacity="0" x="0" y="0" width="22" height="22"></rect>
                        <path d="M15.0256969,5.5857118 L19.3136284,5.5857118 L19.3136284,7.0804225 L19.3136284,16.8974322 L19.3136284,16.8988889 L15.0256969,16.8988889 L15.0256969,5.5857118 L15.0256969,5.5857118 Z M9.31111717,1.10012313 L13.5990486,1.10012313 L13.5990486,2.75180427 L13.5990486,16.8973318 L13.5990486,16.8987884 L10.8750455,16.8987884 L10.8750455,16.8973318 L9.31111717,16.8973318 L9.31111717,1.10012313 L9.31111717,1.10012313 Z M3.59809457,8.41826312 L7.88426797,8.41826312 L7.88426797,10.0256409 L7.88426797,16.8973318 L7.88426797,16.8987884 L5.16036533,16.8987884 L5.16036533,16.8973318 L3.59804431,16.8973318 L3.59804431,8.41826312 L3.59809457,8.41826312 Z M22.1701397,19.7983976 L22.1701397,21.1817973 L2.23684649,21.1817973 L0.829838367,21.1817973 L0.829838367,18.3935996 L22.1701397,18.3935996 L22.1701397,19.7983976 L22.1701397,19.7983976 Z" id="形状" fill="#FFFFFF"></path>
                    </g>
                </g>
            </g>
        </g>
    </g>
</svg>