<?xml version="1.0" encoding="UTF-8"?>
<svg width="36px" height="36px" viewBox="0 0 36 36" version="1.1" xmlns="http://www.w3.org/2000/svg" xmlns:xlink="http://www.w3.org/1999/xlink">
    <!-- Generator: Sketch 58 (84663) - https://sketch.com -->
    
    <desc>Created with Sketch.</desc>
    <g id="V1.0.0" stroke="none" stroke-width="1" fill="none" fill-rule="evenodd">
        <g id="交通事件发布-icon" transform="translate(-272.000000, -445.000000)" fill-rule="nonzero">
            <g id="serpentine_sel" transform="translate(272.000000, 445.000000)">
                <polygon id="路径" fill="#FFFFFF" points="28.1784718 4.75 28.1784718 30.25 31.6784718 30.25 31.6784718 4.75"></polygon>
                <polygon id="路径" fill="#FE7E29" points="28.6784718 29.75 28.6784718 5.25 31.1784718 5.25 31.1784718 29.75"></polygon>
                <path d="M24.5535808,12.1428821 C24.5535808,12.7732485 24.1828764,13.3359796 23.6133071,13.5934266 L23.5557379,13.6179026 C23.4300819,13.6683554 23.2983644,13.7023894 23.1951684,13.7132619 L18.7499128,14.8620828 L18.7499128,17.7499128 L16.4642359,17.7499128 L16.4642359,15.4527329 L13.8393449,16.1311552 L13.8393449,20.6545217 L16.4642359,21.332944 L16.4642359,19.0357641 L18.7499128,19.0357641 L18.7499128,21.9236804 L23.1637169,23.0664048 C23.2983644,23.0832875 23.4300819,23.1173215 23.5606076,23.1697894 L23.6182786,23.1944333 C24.1828764,23.4496973 24.5535808,24.0124284 24.5535808,24.6427949 L24.5535808,27.7678603 C24.5535808,28.6455928 23.8420225,29.3570743 22.9641923,29.3570743 C22.0864807,29.3570743 21.3749782,28.6455719 21.3749782,27.7678603 L21.3749782,25.5334219 L18.7499128,24.8476975 L18.7499128,24.8927949 L16.4642359,24.8927949 L16.4642359,24.2505182 L12.0408209,23.0929872 C11.9102341,23.075819 11.7823954,23.0424688 11.6548536,22.9914321 L11.5960096,22.9662654 C11.0314207,22.7110054 10.6607423,22.1482785 10.6607423,21.5179039 L10.6607423,15.2677731 C10.6607423,14.6373985 11.0314207,14.0746715 11.6008986,13.8172637 L11.660258,13.7920134 C11.7825194,13.7432 11.9103408,13.7098439 12.0102172,13.6986747 L16.4642359,12.5350773 L16.4642359,11.8928821 L18.7499128,11.8928821 L18.7499128,11.9379794 L21.3749782,11.252255 L21.3749782,9.26781666 L19.2357479,9.26781666 L22.9641874,5.53937719 L26.6928349,9.26781666 L24.5535808,9.26781666 L24.5535808,12.1428821 Z" id="路径" fill="#FFFFFF"></path>
                <path d="M18.2499128,14.474874 L23.1015115,13.2231568 C23.1936563,13.2116032 23.2836618,13.188347 23.3645669,13.1559223 L23.4122947,13.1356444 C23.7995526,12.9605587 24.0535808,12.5749426 24.0535808,12.1428821 L24.0535808,8.76781666 L25.4856805,8.76781666 L22.9641972,6.24647411 L20.4428547,8.76781666 L21.8749782,8.76781666 L21.8749782,11.6384218 L18.2499128,12.5853681 L18.2499128,12.3928821 L16.9642359,12.3928821 L16.9642359,12.9212348 L12.1059953,14.1884238 C12.0167336,14.200159 11.9292984,14.2229759 11.8510595,14.2541396 L11.8019935,14.2750108 C11.4147495,14.4500901 11.1607423,14.8356985 11.1607423,15.2677731 L11.1607423,21.5179039 C11.1607423,21.9499784 11.4147495,22.3355868 11.7971045,22.5085184 L11.8457229,22.529333 C11.9292344,22.5627037 12.0166384,22.5855054 12.136599,22.6032382 L16.9642359,23.8644421 L16.9642359,24.3927949 L18.2499128,24.3927949 L18.2499128,24.2003089 L21.8749782,25.1472551 L21.8749782,27.7678603 C21.8749782,28.3694295 22.3626231,28.8570743 22.9641923,28.8570743 C23.5658922,28.8570743 24.0535808,28.3694384 24.0535808,27.7678603 L24.0535808,24.6427949 C24.0535808,24.2107343 23.7995526,23.8251182 23.4172663,23.6522156 L23.3694366,23.6317698 C23.2836618,23.5973299 23.1936563,23.5740737 23.0700601,23.5565099 L18.2499128,22.3108029 L18.2499128,19.5357641 L16.9642359,19.5357641 L16.9642359,21.9786027 L13.3393449,21.0417231 L13.3393449,15.7439538 L16.9642359,14.8070742 L16.9642359,17.2499128 L18.2499128,17.2499128 L18.2499128,14.474874 Z" id="路径" fill="#FE7E29"></path>
                <polygon id="路径" fill="#FFFFFF" points="16.4642359 4.75 16.4642359 10.6072051 18.7499128 10.6072051 18.7499128 4.75"></polygon>
                <polygon id="路径" fill="#FE7E29" points="16.9642359 5.25 18.2499128 5.25 18.2499128 10.1072051 16.9642359 10.1072051"></polygon>
                <polygon id="路径" fill="#FFFFFF" points="4.75 4.75 4.75 30.25 8.25 30.25 8.25 4.75"></polygon>
                <polygon id="路径" fill="#FE7E29" points="5.25 29.75 5.25 5.25 7.75 5.25 7.75 29.75"></polygon>
                <polygon id="路径" fill="#FFFFFF" points="16.4642359 26.1784718 16.4642359 30.25 18.7499128 30.25 18.7499128 26.1784718"></polygon>
                <polygon id="路径" fill="#FE7E29" points="16.9642359 26.6784718 18.2499128 26.6784718 18.2499128 29.75 16.9642359 29.75"></polygon>
            </g>
        </g>
    </g>
</svg>