<?xml version="1.0" encoding="UTF-8"?>
<svg width="36px" height="36px" viewBox="0 0 36 36" version="1.1" xmlns="http://www.w3.org/2000/svg" xmlns:xlink="http://www.w3.org/1999/xlink">
    <!-- Generator: Sketch 58 (84663) - https://sketch.com -->
    
    <desc>Created with Sketch.</desc>
    <g id="V1.0.0" stroke="none" stroke-width="1" fill="none" fill-rule="evenodd">
        <g id="交通事件发布-icon" transform="translate(-92.000000, -155.000000)" fill-rule="nonzero">
            <g id="pedestrian" transform="translate(91.999966, 154.999949)">
                <path d="M17.6647159,2.75 C19.2979145,2.75 20.6268182,4.08720971 20.6268182,5.724375 C20.6268182,7.36151259 19.2979417,8.69857955 17.6647159,8.69857955 C16.0212986,8.69857955 14.6903409,7.3635906 14.6903409,5.724375 C14.6903409,4.08513156 16.0213259,2.75 17.6647159,2.75 Z" id="路径" fill="#FFFFFF"></path>
                <path d="M17.6647159,3.25 C16.2978171,3.25 15.1903409,4.36092638 15.1903409,5.724375 C15.1903409,7.08778616 16.29778,8.19857955 17.6647159,8.19857955 C19.0211093,8.19857955 20.1268182,7.08605562 20.1268182,5.724375 C20.1268182,4.36265709 19.0210723,3.25 17.6647159,3.25 Z" id="路径" fill="#FE7E29"></path>
                <path d="M13.7875416,15.5818643 L11.9836211,17.0666939 C11.3825594,17.6116702 11.2248928,18.4437088 11.6155026,19.0613804 L11.7009659,19.1819079 C12.1219457,19.8292041 12.9704834,19.9983167 13.595024,19.5389191 L16.4511512,17.1988541 L16.1847295,13.6349243 L13.7875416,15.5818643 Z" id="路径" fill="#FFFFFF"></path>
                <path d="M15.933167,16.9769413 L13.383111,19.0666811 C12.9756411,19.4356807 12.402729,19.3445486 12.1064481,18.8902512 C11.7709307,18.4643791 11.8633096,17.8505894 12.3104865,17.4448659 L14.1040305,15.9689458 L15.7574296,14.6260984 L15.933167,16.9769413 Z" id="路径" fill="#FE7E29"></path>
                <path d="M24.628793,32.5506772 C25.1481403,32.2774264 25.4900229,31.7927057 25.5928264,31.2201472 L25.5967614,30.4641477 C25.5811392,30.2954567 25.5522313,30.1668682 25.4979406,30.0045598 L21.3530276,20.4531282 L18.4923895,22.9718023 L22.1964937,31.5937389 C22.5887455,32.5349982 23.5501677,32.9566516 24.4388905,32.6222191 L24.5785174,32.5630962 L24.628793,32.5506772 Z" id="路径" fill="#FFFFFF"></path>
                <path d="M21.1678815,21.2823263 L25.0315246,30.1834066 C25.0667217,30.2915949 25.0875033,30.3840363 25.0980021,30.4890237 L25.0967614,31.1759659 C25.0261637,31.5473801 24.7867917,31.8927379 24.4208957,32.0947555 L24.3786692,32.1044458 C23.7095273,32.4286317 22.9641532,32.1360185 22.6569558,31.3988872 L19.094883,23.1075161 L21.1678815,21.2823263 Z" id="路径" fill="#FE7E29"></path>
                <path d="M21.5215696,17.8513274 L20.9079858,12.6133738 L21.7540735,12.9749862 C21.788457,12.9928599 21.9497864,13.3248367 21.9852129,13.5146245 L22.5208489,18.8795319 C22.6175346,19.626156 23.394772,20.2218182 24.0951136,20.2218182 C24.769126,20.2218182 25.4622295,19.3824975 25.4450125,18.6822914 L24.8471161,12.5230754 L24.7313885,11.8958568 L24.6830801,11.7352169 C24.5598971,11.3487364 24.3502494,11.0509731 24.0100081,10.8575952 L22.504318,10.0369826 L19.7562681,8.55855728 C19.1563923,8.24498584 18.6764052,8.25194287 18.1902374,8.57112898 L16.5199167,9.84456726 C16.2845857,10.07652 16.1385227,10.6567726 16.1385227,11.1853977 L16.6667594,18.7017762 C16.6660795,18.949416 16.540265,19.2760011 16.3690442,19.4795024 L13.5806893,22.0582147 L12.8414397,22.7604607 C12.2067177,23.3217307 11.8270988,24.1099499 11.7824945,24.8531478 L10.9254072,30.8342148 C10.8389122,31.9236345 11.5807102,32.9967045 12.4859659,32.9967045 L12.5350568,32.9967045 C13.0147654,32.9967045 13.5629513,32.7719089 13.9268335,32.4080267 C14.2276827,32.1218082 14.4205865,31.7614784 14.4763462,31.357414 L15.0903093,26.2363781 C15.1267786,25.8992662 15.4604224,25.3618754 15.7547752,25.1060942 L19.8058153,21.5459648 L20.8216648,20.6647743 C21.503129,20.1097858 21.6544551,19.3421879 21.5215696,17.8513274 Z" id="路径" fill="#FFFFFF"></path>
                <path d="M19.5236172,9.00113508 L21.745684,10.1949033 L23.1082335,10.9344346 C23.3297129,11.0552087 23.5488481,11.1749968 23.7663322,11.2941808 C23.945894,11.3962645 24.070938,11.5483736 24.1585099,11.7558692 L24.238446,11.9892169 L24.2631274,12.0994719 L24.3446311,12.5586921 C24.3481094,12.5752452 24.3516219,12.5908631 24.3552813,12.6060162 L24.3547664,12.624939 L24.9383833,18.6215744 C25.0053987,19.0634351 24.491228,19.7218182 24.0951136,19.7218182 C23.6329663,19.7218182 23.0790838,19.2973315 23.0175837,18.8230238 L22.4909148,13.5539012 C22.4921023,13.2398717 22.207467,12.6435438 21.961282,12.5203087 L20.705017,11.9849668 L20.3121976,11.8232177 L21.0242472,17.9025459 C21.1359622,19.1568901 21.033728,19.7825889 20.5885529,20.204369 L19.4777645,21.1686451 L15.4264001,24.7290405 C15.0449511,25.0605041 14.644879,25.7048892 14.5936073,26.1791523 L13.9805392,31.2929137 C13.9412125,31.577675 13.8031165,31.835628 13.5777058,32.0501557 C13.3036202,32.3241332 12.8827884,32.4967045 12.5350568,32.4967045 L12.4859659,32.4967045 C11.9093729,32.4967045 11.3581779,31.6993569 11.4221788,30.8888269 L12.1409958,25.8501856 L12.2793784,24.9045452 C12.3143996,24.3349833 12.5769349,23.7401854 13.0236643,23.2778765 L13.9222442,22.4233521 L16.7309883,19.8231551 C16.9967424,19.5100918 17.1660795,19.0705322 17.1660795,18.6833523 L16.637936,11.16828 C16.6385227,10.7774288 16.7555034,10.3127091 16.8474017,10.2208108 L18.4780826,8.97963244 C18.7929944,8.7735275 19.0795016,8.76922009 19.5236172,9.00113508 Z" id="路径" fill="#FE7E29"></path>
                <polygon id="路径" fill="#FFFFFF" points="7.04849502 27.2676113 2.48963996 33.1439773 7.78112349 33.1439773 10.7543851 27.1708523 7.24602273 27.1708523"></polygon>
                <polygon id="路径" fill="#FE7E29" points="3.51036004 32.6439773 7.36848529 27.6708523 9.94697854 27.6708523 7.47149014 32.6439773"></polygon>
                <polygon id="路径" fill="#FFFFFF" points="15.1324534 33.1439773 20.3472699 33.1439773 19.463458 27.1708523 15.9494818 27.1708523"></polygon>
                <polygon id="路径" fill="#FE7E29" points="15.7055012 32.6439773 16.3857455 27.6708523 19.0319966 27.6708523 19.7678438 32.6439773"></polygon>
                <polygon id="路径" fill="#FFFFFF" points="28.1814205 27.1708523 24.6460774 27.1708523 27.6595207 33.1439773 32.9643414 33.1439773 28.3785163 27.2670562"></polygon>
                <polygon id="路径" fill="#FE7E29" points="28.0593936 27.6708523 31.9399768 32.6439773 27.9672975 32.6439773 25.4583544 27.6708523"></polygon>
            </g>
        </g>
    </g>
</svg>