<?xml version="1.0" encoding="UTF-8"?>
<svg width="36px" height="36px" viewBox="0 0 36 36" version="1.1" xmlns="http://www.w3.org/2000/svg" xmlns:xlink="http://www.w3.org/1999/xlink">
    <!-- Generator: Sketch 58 (84663) - https://sketch.com -->
    
    <desc>Created with Sketch.</desc>
    <g id="V1.0.0" stroke="none" stroke-width="1" fill="none" fill-rule="evenodd">
        <g id="交通事件发布-icon" transform="translate(-452.000000, -155.000000)">
            <g id="disaster_sel" transform="translate(470.308889, 173.308889) scale(1, -1) rotate(90.000000) translate(-470.308889, -173.308889) translate(451.808889, 154.808889)">
                <polygon id="路径" fill="#FFFFFF" fill-rule="nonzero" points="25.2077952 26.9905504 25.0614164 26.8304946 22.7064293 25.8863301 21.9960646 22.8059088 16.9520606 21.0289865 17.2355642 17.0300392 14.786979 16.157186 14.0107601 11.1474562 10.0307388 9.93190044 9.53761436 7.71002781 5.75 6.73190439 5.75 33.25 29.8701909 33.25 30.2844774 31.8770194 25.9535669 29.4707096"></polygon>
                <polygon id="路径" fill="#FE7E29" fill-rule="nonzero" points="6.25 7.37742894 9.11588786 8.1175233 9.60579895 10.3249173 13.5646888 11.5340193 14.3384877 16.5281296 16.7099602 17.3734942 16.4263527 21.3739068 21.5706288 23.1861534 22.277913 26.2532165 24.7636334 27.2497948 25.5039826 29.7119207 25.621973 29.8584651 29.6893848 32.1183717 29.4987958 32.75 6.25 32.75"></polygon>
                <polygon id="路径" fill="#FFFFFF" fill-rule="nonzero" points="25.4662916 13.2251556 25.5740847 13.0905306 26.2979368 10.9280118 25.3976472 10.1406234 25.2626291 10.0805596 23.16509 9.83075308 22.9994006 11.5941133 22.6800451 12.8616855 24.27016 13.9478154"></polygon>
                <polygon id="路径" fill="#FE7E29" fill-rule="nonzero" points="24.2867374 13.3536308 23.2494522 12.6451118 23.4908609 11.6780506 23.614479 10.3878065 25.1266993 10.5679045 25.7180805 11.0851233 25.1291023 12.8447041"></polygon>
                <polygon id="路径" fill="#FFFFFF" fill-rule="nonzero" points="27.5680559 21.4124543 27.4865856 21.4396449 25.7991102 22.3500612 26.2930398 24.6054789 26.4278236 24.7767756 27.8567139 25.4724002 29.9542674 24.3425764 30.0611226 24.2305959 30.8590394 22.567101 29.8819561 21.0639437"></polygon>
                <polygon id="路径" fill="#FE7E29" fill-rule="nonzero" points="29.6381528 21.6063039 30.2867451 22.6041066 29.6455014 23.9409699 27.8451905 24.9106873 26.7555591 24.3802237 26.3681453 22.6111863 27.6856298 21.9003853"></polygon>
                <polygon id="路径" fill="#FFFFFF" fill-rule="nonzero" points="19.3185747 19.363191 20.5566169 20.613671 20.7544062 20.6869681 24.4956224 20.3847239 24.8990662 17.752935 21.8869515 15.6796092 19.2462327 17.0397838 19.2462327 19.1873"></polygon>
                <polygon id="路径" fill="#FE7E29" fill-rule="nonzero" points="19.7462327 19.0844778 19.7462327 17.3446739 21.8499138 16.2611153 24.3573369 17.9870472 24.0613007 19.9181828 20.8300908 20.1792247"></polygon>
                <polygon id="路径" fill="#FFFFFF" fill-rule="nonzero" points="12.040745 3.71471924 11.0931701 6.56529465 11.0844261 6.68880709 11.4214888 8.54564689 13.6600759 9.40170584 16.0018162 6.80533908 15.0893999 4.27649975"></polygon>
                <polygon id="路径" fill="#FE7E29" fill-rule="nonzero" points="14.716497 4.71620247 15.4297562 6.69306092 13.5184209 8.81222305 11.8631458 8.17922866 11.5877995 6.66237775 12.377983 4.28528076"></polygon>
                <polygon id="路径" fill="#FFFFFF" fill-rule="nonzero" points="19.9923486 12.5437509 19.2175687 9.73703146 15.5064706 10.7273142 15.113134 12.4101794 15.1253534 12.5621445 16.1053453 14.94568 18.2738285 15.2774719 19.9593795 12.7489413"></polygon>
                <polygon id="路径" fill="#FE7E29" fill-rule="nonzero" points="19.4799745 12.5666686 18.0345128 14.7350361 16.4603205 14.4941746 15.6182284 12.4460389 15.9251019 11.1331004 18.867506 10.3479388"></polygon>
                <polygon id="路径" fill="#FFFFFF" fill-rule="nonzero" points="20.8597311 8.07786467 21.4388134 5.92638323 21.4019211 5.71762543 20.1331277 3.91288056 18.695091 4.78878657 17.187858 6.5595415 17.064181 6.70650096 18.023968 8.07786467"></polygon>
                <polygon id="路径" fill="#FE7E29" fill-rule="nonzero" points="18.2843218 7.57786467 17.694091 6.7345306 19.0164185 5.16327228 19.9920836 4.58163293 20.925578 5.90944493 20.4765142 7.57786467"></polygon>
                <polygon id="路径" fill="#FFFFFF" points="10.3853156 13.9180644 8.08870889 12.7344133 7.8241 9.46972222 6.65211333 8.44834222 8.08870889 9.16425556 8.97714 12.0184356 10.9051244 13.2689156 12.6535667 18.0990911"></polygon>
                <polygon id="路径" fill="#FFFFFF" points="12.0392822 22.3756244 9.80879556 21.0869289 9.57254222 17.7172578 10.4231444 20.2946489 12.8332378 21.7264111 14.3358889 28.4275378"></polygon>
                <polygon id="路径" fill="#FFFFFF" points="20.7342556 27.2248111 19.9404289 24.3611578 15.7346556 22.3850978 20.4695822 23.9315067 21.1785356 26.8143644 22.8608578 28.20804"></polygon>
            </g>
        </g>
    </g>
</svg>