<?xml version="1.0" encoding="UTF-8"?>
<svg width="37px" height="36px" viewBox="0 0 37 36" version="1.1" xmlns="http://www.w3.org/2000/svg" xmlns:xlink="http://www.w3.org/1999/xlink">
    <!-- Generator: Sketch 58 (84663) - https://sketch.com -->
    
    <desc>Created with Sketch.</desc>
    <g id="V1.0.0" stroke="none" stroke-width="1" fill="none" fill-rule="evenodd">
        <g id="交通事件发布-icon" transform="translate(-450.000000, -444.000000)">
            <g id="fire_engine_sel" transform="translate(451.000000, 444.000000)">
                <g id="编组" transform="translate(2.000000, 1.000000)">
                    <path d="M23.9053,8.0562 L19.9833,8.0562 L20.9513,1.1092 C21.0253,0.5802 20.6803,0.0892 20.1833,0.0102 C19.6853,-0.0678 19.2213,0.2972 19.1483,0.8262 L18.9253,2.4332 L11.9543,2.4332 L11.7303,0.8262 C11.6563,0.2972 11.1933,-0.0678 10.6953,0.0102 C10.1973,0.0892 9.8533,0.5802 9.9273,1.1092 L10.8953,8.0562 L6.9723,8.0562 C6.1263,8.0562 5.4393,8.7852 5.4393,9.6842 L5.4393,22.9732 C5.4393,23.8712 6.1263,24.6002 6.9723,24.6002 L23.9053,24.6002 C24.7523,24.6002 25.4393,23.8712 25.4393,22.9732 L25.4393,9.6842 C25.4393,8.7852 24.7523,8.0562 23.9053,8.0562" id="Fill-1" fill="#FEF2EA"></path>
                    <path d="M29.5068,18.8946 L31.3058,18.6626 C31.3348,18.5576 31.3698,18.4556 31.3698,18.3416 L31.3698,15.8986 C31.3698,15.2196 30.8188,14.6666 30.1388,14.6666 L29.4028,14.6666 C28.7228,14.6666 28.1778,15.2126 28.1708,15.8926 L28.1708,18.2746 C28.3438,18.5436 28.5068,18.8206 28.6528,19.1076 C28.9278,19.0036 29.2128,18.9326 29.5068,18.8946" id="Fill-3" fill="#FE7E29"></path>
                    <path d="M16.0371,22.7911 L17.2971,19.6341 L18.3521,20.9281 C18.6001,20.5931 18.8581,20.2911 19.1291,20.0261 C19.7841,19.3821 20.2531,17.7961 20.2051,17.2601 L15.9321,12.7001 L22.1891,14.0471 C23.4211,14.3131 24.8011,14.9871 25.9761,15.8961 C26.5161,16.3141 26.9951,16.7771 27.4221,17.2751 L27.0731,14.4401 C26.8321,12.4791 25.1611,11.0001 23.1801,11.0001 L8.1911,11.0001 C6.2091,11.0001 4.5381,12.4731 4.2971,14.4401 L3.5301,20.6711 L2.5491,20.6711 C2.3011,20.6711 2.0961,20.4661 2.0961,20.2181 L2.0961,19.5731 L2.0881,19.5731 L1.9971,19.5731 C2.6551,19.5731 3.1931,19.0351 3.1931,18.3771 L3.1931,15.8641 C3.1931,15.1981 2.6621,14.6671 1.9961,14.6671 L1.1971,14.6671 C0.5381,14.6671 0.000100000001,15.2051 0.000100000001,15.8641 L0.000100000001,18.3771 C0.000100000001,19.0351 0.5381,19.5731 1.1961,19.5731 L1.1121,19.5731 L1.1121,20.2181 C1.1121,21.0111 1.7561,21.6551 2.5491,21.6551 L3.4191,21.6551 L3.4191,29.4291 L3.4121,29.4291 C2.7251,29.4291 2.1661,29.9871 2.1661,30.6751 C2.1661,31.3611 2.7251,31.9201 3.4121,31.9201 L3.4191,31.9201 L4.8641,31.9201 L4.8641,32.9971 C4.8641,34.1291 5.7841,35.0501 6.9171,35.0501 C8.0501,35.0501 8.9701,34.1291 8.9701,32.9971 L8.9701,31.9201 L16.1301,31.9201 C14.6701,29.4941 14.6141,26.3571 16.0371,22.7911" id="Fill-5" fill="#FE7E29"></path>
                    <polygon id="Fill-7" fill="#446D94" points="19.0732 3.5386 18.8282 5.1976 12.2452 5.1976 12.0002 3.5386"></polygon>
                    <polygon id="Fill-9" fill="#446D94" points="12.2998 6.3033 18.5558 6.3033 18.4328 7.1333 12.4228 7.1333"></polygon>
                    <path d="M26.5205,20.6641 L25.7705,14.6031 C25.6075,13.2931 24.4965,12.3101 23.1715,12.3101 L8.1915,12.3101 C6.8745,12.3101 5.7555,13.2931 5.5935,14.6031 L4.8425,20.6641 L26.5205,20.6641 Z" id="Fill-11" fill="#FFFFFF"></path>
                    <path d="M8.6304,26.1788 C8.6304,27.1558 7.8374,27.9488 6.8604,27.9488 C5.8834,27.9488 5.0904,27.1558 5.0904,26.1788 C5.0904,25.2018 5.8834,24.4088 6.8604,24.4088 C7.8374,24.4088 8.6304,25.2018 8.6304,26.1788" id="Fill-13" fill="#FFFFFF"></path>
                    <path d="M26.2803,26.1788 C26.2803,27.1558 25.4873,27.9488 24.5103,27.9488 C23.5333,27.9488 22.7403,27.1558 22.7403,26.1788 C22.7403,25.2018 23.5333,24.4088 24.5103,24.4088 C25.4873,24.4088 26.2803,25.2018 26.2803,26.1788" id="Fill-15" fill="#FFFFFF"></path>
                    <path d="M18.458,22.6407 C18.534,22.4987 18.613,22.3587 18.695,22.2197 C19.031,21.6557 19.406,21.1557 19.829,20.7407 C20.833,19.7517 21.538,17.2207 21.038,16.6867 L18.85,14.3507 L21.979,15.0247 C22.858,15.2147 24.11,15.7177 25.364,16.6877 C26.635,17.6697 27.607,18.9437 28.174,20.5227 C28.599,20.1837 29.083,19.9577 29.635,19.8867 L31.372,19.6617 L30.683,21.2717 C30.681,21.2757 30.664,21.3277 30.642,21.4217 C30.541,21.8537 30.536,22.3897 30.696,23.0107 C30.875,23.3417 31.107,23.8427 31.339,24.4717 C31.906,26.0227 32.176,27.6087 31.967,29.1327 C31.619,31.6727 29.979,33.6367 26.899,34.6977 L24.914,35.3807 L25.234,35.7127 L24.458,35.5377 L23.413,35.8977 L23.842,35.3987 L21.978,34.9787 C21.207,34.8047 20.113,34.3747 19.012,33.5777 C16.084,31.4557 15.042,27.9817 16.966,23.1617 L17.596,21.5827 L18.458,22.6407 Z" id="Fill-17" fill="#FFFFFF"></path>
                    <path d="M32.2776,24.1261 C32.0796,23.5871 31.8546,23.0701 31.6386,22.6541 C31.5356,22.1901 31.5666,21.8551 31.6016,21.6651 L32.9816,18.4451 L29.5066,18.8941 C29.2126,18.9331 28.9276,19.0041 28.6526,19.1071 C28.0236,17.8631 27.1256,16.7861 25.9766,15.8961 C24.8006,14.9871 23.4206,14.3131 22.1896,14.0471 L15.9316,12.7001 L20.2046,17.2601 C20.2526,17.7961 19.7846,19.3821 19.1286,20.0261 C18.8586,20.2911 18.5996,20.5931 18.3526,20.9281 L17.2966,19.6341 L16.0376,22.7911 C14.0676,27.7261 14.9156,31.8451 18.4246,34.3871 C19.6966,35.3081 20.8466,35.7181 21.5306,35.8971 L26.8016,35.8971 L26.7226,35.8151 L27.2246,35.6431 C30.5616,34.4931 32.5436,32.2891 32.9576,29.2681 C33.1746,27.6841 32.9466,25.9541 32.2776,24.1261" id="路径" fill="#001B31"></path>
                    <path d="M30.9756,28.9971 C30.6666,31.2521 29.1866,32.8511 26.5746,33.7521 L24.4026,34.5001 L22.1976,34.0031 C21.8076,33.9151 20.7736,33.6181 19.5986,32.7681 C16.8246,30.7581 16.2506,27.6501 17.8946,23.5321 L18.6286,24.4341 L19.3386,23.1141 C19.4086,22.9841 19.4806,22.8551 19.5546,22.7311 C19.8586,22.2201 20.1866,21.7901 20.5306,21.4531 C21.6176,20.3831 22.8756,17.1851 21.7676,16.0031 L21.7676,16.0021 C22.2166,16.0991 23.4076,16.4371 24.7526,17.4781 C25.9156,18.3781 26.7496,19.5161 27.2326,20.8601 L27.7046,22.1761 L28.7976,21.3051 C29.1006,21.0621 29.4156,20.9231 29.7626,20.8791 C29.7396,20.9331 29.7086,21.0211 29.6676,21.1951 C29.5186,21.8331 29.5386,22.5281 29.7276,23.2611 L29.8166,23.4851 C29.9266,23.6901 30.1496,24.1361 30.3996,24.8151 C30.9546,26.3321 31.1486,27.7391 30.9756,28.9971" id="路径" fill="#FFFFFF"></path>
                </g>
            </g>
        </g>
    </g>
</svg>