<?xml version="1.0" encoding="UTF-8"?>
<svg width="47px" height="47px" viewBox="0 0 47 47" version="1.1" xmlns="http://www.w3.org/2000/svg" xmlns:xlink="http://www.w3.org/1999/xlink">
    <title>ic_traffic_control_gray_w</title>
    <g id="V1.0.0" stroke="none" stroke-width="1" fill="none" fill-rule="evenodd">
        <g id="交通事件发布-icon" transform="translate(-165.000000, -1686.000000)" fill-rule="nonzero">
            <g id="编组备份-22" transform="translate(164.000000, 1685.000000)">
                <g id="disaster_sel_circle" transform="translate(0.963124, 0.963124)">
                    <g id="编组-6备份-8" transform="translate(25.841754, 12.500291)">
                        <path d="M2.37104967,0.890746337 C2.73457053,0.590639031 3.27358577,0.610646185 3.61370738,0.950767798 L3.61370738,0.950767798 L5.35860058,2.695661 L5.41862205,2.76167318 C5.71872935,3.12519405 5.6987222,3.66420929 5.35860058,4.0043309 L5.35860058,4.0043309 L5.2925884,4.06435236 C4.92906754,4.36445967 4.3900523,4.34445251 4.04993068,4.0043309 L4.04993068,4.0043309 L4.03810987,3.99273339 L4.03810987,20.7237334 L4.04993068,20.7128475 C4.3900523,20.3727259 4.92906754,20.3527187 5.2925884,20.652826 L5.35860058,20.7128475 C5.6987222,21.0529691 5.71872935,21.5919844 5.41862205,21.9555052 L5.35860058,22.0215174 L3.61370738,23.7664106 C3.27358577,24.1065322 2.73457053,24.1265394 2.37104967,23.8264321 L2.30503748,23.7664106 L0.560144283,22.0215174 C0.198765069,21.6601382 0.198765069,21.0742267 0.560144283,20.7128475 C0.900265897,20.3727259 1.43928114,20.3527187 1.802802,20.652826 L1.86881418,20.7128475 L1.87910987,20.7237334 L1.87910987,3.99273339 L1.86881418,4.0043309 L1.802802,4.06435236 C1.43928114,4.36445967 0.900265897,4.34445251 0.560144283,4.0043309 C0.198765069,3.64295168 0.198765069,3.05704021 0.560144283,2.695661 L0.560144283,2.695661 L2.30503748,0.950767798 Z" id="形状结合" stroke="#00213A" stroke-width="0.5" fill="#00213A"></path>
                        <path d="M2.53291529,1.18370974 C2.76872584,0.996976936 3.11227007,1.012538 3.33012501,1.23039294 L3.33012501,1.23039294 L5.02934273,2.92961066 L5.07602593,2.98200981 C5.26275874,3.21782036 5.24719767,3.56136459 5.02934273,3.77921953 L5.02934273,3.77921953 L4.97694359,3.82590273 C4.74113304,4.01263553 4.39758881,3.99707446 4.17973387,3.77921953 L4.17973387,3.77921953 L3.83633866,3.43543318 L3.83633866,21.3194332 L4.17973387,20.976469 C4.39758881,20.7586141 4.74113304,20.743053 4.97694359,20.9297858 L5.02934273,20.976469 C5.24719767,21.194324 5.26275874,21.5378682 5.07602593,21.7736787 L5.02934273,21.8260779 L3.33012501,23.5252956 C3.11227007,23.7431505 2.76872584,23.7587116 2.53291529,23.5719788 L2.48051615,23.5252956 L0.781298421,21.8260779 C0.546685412,21.5914649 0.546685412,21.211082 0.781298421,20.976469 C0.999153358,20.7586141 1.34269759,20.743053 1.57850814,20.9297858 L1.63090728,20.976469 L2.18433866,21.5304332 L2.18433866,3.22443318 L1.63090728,3.77921953 L1.57850814,3.82590273 C1.34269759,4.01263553 0.999153358,3.99707446 0.781298421,3.77921953 C0.546685412,3.54460652 0.546685412,3.16422367 0.781298421,2.92961066 L0.781298421,2.92961066 L2.48051615,1.23039294 Z" id="形状结合" fill="#C4C4C4"></path>
                    </g>
                    <path d="M33.2448244,33.9521252 L33.2448244,32.0706763 L33.5753559,32.0706763 L33.5753561,32.0706763 C33.5858539,32.0914463 33.5960262,32.111992 33.6058251,32.1322431 C33.6782269,32.2818733 33.7505942,32.4574736 33.8126273,32.6262831 L33.2599605,32.6262831 L33.2599605,33.9032097 L34.6449165,33.9032097 L34.6449165,33.9521252 L33.2448244,33.9521252 Z M35.01881,32.0706763 L35.7913194,32.0706763 C35.7438137,32.242901 35.6864686,32.4256659 35.6264345,32.5966592 L35.1984316,32.5276264 C35.1514462,32.3870628 35.0882633,32.2274245 35.01881,32.0706763 Z M33.2448244,35.2628312 L34.6449165,35.2628312 L34.6449165,36.5126696 L36.0907402,36.5126696 L36.0907402,35.4195943 C36.1696682,35.5348281 36.2417831,35.6546783 36.2959585,35.7558057 C36.4112658,35.9710459 36.5521598,36.300932 36.5906345,36.5317804 C36.6009248,36.5935222 36.6065824,36.6643416 36.6085982,36.7395772 C36.6828662,36.7404995 36.7589258,36.7406807 36.837233,36.7406807 C37.561674,36.7406807 38.0937556,36.7251799 38.841885,36.2604372 L38.8936737,36.2277488 C38.9069351,36.2074751 38.9189894,36.1871746 38.9300135,36.1667299 C39.0190761,36.0015593 39.0633289,35.7853786 39.0633289,35.485743 L39.0633289,30.6501872 L36.0199137,30.6501872 C36.0283738,30.606333 36.0366585,30.5619533 36.0446949,30.5168232 L39.3757885,30.5168232 L39.3757885,29.1242712 L36.1045523,28.4736386 L34.7112086,28.346971 C34.7095374,28.4429335 34.7073891,28.5279487 34.6779452,29.0794444 L31.4105374,29.0794444 L31.4105374,30.5168232 L34.5258178,30.5168232 C34.5191715,30.5618624 34.512301,30.606231 34.5052945,30.6501872 L31.7314419,30.6501872 L31.7314419,36.7406807 L33.2448244,36.7406807 L33.2448244,35.2628312 Z M36.0907402,35.3507976 L36.0907402,35.2628312 L37.3499089,35.2628312 L37.3424602,35.4098616 C37.1237793,35.4105643 36.7994035,35.4049548 36.5319231,35.3882372 C36.3922497,35.3795077 36.2375603,35.3658411 36.0907402,35.3507977 Z M37.4834785,32.6262831 L37.0270277,32.6262831 C37.0989376,32.4477912 37.1708527,32.2607444 37.2427397,32.0706763 L37.511626,32.0706763 L37.4834785,32.6262831 Z" id="南" stroke="#00213A" stroke-width="0.5" fill="#C4C4C4" stroke-linejoin="round"></path>
                    <path d="M34.9191235,13.108361 L33.3726887,13.108361 L33.3726887,14.9564999 L31.3726479,14.9564999 L31.3726479,16.4607397 L33.3726887,16.4607397 L33.3726887,18.0606741 C32.4274317,18.4016053 31.5135985,18.714141 30.9951291,18.8615645 L31.6423889,20.3676883 C32.1419301,20.1599017 32.7488518,19.9095777 33.3726887,19.6393645 L33.3726887,21.2456473 L34.9191235,21.2456473 L34.9191235,13.108361 Z M37.0204321,13.108361 L35.4824363,13.108361 L35.4824363,19.3922391 C35.4824363,20.0677923 35.5833856,20.4897662 35.7978866,20.7524205 C36.025181,21.0307402 36.3839995,21.1612574 36.9729679,21.1612574 L38.0784756,21.1612574 C38.6488084,21.1612574 39.0048924,20.969723 39.2435445,20.5621548 C39.4626175,20.1880237 39.5720195,19.5919471 39.4369802,18.4488404 C39.1865051,18.3881192 38.7915488,18.2063975 38.5713839,18.031784 C38.4432142,17.9301322 38.2992083,17.7713483 38.1783223,17.6110114 C38.1845531,17.7938804 38.1760674,17.9900875 38.1662683,18.2168661 C38.1413095,18.7944849 38.12497,19.1737746 37.8716784,19.6201977 L37.0210184,19.3139571 L37.0204698,17.1132149 C37.9205699,16.640374 38.8649452,16.0950697 39.6179571,15.5371473 L38.5260831,14.2612496 C38.1425465,14.6051356 37.6016047,15.0319391 37.0204321,15.4315223 L37.0204321,13.108361 Z" id="北" stroke="#00213A" stroke-width="0.5" fill="#C4C4C4" stroke-linejoin="round"></path>
                    <g id="公交" transform="translate(7.572880, 15.304587)">
                        <path d="M13.8077974,-0.25 L2.97815239,-0.25 C2.56634834,-0.25 2.18243401,-0.170211901 1.82614221,-0.0118599842 C1.47262468,0.14525892 1.16244253,0.35753269 0.895358181,0.624617042 C0.628273828,0.891701395 0.416000058,1.20188355 0.258881154,1.55540107 C0.100529238,1.91169288 0.0207411385,2.2956072 0.0207411385,2.70741125 L0.0219444324,15.2686201 L0.0315955656,15.9555878 C0.0394031494,16.3073018 0.0831717201,16.6140258 0.160855482,16.8781506 C0.24900895,17.1778724 0.409275396,17.4145189 0.638136391,17.5905658 C0.815285708,17.7268345 1.05545084,17.8162889 1.36361711,18.1104153 C1.36361709,18.5546261 1.52141173,18.9349049 1.83753728,19.2510304 C2.15366282,19.5671559 2.53394162,19.7249506 2.97815237,19.7249506 C3.42425818,19.7249506 3.80156344,19.5659488 4.1103426,19.2485924 C4.41726678,18.9331426 4.57102834,18.5538317 4.57102834,17.8590027 L12.2149214,18.1104153 C12.2149214,18.5538317 12.368683,18.9331426 12.6756071,19.2485924 C12.9843863,19.5659488 13.3616915,19.7249506 13.8077973,19.7249506 C14.2520081,19.7249506 14.6322869,19.5671559 14.9484124,19.2510304 C15.264538,18.9349049 15.4223326,18.5546261 15.4223326,17.8478276 C15.7443063,17.8176596 15.9914639,17.7274956 16.1694726,17.5905658 C16.3983336,17.4145189 16.5586001,17.1778724 16.6467535,16.8781506 C16.7248296,16.6126918 16.7652086,16.3005333 16.7652086,15.9412374 L16.7652086,2.70741125 C16.7652086,2.2956072 16.6854205,1.91169288 16.5270686,1.55540107 C16.3699497,1.20188355 16.1576759,0.891701395 15.8905916,0.624617042 C15.6235072,0.35753269 15.3133251,0.14525892 14.9598075,-0.0118599842 C14.6035157,-0.170211901 14.2196014,-0.25 13.8077974,-0.25 Z" id="路径" stroke="#00213A" stroke-width="0.5" fill="#C4C4C4"></path>
                        <g id="编组-14" transform="translate(1.613617, 1.342876)" fill="#00213A">
                            <path d="M4.02862793,-2.56905608e-13 C3.84091409,-2.56905608e-13 3.68207929,0.0649778706 3.55212355,0.194933612 C3.42216781,0.324889353 3.35718994,0.483724148 3.35718994,0.671437996 C3.35718994,0.873591372 3.42216781,1.03964593 3.55212355,1.16960167 C3.68207929,1.29955741 3.84091409,1.36453528 4.02862793,1.36453528 L9.53008758,1.36453528 C9.71780143,1.36453528 9.87663622,1.29955741 10.006592,1.16960167 C10.1365477,1.03964593 10.2015256,0.873591372 10.2015256,0.671437996 C10.2015256,0.483724148 10.1365477,0.324889353 10.006592,0.194933612 C9.87663622,0.0649778706 9.71780143,-2.56905608e-13 9.53008758,-2.56905608e-13 L4.02862793,-2.56905608e-13 Z" id="路径"></path>
                            <path d="M1.9926547,13.7753084 C2.26700571,13.7753084 2.50164802,13.6778416 2.69658162,13.482908 C2.89151522,13.2879744 2.98898203,13.0533321 2.98898203,12.7789811 C2.98898203,12.5046301 2.89151522,12.2699878 2.69658162,12.0750542 C2.50164802,11.8801206 2.26700571,11.7826538 1.9926547,11.7826538 C1.70386416,11.7826538 1.46561197,11.8801206 1.27789812,12.0750542 C1.09018427,12.2699878 0.996327349,12.5046301 0.996327349,12.7789811 C0.996327349,13.0533321 1.09018427,13.2879744 1.27789812,13.482908 C1.46561197,13.6778416 1.70386416,13.7753084 1.9926547,13.7753084 L1.9926547,13.7753084 Z" id="路径"></path>
                            <path d="M11.4794237,13.7319898 C11.7393352,13.7319898 11.9595379,13.6381329 12.140032,13.4504191 C12.3205261,13.2627052 12.4107731,13.0388926 12.4107731,12.7789811 C12.4107731,12.5190696 12.3205261,12.2952569 12.140032,12.1075431 C11.9595379,11.9198292 11.7393352,11.8259723 11.4794237,11.8259723 C11.2050727,11.8259723 10.9776501,11.9198292 10.797156,12.1075431 C10.616662,12.2952569 10.5264149,12.5190696 10.5264149,12.7789811 C10.5264149,13.0388926 10.616662,13.2627052 10.797156,13.4504191 C10.9776501,13.6381329 11.2050727,13.7319898 11.4794237,13.7319898 Z" id="路径"></path>
                            <polygon id="路径" points="13.5587155 2.70741125 4.2721382e-13 2.70741125 4.2721382e-13 8.12223374 13.5587155 8.12223374"></polygon>
                        </g>
                    </g>
                </g>
            </g>
        </g>
    </g>
</svg>