<?xml version="1.0" encoding="UTF-8"?>
<svg width="12px" height="12px" viewBox="0 0 12 12" version="1.1" xmlns="http://www.w3.org/2000/svg" xmlns:xlink="http://www.w3.org/1999/xlink">
    <g id="页面-1" stroke="none" stroke-width="1" fill="none" fill-rule="evenodd">
        <g id="加载动画" transform="translate(-137.000000, -270.000000)">
            <g id="编组-26" transform="translate(69.000000, 134.000000)">
                <g id="编组-23" transform="translate(19.000000, 136.000000)">
                    <g id="编组-15" transform="translate(1.000000, 0.000000)">
                        <g id="ic_replay" transform="translate(48.000000, 0.000000)">
                            <circle id="椭圆形" fill="#07B0D4" cx="6" cy="6" r="6"></circle>
                            <g id="重播-互动" transform="translate(2.000000, 2.000000)" fill-rule="nonzero">
                                <rect id="矩形" fill="#000000" opacity="0" x="0" y="0" width="8" height="8"></rect>
                                <path d="M6.82925,2.05125 C5.744,0.618 3.68175,0.325 2.2325,1.39775 C1.7625,1.74575 1.39825,2.213 1.17325,2.74325 L1.00375,2.16575 C0.96475,2.03325 0.826,1.95675 0.6935,1.99625 C0.561,2.03525 0.485,2.17425 0.524,2.30675 L0.89475,3.5705 C0.92675,3.67925 1.02625,3.75 1.1345,3.75 C1.15775,3.75 1.312,3.705 1.33625,3.696 L2.596,3.233 C2.7255,3.1855 2.792,3.04175 2.74425,2.912 C2.69675,2.7825 2.55375,2.71625 2.42325,2.76375 L1.57975,3.07375 C1.76275,2.56925 2.092,2.1235 2.52975,1.7995 C3.75925,0.88875 5.50925,1.13725 6.4305,2.353 C6.8745,2.939 7.06175,3.66125 6.95775,4.38625 C6.85325,5.115 6.46725,5.759 5.87125,6.20025 C4.6405,7.1105 2.89025,6.86225 1.96975,5.64775 C1.88625,5.5375 1.72975,5.516 1.6195,5.5995 C1.5095,5.68275 1.488,5.83975 1.57125,5.9495 C2.2155,6.79975 3.204,7.24825 4.20425,7.24825 C4.88925,7.24825 5.5795,7.038 6.16875,6.602 C6.873,6.08075 7.329,5.319 7.45275,4.45725 C7.5765,3.59925 7.355,2.74475 6.82925,2.05125 Z" id="路径" fill="#FFFFFF"></path>
                            </g>
                        </g>
                    </g>
                </g>
            </g>
        </g>
    </g>
</svg>