<?xml version="1.0" encoding="UTF-8"?>
<svg width="26px" height="26px" viewBox="0 0 26 26" version="1.1" xmlns="http://www.w3.org/2000/svg" xmlns:xlink="http://www.w3.org/1999/xlink">
    <g id="V1.0.0" stroke="none" stroke-width="1" fill="none" fill-rule="evenodd">
        <g id="icon" transform="translate(-42.000000, -150.000000)" fill-rule="nonzero">
            <g id="point_off_nor" transform="translate(42.000000, 150.000000)">
                <path d="M21.6110132,8.26088294 C21.5342465,8.12145455 21.3948799,8.02780516 21.2373046,8.00953557 C21.0794364,7.99144627 20.9230231,8.05048855 20.8165075,8.16898311 L19.0795959,10.1038273 C18.9546546,10.2427593 18.9199611,10.4389919 18.989263,10.6127347 C19.3122604,11.4212324 19.475792,12.2537958 19.475792,13.087952 C19.475792,16.7701769 16.4797447,19.766272 12.797632,19.766272 C9.11551931,19.766272 6.119472,16.7701769 6.119472,13.087952 C6.119472,9.40589542 9.11551095,6.409952 12.797632,6.409952 C13.704139,6.409952 14.587439,6.59176565 15.4240661,6.95051853 C15.6011124,7.0261153 15.8064785,6.99109305 15.9483991,6.86157013 L17.8275633,5.13222977 C17.9426019,5.02634197 18.0003465,4.87117553 17.9826653,4.71597403 C17.9646393,4.56029173 17.8734143,4.42234816 17.7374706,4.34522627 C16.2310817,3.49167693 14.5230128,3.040512 12.797632,3.040512 C7.25702622,3.040512 2.750032,7.54745541 2.750032,13.087952 C2.750032,18.6285832 7.25700081,23.135552 12.797632,23.135552 C18.3381286,23.135552 22.845072,18.6285578 22.845072,13.087952 C22.845072,11.4050389 22.4184375,9.73610173 21.6110132,8.26088294 Z" id="路径" fill="#FFFFFF"></path>
                <path d="M22.4418224,3.57219648 C22.8535278,3.99427231 22.8450282,4.67023444 22.4228595,5.08203043 L15.5207843,11.8144612 L15.5708611,11.96339 C15.6697864,12.2575944 15.721024,12.5632456 15.721024,12.874112 C15.721024,14.469698 14.4274556,15.763312 12.831824,15.763312 C11.2361924,15.763312 9.942624,14.469698 9.942624,12.874112 C9.942624,11.2783887 11.2361696,9.984752 12.831824,9.984752 C13.2031925,9.984752 13.5657534,10.0570713 13.9080324,10.195739 L14.0594899,10.257099 L20.9319893,3.55339273 C21.3540055,3.14174869 22.0301257,3.15012952 22.4418224,3.57219648 Z" id="路径" fill="#C4C4C4"></path>
                <path d="M22.345072,13.087952 C22.345072,18.3524167 18.061985,22.635552 12.797632,22.635552 C7.53314319,22.635552 3.250032,18.3524408 3.250032,13.087952 C3.250032,7.82359904 7.53316733,3.540512 12.797632,3.540512 C14.4320114,3.540512 16.0507343,3.96688662 17.4790201,4.77348069 L15.6153872,6.48853096 C14.7185062,6.104784 13.77002,5.909952 12.797632,5.909952 C8.83937214,5.909952 5.619472,9.12974948 5.619472,13.087952 C5.619472,17.0463175 8.83937515,20.266272 12.797632,20.266272 C16.7558889,20.266272 19.975792,17.0463175 19.975792,13.087952 C19.975792,12.3020205 19.8411806,11.5183278 19.5756321,10.7541139 L19.4540284,10.4289575 L19.4515205,10.438001 L21.1792249,8.51341322 C21.9419429,9.91194856 22.345072,11.4936627 22.345072,13.087952 Z" id="路径" fill="#C4C4C4"></path>
            </g>
        </g>
    </g>
</svg>