<?xml version="1.0" encoding="UTF-8"?>
<svg width="26px" height="26px" viewBox="0 0 26 26" version="1.1" xmlns="http://www.w3.org/2000/svg" xmlns:xlink="http://www.w3.org/1999/xlink">
    <!-- Generator: Sketch 58 (84663) - https://sketch.com -->
    <title>正常信号灯</title>
    <g id="V1.0.0" stroke="none" stroke-width="1" fill="none" fill-rule="evenodd">
        <g id="icon" transform="translate(-101.000000, -54.000000)">
            <g id="-rsu_on_nor" transform="translate(101.000000, 54.000000)">
                <g id="编组" transform="translate(5.000000, 2.000000)">
                    <g>
                        <path d="M7.99860143,0.812477973 C3.99530757,0.812477973 0.749993752,4.05775177 0.749993752,8.06102316 L0.749993752,15.0596308 C0.749993752,19.0628722 3.99534004,22.3082385 7.99860143,22.3082385 L8.5059733,22.3082385 C12.5092235,22.3082385 15.7545185,19.0628834 15.7545185,15.0596308 L15.7545185,8.06102316 C15.7545185,4.05774054 12.5092559,0.812477973 8.5059733,0.812477973 L7.99860143,0.812477973 Z" id="路径" fill="#FFFFFF" fill-rule="nonzero"></path>
                        <path d="M7.99860143,1.31247797 L8.5059733,1.31247797 C12.2331136,1.31247797 15.2545185,4.33388291 15.2545185,8.06102316 L15.2545185,15.0596308 C15.2545185,18.7867431 12.233079,21.8082385 8.5059733,21.8082385 L7.99860143,21.8082385 C4.2714831,21.8082385 1.24999375,18.7867305 1.24999375,15.0596308 L1.24999375,8.06102316 C1.24999375,4.33389552 4.27144857,1.31247797 7.99860143,1.31247797 Z" id="路径" fill="#FFD45E" fill-rule="nonzero"></path>
                        <path d="M8.02172684,3.61096567 C5.38757953,3.61096567 3.25211878,5.74636392 3.25211878,8.38057372 L3.25211878,14.7400928 C3.25211878,17.3743026 5.38757953,19.5097008 8.02172684,19.5097008 L8.4827979,19.5097008 C11.1170077,19.5097008 13.252406,17.3743026 13.252406,14.7400928 L13.252406,8.38057372 C13.252406,5.74636392 11.1170077,3.61096567 8.4827979,3.61096567 L8.02172684,3.61096567 Z" id="Fill-3" fill="#000C18"></path>
                        <path d="M5.93900278,8.53067956 C5.93900278,7.21357467 7.00673315,6.14584429 8.32383805,6.14584429 C9.64088046,6.14584429 10.7086108,7.21357467 10.7086108,8.53067956 C10.7086108,9.84778446 9.64088046,10.9155148 8.32383805,10.9155148 C7.00673315,10.9155148 5.93900278,9.84778446 5.93900278,8.53067956" id="Fill-5" fill="#FFD45E"></path>
                        <path d="M5.93900278,15.8100913 C5.93900278,14.4929864 7.00673315,13.4252561 8.32383805,13.4252561 C9.64088046,13.4252561 10.7086108,14.4929864 10.7086108,15.8100913 C10.7086108,17.1271962 9.64088046,18.1949266 8.32383805,18.1949266 C7.00673315,18.1949266 5.93900278,17.1271962 5.93900278,15.8100913" id="Fill-7" fill="#FFD45E"></path>
                        <path d="M11.3768983,13.0829987 C10.6104669,12.1307392 9.4726292,11.5846271 8.25518663,11.5846271 C7.03343266,11.5846271 5.8931581,12.1339259 5.12672665,13.0916216 C5.01775417,13.2277747 4.970891,13.4049174 4.9981966,13.5776863 C5.02562718,13.7512675 5.12560193,13.9062908 5.27243985,14.002829 C5.37822564,14.0724364 5.49738305,14.1061779 5.61535326,14.1061779 C5.79905687,14.1061779 5.98001117,14.024511 6.1038549,13.8699875 C6.63159663,13.2118412 7.41564864,12.8343115 8.25518663,12.8343115 C9.09178787,12.8343115 9.87409032,13.2095918 10.4017696,13.863989 C10.6052807,14.1164253 10.962253,14.172911 11.2322473,13.9953309 C11.3792727,13.8985428 11.4792475,13.7432695 11.5064906,13.5692509 C11.5336087,13.3962321 11.4863707,13.2190269 11.3768983,13.0829987" id="Fill-9" fill="#FFD45E"></path>
                        <path d="M11.3768983,5.77234486 C10.6104669,4.82008533 9.4726292,4.27397324 8.25518663,4.27397324 C7.03343266,4.27397324 5.8931581,4.82327203 5.12672665,5.78096768 C5.01775417,5.9171208 4.970891,6.09426357 4.9981966,6.26696996 C5.02562718,6.44061361 5.12560193,6.59563696 5.27243985,6.69217508 C5.37822564,6.7617825 5.49738305,6.7954615 5.61535326,6.7954615 C5.79905687,6.7954615 5.98001117,6.71385711 6.1038549,6.55933363 C6.63159663,5.90118733 7.41564864,5.52365766 8.25518663,5.52365766 C9.09178787,5.52365766 9.87409032,5.89893789 10.4017696,6.55333514 C10.6052807,6.8057714 10.962253,6.86225713 11.2322473,6.68467698 C11.3792727,6.58788892 11.4792475,6.43261563 11.5064906,6.25859707 C11.5336087,6.08557826 11.4863707,5.90837301 11.3768983,5.77234486" id="Fill-11" fill="#FFD45E"></path>
                    </g>
                </g>
            </g>
        </g>
    </g>
</svg>