<?xml version="1.0" encoding="UTF-8"?>
<svg width="26px" height="26px" viewBox="0 0 26 26" version="1.1" xmlns="http://www.w3.org/2000/svg" xmlns:xlink="http://www.w3.org/1999/xlink">
    <!-- Generator: Sketch 58 (84663) - https://sketch.com -->
    <title>正常RSU</title>
    <g id="V1.0.0" stroke="none" stroke-width="1" fill="none" fill-rule="evenodd">
        <g id="icon" transform="translate(-160.000000, -54.000000)" fill-rule="nonzero">
            <g id="lamp_on_nor" transform="translate(160.000000, 54.000000)">
                <g id="编组" transform="translate(2.000000, 2.000000)">
                    <path d="M12.4094343,12.8061809 C12.8898128,12.4732574 13.1862694,11.9243347 13.1862694,11.3238519 C13.1862694,10.3279045 12.3788213,9.52038384 11.3828687,9.52038384 C10.3869714,9.52038384 9.57953535,10.3279166 9.57953535,11.3238519 C9.57953535,11.9245065 9.87580492,12.473386 10.3562357,12.8062161 L10.3562357,15.5916837 C10.2942026,15.6240113 10.2335602,15.6593216 10.1744593,15.6975112 L7.91362008,17.1650657 C7.49133141,17.4391324 7.17211533,17.8500783 7.0145677,18.3231012 C6.87027352,18.7559079 6.86299212,19.2183453 6.99341276,19.658335 C7.12355806,20.0980581 7.38134864,20.4817877 7.73794297,20.7666533 C8.12782143,21.0777047 8.6191783,21.248532 9.12259933,21.248532 L13.6438114,21.248532 C14.147504,21.248532 14.6388297,21.0777018 15.0283514,20.7666925 C15.3850885,20.4819553 15.6428045,20.0982496 15.772971,19.6581987 C15.9031725,19.2181814 15.895892,18.7558038 15.7516977,18.323069 C15.5934975,17.8496852 15.2742991,17.4389154 14.8520485,17.1650211 L12.5916431,15.6977911 L12.5016776,15.6425212 L12.4094343,15.591664 L12.4094343,12.8061809 Z" id="路径" fill="#FFFFFF"></path>
                    <path d="M18.9010643,3.93136276 C17.9249235,2.95535982 16.7876645,2.18871889 15.5217052,1.65334617 C14.2102276,1.09867328 12.8173095,0.817373737 11.3825791,0.817373737 C9.94800894,0.817373737 8.55502085,1.09875688 7.24349668,1.65355822 C5.9773885,2.18901518 4.84023991,2.95562245 3.86419251,3.9316009 C2.88831252,4.90754984 2.12168675,6.04475163 1.58619794,7.31086616 C1.0314011,8.62286243 0.750020202,10.0158394 0.750020202,11.4499327 C0.750020202,12.8846039 1.03139033,14.2775275 1.58620469,15.5890824 C2.12167632,16.8551564 2.88829227,17.992361 3.86417378,18.9683804 C4.14692554,19.2510514 4.52390679,19.4072054 4.92358923,19.4072054 C5.3233755,19.4072054 5.70045674,19.2509551 5.98304267,18.9682077 C6.56700376,18.3839232 6.56695371,17.4338852 5.98292484,16.8498563 C4.54019352,15.4069945 3.74618182,13.4902196 3.74618182,11.4501347 C3.74618182,7.23977826 7.17197354,3.81400673 11.3823771,3.81400673 C15.5929895,3.81400673 19.0189091,7.23958304 19.0189091,11.4497306 C19.0189091,13.4897892 18.2249357,15.4066195 16.7823601,16.8493256 C16.4996419,17.1318823 16.3434209,17.5088805 16.3434209,17.9085859 C16.3434209,18.3082714 16.4995792,18.6852807 16.782124,18.9677447 C17.0644335,19.2503771 17.4415282,19.4065993 17.8414343,19.4065993 C18.2412002,19.4065993 18.6181965,19.2504816 18.900812,18.9679467 C19.8766588,17.9920311 20.6433069,16.8547787 21.1788237,15.588667 C21.7336242,14.2770068 22.0150034,12.8840212 22.0150034,11.4495286 C22.0150034,10.1581845 21.787087,8.90073026 21.3370514,7.70619269 L21.1788209,7.31038357 C20.6435614,6.04471716 19.8770426,4.90761681 18.9010643,3.93136276 Z" id="路径" fill="#FFFFFF"></path>
                    <path d="M14.5798856,17.584458 C14.907467,17.7969449 15.1552543,18.1158172 15.2774087,18.4813408 C15.3891101,18.8165627 15.3947421,19.1742489 15.2935137,19.5163513 C15.1923368,19.8583975 14.9930243,20.155148 14.7164079,20.3759352 C14.4157663,20.6159791 14.0345304,20.748532 13.6438114,20.748532 L9.12259933,20.748532 C8.73211549,20.748532 8.35078322,20.6159564 8.04989321,20.3759014 C7.77344,20.1550565 7.57400395,19.8581895 7.47282513,19.5163358 C7.37144008,19.1743011 7.37707122,18.8166707 7.48892424,18.4811704 C7.61056091,18.1159671 7.85829619,17.7970426 8.18583746,17.5844673 L10.4462587,16.1171834 C10.5286795,16.0639257 10.6151826,16.0177839 10.7046792,15.9794449 L10.8562357,15.9145205 L10.8562357,12.5247878 L10.7314379,12.4525802 C10.3309285,12.2208469 10.0795354,11.794573 10.0795354,11.3238519 C10.0795354,10.6040455 10.6631271,10.0203838 11.3828687,10.0203838 C12.1026688,10.0203838 12.6862694,10.6040368 12.6862694,11.3238519 C12.6862694,11.7943504 12.4346783,12.2207491 12.0341778,12.4526117 L11.9094343,12.5248297 L11.9094343,15.9145205 L12.0609908,15.9794449 C12.1507298,16.0178877 12.2373019,16.0640506 12.3197096,16.1173767 L14.5798856,17.584458 Z" id="路径" fill="#44D7B6"></path>
                    <path d="M18.198835,11.3435556 C18.198835,12.2635949 18.0186184,13.1559983 17.6630158,13.9970389 C17.319511,14.8089653 16.8283256,15.5375126 16.2025052,16.163268 C16.0308718,16.3349014 15.803999,16.4289091 15.5613603,16.4289091 C15.3227282,16.4289091 15.0882278,16.3316579 14.9201915,16.1630427 C14.7486543,15.9916107 14.6547273,15.7648318 14.6547273,15.5223434 C14.6547273,15.2797679 14.7487182,15.052916 14.9203592,14.881275 C15.8648425,13.9367917 16.3855017,12.6795513 16.3855017,11.3435556 C16.3855017,8.58467629 14.1414517,6.34062626 11.3825724,6.34062626 C8.62369312,6.34062626 6.3796431,8.58467629 6.3796431,11.3435556 C6.3796431,12.6795025 6.90040268,13.9367609 7.84499425,14.8812816 C8.01656731,15.0529076 8.11055219,15.2797781 8.11055219,15.5223434 C8.11055219,15.7648996 8.01657609,15.9916743 7.84494752,16.1632499 C7.67328687,16.3349106 7.44647756,16.4289091 7.20391919,16.4289091 C6.96140186,16.4289091 6.73451733,16.3348908 6.56282352,16.1632499 C5.93704428,15.5375357 5.44592242,14.809002 5.10252185,13.9970799 C4.74678147,13.1556308 4.56651178,12.2632885 4.56651178,11.3435556 C4.56651178,10.4238086 4.74678684,9.53147238 5.10253104,8.69014417 C5.44607907,7.87807434 5.93724096,7.14951344 6.56290893,6.52391046 C7.18844255,5.89837683 7.91705972,5.40716598 8.72910394,5.06348137 C9.57057566,4.70773144 10.4629252,4.52742761 11.3825724,4.52742761 C12.3022621,4.52742761 13.1946122,4.70772182 14.0359925,5.06345055 C14.847976,5.40698953 15.576549,5.89815388 16.2023705,6.52391045 C16.8281882,7.14972808 17.319343,7.87822947 17.6627642,8.69004685 C18.0185508,9.5314516 18.198835,10.4237849 18.198835,11.3435556 Z" id="路径" fill="#44D7B6"></path>
                    <path d="M20.7183164,7.50515422 C21.247007,8.75475676 21.5150034,10.08149 21.5150034,11.4495286 C21.5150034,12.8172345 21.2470054,14.1439757 20.7183222,15.3938892 C20.2079184,16.6006268 19.4776022,17.683984 18.5472777,18.6143743 C18.3584599,18.8031382 18.1086198,18.9065993 17.8414343,18.9065993 C17.574194,18.9065993 17.324375,18.8031047 17.1357531,18.6142671 C16.9468914,18.4254593 16.8434209,18.1756529 16.8434209,17.9085859 C16.8434209,17.6415383 16.9469242,17.3917603 17.135871,17.2029214 C18.6722608,15.6663927 19.5189091,13.6223934 19.5189091,11.4497306 C19.5189091,6.96342945 15.8691206,3.31400673 11.3823771,3.31400673 C6.89583183,3.31400673 3.24618182,6.96363523 3.24618182,11.4501347 C3.24618182,13.6228287 4.09287187,15.6667712 5.62936346,17.2034017 C6.01816283,17.5922011 6.0181962,18.2257321 5.62938986,18.6147537 C5.44058019,18.8036713 5.19071978,18.9072054 4.92358923,18.9072054 C4.65650446,18.9072054 4.40667437,18.8037202 4.21771441,18.6148142 C3.28735452,17.6843229 2.55706903,16.6010112 2.04670441,15.3943005 C1.5180077,14.1444864 1.2500202,12.8178135 1.2500202,11.4499327 C1.2500202,10.0826186 1.51802297,8.75587012 2.04671053,7.5056177 C2.55707785,6.29890064 3.28736936,5.21559657 4.2177459,4.28515429 C5.14828674,3.35467919 6.23153521,2.62440862 7.43827412,2.11405985 C8.68806191,1.58537425 10.0147993,1.31737374 11.3825791,1.31737374 C12.7505332,1.31737374 14.0772119,1.58529624 15.3269472,2.11385604 C16.5335272,2.62411732 17.6168882,3.35442491 18.5474984,4.28490366 C19.477972,5.21564018 20.2081681,6.29885916 20.7183164,7.50515422 Z" id="路径" fill="#44D7B6"></path>
                </g>
            </g>
        </g>
    </g>
</svg>