<?xml version="1.0" encoding="UTF-8"?>
<svg width="16px" height="16px" viewBox="0 0 16 16" version="1.1" xmlns="http://www.w3.org/2000/svg" xmlns:xlink="http://www.w3.org/1999/xlink">
    <!-- Generator: Sketch 58 (84663) - https://sketch.com -->
    
    <desc>Created with Sketch.</desc>
    <g id="页面-1" stroke="none" stroke-width="1" fill="none" fill-rule="evenodd">
        <g id="车辆-搜索结果" transform="translate(-1055.000000, -134.000000)" fill="#FFFFFF">
            <g id="编组-7" transform="translate(725.000000, 122.000000)">
                <g id="编组-8">
                    <path d="M343.11819,24.106714 L345.788525,26.7773227 C345.923883,26.9110534 346.000019,27.0933192 346.000019,27.2836124 C346.000019,27.473808 345.923883,27.6561519 345.788525,27.7898044 C345.654008,27.923789 345.472124,27.9993164 345.282292,28 C345.092381,27.9993164 344.910498,27.923789 344.77598,27.7898044 L342.106562,25.119977 C339.163773,27.5417768 334.863052,27.3332609 332.168301,24.6382576 C330.05135,22.5209503 329.418001,19.3370402 330.5636,16.5708454 C331.709218,13.8046506 334.408168,12.0006836 337.402366,12 C341.490538,12 344.804438,15.3142033 344.804438,19.4031145 C344.804438,21.156437 344.185738,22.8084312 343.117741,24.1071046 L343.11819,24.106714 Z M337.402366,13.4333416 C334.10708,13.4386736 331.437604,16.1084425 331.43233,19.4035637 C331.43233,22.7004623 334.105342,25.3738054 337.402366,25.3738054 C340.699409,25.3738054 343.371951,22.7004623 343.371951,19.4035637 C343.371951,16.1062159 340.699409,13.4333416 337.402366,13.4333416 Z" id="seach_sel"></path>
                </g>
            </g>
        </g>
    </g>
</svg>