<svg width="18" height="18" xmlns="http://www.w3.org/2000/svg"><path d="M15.842 14.268l-3.401-3.49a6.006 6.006 0 001.207-3.456 6.018 6.018 0 00-1.732-4.397 6.362 6.362 0 00-4.422-1.918 6.377 6.377 0 00-4.52 1.685 6.037 6.037 0 00-.24 8.7 6.362 6.362 0 004.422 1.917c.06.002.116.002.175.002 1.235 0 2.42-.344 3.436-.99l3.402 3.492c.227.233.532.35.838.35.285 0 .57-.102.793-.308.46-.426.48-1.136.042-1.587zM7.205 11.47a4.463 4.463 0 01-3.102-1.346 4.235 4.235 0 01.169-6.103 4.472 4.472 0 013.171-1.183 4.463 4.463 0 013.103 1.347 4.236 4.236 0 01-.169 6.103 4.474 4.474 0 01-3.172 1.182z"/></svg>