<?xml version="1.0" encoding="UTF-8"?>
<svg width="14px" height="14px" viewBox="0 0 14 14" version="1.1" xmlns="http://www.w3.org/2000/svg" xmlns:xlink="http://www.w3.org/1999/xlink">
    <!-- Generator: Sketch 58 (84663) - https://sketch.com -->
    
    <desc>Created with Sketch.</desc>
    <g id="V1.0.0" stroke="none" stroke-width="1" fill="none" fill-rule="evenodd">
        <g id="搜索框2" transform="translate(-745.000000, -285.000000)" fill="#BCEEFF">
            <g id="编组-7" transform="translate(725.000000, 132.000000)">
                <g id="place" transform="translate(20.000000, 153.000000)">
                    <path d="M6.99047898,1.01902011 C9.05796709,1.01902011 10.7345667,2.67541499 10.7345667,4.71888117 C10.7345667,6.60963803 9.4862596,8.37161974 6.99047898,10.0047824 C4.49472029,8.37229982 3.24639122,6.60963803 3.24639122,4.71888117 C3.24639122,2.67541499 4.9230128,1.01902011 6.99047898,1.01902011 Z M6.99047898,3.26541133 C6.45541499,3.26541133 5.9610457,3.55086654 5.69349177,4.01430347 C5.42595978,4.47765265 5.42595978,5.04854113 5.69349177,5.51189031 C5.9610457,5.97526143 6.45541499,6.2606947 6.99047898,6.2606947 C7.8176234,6.2606947 8.48808775,5.59023035 8.48808775,4.76310786 C8.48808775,3.93596344 7.8176234,3.26541133 6.99047898,3.26541133 Z" id="Fill-1"></path>
                    <path d="M12.9809799,7.75830347 L12.9809799,12.9999781 L1,12.9999781 L1,7.75830347 L3.26440219,7.75830347 C4.06109689,8.9264936 5.30264717,10.0496892 6.99047898,11.1279781 C8.67833272,10.0496892 9.919883,8.9264936 10.7165777,7.75830347 L12.9809799,7.75830347 Z" id="Fill-2"></path>
                </g>
            </g>
        </g>
    </g>
</svg>