<?xml version="1.0" encoding="UTF-8"?>
<svg width="14px" height="14px" viewBox="0 0 14 14" version="1.1" xmlns="http://www.w3.org/2000/svg" xmlns:xlink="http://www.w3.org/1999/xlink">
    <!-- Generator: Sketch 58 (84663) - https://sketch.com -->
    
    <desc>Created with Sketch.</desc>
    <g id="V1.0.0" stroke="none" stroke-width="1" fill="none" fill-rule="evenodd">
        <g id="搜索框2" transform="translate(-745.000000, -437.000000)" fill="#BCEEFF">
            <g id="编组-7" transform="translate(725.000000, 132.000000)">
                <g id="road_section" transform="translate(20.000000, 305.000000)">
                    <path d="M11.3454543,9.45453855 C10.5818442,9.45453855 9.87271035,9.94543188 9.65454974,10.6545497 L3.8727503,10.6545497 C3.00001199,10.6545497 2.29089413,9.94543188 2.29089413,9.07270955 C2.29089413,8.19997124 3.00001199,7.54547343 3.8727503,7.54547343 L9.2181646,7.54547343 C10.6908925,7.54547343 11.8908877,6.34546224 11.8908877,4.87273432 C11.8908877,3.40000639 10.6908925,2.19999521 9.2181646,2.19999521 L3.43634918,2.19999521 C3.21818857,1.49087735 2.56362685,1 1.74546065,1 C0.818166201,1 0,1.8181662 0,2.74544467 C0,3.67273911 0.818166201,4.49090531 1.74546065,4.49090531 C2.50907072,4.49090531 3.21818857,4.00001199 3.43634918,3.29089413 L9.16365641,3.29089413 C10.0363947,3.29089413 10.7454487,4.00001199 10.7454487,4.87273432 C10.7454487,5.74547263 10.0908869,6.45452657 9.2181646,6.45452657 L3.8727503,6.45452657 C2.40002237,6.45452657 1.20001119,7.65452177 1.20001119,9.12726568 C1.20001119,10.5999936 2.40002237,11.7999888 3.8727503,11.7999888 L9.59999361,11.7999888 C9.81815422,12.5091067 10.4727159,13 11.2908981,13 C12.2727327,13 13.0363428,12.1818338 13.0363428,11.2545553 C13.0363428,10.3272609 12.2727327,9.45453855 11.3454543,9.45453855 Z"></path>
                </g>
            </g>
        </g>
    </g>
</svg>