<?xml version="1.0" encoding="UTF-8"?>
<svg width="14px" height="14px" viewBox="0 0 14 14" version="1.1" xmlns="http://www.w3.org/2000/svg" xmlns:xlink="http://www.w3.org/1999/xlink">
    <!-- Generator: Sketch 58 (84663) - https://sketch.com -->
    
    <desc>Created with Sketch.</desc>
    <g id="V1.0.0" stroke="none" stroke-width="1" fill="none" fill-rule="evenodd">
        <g id="搜索框2" transform="translate(-745.000000, -361.000000)" fill="#BCEEFF">
            <g id="编组-7" transform="translate(725.000000, 132.000000)">
                <g id="intersection" transform="translate(20.000000, 229.000000)">
                    <path d="M3.54399529,7.0731439 L3.05149098,7.07335772 L3.05145722,7.07335772 C2.99194933,7.07335772 2.94370045,7.02514822 2.94367229,6.96564596 C2.94363293,6.90607055 2.99187618,6.85778791 3.05141783,6.85778791 L3.54392214,6.8575741 L3.5439559,6.8575741 C3.60346379,6.8575741 3.65171267,6.90578922 3.65174082,6.96529148 C3.65177457,7.02486689 3.60353694,7.0731439 3.54399529,7.0731439 L3.54399529,7.0731439 Z M2.55498609,7.07883249 L2.06247616,7.07904068 L2.0624424,7.07904068 C2.00294013,7.07904068 1.95469688,7.03083118 1.95465748,6.97132329 C1.95462373,6.91174788 2.00286699,6.86347087 2.06241426,6.86347087 L2.55491295,6.86326268 L2.55495233,6.86326268 C2.6144546,6.86326268 2.66269785,6.91147217 2.66273163,6.97097444 C2.662771,7.03055547 2.61452774,7.07883249 2.55498609,7.07883249 L2.55498609,7.07883249 Z M5.53352026,2.37202063 L5.53355403,2.37202063 C5.59306754,2.37202063 5.64131079,2.420247 5.64133893,2.47976052 L5.64154713,2.97229859 C5.64157525,3.03182336 5.59332637,3.08009474 5.5338016,3.08009474 L5.53376784,3.08009474 C5.47425995,3.08009474 5.42600544,3.03186837 5.42598294,2.97235485 L5.42576911,2.47981678 C5.42574662,2.42029201 5.4739955,2.37202063 5.53352026,2.37202063 L5.53352026,2.37202063 Z M5.54091936,1.38659001 L5.54095875,1.38659001 C5.60046664,1.38659001 5.64872115,1.43481638 5.64873803,1.4943299 L5.64895747,1.98686797 C5.64897435,2.04639836 5.6007311,2.09466412 5.5412007,2.09466412 L5.54116694,2.09466412 C5.48165905,2.09466412 5.43341017,2.04643212 5.43338204,1.98692423 L5.43317384,1.49438616 C5.43314571,1.43485577 5.48139459,1.38659001 5.54091936,1.38659001 L5.54091936,1.38659001 Z M5.54127385,11.566074 L5.54124009,11.566074 C5.4817322,11.566074 5.43348332,11.5178476 5.43345518,11.4583284 L5.43324698,10.9657566 C5.43321886,10.9062318 5.48146774,10.8579605 5.54099251,10.8579605 L5.5410319,10.8579605 C5.60053979,10.8579605 5.64878867,10.9061925 5.64881117,10.9657004 L5.649025,11.4582778 C5.6490475,11.5178026 5.60079862,11.566074 5.54127385,11.566074 L5.54127385,11.566074 Z M5.53366093,8.85468385 L5.53369469,8.85468385 C5.59320821,8.85468385 5.64146272,8.90291585 5.6414796,8.96242374 L5.64165965,9.4550012 C5.64167653,9.51453159 5.59342765,9.56279173 5.53390288,9.56279173 L5.53386912,9.56279173 C5.4743556,9.56279173 5.42610672,9.5145541 5.42608422,9.45504621 L5.42590978,8.96246876 C5.42588728,8.90294399 5.47413616,8.85468385 5.53366093,8.85468385 L5.53366093,8.85468385 Z M5.53541646,4.09440154 L5.53537707,4.09440154 C5.47586918,4.09440154 5.4276203,4.04616954 5.4275978,3.98665603 L5.42741774,3.49411233 C5.42740086,3.43458756 5.47564412,3.38632743 5.53516889,3.38632743 L5.53520827,3.38632743 C5.59471616,3.38632743 5.64296504,3.43455943 5.64298755,3.49407294 L5.64316198,3.98661101 C5.64318448,4.04613578 5.5949356,4.09440154 5.53541646,4.09440154 L5.53541646,4.09440154 Z M5.64737075,10.4440104 C5.64739325,10.5035352 5.59914999,10.5518009 5.53962523,10.5518009 L5.53959147,10.5518009 C5.48007795,10.5518009 5.43182907,10.5035689 5.43180656,10.4440554 L5.43163213,9.95147795 C5.43160963,9.89195881 5.47985851,9.84369305 5.53937765,9.84369305 L5.53941704,9.84369305 C5.59892493,9.84369305 5.64717943,9.89192505 5.64719631,9.95143856 L5.64737075,10.4440104 Z M5.54116694,5.08337135 L5.54113318,5.08337135 C5.48161966,5.08337135 5.43337641,5.03514498 5.43334828,4.97563709 L5.43314008,4.48309902 C5.43311195,4.42356862 5.48136083,4.37529724 5.5408856,4.37529724 L5.54091936,4.37529724 C5.60043288,4.37529724 5.64868176,4.42352924 5.64870989,4.48303713 L5.64891809,4.97558082 C5.64894621,5.03510559 5.60069171,5.08337135 5.54116694,5.08337135 L5.54116694,5.08337135 Z M5.53386912,12.5515046 L5.53384099,12.5515046 C5.47432184,12.5515046 5.42607296,12.503267 5.42605046,12.4437534 L5.42587602,11.9512491 C5.42585352,11.89173 5.4741024,11.8434642 5.53362155,11.8434642 L5.53366093,11.8434642 C5.59316882,11.8434642 5.64142333,11.8916962 5.64144584,11.9512097 L5.64162027,12.4437141 C5.64164277,12.5032388 5.59339952,12.5515046 5.53386912,12.5515046 L5.53386912,12.5515046 Z M7.53648178,6.8682423 L8.02902548,6.86803412 L8.02905924,6.86803412 C8.08856713,6.86803412 8.13681038,6.91623798 8.13684416,6.97574587 C8.13688353,7.03532128 8.08863465,7.0835983 8.029093,7.0835983 L7.53655493,7.08381211 L7.53651554,7.08381211 C7.47701328,7.08381211 7.42877002,7.03560262 7.42873624,6.97610035 C7.42869688,6.91651932 7.47694013,6.8682423 7.53648178,6.8682423 L7.53648178,6.8682423 Z M8.5254966,6.86255935 L9.01799529,6.86234553 L9.01803467,6.86234553 C9.07753694,6.86234553 9.12578581,6.91055502 9.12581397,6.97006291 C9.12585334,7.02964395 9.07761008,7.07792096 9.01806843,7.07792096 L8.52556412,7.07812915 L8.52553036,7.07812915 C8.46602247,7.07812915 8.41777922,7.02991966 8.41774544,6.97041177 C8.4177117,6.91083636 8.46595495,6.86255935 8.5254966,6.86255935 L8.5254966,6.86255935 Z M9.51092722,6.86993031 L10.0034259,6.8697165 L10.0034653,6.8697165 C10.0629676,6.8697165 10.1112108,6.91792599 10.1112502,6.97742825 C10.111284,7.03700929 10.0630407,7.0852863 10.0034991,7.0852863 L9.51098912,7.08549449 L9.51096098,7.08549449 C9.45145309,7.08549449 9.40320984,7.03729062 9.40317044,6.97778273 C9.40314232,6.91820732 9.45138557,6.86993031 9.51092722,6.86993031 L9.51092722,6.86993031 Z M10.5252284,6.86831545 L11.0177383,6.86810726 L11.0177665,6.86810726 C11.07728,6.86810726 11.1255232,6.91631113 11.125557,6.97581902 C11.1255908,7.03539443 11.0773419,7.08367144 11.0178059,7.08367144 L10.5253015,7.08387963 L10.5252622,7.08387963 C10.4657599,7.08387963 10.4175166,7.03567576 10.4174829,6.97616787 C10.4174435,6.91659246 10.4656867,6.86831545 10.5252284,6.86831545 L10.5252284,6.86831545 Z M11.5142038,6.86255935 L12.0067081,6.86234553 L12.0067419,6.86234553 C12.0662498,6.86234553 12.1144987,6.91055502 12.1145268,6.97006291 C12.1145606,7.02964395 12.0663229,7.07792096 12.0067813,7.07792096 L11.514277,7.07812915 L11.5142376,7.07812915 C11.4547353,7.07812915 11.4064865,7.02991966 11.4064583,6.97041177 C11.4064189,6.91083636 11.4546622,6.86255935 11.5142038,6.86255935 L11.5142038,6.86255935 Z M4.17013915,8.55595717 L4.17013915,12.7302927 C4.17013915,12.8833781 4.29424146,13.0074804 4.44732685,13.0074804 L5.42219055,13.0074804 L5.42215679,12.9298883 C5.42212865,12.8703579 5.47037753,12.8220922 5.5299023,12.8220922 L5.52994169,12.8220922 C5.58944958,12.8220922 5.63770409,12.8703129 5.63772097,12.9298208 L5.63776035,13.0074804 L6.68900638,13.0074804 C6.84209178,13.0074804 6.96619409,12.8833781 6.96619409,12.7302927 L6.96619409,8.55595717 C6.96619409,8.37555419 7.11243743,8.22931085 7.29284604,8.22931085 L12.6386025,8.22931085 C12.7916879,8.22931085 12.9157958,8.10520854 12.9157958,7.95211752 L12.9157958,7.07591786 L12.5229008,7.07609229 L12.5228614,7.07609229 C12.4633592,7.07609229 12.4151103,7.0278828 12.4150765,6.96838053 C12.4150428,6.90880512 12.463286,6.86052248 12.5228277,6.86052248 L12.9157958,6.86035368 L12.9157958,5.71040986 C12.9157958,5.55732446 12.7916879,5.43321652 12.6386025,5.43321652 L7.29288542,5.43321652 C7.11245431,5.43321652 6.96619409,5.2869563 6.96619409,5.10653081 L6.96619409,1.28467374 C6.96619409,1.13158835 6.84209178,1.00748041 6.68900638,1.00748041 L5.64223357,1.00748041 C5.63733272,1.06244756 5.59169463,1.10565493 5.53545022,1.10568869 L5.53541646,1.10568869 C5.47917205,1.10568869 5.43352833,1.06244756 5.42859372,1.00748041 L4.44732685,1.00748041 C4.29424146,1.00748041 4.17013915,1.13158835 4.17013915,1.28467374 L4.17013915,5.10653081 C4.17013915,5.2869563 4.02387893,5.43321652 3.84345344,5.43321652 L1.27718695,5.43321652 C1.12410156,5.43321652 0.99999925,5.55732446 0.99999925,5.71040986 L0.99999925,6.87692992 C1.01454425,6.86959271 1.03074349,6.86508573 1.04814122,6.86508573 L1.54063991,6.86494506 L1.54067929,6.86494506 C1.60018156,6.86494506 1.6484642,6.91314893 1.6484642,6.97272997 C1.6484642,7.03223223 1.60022094,7.08051487 1.54071305,7.08051487 L1.04820874,7.08065554 L1.04817498,7.08065554 C1.03077163,7.08065554 1.01456113,7.07614293 0.99999925,7.06881135 L0.99999925,7.95211752 C0.99999925,8.10520854 1.12410156,8.22931085 1.27718695,8.22931085 L3.84349283,8.22931085 C4.02389581,8.22931085 4.17013915,8.37555419 4.17013915,8.55595717 L4.17013915,8.55595717 Z" id="Fill-1"></path>
                </g>
            </g>
        </g>
    </g>
</svg>