<?xml version="1.0" encoding="UTF-8"?>
<svg width="14px" height="14px" viewBox="0 0 14 14" version="1.1" xmlns="http://www.w3.org/2000/svg" xmlns:xlink="http://www.w3.org/1999/xlink">
    <!-- Generator: Sketch 58 (84663) - https://sketch.com -->
    
    <desc>Created with Sketch.</desc>
    <g id="V1.0.0" stroke="none" stroke-width="1" fill="none" fill-rule="evenodd">
        <g id="搜索框2" transform="translate(-745.000000, -513.000000)" fill="#BCEEFF">
            <g id="编组-7" transform="translate(725.000000, 132.000000)">
                <g id="license_plate" transform="translate(20.000000, 381.000000)">
                    <path d="M12.6157171,12.9999854 L1.32885366,12.9999854 C0.970946341,12.9999854 0.628126829,12.8557659 0.378029268,12.5996683 C0.127931707,12.3436293 -0.00822439024,11.9974293 0.000395121951,11.639639 L0.000395121951,2.34020976 C0.000395121951,1.98784878 0.140341463,1.64994634 0.389458537,1.40082927 C0.63864878,1.15163902 0.976536585,1.01170732 1.32885366,1.01170732 L12.6157171,1.01170732 C12.968078,1.01170732 13.3059805,1.15163902 13.5551122,1.40082927 C13.8042293,1.64994634 13.9442195,1.98784878 13.9442195,2.34020976 L13.9442195,11.639639 C13.9527951,11.9974293 13.816639,12.3436293 13.5665415,12.5996683 C13.3165024,12.8557659 12.9736244,12.9999854 12.6157171,12.9999854 Z M1.42454634,11.5652098 L12.5200829,11.5652098 L12.5200829,2.4358439 L1.42454634,2.4358439 L1.42454634,11.5652098 Z" id="Fill-1"></path>
                    <path d="M3.06122927,10.1942394 C2.6801122,10.1946341 2.36620976,9.89480976 2.34917561,9.51402927 L2.34917561,4.52956585 C2.34917561,4.13627317 2.66793659,3.81746829 3.06122927,3.81746829 C3.45452195,3.81746829 3.77326829,4.13627317 3.77326829,4.52956585 L3.77326829,9.51402927 C3.75623415,9.89480976 3.44234634,10.1946341 3.06122927,10.1942394 Z M10.9896732,10.1942394 C10.6084976,10.1946341 10.2946683,9.89480976 10.2775756,9.51402927 L10.2775756,4.52956585 C10.2775756,4.13627317 10.5963805,3.81746829 10.9896732,3.81746829 C11.3829073,3.81746829 11.7017122,4.13627317 11.7017122,4.52956585 L11.7017122,9.51402927 C11.684678,9.89480976 11.3707902,10.1946341 10.9896732,10.1942394 Z" id="Fill-3"></path>
                </g>
            </g>
        </g>
    </g>
</svg>