<svg width="18" height="18" xmlns="http://www.w3.org/2000/svg"><path d="M16.573 15.176H4.636a1.812 1.812 0 01-1.812-1.812V2.966a.911.911 0 10-1.824 0v10.4A3.633 3.633 0 004.634 17h11.938a.911.911 0 00.001-1.824z"/><path d="M4.91 13.444h1.923a.72.72 0 00.719-.719V7.508a.72.72 0 00-.719-.718H4.911a.72.72 0 00-.719.718v5.217a.72.72 0 00.719.719zm5.076 0h1.475c.52 0 .942-.423.942-.943V2.955a.943.943 0 00-.942-.943H9.986a.942.942 0 00-.942.943V12.5c0 .52.422.943.942.943zm4.716 0h1.746a.808.808 0 00.808-.808v-6.77a.808.808 0 00-.808-.807h-1.746a.808.808 0 00-.807.807v6.77c0 .446.362.808.807.808z"/></svg>