<?xml version="1.0" encoding="UTF-8"?>
<svg width="18px" height="18px" viewBox="0 0 18 18" version="1.1" xmlns="http://www.w3.org/2000/svg" xmlns:xlink="http://www.w3.org/1999/xlink">
    <!-- Generator: Sketch 58 (84663) - https://sketch.com -->
    <title>toggle</title>
    <desc>Created with Sketch.</desc>
    <g id="页面-2" stroke="none" stroke-width="1" fill="none" fill-rule="evenodd">
        <g id="首页" transform="translate(-1846.000000, -74.000000)" fill="#6190BF">
            <g id="tab3" transform="translate(1640.000000, 66.000000)">
                <g id="toggle" transform="translate(206.000000, 8.000000)">
                    <g id="qiehuan(2)" transform="translate(3.000000, 1.000000)">
                        <path d="M11.2274597,6.39516129 C12.0468548,6.39516129 12.7209677,5.72415323 12.7209677,4.90165323 C12.7209677,4.08225806 12.05,3.40814516 11.2274597,3.40814516 L1.52423387,3.40814516 C0.70483871,3.40814516 0.0307258065,4.07895161 0.0307258065,4.90165323 C0.0307258065,5.72100806 0.701532258,6.39516129 1.52423387,6.39516129 L11.2274597,6.39516129 Z" id="Fill-3"></path>
                        <path d="M5.96616935,2.56939516 C6.54673387,1.98862903 6.54673387,1.04028226 5.96616935,0.459677419 C5.38544355,-0.121048387 4.43705645,-0.121048387 3.85649194,0.459677419 L0.46608871,3.84677419 C-0.114516129,4.42737903 -0.114516129,5.37572581 0.46608871,5.95649194 C1.04681452,6.53705645 1.99516129,6.53705645 2.57576613,5.95649194 L5.96616935,2.56939516 Z" id="Fill-4"></path>
                        <path d="M1.52423387,8.60153226 C0.70483871,8.60153226 0.0307258065,9.27254032 0.0307258065,10.0952016 C0.0307258065,10.9145968 0.701532258,11.5887097 1.52423387,11.5887097 L11.2274597,11.5887097 C12.0468548,11.5887097 12.7209677,10.9177419 12.7209677,10.0952016 C12.7209677,9.27584677 12.05,8.60153226 11.2274597,8.60153226 L1.52423387,8.60153226 Z" id="Fill-5"></path>
                        <path d="M6.78552419,12.4274597 C6.20479839,13.0080645 6.20479839,13.9564113 6.78552419,14.5371774 C7.36612903,15.1177419 8.31447581,15.1177419 8.89524194,14.5371774 L12.2854839,11.1467742 C12.8660484,10.5661694 12.8660484,9.61782258 12.2854839,9.03705645 C11.704879,8.45649194 10.7565323,8.45649194 10.1757661,9.03705645 L6.78552419,12.4274597 Z" id="Fill-6"></path>
                    </g>
                </g>
            </g>
        </g>
    </g>
</svg>