<?xml version="1.0" encoding="UTF-8"?>
<svg width="90px" height="90px" viewBox="0 0 90 90" version="1.1" xmlns="http://www.w3.org/2000/svg" xmlns:xlink="http://www.w3.org/1999/xlink">
    <title>ic_404</title>
    <g id="页面-1" stroke="none" stroke-width="1" fill="none" fill-rule="evenodd" opacity="0.300000012">
        <g id="404" transform="translate(-915.000000, -479.000000)">
            <g transform="translate(900.000000, 479.000000)" id="ic_empty">
                <g transform="translate(15.000000, 0.000000)">
                    <rect id="矩形" stroke="#979797" fill="#000000" fill-rule="nonzero" opacity="0" x="0" y="0" width="90" height="90"></rect>
                    <g id="编组-12" transform="translate(3.000000, 18.000000)" stroke="#FFFFFF">
                        <rect id="矩形" stroke-width="5" stroke-linecap="round" stroke-linejoin="round" x="0" y="0" width="83.4615385" height="51.2692308"></rect>
                        <path d="M31.0619946,34.6603774 L31.0619946,30.9487871 L33.6334232,30.9487871 L33.6334232,28.6927224 L31.0619946,28.6927224 L31.0619946,17.3396226 L28.4663073,17.3396226 L20,28.2560647 L20,30.9487871 L28.3692722,30.9487871 L28.3692722,34.6603774 L31.0619946,34.6603774 Z M28.3692722,28.6927224 L22.3045822,28.6927224 L28.296496,20.9299191 L28.3692722,20.9299191 L28.3692722,28.6927224 Z M41.3719677,35 C43.3854447,35 44.9622642,34.1509434 46.1024259,32.4770889 C47.1698113,30.8760108 47.703504,28.7169811 47.703504,26 C47.703504,23.2830189 47.1698113,21.1239892 46.1024259,19.5229111 C44.9622642,17.8247978 43.3854447,17 41.3719677,17 C39.3342318,17 37.7574124,17.8247978 36.6415094,19.5229111 C35.574124,21.1239892 35.0404313,23.2830189 35.0404313,26 C35.0404313,28.7169811 35.574124,30.8760108 36.6415094,32.4770889 C37.7574124,34.1509434 39.3342318,35 41.3719677,35 Z M41.3719677,32.5983827 C39.9892183,32.5983827 39.0188679,31.8221024 38.4609164,30.2938005 C38.0727763,29.2264151 37.8787062,27.7951482 37.8787062,26 C37.8787062,24.180593 38.0727763,22.7493261 38.4609164,21.7061995 C39.0188679,20.1536388 39.9892183,19.4016173 41.3719677,19.4016173 C42.7304582,19.4016173 43.7008086,20.1536388 44.2830189,21.7061995 C44.671159,22.7493261 44.8652291,24.180593 44.8652291,26 C44.8652291,27.7951482 44.671159,29.2264151 44.2830189,30.2938005 C43.7008086,31.8221024 42.7304582,32.5983827 41.3719677,32.5983827 Z M60.1725067,34.6603774 L60.1725067,30.9487871 L62.7439353,30.9487871 L62.7439353,28.6927224 L60.1725067,28.6927224 L60.1725067,17.3396226 L57.5768194,17.3396226 L49.1105121,28.2560647 L49.1105121,30.9487871 L57.4797844,30.9487871 L57.4797844,34.6603774 L60.1725067,34.6603774 Z M57.4797844,28.6927224 L51.4150943,28.6927224 L57.4070081,20.9299191 L57.4797844,20.9299191 L57.4797844,28.6927224 Z" id="404" stroke-width="0.5" fill="#FFFFFF" fill-rule="nonzero"></path>
                        <line x1="41.5" y1="53" x2="41.5" y2="59.6111111" id="路径-4" stroke-width="5" stroke-linecap="round"></line>
                        <line x1="21.4615385" y1="62.4038462" x2="63.5769231" y2="62.4038462" id="路径-3" stroke-width="5" stroke-linecap="round"></line>
                    </g>
                </g>
            </g>
        </g>
    </g>
</svg>