<?xml version="1.0" encoding="UTF-8"?>
<svg width="30px" height="30px" viewBox="0 0 30 30" version="1.1" xmlns="http://www.w3.org/2000/svg" xmlns:xlink="http://www.w3.org/1999/xlink">
    <!-- Generator: Sketch 58 (84663) - https://sketch.com -->
    
    <desc>Created with Sketch.</desc>
    <g id="页面-1" stroke="none" stroke-width="1" fill="none" fill-rule="evenodd">
        <g id="车辆-车辆详情-icon" transform="translate(-381.000000, -350.000000)" fill="#92C9E7">
            <g id="编组-6" transform="translate(20.000000, 132.000000)">
                <g id="antilock_nor" transform="translate(361.000000, 218.000000)">
                    <path d="M22.4560264,14.5033803 C22.4560264,15.5095543 22.2593517,16.4847664 21.8714543,17.4018221 C21.4964438,18.2883786 20.9591569,19.085123 20.274463,19.769949 C19.5899673,20.4544447 18.793256,20.9916656 17.9065012,21.366709 C16.9894125,21.7546064 16.0142003,21.9512812 15.0079273,21.9512812 C14.0017203,21.9512812 13.0265743,21.7546064 12.1094856,21.366709 C11.2227969,20.9916656 10.4260525,20.4544777 9.74139165,19.769949 C9.056896,19.0852551 8.51960904,18.2885108 8.14456557,17.4018551 C7.75666817,16.4847664 7.55999339,15.5095543 7.55999339,14.5033803 C7.55999339,13.4971073 7.75666817,12.5218621 8.14456557,11.6047734 C8.51964209,10.7179856 9.056896,9.9213073 9.74135861,9.23681165 C10.4261847,8.55211774 11.222929,8.01483078 12.1094856,7.63985339 C13.0265743,7.251956 14.0017203,7.05528122 15.0079273,7.05528122 C16.0142003,7.05528122 16.9894125,7.251956 17.9065012,7.63985339 C18.7931238,8.01486383 19.5898351,8.55215078 20.274463,9.23681165 C20.9591238,9.92143948 21.4964108,10.7181177 21.8714543,11.6047734 C22.2593517,12.5218621 22.4560264,13.4971073 22.4560264,14.5033803 M24.4782543,14.5033803 C24.4782543,11.9737699 23.4931621,9.5955647 21.7044525,7.80685513 C19.915743,6.01811252 17.5375377,5.03302035 15.0079273,5.03302035 C12.4783499,5.03302035 10.1001777,6.01811252 8.31150122,7.80685513 C6.5228247,9.5955647 5.53776557,11.9737699 5.53776557,14.5033803 C5.53776557,17.0329908 6.5228247,19.4111299 8.31150122,21.1998064 C10.1001777,22.9884499 12.4783499,23.9735421 15.0079273,23.9735421 C17.5375377,23.9735421 19.915743,22.9884499 21.7044525,21.1998064 C23.4931621,19.4110969 24.4782543,17.0329577 24.4782543,14.5033803" id="Fill-1"></path>
                    <path d="M8.27722852,21.8817908 L8.1876807,21.7970673 C8.17515722,21.7845769 8.1623033,21.7723838 8.14911896,21.7605543 L8.14637635,21.7579769 C7.16990852,20.8341143 6.40161461,19.7445386 5.86277461,18.5195177 C5.30503374,17.2514412 5.02221461,15.9002273 5.02221461,14.5033803 C5.02221461,13.1064343 5.30503374,11.7551873 5.86277461,10.4870777 C6.40158157,9.26205687 7.16990852,8.17248122 8.14637635,7.24858557 L8.1489207,7.24620643 C8.16299722,7.23358383 8.17671026,7.2205647 8.18999374,7.20724817 L8.27709635,7.12467252 L8.26929809,7.11773339 C8.40804765,6.94101687 8.48520417,6.721476 8.48520417,6.49354209 C8.48520417,5.93603252 8.0315833,5.48251078 7.47400765,5.48251078 C7.25730852,5.48251078 7.05134852,5.5500847 6.8797207,5.67538557 L6.87340939,5.66907426 L6.75666678,5.77953861 C5.582632,6.89032817 4.65883548,8.20046904 4.01091896,9.67361339 C3.3401033,11.1987021 2.99998678,12.8236812 2.99998678,14.5033803 C2.99998678,16.1830134 3.3401033,17.8079264 4.01091896,19.3330151 C4.65883548,20.8060934 5.582632,22.1162673 6.75666678,23.2270899 L6.8774407,23.3395699 L6.88305809,23.3336551 C7.05409113,23.4575021 7.25879548,23.5242499 7.47400765,23.5242499 C8.0315833,23.5242499 8.48520417,23.070629 8.48520417,22.5130534 C8.48520417,22.2852186 8.40804765,22.0656777 8.269232,21.8888951 L8.27722852,21.8817908 Z" id="Fill-3"></path>
                    <path d="M15.0079306,16.3603677 C15.5655063,16.3603677 16.0191271,15.9067468 16.0191271,15.3491711 L16.0191271,9.42781287 C16.0191271,8.87023722 15.5655063,8.41661635 15.0079306,8.41661635 C14.450421,8.41661635 13.9968993,8.87023722 13.9968993,9.42781287 L13.9968993,15.3491711 C13.9968993,15.9067468 14.450421,16.3603677 15.0079306,16.3603677" id="Fill-5"></path>
                    <path d="M15.0079306,17.7217325 C14.2172002,17.7217325 13.5739097,18.365056 13.5739097,19.1557534 C13.5739097,19.9465499 14.2172002,20.5899395 15.0079306,20.5899395 C15.7987602,20.5899395 16.4421167,19.9465499 16.4421167,19.1557534 C16.4421167,18.365056 15.7987602,17.7217325 15.0079306,17.7217325" id="Fill-7"></path>
                    <path d="M26.0077972,9.67969339 C25.361599,8.2082673 24.4401155,6.89911774 23.2689224,5.78852643 L23.150759,5.67925165 L23.1468268,5.68318383 C22.9733816,5.5528273 22.7636877,5.48247774 22.5418337,5.48247774 C21.9843572,5.48247774 21.5308024,5.93603252 21.5308024,6.49354209 C21.5308024,6.73469339 21.6166824,6.96553513 21.7705329,7.14697687 L21.7670303,7.15130557 L21.8252198,7.20652122 C21.839065,7.22039948 21.8533398,7.2339473 21.8680442,7.24709861 L21.8776598,7.25621861 C22.8517155,8.17984991 23.6180929,9.26856643 24.155479,10.4921664 C24.7117659,11.758789 24.993792,13.1083838 24.993792,14.5033803 C24.993792,15.8983438 24.7117659,17.2478725 24.155479,18.5144951 C23.6181259,19.7380621 22.8517485,20.8267786 21.8776598,21.750476 L21.8708198,21.7570186 C21.8525137,21.773276 21.8348685,21.7901282 21.8178842,21.807509 L21.752392,21.8699943 L21.7576459,21.875083 C21.6119242,22.0540464 21.5308024,22.278643 21.5308024,22.5130203 C21.5308024,23.070596 21.9843572,23.5242499 22.5418337,23.5242499 C22.7636216,23.5242499 22.9733155,23.4538673 23.1468268,23.3234117 L23.1521798,23.3287317 L23.2689224,23.218003 C24.4401155,22.1075108 25.361599,20.7983612 26.0077972,19.3269682 C26.6767955,17.8035977 27.0160198,16.1807003 27.0160198,14.5033803 C27.0160198,12.8259943 26.6768285,11.2030638 26.0077972,9.67969339" id="Fill-9"></path>
                </g>
            </g>
        </g>
    </g>
</svg>