<?xml version="1.0" encoding="UTF-8"?>
<svg width="30px" height="30px" viewBox="0 0 30 30" version="1.1" xmlns="http://www.w3.org/2000/svg" xmlns:xlink="http://www.w3.org/1999/xlink">
    <!-- Generator: Sketch 58 (84663) - https://sketch.com -->
    
    <desc>Created with Sketch.</desc>
    <g id="页面-1" stroke="none" stroke-width="1" fill="none" fill-rule="evenodd">
        <g id="车辆-车辆详情-icon" transform="translate(-219.000000, -301.000000)" fill="#2466A7">
            <g id="编组-6" transform="translate(20.000000, 132.000000)">
                <g id="high_beam_nor" transform="translate(199.000000, 169.000000)">
                    <g id="编组-2" transform="translate(7.499985, 15.705254) rotate(7.000000) translate(-7.499985, -15.705254) translate(1.999985, 6.705254)">
                        <path d="M1.07496812,2.923072 L7.78433675,1.87631029 C8.03541618,1.84156487 8.25777871,1.71158524 8.41060966,1.51040397 C8.56299256,1.30971151 8.62783981,1.06205367 8.59313512,0.813010898 C8.52172983,0.299039411 8.04372575,-0.061001322 7.52726954,0.00861171258 L0.817982374,1.05549562 C0.566902944,1.09024104 0.344499685,1.22013921 0.191709461,1.42127974 C0.0393265693,1.62201293 -0.0255206812,1.86967078 0.00910253667,2.11871355 C0.0805892984,2.63272577 0.558348973,2.9927665 1.07496812,2.923072" id="Fill-1"></path>
                        <path d="M1.31183166,7.64217587 L7.3493062,6.62910051 C7.60038563,6.59439583 7.82278889,6.46449766 7.97553838,6.26335713 C8.12792127,6.06266467 8.19276852,5.81500682 8.15814531,5.56592332 C8.08678074,5.0526443 7.6101616,4.69297016 7.09423492,4.7611168 L1.05700478,5.77415143 C0.80596608,5.80897831 0.583522089,5.93891721 0.430731865,6.14013921 C0.278308239,6.34083167 0.213420256,6.58844878 0.248043474,6.83745082 C0.319448769,7.35064837 0.795945714,7.71068911 1.31183166,7.64217587" id="Fill-3"></path>
                        <path d="M1.55082148,12.3609009 L7.58821455,11.3478663 C7.83921252,11.3131209 8.06157504,11.1832227 8.21432453,10.9820414 C8.36670742,10.7813897 8.43155468,10.5336911 8.39693146,10.2846076 C8.32560763,9.77132862 7.84898848,9.41128788 7.33310254,9.47996405 L1.29595386,10.4928357 C1.0448337,10.5276219 0.822389706,10.6576015 0.669640215,10.8587828 C0.51721659,11.059516 0.452369339,11.3072553 0.486992557,11.5562981 C0.558397852,12.0693734 1.03469113,12.4292105 1.55082148,12.3609009" id="Fill-5"></path>
                        <path d="M3.14001089,17.0110516 L9.84946099,15.9641677 C10.1004997,15.9293816 10.3228622,15.7995241 10.4756524,15.5983429 C10.6280353,15.3976911 10.6928418,15.1499926 10.6581372,14.9009091 L10.6581372,14.9008276 C10.5866911,14.3870598 10.1091351,14.0274671 9.59227158,14.0965099 L2.88302514,15.1433938 C2.63198645,15.1781392 2.40958319,15.3080781 2.25679296,15.5092594 C2.10441007,15.7099518 2.03952209,15.9576911 2.07414531,16.2066932 C2.14563207,16.7206239 2.62326954,17.0807054 3.14001089,17.0110516" id="Fill-7"></path>
                    </g>
                    <path d="M22.9643992,20.1231976 C21.6735234,21.5170468 19.9233401,22.3694705 18.0362525,22.5235234 L17.252831,22.5874745 L15.4907128,7.62820774 L16.2673727,7.50828921 C16.6448065,7.45 17.030387,7.4204277 17.4134012,7.4204277 C21.5843585,7.4204277 24.9776782,10.8138289 24.9776782,14.9848676 C24.9776782,16.8965173 24.2626884,18.7213646 22.9643992,20.1231976 M24.4736864,7.92446029 C22.5878208,6.0385947 20.0804073,5.00002037 17.4134012,5.00002037 C16.1795927,5.00002037 14.9610591,5.2313442 13.791446,5.68759674 L13.7687169,5.69716904 C13.2736456,5.90221996 12.974053,6.42674134 13.0385336,6.97342159 L15.020611,23.8002648 C15.0868839,24.3624236 15.5258248,24.8154582 16.064277,24.8774134 L16.1092872,24.882831 C16.5513238,24.942057 16.9657026,24.9695927 17.4134012,24.9695927 C20.0804073,24.9695927 22.5878208,23.9310183 24.4736864,22.0451527 C26.3595519,20.1593279 27.3981263,17.6519145 27.3981263,14.9848676 C27.3981263,12.3177393 26.3595519,9.81032587 24.4736864,7.92446029" id="Fill-9" transform="translate(20.213987, 14.984807) rotate(5.000000) translate(-20.213987, -14.984807) "></path>
                </g>
            </g>
        </g>
    </g>
</svg>