<?xml version="1.0" encoding="UTF-8"?>
<svg width="70px" height="70px" viewBox="0 0 70 70" version="1.1" xmlns="http://www.w3.org/2000/svg" xmlns:xlink="http://www.w3.org/1999/xlink">
    <!-- Generator: Sketch 58 (84663) - https://sketch.com -->
    
    <desc>Created with Sketch.</desc>
    <g id="页面-1" stroke="none" stroke-width="1" fill="none" fill-rule="evenodd">
        <g id="车辆-车辆详情-icon" transform="translate(-1705.000000, -215.000000)" fill="#FFFFFF">
            <g id="编组-5" transform="translate(1580.000000, 122.000000)">
                <g id="stop" transform="translate(125.000000, 93.000000)">
                    <g id="编组" transform="translate(0.000000, 0.016946)" fill-opacity="0.5">
                        <path d="M34.8809404,7.41139903 C19.6728869,7.41139903 7.34317883,19.7411071 7.34317883,34.9491606 C7.34317883,50.157129 19.6728869,62.4864964 34.8809404,62.4864964 C50.0889939,62.4864964 62.4182762,50.157129 62.4182762,34.9491606 C62.4182762,19.7411071 50.0889939,7.41139903 34.8809404,7.41139903 M34.8809404,0.0682116788 C54.1443954,0.0682116788 69.7614635,15.6857908 69.7614635,34.9491606 C69.7614635,54.2125304 54.1443954,69.8296837 34.8809404,69.8296837 C15.6175706,69.8296837 -8.51581509e-06,54.2125304 -8.51581509e-06,34.9491606 C-8.51581509e-06,15.6857908 15.6175706,0.0682116788 34.8809404,0.0682116788" id="Fill-1"></path>
                    </g>
                    <rect id="矩形" x="26" y="22" width="7" height="28" rx="2"></rect>
                    <rect id="矩形" x="38" y="22" width="7" height="28" rx="2"></rect>
                </g>
            </g>
        </g>
    </g>
</svg>