<?xml version="1.0" encoding="UTF-8"?>
<svg width="30px" height="30px" viewBox="0 0 30 30" version="1.1" xmlns="http://www.w3.org/2000/svg" xmlns:xlink="http://www.w3.org/1999/xlink">
    <!-- Generator: Sketch 58 (84663) - https://sketch.com -->
    
    <desc>Created with Sketch.</desc>
    <g id="页面-1" stroke="none" stroke-width="1" fill="none" fill-rule="evenodd">
        <g id="车辆-车辆详情-icon" transform="translate(-327.000000, -301.000000)">
            <g id="编组-6" transform="translate(20.000000, 132.000000)">
                <g id="Rear_fog_lamp_nor" transform="translate(322.000000, 184.000000) scale(-1, 1) translate(-322.000000, -184.000000) translate(307.000000, 169.000000)">
                    <g id="编组-2" transform="translate(7.499985, 16.705254) rotate(-4.000000) translate(-7.499985, -16.705254) translate(1.999985, 7.705254)">
                        <path d="M1.07496812,2.923072 L7.78433675,1.87631029 C8.03541618,1.84156487 8.25777871,1.71158524 8.41060966,1.51040397 C8.56299256,1.30971151 8.62783981,1.06205367 8.59313512,0.813010898 C8.52172983,0.299039411 8.04372575,-0.061001322 7.52726954,0.00861171258 L0.817982374,1.05549562 C0.566902944,1.09024104 0.344499685,1.22013921 0.191709461,1.42127974 C0.0393265693,1.62201293 -0.0255206812,1.86967078 0.00910253667,2.11871355 C0.0805892984,2.63272577 0.558348973,2.9927665 1.07496812,2.923072" id="Fill-1" fill="#2466A7"></path>
                        <path d="M1.31183166,7.64217587 L7.3493062,6.62910051 C7.60038563,6.59439583 7.82278889,6.46449766 7.97553838,6.26335713 C8.12792127,6.06266467 8.19276852,5.81500682 8.15814531,5.56592332 C8.08678074,5.0526443 7.6101616,4.69297016 7.09423492,4.7611168 L1.05700478,5.77415143 C0.80596608,5.80897831 0.583522089,5.93891721 0.430731865,6.14013921 C0.278308239,6.34083167 0.213420256,6.58844878 0.248043474,6.83745082 C0.319448769,7.35064837 0.795945714,7.71068911 1.31183166,7.64217587" id="Fill-3" fill="#2466A7"></path>
                        <path d="M1.55082148,12.3609009 L7.58821455,11.3478663 C7.83921252,11.3131209 8.06157504,11.1832227 8.21432453,10.9820414 C8.36670742,10.7813897 8.43155468,10.5336911 8.39693146,10.2846076 C8.32560763,9.77132862 7.84898848,9.41128788 7.33310254,9.47996405 L1.29595386,10.4928357 C1.0448337,10.5276219 0.822389706,10.6576015 0.669640215,10.8587828 C0.51721659,11.059516 0.452369339,11.3072553 0.486992557,11.5562981 C0.558397852,12.0693734 1.03469113,12.4292105 1.55082148,12.3609009" id="Fill-5" fill="#2466A7"></path>
                        <path d="M3.14001089,17.0110516 L9.84946099,15.9641677 C10.1004997,15.9293816 10.3228622,15.7995241 10.4756524,15.5983429 C10.6280353,15.3976911 10.6928418,15.1499926 10.6581372,14.9009091 L10.6581372,14.9008276 C10.5866911,14.3870598 10.1091351,14.0274671 9.59227158,14.0965099 L2.88302514,15.1433938 C2.63198645,15.1781392 2.40958319,15.3080781 2.25679296,15.5092594 C2.10441007,15.7099518 2.03952209,15.9576911 2.07414531,16.2066932 C2.14563207,16.7206239 2.62326954,17.0807054 3.14001089,17.0110516" id="Fill-7" fill="#2466A7"></path>
                        <path d="M2.91411549,1.9457619 C3.16297902,3.16618912 3.55051678,4.00653333 4.07672875,4.46679452 C4.60294073,4.92705572 5.67969963,5.3674861 7.30700546,5.78808567 C6.88654452,6.83117393 6.45652189,7.65218397 6.01693757,8.25111581 C5.57735324,8.85004765 4.78318423,9.69699372 3.63443051,10.791954 C4.34274786,12.3261946 5.00906968,13.3075488 5.63339595,13.7360164 C6.25772223,14.1644841 7.41984346,14.4379685 9.11975964,14.5564697" id="路径-4" stroke="#2466A7" stroke-width="1.5" stroke-linecap="round" stroke-linejoin="round"></path>
                    </g>
                    <path d="M21.9643992,19.1231976 C20.6735234,20.5170468 18.9233401,21.3694705 17.0362525,21.5235234 L16.252831,21.5874745 L14.4907128,6.62820774 L15.2673727,6.50828921 C15.6448065,6.45 16.030387,6.4204277 16.4134012,6.4204277 C20.5843585,6.4204277 23.9776782,9.81382892 23.9776782,13.9848676 C23.9776782,15.8965173 23.2626884,17.7213646 21.9643992,19.1231976 M23.4736864,6.92446029 C21.5878208,5.0385947 19.0804073,4.00002037 16.4134012,4.00002037 C15.1795927,4.00002037 13.9610591,4.2313442 12.791446,4.68759674 L12.7687169,4.69716904 C12.2736456,4.90221996 11.974053,5.42674134 12.0385336,5.97342159 L14.020611,22.8002648 C14.0868839,23.3624236 14.5258248,23.8154582 15.064277,23.8774134 L15.1092872,23.882831 C15.5513238,23.942057 15.9657026,23.9695927 16.4134012,23.9695927 C19.0804073,23.9695927 21.5878208,22.9310183 23.4736864,21.0451527 C25.3595519,19.1593279 26.3981263,16.6519145 26.3981263,13.9848676 C26.3981263,11.3177393 25.3595519,8.81032587 23.4736864,6.92446029" id="Fill-9" fill="#2466A7" transform="translate(19.213987, 13.984807) rotate(-4.000000) translate(-19.213987, -13.984807) "></path>
                </g>
            </g>
        </g>
    </g>
</svg>