<?xml version="1.0" encoding="UTF-8"?>
<svg width="41px" height="40px" viewBox="0 0 41 40" version="1.1" xmlns="http://www.w3.org/2000/svg" xmlns:xlink="http://www.w3.org/1999/xlink">
    <!-- Generator: Sketch 58 (84663) - https://sketch.com -->
    
    <desc>Created with Sketch.</desc>
    <g id="规范" stroke="none" stroke-width="1" fill="none" fill-rule="evenodd">
        <g transform="translate(-159.000000, -4281.000000)" fill="#FFCD82" id="03">
            <g transform="translate(40.000000, 3223.000000)">
                <g id="编组-6" transform="translate(49.000000, 890.000000)">
                    <g id="turn_right_sel" transform="translate(71.000000, 168.000000)">
                        <path d="M35.1288572,18.9029616 C35.0870819,18.8611863 35.0432267,18.8226793 34.9977077,18.7869058 L26.0652806,9.85447874 C25.7859863,9.53572665 25.3765526,9.33332282 24.922016,9.33332282 L24.9185694,9.33332282 C24.5285675,9.3323766 24.1386251,9.47980836 23.8428702,9.77550381 C23.5471747,10.071021 23.3999807,10.4612011 23.4009315,10.8509653 L23.4006938,10.854709 L23.4006938,13.8971751 L20.6070968,13.8971751 L9.70921003,13.8971751 L8.21231123,13.8971751 C7.35868078,13.8971751 6.66668449,14.5891714 6.66668449,15.4428019 L6.66668449,16.9396412 L6.66668449,23.0245734 L6.66668449,24.5215911 C6.66668449,25.3752215 7.35868078,26.0672178 8.21231123,26.0672178 L9.70463435,26.0672178 C9.70617939,26.0672178 9.707665,26.0673367 9.70921003,26.0673367 L23.4006938,26.0673367 L23.4006938,29.1098028 L23.4009315,29.1132494 C23.399743,29.5030136 23.5471747,29.8931937 23.8428702,30.1889486 C24.1386251,30.4847034 24.5285675,30.6318381 24.9185694,30.6308919 L24.922016,30.6308919 C25.3765526,30.6308919 25.7859863,30.4287257 26.0652806,30.1100331 L34.9977077,21.1775465 C35.0436427,21.1413571 35.0873196,21.1026124 35.1288572,21.0612531 C35.4252657,20.7646069 35.5726975,20.3730006 35.5706394,19.9821073 C35.5726975,19.5912141 35.4255034,19.1996078 35.1288572,18.9029616" id="Fill-1"></path>
                    </g>
                </g>
            </g>
        </g>
    </g>
</svg>