<?xml version="1.0" encoding="UTF-8"?>
<svg width="19px" height="16px" viewBox="0 0 19 16" version="1.1" xmlns="http://www.w3.org/2000/svg" xmlns:xlink="http://www.w3.org/1999/xlink">
    <title>路段设置</title>
    <defs>
        <filter color-interpolation-filters="auto" id="filter-1">
            <feColorMatrix in="SourceGraphic" type="matrix" values="0 0 0 0 1.000000 0 0 0 0 1.000000 0 0 0 0 1.000000 0 0 0 1.000000 0"></feColorMatrix>
        </filter>
    </defs>
    <g id="页面" stroke="none" stroke-width="1" fill="none" fill-rule="evenodd">
        <g id="1-5-默认路口样式-深色系" transform="translate(-1484.000000, -184.000000)">
            <g id="编组-12" transform="translate(1464.000000, 164.000000)">
                <g id="路段设置" transform="translate(20.000000, 16.000000)" filter="url(#filter-1)">
                    <g transform="translate(0.000000, 4.015677)">
                        <path d="M17.3634217,0 C17.7630587,0 18.0869565,0.340457048 18.0869565,0.760525376 L18.0869565,14.543971 C18.0869565,14.9638908 17.7630587,15.3043478 17.3634217,15.3043478 L0.723534783,15.3043478 C0.323897826,15.3043478 0,14.9638908 0,14.543971 L0,0.760525376 C0,0.340457048 0.323897826,0 0.723534783,0 L17.3634217,0 Z M1.62788261,13.5371948 L16.3889342,13.5371948 L16.3889342,1.71110783 L1.62788261,1.71110783 L1.62788261,13.5371948 Z" id="Fill-1" fill="#4653A2"></path>
                        <polygon id="Fill-3" fill="#4653A2" points="8.38788347 11.6783644 9.75994262 11.6783644 9.75994262 4.24916553 8.38788347 4.24916553"></polygon>
                        <path d="M7.63025822,4.6878987 C7.63025822,5.20370095 7.90542927,5.68019621 8.3521077,5.93804216 C8.79867579,6.19599846 9.34897374,6.19599846 9.7956301,5.93804216 C10.2422865,5.68019621 10.5173913,5.20370095 10.5173913,4.6878987 C10.5173913,4.17218473 10.2422865,3.69560119 9.7956301,3.43773317 C9.34897374,3.17988722 8.79867579,3.17988722 8.3521077,3.43773317 C7.90542927,3.69560119 7.63025822,4.17218473 7.63025822,4.6878987 Z" id="Fill-4" fill="#4653A2"></path>
                        <polygon id="Fill-5" fill="#4653A2" points="12.5520636 11.6783644 13.9241227 11.6783644 13.9241227 4.24916553 12.5520636 4.24916553"></polygon>
                        <path d="M11.7942618,10.8508208 C11.7942618,11.3665348 12.0694549,11.8431183 12.5161112,12.1009863 C12.9627014,12.3588323 13.5129773,12.3588323 13.9596557,12.1009863 C14.4063121,11.8431183 14.6814169,11.3665348 14.6814169,10.8508208 C14.6814169,10.3351068 14.4063121,9.85852329 13.9596557,9.60067734 C13.5129773,9.34280932 12.9627014,9.34280932 12.5161112,9.60067734 C12.0694549,9.85852329 11.7942618,10.3351068 11.7942618,10.8508208 Z" id="Fill-6" fill="#4653A2"></path>
                        <polygon id="Fill-7" fill="#4653A2" points="4.42670492 11.6783644 5.79876407 11.6783644 5.79876407 4.24916553 4.42670492 4.24916553"></polygon>
                        <path d="M3.66934452,7.9638422 C3.66934452,8.76112757 4.31558155,9.40738667 5.11286692,9.40738667 C5.91015228,9.40738667 6.55638932,8.76112757 6.55638932,7.9638422 C6.55638932,7.16655683 5.91015228,6.52023152 5.11286692,6.52023152 C4.31558155,6.52023152 3.66934452,7.16655683 3.66934452,7.9638422 Z" id="Fill-8" fill="#4653A2"></path>
                    </g>
                </g>
            </g>
        </g>
    </g>
</svg>